<svg aria-hidden="true" style="position: absolute; width: 0; height: 0; overflow: hidden;" version="1.1" xmlns="http://www.w3.org/2000/svg" xmlns:xlink="http://www.w3.org/1999/xlink">
<defs>
<symbol id="icon-shipin" viewBox="0 0 32 32">
<title>shipin</title>
<path d="M5.597 13.029c0.287 0 0.567-0.116 0.77-0.319s0.319-0.483 0.319-0.77c0-0.286-0.116-0.567-0.319-0.77s-0.483-0.319-0.77-0.319c-0.287 0-0.567 0.116-0.77 0.319s-0.319 0.483-0.319 0.77c0 0.287 0.116 0.567 0.319 0.77s0.483 0.319 0.77 0.319zM30.239 8.617c-0.34-0.213-0.729-0.321-1.156-0.321-0.422 0-0.855 0.106-1.287 0.314l-5.933 2.866v-1.009c0-1.892-1.539-3.431-3.431-3.431h-14.309c-1.892 0-3.431 1.539-3.431 3.431v12.393c0 1.892 1.539 3.431 3.431 3.431h14.309c1.892 0 3.43-1.539 3.43-3.431v-1.004l5.935 2.892c0.434 0.211 0.869 0.319 1.294 0.319s0.811-0.107 1.148-0.318c0.679-0.425 1.068-1.226 1.068-2.196v-11.738c-0-0.97-0.389-1.77-1.069-2.197zM29.725 10.814v11.738c0 0.407-0.121 0.726-0.324 0.853-0.084 0.052-0.189 0.078-0.312 0.078-0.177 0-0.383-0.055-0.598-0.159l-6.628-3.23v-6.862l6.621-3.197c0.214-0.103 0.421-0.158 0.597-0.158 0.125 0 0.232 0.027 0.316 0.080 0.208 0.13 0.328 0.443 0.328 0.857zM2.275 10.467c0-1.019 0.829-1.848 1.848-1.848h14.309c1.019 0 1.848 0.829 1.848 1.848v12.393c0 1.019-0.829 1.848-1.848 1.848h-14.309c-1.019 0-1.848-0.829-1.848-1.848v-12.393z"></path>
</symbol>
<symbol id="icon-shibai" viewBox="0 0 32 32">
<title>shibai</title>
<path d="M15.875 30.975c-8.2 0-14.85-6.65-14.85-14.85s6.65-14.85 14.85-14.85 14.85 6.65 14.85 14.85-6.65 14.85-14.85 14.85zM15.875 4.25c-6.55 0-11.875 5.325-11.875 11.875s5.325 11.875 11.875 11.875 11.875-5.325 11.875-11.875c0-6.55-5.325-11.875-11.875-11.875zM21.125 21.375c-0.575 0.575-1.525 0.575-2.1 0l-3.15-3.15-3.15 3.15c-0.575 0.575-1.525 0.575-2.1 0s-0.575-1.525 0-2.1l3.15-3.15-3.15-3.15c-0.575-0.575-0.575-1.525 0-2.1s1.525-0.575 2.1 0l3.15 3.15 3.15-3.15c0.575-0.575 1.525-0.575 2.1 0s0.575 1.525 0 2.1l-3.15 3.15 3.15 3.15c0.575 0.575 0.575 1.525 0 2.1z"></path>
</symbol>
<symbol id="icon-zhengchang" viewBox="0 0 32 32">
<title>zhengchang</title>
<path d="M16 30.875c-8.225 0-14.875-6.65-14.875-14.875s6.65-14.875 14.875-14.875c8.225 0 14.875 6.65 14.875 14.875s-6.65 14.875-14.875 14.875zM16 4.1c-6.575 0-11.9 5.325-11.9 11.9s5.325 11.9 11.9 11.9c6.575 0 11.9-5.325 11.9-11.9s-5.325-11.9-11.9-11.9zM24.25 13.425l-8.825 8.825c-0.575 0.575-1.525 0.575-2.125 0l-5.3-5.3c-0.575-0.575-0.575-1.525 0-2.125 0.575-0.575 1.525-0.575 2.125 0l4.25 4.25 7.775-7.775c0.575-0.575 1.525-0.575 2.125 0 0.575 0.575 0.575 1.525-0.025 2.125z"></path>
</symbol>
<symbol id="icon-kongbai" viewBox="0 0 32 32">
<title>kongbai</title>
<path d="M18 4h-4c-0.56 0-1 0.44-1 1s0.44 1 1 1h4c0.56 0 1-0.44 1-1s-0.44-1-1-1zM10 4h-2.8c-1.76 0-3.2 1.44-3.2 3.2v2.8c0 0.56 0.44 1 1 1s1-0.44 1-1v-2.8c0-0.66 0.54-1.2 1.2-1.2h2.8c0.56 0 1-0.44 1-1s-0.44-1-1-1zM5 19c0.56 0 1-0.44 1-1v-4c0-0.56-0.44-1-1-1s-1 0.44-1 1v4c0 0.56 0.44 1 1 1zM10 26h-2.8c-0.66 0-1.2-0.54-1.2-1.2v-2.8c0-0.56-0.44-1-1-1s-1 0.44-1 1v2.8c0 1.76 1.44 3.2 3.2 3.2h2.8c0.56 0 1-0.44 1-1s-0.44-1-1-1zM18 26h-4c-0.56 0-1 0.44-1 1s0.44 1 1 1h4c0.56 0 1-0.44 1-1s-0.44-1-1-1zM27 21c-0.56 0-1 0.44-1 1v2.8c0 0.66-0.54 1.2-1.2 1.2h-2.8c-0.56 0-1 0.44-1 1s0.44 1 1 1h2.8c1.76 0 3.2-1.44 3.2-3.2v-2.8c0-0.56-0.44-1-1-1zM27 13c-0.56 0-1 0.44-1 1v4c0 0.56 0.44 1 1 1s1-0.44 1-1v-4c0-0.56-0.44-1-1-1zM24.8 4h-2.8c-0.56 0-1 0.44-1 1s0.44 1 1 1h2.8c0.66 0 1.2 0.54 1.2 1.2v2.8c0 0.56 0.44 1 1 1s1-0.44 1-1v-2.8c0-1.76-1.44-3.2-3.2-3.2z"></path>
</symbol>
<symbol id="icon-tupian1" viewBox="0 0 38 32">
<title>tupian1</title>
<path d="M30.008 3.64h-23.071c-1.813 0-3.296 1.483-3.296 3.296v18.127c0 1.813 1.483 3.296 3.296 3.296h23.071c1.813 0 3.296-1.483 3.296-3.296v-18.127c0-1.813-1.483-3.296-3.296-3.296zM31.656 25.064c0 0.906-0.742 1.648-1.648 1.648h-23.071c-0.906 0-1.648-0.742-1.648-1.648v-0.659c0-0.906 0.659-2.060 1.401-2.554l5.685-3.625c0.742-0.494 1.978-0.494 2.719 0.082l1.566 1.154c0.742 0.494 1.978 0.494 2.719 0l4.532-5.521c0.742-0.494 1.978-0.494 2.719 0l3.625 2.554c0.742 0.494 1.318 1.73 1.318 2.637v5.933zM31.656 15.506c-0.165-0.082-0.247-0.247-0.412-0.33l-3.625-2.554c-1.318-0.906-3.296-0.906-4.614 0l-4.532 5.438c-0.165 0.165-0.659 0.165-0.824 0l-1.566-1.154c-1.318-0.906-3.213-0.989-4.532-0.082l-5.685 3.625c-0.165 0.082-0.33 0.247-0.494 0.412v-13.925c0-0.906 0.742-1.648 1.648-1.648h23.071c0.906 0 1.648 0.742 1.648 1.648v8.569zM10.232 8.584c-1.813 0-3.296 1.483-3.296 3.296s1.483 3.296 3.296 3.296 3.296-1.483 3.296-3.296c0-1.813-1.483-3.296-3.296-3.296zM10.232 13.528c-0.906 0-1.648-0.742-1.648-1.648s0.742-1.648 1.648-1.648 1.648 0.742 1.648 1.648-0.742 1.648-1.648 1.648z"></path>
</symbol>
<symbol id="icon-youhuiquan1" viewBox="0 0 32 32">
<title>youhuiquan1</title>
<path d="M7.037 25.025h17.928c1.022 0 1.856-0.831 1.856-1.856v-3.584c0-0.666-0.156-0.894-0.622-1.244l-0.006-0.006c-1.316-0.678-1.759-1.266-1.759-2.334s0.413-1.613 1.759-2.334h0.003l0.003-0.003c0.597-0.397 0.625-0.7 0.625-1.247v-3.588c0-1.022-0.831-1.856-1.856-1.856h-17.931c-1.022 0-1.856 0.831-1.856 1.856v3.584c0 0.55 0.044 0.934 0.631 1.25l0.003 0.003c0.528 0.247 1.756 0.966 1.756 2.334 0 1.569-0.978 2.081-1.716 2.328l-0.013 0.006c-0.597 0.375-0.662 1-0.662 1.25v3.584c0 1.025 0.831 1.856 1.856 1.856zM6.5 22.572v-3.163c1.431-0.528 2.391-1.894 2.391-3.409s-0.959-2.881-2.391-3.409v-3.162c0-0.625 0.509-1.131 1.131-1.131h16.731c0.625 0 1.131 0.509 1.131 1.131v3.162c-1.431 0.528-2.391 1.894-2.391 3.409s0.959 2.881 2.391 3.409v3.163c0 0.625-0.509 1.131-1.131 1.131h-16.728c-0.625 0.003-1.134-0.506-1.134-1.131zM15.7 20.844h0.597c0.2 0 0.363-0.163 0.363-0.363v-2.028h2.628c0.2 0 0.363-0.163 0.363-0.363v-0.597c0-0.2-0.163-0.363-0.363-0.363h-2.628v-1.069h2.628c0.2 0 0.363-0.162 0.363-0.363v-0.597c0-0.2-0.163-0.363-0.363-0.363h-2.113l2.35-2.525c0.128-0.137 0.128-0.366 0-0.503l-0.384-0.419c-0.063-0.069-0.147-0.106-0.238-0.106s-0.175 0.037-0.238 0.106l-2.669 2.869-2.672-2.869c-0.063-0.069-0.147-0.106-0.238-0.106s-0.175 0.037-0.238 0.106l-0.381 0.416c-0.125 0.137-0.125 0.363 0 0.5l2.359 2.534h-2.119c-0.2 0-0.363 0.162-0.363 0.363v0.597c0 0.2 0.162 0.363 0.363 0.363h2.625v1.069h-2.625c-0.2 0-0.363 0.163-0.363 0.363v0.597c0 0.2 0.162 0.363 0.363 0.363h2.625v2.028c0.006 0.197 0.169 0.359 0.366 0.359z"></path>
</symbol>
<symbol id="icon-youhuiquan2" viewBox="0 0 32 32">
<title>youhuiquan2</title>
<path d="M30.1 13.076c0.391-0.001 0.71-0.306 0.711-0.681v-5.539c0-0.628-0.275-1.249-0.754-1.705-0.462-0.445-1.092-0.719-1.786-0.719-0.001 0-0.002 0-0.003 0h-23.618c-0.67 0-1.308 0.255-1.797 0.718l-0.047 0.049c-0.451 0.457-0.698 1.046-0.698 1.657v5.539c0.001 0.375 0.32 0.68 0.713 0.68 0.91 0 1.766 0.336 2.41 0.946 0.636 0.605 0.999 1.443 0.997 2.3 0.002 0.856-0.36 1.695-0.996 2.298-0.645 0.612-1.501 0.949-2.41 0.949-0.393 0-0.712 0.305-0.713 0.681v4.902c0 0.639 0.263 1.244 0.746 1.708l0.010 0.008c0.463 0.439 1.090 0.71 1.781 0.71 0.002 0 0.005 0 0.007 0h2.492c0.393 0 0.711-0.305 0.711-0.68-0.001-0.375-0.32-0.679-0.711-0.679h-2.496c-0.294 0-0.58-0.112-0.787-0.311-0.202-0.189-0.328-0.457-0.329-0.755v-4.271l0.167-0.029c0.984-0.174 1.842-0.622 2.519-1.259l-0.002 0.002 0.016-0.018c0.916-0.87 1.42-2.025 1.42-3.255 0-1.228-0.503-2.382-1.415-3.25l-0.029-0.029c-0.688-0.65-1.556-1.082-2.508-1.25l-0.167-0.030v-4.908c0-0.257 0.103-0.509 0.285-0.707l0.052-0.048c0.204-0.192 0.479-0.311 0.782-0.311h23.617c0.289 0 0.566 0.113 0.782 0.32s0.336 0.472 0.336 0.747v4.908l-0.167 0.030c-0.984 0.176-1.842 0.623-2.52 1.26l0.003-0.002-0.015 0.017c-0.914 0.872-1.416 2.027-1.416 3.255s0.502 2.382 1.412 3.25l0.027 0.028c0.689 0.651 1.557 1.082 2.509 1.251l0.167 0.029v4.271c0 0.276-0.121 0.549-0.331 0.75-0.219 0.203-0.498 0.316-0.786 0.316h-16.777c-0.391 0-0.709 0.304-0.711 0.679 0 0.374 0.319 0.679 0.711 0.68h16.776c0.67 0 1.307-0.255 1.792-0.714 0.476-0.454 0.751-1.077 0.751-1.71v-4.902c-0.001-0.375-0.319-0.68-0.721-0.681-0.906 0-1.759-0.336-2.401-0.947-0.643-0.614-0.997-1.432-0.997-2.3-0.003-0.856 0.36-1.694 0.996-2.299 0.64-0.611 1.494-0.947 2.411-0.947zM12.108 17.791c-0.417 0-0.757 0.322-0.757 0.717 0.001 0.397 0.34 0.72 0.757 0.72h3.599v2.403c0 0.397 0.338 0.719 0.753 0.719s0.755-0.322 0.756-0.719v-2.403h3.598c0.415-0.001 0.754-0.323 0.754-0.72-0.001-0.396-0.338-0.717-0.752-0.717h-3.6v-2.299h3.6c0.414-0.001 0.752-0.324 0.752-0.721-0.001-0.395-0.338-0.717-0.752-0.717h-3.639l4.129-3.14c0.146-0.118 0.243-0.291 0.258-0.487l0-0.002c0.001-0.017 0.002-0.036 0.002-0.055 0-0.179-0.070-0.343-0.183-0.464l0 0c-0.14-0.153-0.341-0.249-0.564-0.249-0.002 0-0.003 0-0.005 0h0c-0.181 0-0.353 0.062-0.491 0.174l-3.862 2.918-3.86-2.918c-0.133-0.109-0.304-0.175-0.491-0.175-0 0-0.001 0-0.001 0h0c-0.219 0-0.427 0.091-0.571 0.249-0.113 0.123-0.182 0.287-0.182 0.468 0 0.018 0.001 0.036 0.002 0.054l-0-0.002c0.017 0.198 0.113 0.371 0.257 0.488l0.001 0.001 4.13 3.14h-3.637c-0.417 0-0.757 0.322-0.757 0.718s0.34 0.72 0.757 0.72h3.599v2.3l-3.599 0z"></path>
</symbol>
<symbol id="icon-tupianlunbo" viewBox="0 0 32 32">
<title>tupianlunbo</title>
<path d="M25.817 1.077h-19.636c-2.76 0.005-4.996 2.242-4.999 5.003v6.996c-0.010 0.020-0.021 0.037-0.030 0.057-0.037 0.082-0.058 0.178-0.058 0.279 0 0.125 0.033 0.242 0.090 0.343l-0.002-0.004v3.857c0.001 2.761 2.238 5 4.998 5.004h19.636c2.761-0.004 4.998-2.243 4.999-5.004v-11.53c-0.002-2.76-2.239-4.997-4.998-5.001h-0zM6.181 2.506h19.636c1.972 0.004 3.568 1.602 3.57 3.574v11.414c-1.323-1.616-3.319-2.64-5.553-2.64-0.003 0-0.006 0-0.009 0h0c-0.010-0-0.022-0-0.034-0-2.333 0-4.423 1.037-5.835 2.676l-0.008 0.010c-0.277-4.834-4.286-8.684-9.187-8.684-2.853 0-4.779 0.634-6.15 2.066v-4.841c0.002-1.972 1.599-3.569 3.57-3.574h0zM2.613 17.61v-4.19c1.123-2.267 2.823-3.136 6.15-3.136 4.298 0.005 7.781 3.488 7.786 7.785v0c0 1.076-0.071 2.177-0.421 3.116h-9.946c-1.971-0.005-3.568-1.604-3.569-3.576v-0zM25.817 21.186h-8.021c0.399-2.719 2.983-4.901 6.030-4.901 2.15 0 4.081 1.171 5.093 3.060-0.615 1.102-1.772 1.837-3.101 1.841h-0.001zM26.020 5.72c0 0 0 0 0 0 0 0.624 0.506 1.13 1.13 1.13s1.13-0.506 1.13-1.13c0-0 0-0 0-0v0c0-0 0-0 0-0 0-0.624-0.506-1.13-1.13-1.13s-1.13 0.506-1.13 1.13c0 0 0 0 0 0v0zM4.817 30.399h4.451v-4.256h-4.451v4.256zM6.246 27.571h1.594v1.399h-1.594v-1.399zM13.389 30.399h4.451v-4.256h-4.451v4.256zM14.817 27.571h1.594v1.399h-1.594v-1.399zM21.96 30.399h4.451v-4.256h-4.451v4.256zM23.389 27.571h1.594v1.399h-1.594v-1.399z"></path>
</symbol>
<symbol id="icon-fengexian1" viewBox="0 0 32 32">
<title>fengexian1</title>
<path d="M27.968 14v1.36h-23.936v-1.36h-4v4h4v-1.36h23.936v1.36h4v-4z"></path>
</symbol>
<symbol id="icon-newbilayout" viewBox="0 0 32 32">
<title>newbilayout</title>
<path d="M15.26 1.938h-13.323v28.125h28.125v-28.125h-14.802zM15.26 28.583h-11.843v-25.166h11.843v25.166zM28.583 28.583h-11.843v-11.843h11.843v11.843zM28.583 15.26h-11.843v-11.843h11.843v11.843z"></path>
</symbol>
<symbol id="icon-shipin7" viewBox="0 0 32 32">
<title>shipin7</title>
<path d="M13.949 11.464c-0.704-0.373-1.616 0.104-1.616 0.911v7.933c0 0.808 0.87 1.346 1.616 0.911l6.856-3.935c0.704-0.435 0.704-1.45 0-1.885l-6.856-3.935zM29.049 14.529c-0.642-6.317-5.82-11.371-12.138-11.868-8.202-0.642-14.996 6.193-14.333 14.395 0.539 6.359 5.551 11.475 11.91 12.138 3.666 0.373 7.001-0.746 9.59-2.796 0.373-0.331 0.435-0.87 0.062-1.243-0.269-0.269-0.746-0.331-1.077-0.062-2.216 1.781-5.075 2.755-8.078 2.527-5.613-0.352-10.253-4.826-10.791-10.439-0.704-7.436 5.489-13.629 12.883-12.821 5.385 0.539 9.818 4.909 10.398 10.294 0.269 2.92-0.476 5.613-1.947 7.809-0.207 0.331-0.166 0.746 0.104 1.015 0.373 0.331 0.974 0.269 1.243-0.104 1.698-2.527 2.548-5.551 2.175-8.844zM29.049 14.529"></path>
</symbol>
<symbol id="icon-youhuiquan3" viewBox="0 0 32 32">
<title>youhuiquan3</title>
<path d="M10.84 20.449h-1.295v-3.667h1.51v3.667M9.546 11.386h1.51v3.668h-1.51v-3.668zM22.709 16.565h-2.805v0.431c0 0.216 0.216 0.216 0.431 0.216h2.374c0.216 0 0.431 0.216 0.431 0.431v0.647c0 0.216-0.216 0.432-0.431 0.432h-2.374c-0.216 0-0.216 0.216-0.216 0.431v1.727c0 0.216 0 0.216-0.216 0.216h-0.863c-0.216 0-0.432-0.216-0.432-0.432v-1.727h-2.589c-0.216 0-0.431-0.216-0.431-0.431v-0.863s0.216-0.216 0.216 0h2.589v-0.863s0-0.216-0.431-0.216h-2.374v-1.296c0.216 0 0.216-0.216 0.431-0.216h1.511c0.216 0 0.216 0 0.216-0.216 0 0 0-0.216-0.216-0.648-0.431 0-0.863-0.648-1.079-0.863-0.432-0.431-0.648-0.863-1.079-1.295-0.216-0.431-0.216-0.648 0-0.648s0.216-0.216 0.431-0.216 0.216-0.216 0.432-0.216c0.216-0.216 0.431 0 0.648 0.431l0.431 0.432c0.216 0.216 0.432 0.432 0.648 0.863 0.216 0 0.431 0.216 0.647 0.432s0.216 0.431 0.216 0.431 0.216 0.216 0.216 0.216h0.431s0.216-0.216 0.216-0.431c0.216-0.216 0.431-0.431 0.648-0.863s0.431-0.648 0.648-0.863c0.216-0.216 0.216-0.431 0.432-0.431 0.216-0.216 0.216-0.216 0.216-0.432h0.431c0.216 0 0.216 0.216 0.431 0.216s0.216 0.216 0.216 0.216c0.216 0.216 0.431 0.431 0.216 0.647 0 0-0.216 0.216-0.431 0.648-0.216 0.216-0.431 0.648-0.647 0.863-0.216 0.431-0.431 0.863-0.648 1.079s-0.216 0.432-0.432 0.432v0.216h1.942c0.216 0 0.216 0 0.216 0.216l0.216 0.216v0.863c-0.003 0.216-0.219 0.216-0.434 0.216zM29.829 11.17v-4.316h-18.772v2.158h-1.51v-2.158h-6.906v4.1c1.726 1.078 3.021 2.805 3.021 4.963s-1.295 3.884-3.021 4.963v4.1h6.905v-2.159h1.51v2.159h18.989v-4.316c-1.942-1.079-3.236-2.59-3.236-4.747 0-2.159 1.295-3.669 3.021-4.748zM31.34 19.37v4.747c0 1.294-1.080 2.374-2.374 2.374h-25.462c-1.295 0-2.374-1.080-2.374-2.374v-4.747c0.863-0.216 1.726-0.648 2.374-1.511 0.216-0.431 0.647-1.294 0.647-1.942s-0.216-1.295-0.647-1.942c-0.648-0.648-1.51-1.295-2.374-1.51v-4.747c0-1.295 1.079-2.374 2.374-2.374h25.462c1.294 0 2.374 1.079 2.374 2.374v4.747c-0.863 0.216-1.727 0.863-2.158 1.51-0.216 0.431-0.648 1.078-0.648 1.726s0.431 1.295 0.648 1.727c0.431 1.079 1.295 1.726 2.158 1.942zM31.34 19.37"></path>
</symbol>
<symbol id="icon-youhuiquan4" viewBox="0 0 38 32">
<title>youhuiquan4</title>
<path d="M36.599 11.761c1.009-0.672 1.037-1.187 1.037-2.083v-6.249c0-1.726-1.393-3.124-3.111-3.124h-31.11c-1.718 0-3.111 1.399-3.111 3.124v6.249c0 0.934 0.065 1.556 1.037 2.083 1.416 0.663 3.111 2.001 3.111 4.166 0 2.809-1.758 3.723-3.050 4.162-0.908 0.571-1.098 1.513-1.098 2.088v6.249c0 1.726 1.393 3.125 3.111 3.125h31.11c1.718 0 3.111-1.399 3.111-3.125v-6.249c0-1.137-0.26-1.498-1.037-2.083-2.265-1.173-3.111-2.217-3.111-4.166s0.792-2.919 3.111-4.166zM35.562 21.794v5.59c0 1.15-0.928 2.083-2.074 2.083h-29.036c-1.145 0-2.074-0.933-2.074-2.083v-5.59c2.411-0.861 4.148-3.149 4.148-5.866s-1.737-5.006-4.148-5.866v-5.59c0-1.15 0.929-2.083 2.074-2.083h29.036c1.145 0 2.074 0.933 2.074 2.083v5.59c-2.411 0.861-4.148 3.149-4.148 5.867s1.737 5.005 4.148 5.866zM24.674 13.844h-3.915l4.25-4.585c0.184-0.202 0.184-0.529 0-0.731l-0.665-0.731c-0.081-0.093-0.2-0.151-0.332-0.151s-0.251 0.058-0.332 0.151l-0 0-4.713 5.085-4.715-5.087c-0.081-0.092-0.199-0.15-0.33-0.15s-0.249 0.058-0.33 0.15l-0 0-0.66 0.725c-0.182 0.2-0.182 0.524 0 0.725l4.262 4.599h-3.926c-0.286 0-0.518 0.233-0.518 0.521v1.042c0 0.287 0.232 0.521 0.518 0.521h4.666v2.083h-4.666c-0.286 0-0.518 0.233-0.518 0.521v1.041c0 0.288 0.232 0.521 0.518 0.521h4.666v3.645c0 0.287 0.232 0.521 0.518 0.521h1.037c0.286 0 0.518-0.233 0.518-0.521v-3.645h4.666c0.286 0 0.518-0.233 0.518-0.521v-1.041c0-0.288-0.232-0.521-0.518-0.521h-4.666v-2.083h4.666c0.286 0 0.518-0.233 0.518-0.521v-1.042c0-0.288-0.232-0.521-0.518-0.521z"></path>
</symbol>
<symbol id="icon-shangpin5" viewBox="0 0 32 32">
<title>shangpin5</title>
<path d="M26.409 8.044h-2.806c-1.209-3.728-4.116-6.037-7.619-6.037-3.506 0-6.409 2.309-7.622 6.037h-2.803c-1.575 0-2.859 1.306-2.859 2.916v16.134c0 1.606 1.281 2.916 2.859 2.916h20.853c1.512 0 2.741-1.206 2.841-2.725 0.003-0.034 0.019-0.063 0.019-0.097v-16.225c-0.003-1.609-1.284-2.919-2.863-2.919M15.984 4.116c2.475 0 4.472 1.425 5.525 3.928h-11.050c1.053-2.5 3.047-3.928 5.525-3.928M26.275 28.103h-20.581c-0.619 0-1.122-0.516-1.122-1.15v-15.853c0-0.634 0.503-1.15 1.122-1.15h2.225c-0.1 0.653-0.15 1.303-0.15 1.941 0 0.503 0.034 1.012 0.1 1.553-0.525 0.344-0.847 0.928-0.847 1.566 0 1.031 0.822 1.869 1.834 1.869 1.009 0 1.834-0.837 1.834-1.869 0-0.634-0.322-1.222-0.847-1.566-0.084-0.547-0.122-1.059-0.122-1.553 0-0.65 0.059-1.3 0.178-1.941h12.175c0.119 0.637 0.178 1.287 0.178 1.941 0 0.503-0.041 1.019-0.125 1.572-0.509 0.347-0.819 0.928-0.819 1.547 0 1.031 0.822 1.869 1.831 1.869 1.012 0 1.834-0.837 1.834-1.869 0-0.65-0.328-1.241-0.869-1.581 0.063-0.528 0.094-1.034 0.094-1.537 0-0.641-0.050-1.291-0.15-1.941h2.225c0.619 0 1.119 0.516 1.119 1.15v15.856c-0.003 0.634-0.503 1.147-1.119 1.147"></path>
</symbol>
<symbol id="icon-bianji" viewBox="0 0 32 32">
<title>bianji</title>
<path d="M26.82 7.28l-4.14-4.16c-1.52-1.52-4-1.52-5.54 0l-14.4 14.42c-0.48 0.5-0.74 1.14-0.74 1.8v6.62c0 1.32 0.68 2 2 2l6.68-0.040c0.68 0 1.32-0.28 1.78-0.74l14.36-14.4c1.54-1.5 1.54-3.98 0-5.5zM10.42 25.94l-6.42 0.040v-6.38c0-0.12 0.040-0.24 0.060-0.36 0.040 0.14 0.12 0.26 0.22 0.38l6.040 6.040c0.12 0.12 0.24 0.18 0.38 0.22-0.1 0.020-0.18 0.060-0.28 0.060zM11.94 24.96c0-0.24-0.1-0.46-0.28-0.64l-6.040-6.040c-0.158-0.149-0.366-0.245-0.597-0.26l-0.003-0 9.76-9.76 6.92 6.92-9.76 9.78zM25.44 11.42l-2.26 2.28-6.92-6.92 2.28-2.28c0.76-0.76 2-0.76 2.76 0l4.14 4.16c0.76 0.76 0.76 2 0 2.76z"></path>
</symbol>
<symbol id="icon-add" viewBox="0 0 32 32">
<title>add</title>
<path d="M29.716 18.286h-11.429v11.429c0 1.263-1.023 2.286-2.286 2.286s-2.286-1.023-2.286-2.286v0-11.429h-11.429c-1.263 0-2.286-1.023-2.286-2.286s1.023-2.286 2.286-2.286v0h11.429v-11.429c0-1.263 1.023-2.286 2.286-2.286s2.286 1.023 2.286 2.286v0 11.429h11.429c1.263 0 2.286 1.023 2.286 2.286s-1.023 2.286-2.286 2.286v0z"></path>
</symbol>
<symbol id="icon-account" viewBox="0 0 32 32">
<title>account</title>
<path d="M29.501 28.763c-1.805-4.954-5.388-8.553-9.642-9.934 0.898-0.451 1.668-1.011 2.332-1.677l0-0c1.667-1.667 2.585-3.883 2.585-6.241s-0.918-4.574-2.585-6.241-3.883-2.585-6.241-2.585-4.574 0.918-6.241 2.585-2.585 3.883-2.585 6.241c-0 0.007-0 0.015-0 0.023 0 2.43 0.988 4.629 2.585 6.217l0 0c0.665 0.667 1.436 1.228 2.285 1.656l0.051 0.023c-4.251 1.383-7.832 4.981-9.636 9.933-0.029 0.078-0.046 0.168-0.046 0.262 0 0.424 0.343 0.768 0.767 0.769h25.648c0.001 0 0.002 0 0.002 0 0.423 0 0.766-0.343 0.766-0.766 0-0.095-0.017-0.186-0.049-0.27l0.002 0.005zM8.66 10.911c0-1.947 0.758-3.778 2.135-5.155s3.208-2.135 5.155-2.135 3.778 0.758 5.155 2.135c1.377 1.377 2.135 3.208 2.135 5.155s-0.758 3.778-2.135 5.155c-1.377 1.377-3.208 2.135-5.155 2.135s-3.778-0.758-5.155-2.135c-1.319-1.312-2.135-3.128-2.135-5.135 0-0.007 0-0.014 0-0.021v0.001zM4.265 28.258c1.036-2.368 2.547-4.385 4.414-5.876 2.161-1.727 4.677-2.639 7.277-2.639s5.116 0.913 7.276 2.639c1.866 1.491 3.378 3.508 4.414 5.876h-23.38z"></path>
</symbol>
<symbol id="icon-add1" viewBox="0 0 32 32">
<title>add1</title>
<path d="M27.985 15.181h-11.247v-11.247c0-0.424-0.344-0.768-0.768-0.768s-0.768 0.344-0.768 0.768v0 11.247h-11.247c-0.424 0-0.768 0.344-0.768 0.768s0.344 0.768 0.768 0.768h11.247v11.247c0 0.424 0.344 0.768 0.768 0.768s0.768-0.344 0.768-0.768v0-11.247h11.247c0.424 0 0.768-0.344 0.768-0.768s-0.344-0.768-0.768-0.768v0z"></path>
</symbol>
<symbol id="icon-bulb" viewBox="0 0 32 32">
<title>bulb</title>
<path d="M19.75 27.75h-7.5c-0.138 0.001-0.249 0.112-0.25 0.25v1c0 0.552 0.448 1 1 1v0h6c0.552 0 1-0.448 1-1v0-1c-0.001-0.138-0.112-0.249-0.25-0.25h-0zM16 2c-5.659 0-10.25 4.591-10.25 10.25 0 3.794 2.063 7.106 5.125 8.878v3.622c0 0.552 0.448 1 1 1v0h8.25c0.552 0 1-0.448 1-1v0-3.622c3.085-1.804 5.125-5.101 5.125-8.874 0-0.001 0-0.002 0-0.004v0c0-5.659-4.591-10.25-10.25-10.25zM19.997 19.181l-1.122 0.65v3.669h-5.75v-3.669l-1.122-0.65c-2.411-1.408-4.005-3.983-4.005-6.931 0-4.418 3.582-8 8-8 0.001 0 0.001 0 0.002 0h-0c0.001 0 0.001 0 0.002 0 4.418 0 8 3.582 8 8 0 2.947-1.594 5.523-3.967 6.911l-0.038 0.020z"></path>
</symbol>
<symbol id="icon-camera" viewBox="0 0 32 32">
<title>camera</title>
<path d="M27 7.75h-4.25l-1.012-2.838c-0.143-0.389-0.511-0.662-0.943-0.662-0 0-0.001 0-0.002 0h-9.588c-0.431 0-0.798 0.273-0.939 0.655l-0.002 0.007-1.016 2.838h-4.25c-1.381 0-2.5 1.119-2.5 2.5v0 14.25c0 1.381 1.119 2.5 2.5 2.5v0h22c1.381 0 2.5-1.119 2.5-2.5v0-14.25c0-1.381-1.119-2.5-2.5-2.5v0zM27.25 24.5c0 0.137-0.113 0.25-0.25 0.25h-22c-0.138 0-0.25-0.112-0.25-0.25v0-14.25c0-0.138 0.112-0.25 0.25-0.25v0h5.834l0.534-1.494 0.716-2.006h7.828l0.716 2.006 0.534 1.494h5.837c0.137 0 0.25 0.113 0.25 0.25v14.25zM16 12c-2.762 0-5 2.238-5 5s2.238 5 5 5 5-2.238 5-5-2.238-5-5-5zM16 20c-1.624-0.043-2.924-1.37-2.924-3s1.3-2.957 2.92-3l0.004-0c1.624 0.043 2.924 1.37 2.924 3s-1.3 2.957-2.92 3l-0.004 0z"></path>
</symbol>
<symbol id="icon-caret" viewBox="0 0 32 32">
<title>caret</title>
<path d="M22.545 15.358c-0.056-0.098-0.099-0.203-0.181-0.289-0.015-0.015-0.032-0.026-0.047-0.040-0.020-0.021-0.028-0.049-0.048-0.069l-10.524-10.143c-0.258-0.25-0.61-0.404-0.999-0.404-0.001 0-0.001 0-0.002 0h-0.001c-0.797 0.001-1.442 0.647-1.442 1.444 0 0.408 0.169 0.776 0.441 1.039l0 0 9.492 9.148-9.529 9.014c-0.256 0.26-0.415 0.618-0.415 1.013 0 0.797 0.646 1.444 1.444 1.444 0.366 0 0.701-0.136 0.955-0.361l-0.002 0.001 10.62-10.045c0.271-0.26 0.44-0.626 0.44-1.031 0-0.231-0.055-0.45-0.153-0.643l0.004 0.008c-0.014-0.031-0.038-0.056-0.054-0.086z"></path>
</symbol>
<symbol id="icon-close" viewBox="0 0 32 32">
<title>close</title>
<path d="M17.092 15.994l10.233-10.192c0.14-0.139 0.226-0.331 0.226-0.544 0-0.424-0.344-0.768-0.768-0.768-0.212 0-0.403 0.086-0.542 0.224l-10.237 10.196-10.237-10.196c-0.135-0.122-0.316-0.196-0.513-0.196-0.425 0-0.769 0.344-0.769 0.769 0 0.199 0.075 0.379 0.199 0.516l-0.001-0.001 10.233 10.192-10.233 10.192c-0.139 0.139-0.224 0.331-0.224 0.543 0 0.423 0.342 0.767 0.765 0.769h0.002c0.211-0 0.402-0.086 0.541-0.224v0l10.237-10.196 10.237 10.196c0.138 0.138 0.33 0.224 0.541 0.224h0.002c0.423-0.002 0.765-0.346 0.765-0.769 0-0.212-0.086-0.404-0.224-0.543l0 0-10.233-10.192z"></path>
</symbol>
<symbol id="icon-refresh" viewBox="0 0 32 32">
<title>refresh</title>
<path d="M25 24.6c-4.8 5-12.6 5-17.6 0.2s-5-12.6-0.2-17.6c4.8-5 12.6-5 17.6-0.2l1.8-1.8c-6-5.6-15.6-5.4-21.2 0.4s-5.6 15.4 0.2 21 15.4 5.6 21-0.4c0.4-0.4 0.4-1.2 0-1.8-0.4-0.2-1.2-0.2-1.6 0.2zM21.2 10.6l9.6 0.8-1-9.6z"></path>
</symbol>
<symbol id="icon-daohangpinlei" viewBox="0 0 32 32">
<title>daohangpinlei</title>
<path d="M28.666 25.334h-25.331c-0.368 0-0.666 0.301-0.666 0.666s0.301 0.666 0.666 0.666h25.334c0.368 0 0.666-0.301 0.666-0.666s-0.301-0.666-0.669-0.666zM28.666 15.334h-25.331c-0.368 0-0.666 0.301-0.666 0.666s0.301 0.666 0.666 0.666h25.334c0.368 0 0.666-0.301 0.666-0.666s-0.301-0.666-0.669-0.666zM3.334 6.666h25.334c0.368 0 0.666-0.301 0.666-0.666s-0.301-0.666-0.666-0.666h-25.334c-0.368 0-0.666 0.301-0.666 0.666s0.298 0.666 0.666 0.666z"></path>
</symbol>
<symbol id="icon-code" viewBox="0 0 32 32">
<title>code</title>
<path d="M13.7 26.534l6.959-20.209c0.006-0.016 0.009-0.034 0.012-0.050l-6.972 20.259zM20.663 5.272h-2.109c-0.109 0.001-0.202 0.070-0.237 0.167l-0.001 0.002-7.231 20.997c-0.008 0.024-0.013 0.051-0.013 0.080 0 0.139 0.112 0.251 0.251 0.251 0 0 0 0 0 0h2.119c0.109-0.001 0.202-0.070 0.237-0.167l0.001-0.002 0.022-0.066 7.203-20.928c0.008-0.024 0.013-0.051 0.013-0.080 0-0.14-0.114-0.254-0.254-0.254v0zM29.831 15.691c-0.025-0.031-0.053-0.059-0.083-0.083l-0.001-0.001-6.844-5.353c-0.042-0.033-0.096-0.053-0.154-0.053-0.138 0-0.249 0.111-0.249 0.249 0 0 0 0.001 0 0.001v-0 2.541c0 0.078 0.034 0.15 0.097 0.197l3.594 2.813-3.594 2.813c-0.059 0.046-0.096 0.117-0.097 0.197v2.541c-0.059 0.046-0.097 0.118-0.097 0.198 0 0.138 0.112 0.25 0.25 0.25s0.25-0.112 0.25-0.25c0-0 0-0 0-0.001v0l6.844-5.353c0.117-0.092 0.191-0.234 0.191-0.393 0-0.117-0.040-0.225-0.108-0.311l0.001 0.001zM9.097 10.253l-6.844 5.353c-0.116 0.093-0.189 0.235-0.189 0.393s0.073 0.3 0.188 0.393l0.001 0.001 6.844 5.353c0.042 0.033 0.095 0.052 0.153 0.052 0.138 0 0.25-0.112 0.25-0.249v-2.541c0-0.001 0-0.002 0-0.003 0-0.079-0.038-0.149-0.096-0.193l-0.001-0-3.594-2.813 3.594-2.813c0.059-0.046 0.096-0.117 0.097-0.197v-2.541c-0-0.138-0.112-0.249-0.25-0.249-0.058 0-0.111 0.020-0.154 0.053l0.001-0z"></path>
</symbol>
<symbol id="icon-daohang" viewBox="0 0 32 32">
<title>daohang</title>
<path d="M11.607 14.892h-6.673c-0 0-0.001 0-0.001 0-1.837 0-3.326-1.486-3.332-3.321v-6.647c0.006-1.836 1.496-3.323 3.333-3.323 0 0 0 0 0 0h6.673c1.839 0 3.433 1.528 3.433 3.36v6.56c0 1.833-1.274 3.346-3.433 3.372zM4.479 3.2c-0.706 0.001-1.279 0.574-1.28 1.28v7.042c0 0.705 0.215 1.92 1.28 1.92h7.68c1.105 0 1.28-1.215 1.28-1.92v-7.042c-0.001-0.706-0.574-1.279-1.28-1.28h-7.68zM11.607 30.4h-6.673c-1.837-0.001-3.327-1.487-3.334-3.322v-6.648c0.006-1.836 1.496-3.323 3.333-3.323 0 0 0.001 0 0.001 0h6.675c1.837 0.001 3.327 1.487 3.334 3.322v6.648c-0.005 1.836-1.495 3.323-3.332 3.323-0 0-0.001 0-0.001 0h-0.003zM4.319 18.558c-0.707 0.001-1.279 0.573-1.28 1.28v7.682c0.001 0.707 0.573 1.279 1.28 1.28h7.68c0.707-0.001 1.279-0.573 1.28-1.28v-7.682c-0.001-0.707-0.573-1.279-1.28-1.28h-7.68zM27.065 14.892h-6.674c-0 0-0.001 0-0.001 0-1.837 0-3.326-1.486-3.332-3.321v-6.647c0.006-1.836 1.496-3.323 3.333-3.323 0 0 0 0 0 0h6.676c0 0 0 0 0 0 1.837 0 3.327 1.487 3.333 3.322v6.647c-0.006 1.836-1.496 3.323-3.333 3.323 0 0 0 0-0 0h-0.003zM19.841 3.040c-0.707 0.001-1.279 0.573-1.28 1.28v7.682c0.001 0.707 0.573 1.279 1.28 1.28h7.68c0.707-0.001 1.279-0.573 1.28-1.28v-7.682c-0.001-0.707-0.573-1.279-1.28-1.28h-7.68zM27.064 30.4h-6.674c-1.837-0.001-3.327-1.487-3.334-3.322v-6.648c0.006-1.836 1.496-3.323 3.333-3.323 0 0 0.001 0 0.001 0h6.676c1.837 0.001 3.327 1.487 3.334 3.322v6.648c-0.005 1.836-1.495 3.323-3.332 3.323-0 0-0.001 0-0.001 0h-0.003zM19.841 18.558c-0.707 0-1.28 0.573-1.28 1.28v0 7.682c0 0.707 0.573 1.28 1.28 1.28h7.68c0.707 0 1.28-0.573 1.28-1.28v0-7.682c0-0.707-0.573-1.28-1.28-1.28v0h-7.68zM19.841 18.558"></path>
</symbol>
<symbol id="icon-dingwei" viewBox="0 0 32 32">
<title>dingwei</title>
<path d="M16 11.194c1.269 0.003 2.359 0.9 2.606 2.144s-0.419 2.491-1.591 2.975c-0.302 0.129-0.653 0.204-1.022 0.204-1.47 0-2.661-1.191-2.661-2.661s1.191-2.661 2.661-2.661c0.002 0 0.005 0 0.007 0h-0M16 9.591c-2.041 0.003-3.797 1.447-4.194 3.45s0.678 4.006 2.566 4.784c0.483 0.205 1.044 0.323 1.633 0.323 1.479 0 2.782-0.75 3.552-1.889l0.010-0.015c0.45-0.667 0.718-1.489 0.718-2.373 0-1.183-0.48-2.255-1.256-3.030l-0-0c-0.767-0.772-1.83-1.25-3.004-1.25-0.009 0-0.017 0-0.025 0h0.001zM23.341 6.287c-1.859-1.921-4.461-3.114-7.341-3.114s-5.482 1.193-7.338 3.112l-0.003 0.003c-1.879 1.941-3.038 4.59-3.038 7.509s1.158 5.568 3.040 7.512l-0.003-0.003 7.341 7.519 7.341-7.519c1.879-1.941 3.038-4.59 3.038-7.509s-1.158-5.568-3.040-7.512l0.003 0.003zM22.234 20.25l-6.234 6.413-6.234-6.413c-1.598-1.646-2.583-3.894-2.583-6.372s0.985-4.726 2.585-6.374l-0.002 0.002c1.58-1.628 3.789-2.638 6.234-2.638s4.654 1.010 6.232 2.635l0.002 0.002c1.598 1.646 2.583 3.894 2.583 6.372s-0.985 4.726-2.585 6.374l0.002-0.002zM22.234 20.25"></path>
</symbol>
<symbol id="icon-gift" viewBox="0 0 32 32">
<title>gift</title>
<path d="M27.5 9.688h-4.613c0.423-0.655 0.675-1.454 0.675-2.313v-0c-0.002-2.381-1.932-4.311-4.313-4.313h-0c-1.295 0-2.456 0.572-3.246 1.476l-0.004 0.005c-0.794-0.909-1.955-1.481-3.25-1.481h-0c-2.381 0.002-4.311 1.932-4.313 4.313v0c0 0.85 0.247 1.644 0.675 2.313h-4.612c-0.552 0-1 0.448-1 1v0 6.25c0 0.137 0.112 0.25 0.25 0.25h1.25v10.75c0 0.552 0.448 1 1 1v0h20c0.552 0 1-0.448 1-1v0-10.75h1.25c0.137 0 0.25-0.113 0.25-0.25v-6.25c0-0.552-0.448-1-1-1v0zM17.063 7.375c0-1.206 0.981-2.188 2.188-2.188s2.188 0.981 2.188 2.188-0.981 2.188-2.188 2.188h-2.188v-2.188zM12.75 5.188c1.208 0.001 2.187 0.98 2.188 2.188v2.188h-2.188c-1.206 0-2.188-0.981-2.188-2.188s0.981-2.188 2.188-2.188zM5.625 15.063v-3.25h9.313v3.25h-9.313zM7.125 17.188h7.813v9.625h-7.813v-9.625zM24.875 26.813h-7.813v-9.625h7.813v9.625zM26.375 15.063h-9.313v-3.25h9.313v3.25z"></path>
</symbol>
<symbol id="icon-huadongdaohang" viewBox="0 0 32 32">
<title>huadongdaohang</title>
<path d="M10.857 21.714h-10.286c-0 0-0.001 0-0.001 0-0.315 0-0.57-0.255-0.57-0.57 0-0 0-0.001 0-0.001v0-10.286c0-0 0-0.001 0-0.001 0-0.315 0.255-0.57 0.57-0.57 0 0 0.001 0 0.001 0h10.286c0 0 0.001 0 0.001 0 0.315 0 0.57 0.255 0.57 0.57 0 0 0 0.001 0 0.001v-0 10.286c0 0 0 0.001 0 0.001 0 0.315-0.255 0.57-0.57 0.57-0 0-0.001 0-0.001 0h0zM1.143 20.571h9.143v-9.143h-9.143zM23.429 21.714h-10.286c-0 0-0.001 0-0.001 0-0.315 0-0.57-0.255-0.57-0.57 0-0 0-0.001 0-0.001v0-10.286c0-0 0-0.001 0-0.001 0-0.315 0.255-0.57 0.57-0.57 0 0 0.001 0 0.001 0h10.286c0 0 0.001 0 0.001 0 0.315 0 0.57 0.255 0.57 0.57 0 0 0 0.001 0 0.001v-0 10.286c0 0 0 0.001 0 0.001 0 0.315-0.255 0.57-0.57 0.57-0 0-0.001 0-0.001 0h0zM13.714 20.571h9.143v-9.143h-9.143zM31.429 21.714h-5.714c-0 0-0.001 0-0.001 0-0.315 0-0.57-0.255-0.57-0.57 0-0 0-0.001 0-0.001v0-10.286c0-0 0-0.001 0-0.001 0-0.315 0.255-0.57 0.57-0.57 0 0 0.001 0 0.001 0h5.714c0 0 0.001 0 0.001 0 0.315 0 0.57 0.255 0.57 0.57 0 0 0 0.001 0 0.001v-0 10.286c0 0 0 0.001 0 0.001 0 0.315-0.255 0.57-0.57 0.57-0 0-0.001 0-0.001 0h0zM26.286 20.571h4.571v-9.143h-4.571z"></path>
</symbol>
<symbol id="icon-huodong" viewBox="0 0 32 32">
<title>huodong</title>
<path d="M15.908 32c-7.246 0-13.119-5.727-13.119-12.791 0-2.922 1.347-6.522 4.036-7.872 0 0 0.481 4.854 3.027 6.887 0.303-3.258-2.052-13.988 8.074-17.711 0 5.994-0.13 10.157 3.027 13.775-0.286-2.216 0.523-5.704 4.95-6.934-0.038 5.717 3.122 7.654 3.122 11.853 0 7.064-5.873 12.791-13.119 12.791z"></path>
</symbol>
<symbol id="icon-home" viewBox="0 0 32 32">
<title>home</title>
<path d="M18.457 29.703v-8.18h-4.904v8.188h-7.258c-0.818 0-1.335-0.581-1.335-1.497 0-3.326 0.001-6.652-0.003-9.978 0-0.19 0.054-0.311 0.185-0.431 3.581-3.284 7.158-6.573 10.736-9.86 0.039-0.036 0.080-0.068 0.13-0.111l1.568 1.44c3.104 2.855 6.207 5.71 9.313 8.562 0.096 0.081 0.157 0.202 0.157 0.337 0 0.008-0 0.016-0.001 0.024l0-0.001c-0.003 3.361-0.001 6.723-0.003 10.084-0.001 0.821-0.533 1.426-1.264 1.428-2.396 0.005-4.791 0.002-7.187 0.002-0.037 0-0.075-0.004-0.132-0.008zM15.999 5.947l-13.158 12.228c-0.399 0.37-0.722 0.338-1.056-0.101-0.351-0.462-0.701-0.924-1.049-1.389-0.282-0.378-0.251-0.771 0.085-1.083 4.568-4.244 9.137-8.488 13.707-12.73 0.854-0.793 2.105-0.775 2.982 0.038 1.169 1.084 2.334 2.172 3.501 3.258l1.125 1.045v-3.085c0-0.541 0.215-0.78 0.702-0.78h3.45c0.55 0 0.753 0.224 0.753 0.834 0 2.771 0.002 4.557-0.004 7.328 0 0.191 0.055 0.312 0.183 0.43 1.32 1.215 2.636 2.435 3.953 3.654 0.338 0.312 0.375 0.7 0.094 1.080-0.542 0.739-0.902 1.213-1.266 1.684l0.169-0.228c-0.287 0.373-0.632 0.401-0.973 0.084l-13.198-12.265z"></path>
</symbol>
<symbol id="icon-iconfonticonfontshan" viewBox="0 0 32 32">
<title>iconfonticonfontshan</title>
<path d="M9.905 32c-1.85 0-3.355-1.505-3.355-3.355s1.505-3.354 3.355-3.354 3.355 1.505 3.355 3.354c-0.002 1.852-1.503 3.353-3.355 3.355h-0zM9.905 26.951c-0.935 0-1.695 0.76-1.695 1.695s0.76 1.695 1.695 1.695 1.695-0.76 1.695-1.695-0.76-1.695-1.695-1.695zM27.683 32c-1.85 0-3.355-1.505-3.355-3.355s1.505-3.354 3.355-3.354 3.355 1.505 3.355 3.354c-0.002 1.852-1.503 3.353-3.355 3.355h-0zM27.683 26.951c-0.935 0-1.695 0.76-1.695 1.695s0.76 1.695 1.695 1.695 1.695-0.76 1.695-1.695-0.76-1.695-1.695-1.695zM27.683 26.951h-17.778c-0.458 0-0.83-0.372-0.83-0.83s0.372-0.83 0.83-0.83h17.778c0.458 0 0.83 0.372 0.83 0.83s-0.372 0.83-0.83 0.83v0zM14.236 6.337h-7.692c-0.458 0-0.83-0.372-0.83-0.83s0.372-0.83 0.83-0.83h7.692c0.458 0 0.83 0.372 0.83 0.83s-0.372 0.83-0.83 0.83v0zM26.87 21.948l-17.272-0.043c-0.458-0.001-0.829-0.372-0.829-0.83s0.372-0.83 0.83-0.83c0 0 0.001 0 0.001 0h0.002l17.219 0.045c0.038-0.010 0.069-0.031 0.092-0.060l0-0 3.298-13.842c0.001 0-0.048-0.051-0.156-0.051h-6.775c-0.458 0-0.83-0.372-0.83-0.83s0.372-0.83 0.83-0.83h6.775c0.584 0 1.135 0.264 1.476 0.707 0.313 0.407 0.419 0.92 0.29 1.409l-3.299 13.846c-0.195 0.742-0.857 1.26-1.651 1.309zM9.904 21.904c-0.388-0-0.713-0.267-0.804-0.626l-0.001-0.006-4.586-18.7h-3.558c-0.458 0-0.83-0.372-0.83-0.83s0.372-0.83 0.83-0.83h4.861l4.895 19.964c0.015 0.059 0.024 0.128 0.024 0.198 0 0.458-0.372 0.83-0.83 0.83-0 0-0.001 0-0.001 0h0zM9.905 26.953c-1.85 0-3.355-1.505-3.355-3.354s1.505-3.354 3.355-3.354c0.458 0 0.83 0.372 0.83 0.83s-0.372 0.83-0.83 0.83v0c-0.935 0-1.695 0.76-1.695 1.695s0.76 1.695 1.695 1.695c0.458 0 0.83 0.372 0.83 0.83s-0.372 0.83-0.83 0.83v0zM15.286 7.071c0.208 0 0.415 0.077 0.577 0.233l2.954 2.852 2.954-2.852c0.15-0.15 0.357-0.242 0.586-0.242 0.458 0 0.83 0.372 0.83 0.83 0 0.238-0.101 0.453-0.262 0.605l-0 0-3.531 3.409c-0.149 0.144-0.353 0.233-0.577 0.233s-0.428-0.089-0.577-0.233l0 0-3.531-3.409c-0.157-0.151-0.255-0.363-0.255-0.598 0-0.457 0.371-0.828 0.828-0.828 0.002 0 0.003 0 0.005 0h-0zM18.817 0c0.458 0 0.83 0.372 0.83 0.83v0 10.48c0 0.458-0.372 0.83-0.83 0.83s-0.83-0.372-0.83-0.83v0-10.48c0-0.458 0.372-0.83 0.83-0.83v0z"></path>
</symbol>
<symbol id="icon-image" viewBox="0 0 32 32">
<title>image</title>
<path d="M29 5h-26c-0.552 0-1 0.448-1 1v0 20c0 0.552 0.448 1 1 1v0h26c0.552 0 1-0.448 1-1v0-20c0-0.552-0.448-1-1-1v0zM27.75 24.75h-23.5v-1.247l4.328-5.134 4.691 5.563 7.297-8.65 7.184 8.519v0.95zM27.75 20.694l-6.994-8.294c-0.046-0.055-0.114-0.089-0.191-0.089s-0.145 0.035-0.19 0.089l-0 0-7.106 8.425-4.5-5.334c-0.046-0.055-0.114-0.089-0.191-0.089s-0.145 0.035-0.19 0.089l-0 0-4.138 4.906v-13.147h23.5v13.444zM9.5 14.25c1.519 0 2.75-1.231 2.75-2.75s-1.231-2.75-2.75-2.75v0c-1.519 0-2.75 1.231-2.75 2.75s1.231 2.75 2.75 2.75v0zM9.5 10.625c0.483 0 0.875 0.392 0.875 0.875s-0.392 0.875-0.875 0.875v0c-0.483 0-0.875-0.392-0.875-0.875s0.392-0.875 0.875-0.875v0z"></path>
</symbol>
<symbol id="icon-goods" viewBox="0 0 32 32">
<title>goods</title>
<path d="M15.028 2.878c-0.778-0.472-3.322-1.8-4.834-2.644-1.322-0.734-1.722 0.844-1.85 1.922-0.125 1.084-0.125 2.484 1.259 2.484h5.084c1.387 0.003 1.387-1.119 0.341-1.763zM23.984 2.134c-0.125-1.081-0.528-2.656-1.85-1.922-1.516 0.844-4.056 2.172-4.834 2.644-1.053 0.641-1.053 1.762 0.337 1.762h5.084c1.391 0 1.391-1.4 1.262-2.484zM0.016 8.363v3.175c-0.003 1.175 0.391 1.769 1.962 1.769h11.597v-6.537h-11.628c-1.587 0-1.931 0.522-1.931 1.594zM32.003 8.497c0-1.072-0.469-1.731-2.053-1.731h-11.431v6.537h11.522c1.569 0 1.966-0.544 1.962-1.719-0.006-1.069-0.003-2.016 0-3.088zM1.341 28.156c0.016 2.447 1.444 3.844 4.494 3.844h7.662v-16.275h-12.156s-0.016 9.988 0 12.431zM18.519 15.725v16.275h7.428c3.050 0 4.422-1.531 4.438-3.978 0.019-2.447-0.003-12.3-0.003-12.3l-11.863 0.003z"></path>
</symbol>
<symbol id="icon-like" viewBox="0 0 32 32">
<title>like</title>
<path d="M27.684 16.678c0.509-0.667 0.816-1.511 0.816-2.428v-0c0-1.403-0.784-2.731-2.047-3.472-0.304-0.183-0.671-0.291-1.063-0.291-0.003 0-0.005 0-0.008 0h-7.496l0.188-3.841c0.003-0.051 0.004-0.111 0.004-0.171 0-0.896-0.353-1.711-0.928-2.311l0.001 0.001c-0.609-0.643-1.469-1.044-2.422-1.044-0.004 0-0.008 0-0.012 0h0.001c-1.657 0.003-3.054 1.115-3.488 2.633l-0.006 0.026-2.684 9.719h-4.041c-0.552 0-1 0.448-1 1v0 11.375c0 0.552 0.448 1 1 1v0h18.791c0.288 0 0.569-0.056 0.828-0.169 1.451-0.627 2.448-2.046 2.448-3.698 0-0.413-0.062-0.811-0.178-1.186l0.008 0.028c0.509-0.667 0.816-1.512 0.816-2.429 0-0.412-0.062-0.809-0.177-1.183l0.008 0.029c0.509-0.667 0.816-1.511 0.816-2.428v-0c-0.005-0.415-0.069-0.813-0.183-1.189l0.008 0.030zM5.75 26.625v-8.875h2.531v8.875h-2.531zM25.637 15.594l-0.684 0.594 0.434 0.794c0.136 0.246 0.216 0.539 0.216 0.851 0 0.536-0.237 1.017-0.611 1.344l-0.002 0.002-0.684 0.594 0.434 0.794c0.136 0.246 0.216 0.539 0.216 0.851 0 0.536-0.237 1.017-0.611 1.344l-0.002 0.002-0.684 0.594 0.434 0.794c0.136 0.245 0.216 0.538 0.216 0.85 0 0.718-0.426 1.337-1.039 1.618l-0.011 0.005h-12.978v-8.972l3.109-11.266c0.166-0.584 0.693-1.005 1.319-1.009h0c0.238 0 0.472 0.069 0.659 0.209 0.309 0.231 0.475 0.581 0.456 0.953l-0.3 6.2h9.825c0.556 0.341 0.9 0.916 0.9 1.512 0 0.516-0.225 1.003-0.613 1.344z"></path>
</symbol>
<symbol id="icon-linechart" viewBox="0 0 32 32">
<title>linechart</title>
<path d="M27.75 24.75h-21.5v-19.5c0-0.138-0.112-0.25-0.25-0.25v0h-1.75c-0.138 0-0.25 0.112-0.25 0.25v0 21.5c0 0.137 0.112 0.25 0.25 0.25h23.5c0.137 0 0.25-0.113 0.25-0.25v-1.75c-0.001-0.138-0.112-0.249-0.25-0.25h-0zM9.556 19.928c0.045 0.045 0.108 0.073 0.177 0.073s0.131-0.028 0.177-0.073v0l4.322-4.3 3.987 4.012c0.045 0.045 0.108 0.073 0.177 0.073s0.131-0.028 0.177-0.073v0l8.606-8.603c0.045-0.045 0.073-0.108 0.073-0.177s-0.028-0.131-0.073-0.177v0l-1.238-1.238c-0.045-0.045-0.108-0.073-0.177-0.073s-0.131 0.028-0.177 0.073v0l-7.188 7.184-3.981-4.006c-0.045-0.045-0.108-0.073-0.177-0.073s-0.131 0.028-0.177 0.073v0l-5.744 5.709c-0.045 0.045-0.073 0.108-0.073 0.177s0.028 0.131 0.073 0.177v0l1.234 1.241z"></path>
</symbol>
<symbol id="icon-lunbotu" viewBox="0 0 32 32">
<title>lunbotu</title>
<path d="M12.9 14c1.2 0 2.4-0.7 2.8-1.8 0.5-1.1 0.2-2.4-0.6-3.3s-2.2-1.1-3.3-0.6c-1.1 0.4-1.8 1.6-1.8 2.8 0 1.6 1.3 2.9 2.9 2.9zM12.3 10.3c0.2-0.2 0.4-0.3 0.7-0.3 0.5 0 1 0.4 1 0.9s-0.4 1-0.9 1.1c-0.5 0-1-0.4-1.1-0.9 0-0.3 0.1-0.6 0.3-0.8zM28 7h-1v-2c0-1.1-0.9-2-2-2h-18c-1.1 0-2 0.9-2 2v2h-1c-1.1 0-2 0.9-2 2v14c0 1.1 0.9 2 2 2h1v2c0 1.1 0.9 2 2 2h18c1.1 0 2-0.9 2-2v-2h1c1.1 0 2-0.9 2-2v-14c0-1.1-0.9-2-2-2zM5 23c-0.6 0-1-0.4-1-1v-12c0-0.6 0.4-1 1-1v14zM25 26c0 0.6-0.4 1-1 1h-16c-0.5 0-1-0.4-1-1v-20c0-0.6 0.4-1 1-1h16c0.5 0 1 0.4 1 1v20zM28 22c0 0.6-0.4 1-1 1v-14c0.5 0 1 0.4 1 1v12zM21.4 14.5l-4.2 4.2-2.1-2.1c-0.2-0.2-0.4-0.3-0.7-0.3s-0.5 0.1-0.7 0.3l-5 5c-0.4 0.4-0.4 1 0 1.4s1 0.4 1.4 0l4.2-4.2 2.1 2.1c0.2 0.2 0.4 0.3 0.7 0.3s0.5-0.1 0.7-0.3l5-5c0.4-0.4 0.4-1 0-1.4-0.3-0.4-1-0.4-1.4 0z"></path>
</symbol>
<symbol id="icon-heart" viewBox="0 0 32 32">
<title>heart</title>
<path d="M28.844 8.863c-0.442-1.007-1.041-1.866-1.777-2.587l-0.001-0.001c-1.494-1.464-3.543-2.368-5.802-2.368-0.008 0-0.016 0-0.024 0h0.001c-0.002 0-0.003 0-0.005 0-1.99 0-3.817 0.697-5.251 1.859l0.016-0.012c-1.418-1.15-3.246-1.847-5.236-1.847-0.002 0-0.004 0-0.006 0h0c-0.005 0-0.010 0-0.016 0-2.262 0-4.313 0.904-5.811 2.369l0.002-0.001c-1.501 1.466-2.432 3.51-2.434 5.772v0c0 1.041 0.212 2.125 0.634 3.228 0.353 0.922 0.859 1.878 1.506 2.844 1.025 1.528 2.434 3.122 4.184 4.738 2.9 2.678 5.772 4.528 5.894 4.603l0.741 0.475c0.328 0.209 0.75 0.209 1.078 0l0.741-0.475c0.122-0.078 2.991-1.925 5.894-4.603 1.75-1.616 3.159-3.209 4.184-4.738 0.647-0.966 1.156-1.922 1.506-2.844 0.422-1.103 0.634-2.188 0.634-3.228 0-0.008 0-0.017 0-0.026 0-1.142-0.24-2.227-0.673-3.209l0.020 0.051zM16 25.462s-11.125-7.128-11.125-13.416c0-3.184 2.634-5.766 5.884-5.766 0.008-0 0.017-0 0.027-0 2.248 0 4.202 1.257 5.199 3.107l0.015 0.031c1.012-1.881 2.967-3.138 5.215-3.138 0.009 0 0.018 0 0.028 0h-0.001c3.25 0 5.884 2.581 5.884 5.766 0 6.288-11.125 13.416-11.125 13.416z"></path>
</symbol>
<symbol id="icon-marketing" viewBox="0 0 32 32">
<title>marketing</title>
<path d="M0 0.152h5.75v3.372h-5.75v-3.372zM0 4.872h5.75v22.932h-5.75v-22.932zM1.054 23.558c0 1.166 0.804 2.11 1.796 2.11s1.796-0.944 1.796-2.11c0-1.164-0.804-2.108-1.796-2.108s-1.796 0.946-1.796 2.108zM0 31.85h5.75v-2.698h-5.75v2.698zM6.9 28.68v3.172h7.474v-3.188c-0.306-0.256-1.254-0.86-3.45-0.86-2.082 0-3.41 0.548-4.024 0.876zM6.9 9.278c0.614 0.33 1.942 0.878 4.024 0.878 2.182 0 3.134-0.598 3.45-0.866v-2.394h-7.474v2.382zM6.9 10.74v16.482c0.832-0.366 2.166-0.766 4.024-0.766 1.678 0 2.766 0.328 3.45 0.682v-16.314c-0.684 0.35-1.772 0.68-3.45 0.68-1.858 0-3.192-0.4-4.024-0.764zM26.568 0l-3.944 0.95 0.578 3.304 3.944-0.95-0.578-3.304zM31.306 27.088l-3.942 0.95-3.93-22.464 3.944-0.948 3.928 22.462zM29.94 23.084c-0.202-1.138-0.976-1.916-1.734-1.732s-1.21 1.256-1.012 2.394c0.2 1.14 0.976 1.916 1.734 1.734 0.758-0.184 1.21-1.254 1.012-2.396zM31.538 28.408l-3.944 0.95 0.462 2.642 3.944-0.95-0.462-2.642zM16.1 3.524h5.75v-3.372h-5.75v3.372zM16.1 31.85h5.75v-2.698h-5.75v2.698zM16.1 24.432h5.75v-16.188h-5.75v16.188zM16.1 27.804h5.75v-2.024h-5.75v2.024zM16.1 6.896h5.75v-2.024h-5.75v2.024zM16.1 6.896"></path>
</symbol>
<symbol id="icon-minus" viewBox="0 0 32 32">
<title>minus</title>
<path d="M27.985 16.717h-24.029c-0.424 0-0.768-0.344-0.768-0.768s0.344-0.768 0.768-0.768h24.029c0.424 0 0.768 0.344 0.768 0.768s-0.344 0.768-0.768 0.768v0z"></path>
</symbol>
<symbol id="icon-menu" viewBox="0 0 32 32">
<title>menu</title>
<path d="M12.359 3.864v8.495h-8.495v-8.495h8.495M14.18 1.436h-12.136c-0.335 0.001-0.606 0.272-0.607 0.607v12.136c0 0.334 0.273 0.607 0.607 0.607h12.136c0.335-0.001 0.606-0.272 0.607-0.607v-12.136c-0.001-0.335-0.272-0.606-0.607-0.607h-0zM12.359 19.641v8.495h-8.495v-8.495h8.495M14.18 17.214h-12.136c-0.335 0.001-0.606 0.272-0.607 0.607v12.136c0 0.334 0.273 0.607 0.607 0.607h12.136c0.335-0.001 0.606-0.272 0.607-0.607v-12.136c-0.001-0.335-0.272-0.606-0.607-0.607h-0zM28.136 3.864v8.495h-8.495v-8.495h8.495M29.957 1.436h-12.136c-0.335 0.001-0.606 0.272-0.607 0.607v12.136c0 0.334 0.273 0.607 0.607 0.607h12.136c0.335-0.001 0.606-0.272 0.607-0.607v-12.136c-0.001-0.335-0.272-0.606-0.607-0.607h-0zM28.136 19.641v8.495h-8.495v-8.495h8.495M29.957 17.214h-12.136c-0.335 0.001-0.606 0.272-0.607 0.607v12.136c0 0.334 0.273 0.607 0.607 0.607h12.136c0.335-0.001 0.606-0.272 0.607-0.607v-12.136c-0.001-0.335-0.272-0.606-0.607-0.607h-0z"></path>
</symbol>
<symbol id="icon-order" viewBox="0 0 32 32">
<title>order</title>
<path d="M19.4 0h-7.1c-0.9 0-1.6 0.7-1.6 1.6 0 1 0.6 1.6 1.6 1.6h7.2c0.9 0 1.5-0.7 1.5-1.6-0.1-0.9-0.7-1.6-1.6-1.6zM25 2.2s-1.4 0.3-1.4 0.5c0 1.4-1.1 2.8-2.4 2.8h-10.8c-1.3 0-2.4-1.3-2.4-2.7 0-0.2-1.3-0.5-1.3-0.5h-2.2c-2.7-0.1-3.5 1.5-3.5 3.8v22.2c0 2.3 1 3.7 3.8 3.7h22.1c2.8 0 4.2-1.1 4.2-3.7v-22.2c0-2.2-1.3-3.8-4-3.8h-2.1v-0.1zM23.5 24.2h-15.4c-0.5 0-1.2-0.6-1.2-1.2 0-0.5 0.4-1 1.1-1h15.3c0.5 0 1.1 0.4 1.1 1 0.1 0.5-0.4 1.2-0.9 1.2zM23.5 18.3h-15.3c-0.5 0-1-0.5-1-1.2 0-0.5 0.4-1.1 1.1-1.1h15.3c0.5 0 1.1 0.5 1.1 1.1s-0.7 1.2-1.2 1.2zM23.5 12.3h-15.3c-0.5 0-1-0.5-1-1.2 0-0.5 0.4-1.1 1.1-1.1h15.3c0.5 0 1.1 0.5 1.1 1.1s-0.7 1.2-1.2 1.2z"></path>
</symbol>
<symbol id="icon-menufold" viewBox="0 0 32 32">
<title>menufold</title>
<path d="M3.087 6.275h25.878c0.621 0 1.125-0.504 1.125-1.125s-0.504-1.125-1.125-1.125v0h-25.878c-0.621 0-1.125 0.504-1.125 1.125s0.504 1.125 1.125 1.125v0zM28.903 13.931h-17.659c-0.621 0-1.125 0.504-1.125 1.125s0.504 1.125 1.125 1.125v0h17.659c0.621 0 1.125-0.504 1.125-1.125s-0.504-1.125-1.125-1.125v0zM28.966 25.744h-25.784c-0.621 0-1.125 0.504-1.125 1.125s0.504 1.125 1.125 1.125v0h25.784c0.621 0 1.125-0.504 1.125-1.125s-0.504-1.125-1.125-1.125v0zM6.159 19.219c0.198 0.175 0.459 0.282 0.746 0.282 0.622 0 1.127-0.505 1.127-1.127 0-0.294-0.112-0.561-0.296-0.762l0.001 0.001-2.981-2.931 2.928-2.759c0.204-0.204 0.33-0.485 0.33-0.796 0-0.622-0.504-1.126-1.126-1.126-0.287 0-0.55 0.108-0.749 0.285l0.001-0.001-3.778 3.563c-0.219 0.205-0.355 0.496-0.355 0.819 0 0.315 0.13 0.599 0.339 0.803l0 0 3.813 3.75z"></path>
</symbol>
<symbol id="icon-outdent" viewBox="0 0 32 32">
<title>outdent</title>
<path d="M12.75 13.813h15c0.137 0 0.25-0.113 0.25-0.25v-1.75c-0.001-0.138-0.112-0.249-0.25-0.25h-15c-0.138 0.001-0.249 0.112-0.25 0.25v1.75c0 0.137 0.113 0.25 0.25 0.25zM12.5 20.188c0 0.137 0.113 0.25 0.25 0.25h15c0.137 0 0.25-0.113 0.25-0.25v-1.75c-0.001-0.138-0.112-0.249-0.25-0.25h-15c-0.138 0.001-0.249 0.112-0.25 0.25v1.75zM28.25 5h-24.5c-0.138 0-0.25 0.112-0.25 0.25v0 1.75c0 0.138 0.112 0.25 0.25 0.25h24.5c0.138 0 0.25-0.112 0.25-0.25v0-1.75c0-0.138-0.112-0.25-0.25-0.25v0zM28.25 24.75h-24.5c-0.138 0-0.25 0.112-0.25 0.25v0 1.75c0 0.137 0.112 0.25 0.25 0.25h24.5c0.137 0 0.25-0.113 0.25-0.25v-1.75c-0.001-0.138-0.112-0.249-0.25-0.25h-0zM3.606 16.216l4.884 3.847c0.181 0.144 0.45 0.016 0.45-0.216v-7.694c-0-0.153-0.124-0.277-0.277-0.277-0.066 0-0.126 0.023-0.174 0.061l0.001-0-4.884 3.847c-0.065 0.050-0.106 0.128-0.106 0.216s0.041 0.165 0.105 0.215l0.001 0z"></path>
</symbol>
<symbol id="icon-qrcode" viewBox="0 0 32 32">
<title>qrcode</title>
<path d="M14.625 4h-9.625c-0.552 0-1 0.448-1 1v0 9.625c0 0.137 0.112 0.25 0.25 0.25h10.375c0.137 0 0.25-0.113 0.25-0.25v-10.375c0-0.138-0.112-0.25-0.25-0.25v0zM12.875 12.875h-6.875v-6.875h6.875v6.875zM8.563 10.563h1.75c0.137 0 0.25-0.113 0.25-0.25v-1.75c-0.001-0.138-0.112-0.249-0.25-0.25h-1.75c-0.138 0.001-0.249 0.112-0.25 0.25v1.75c0 0.137 0.113 0.25 0.25 0.25zM14.625 17.125h-10.375c-0.138 0-0.25 0.112-0.25 0.25v0 9.625c0 0.552 0.448 1 1 1v0h9.625c0.137 0 0.25-0.113 0.25-0.25v-10.375c-0.001-0.138-0.112-0.249-0.25-0.25h-0zM12.875 26h-6.875v-6.875h6.875v6.875zM8.563 23.688h1.75c0.137 0 0.25-0.113 0.25-0.25v-1.75c-0.001-0.138-0.112-0.249-0.25-0.25h-1.75c-0.138 0.001-0.249 0.112-0.25 0.25v1.75c0 0.137 0.113 0.25 0.25 0.25zM27 4h-9.625c-0.138 0-0.25 0.112-0.25 0.25v0 10.375c0 0.137 0.113 0.25 0.25 0.25h10.375c0.137 0 0.25-0.113 0.25-0.25v-9.625c0-0.552-0.448-1-1-1v0zM26 12.875h-6.875v-6.875h6.875v6.875zM21.688 10.563h1.75c0.137 0 0.25-0.113 0.25-0.25v-1.75c-0.001-0.138-0.112-0.249-0.25-0.25h-1.75c-0.138 0.001-0.249 0.112-0.25 0.25v1.75c0 0.137 0.113 0.25 0.25 0.25zM27.75 17.125h-1.5c-0.138 0.001-0.249 0.112-0.25 0.25v4.188h-2.438v-4.188c-0.001-0.138-0.112-0.249-0.25-0.25h-5.938c-0.138 0.001-0.249 0.112-0.25 0.25v10.375c0 0.137 0.113 0.25 0.25 0.25h1.5c0.137 0 0.25-0.113 0.25-0.25v-7.625h2.438v3.188c0 0.137 0.113 0.25 0.25 0.25h5.938c0.137 0 0.25-0.113 0.25-0.25v-5.938c-0.001-0.138-0.112-0.249-0.25-0.25h-0zM23.313 26h-1.5c-0.138 0.001-0.249 0.112-0.25 0.25v1.5c0 0.137 0.113 0.25 0.25 0.25h1.5c0.137 0 0.25-0.113 0.25-0.25v-1.5c-0.001-0.138-0.112-0.249-0.25-0.25h-0zM27.75 26h-1.5c-0.138 0.001-0.249 0.112-0.25 0.25v1.5c0 0.137 0.113 0.25 0.25 0.25h1.5c0.137 0 0.25-0.113 0.25-0.25v-1.5c-0.001-0.138-0.112-0.249-0.25-0.25h-0z"></path>
</symbol>
<symbol id="icon-rise" viewBox="0 0 32 32">
<title>rise</title>
<path d="M28.656 6.597l-6.225 0.75c-0.125 0.015-0.22 0.121-0.22 0.248 0 0.069 0.028 0.132 0.073 0.177l1.853 1.853-7.063 7.063-3.181-3.178c-0.090-0.091-0.215-0.147-0.353-0.147s-0.263 0.056-0.353 0.147l-10.053 10.056c-0.045 0.045-0.073 0.108-0.073 0.177s0.028 0.131 0.073 0.177v0l1.406 1.413c0.045 0.045 0.108 0.073 0.176 0.073s0.131-0.028 0.176-0.073v0l8.647-8.644 3.178 3.178c0.091 0.090 0.215 0.145 0.353 0.145s0.262-0.056 0.353-0.145l8.481-8.475 1.853 1.853c0.045 0.045 0.108 0.073 0.177 0.073 0.128 0 0.233-0.096 0.248-0.219l0-0.001 0.75-6.225c0.001-0.009 0.002-0.020 0.002-0.031 0-0.136-0.11-0.246-0.246-0.246-0.012 0-0.024 0.001-0.035 0.003l0.001-0z"></path>
</symbol>
<symbol id="icon-redo" viewBox="0 0 32 32">
<title>redo</title>
<path d="M23.694 26.222c2.937-2.305 4.806-5.855 4.806-9.841 0-0.003 0-0.006 0-0.010v0c0-0.003 0-0.006 0-0.009 0-6.894-5.587-12.484-12.481-12.488h-0c-6.912-0.009-12.519 5.588-12.519 12.497 0 3.913 1.797 7.403 4.613 9.694 0.043 0.034 0.098 0.055 0.158 0.055 0.080 0 0.152-0.037 0.198-0.096l0-0 1.231-1.578c0.033-0.042 0.053-0.096 0.053-0.154 0-0.077-0.035-0.146-0.090-0.192l-0-0c-0.265-0.218-0.504-0.434-0.73-0.663l-0.001-0c-0.891-0.888-1.614-1.942-2.119-3.113l-0.025-0.065c-0.525-1.228-0.787-2.538-0.787-3.887-0-0.007-0-0.016-0-0.025 0-2.753 1.119-5.244 2.928-7.044l0-0c1.804-1.809 4.298-2.928 7.054-2.928 0.006 0 0.013 0 0.019 0h-0.001c0.008-0 0.017-0 0.026-0 2.752 0 5.243 1.119 7.042 2.928l0 0c1.809 1.804 2.928 4.298 2.928 7.054 0 0.005 0 0.011 0 0.016v-0.001c0 0.006 0 0.013 0 0.020 0 2.754-1.119 5.247-2.928 7.049l-0 0c-0.291 0.291-0.597 0.563-0.916 0.813l-1.272-1.628c-0.046-0.059-0.118-0.097-0.198-0.097-0.117 0-0.216 0.081-0.243 0.19l-0 0.002-1.238 5.069c-0.005 0.018-0.007 0.038-0.007 0.059 0 0.137 0.111 0.249 0.248 0.25h0l5.219 0.025c0.209 0 0.328-0.241 0.197-0.403l-1.166-1.497z"></path>
</symbol>
<symbol id="icon-search" viewBox="0 0 32 32">
<title>search</title>
<path d="M19 3.5c-0 0-0 0-0.001 0-5.247 0-9.5 4.253-9.5 9.5 0 2.206 0.752 4.236 2.013 5.849l-0.016-0.021-7.925 7.925c-0.045 0.045-0.073 0.108-0.073 0.177s0.028 0.131 0.073 0.177v0l1.322 1.322c0.045 0.045 0.108 0.073 0.176 0.073s0.131-0.028 0.176-0.073v0l7.925-7.925c1.592 1.246 3.622 1.998 5.828 1.998 5.247 0 9.5-4.253 9.5-9.5 0-0 0-0.001 0-0.001v0c0-5.247-4.253-9.5-9.5-9.5v0zM24.038 18.038c-1.344 1.347-3.134 2.087-5.038 2.087s-3.694-0.741-5.037-2.087c-1.347-1.344-2.088-3.134-2.088-5.037s0.741-3.694 2.088-5.037c1.344-1.347 3.134-2.088 5.037-2.088s3.694 0.741 5.038 2.088c1.347 1.344 2.087 3.134 2.087 5.037s-0.741 3.694-2.087 5.037z"></path>
</symbol>
<symbol id="icon-scan" viewBox="0 0 32 32">
<title>scan</title>
<path d="M4.25 12h1.75c0.138 0 0.25-0.112 0.25-0.25v0-5.5h5.5c0.138 0 0.25-0.112 0.25-0.25v0-1.75c0-0.138-0.112-0.25-0.25-0.25v0h-5.625c-1.175 0-2.125 0.95-2.125 2.125v5.625c0 0.137 0.112 0.25 0.25 0.25zM20.25 6.25h5.5v5.5c0 0.137 0.113 0.25 0.25 0.25h1.75c0.137 0 0.25-0.113 0.25-0.25v-5.625c0-1.175-0.95-2.125-2.125-2.125h-5.625c-0.138 0-0.25 0.112-0.25 0.25v0 1.75c0 0.138 0.113 0.25 0.25 0.25zM11.75 25.75h-5.5v-5.5c0-0.138-0.112-0.25-0.25-0.25v0h-1.75c-0.138 0-0.25 0.112-0.25 0.25v0 5.625c0 1.175 0.95 2.125 2.125 2.125h5.625c0.137 0 0.25-0.113 0.25-0.25v-1.75c-0.001-0.138-0.112-0.249-0.25-0.25h-0zM27.75 20h-1.75c-0.138 0.001-0.249 0.112-0.25 0.25v5.5h-5.5c-0.138 0.001-0.249 0.112-0.25 0.25v1.75c0 0.137 0.113 0.25 0.25 0.25h5.625c1.175 0 2.125-0.95 2.125-2.125v-5.625c-0.001-0.138-0.112-0.249-0.25-0.25h-0zM28.25 14.875h-24.5c-0.138 0-0.25 0.112-0.25 0.25v0 1.75c0 0.137 0.112 0.25 0.25 0.25h24.5c0.137 0 0.25-0.113 0.25-0.25v-1.75c-0.001-0.138-0.112-0.249-0.25-0.25h-0z"></path>
</symbol>
<symbol id="icon-search1" viewBox="0 0 32 32">
<title>search1</title>
<path d="M29.836 28.743l-6.19-6.187c0.856-0.96 1.57-2.072 2.093-3.286l0.030-0.079c0.642-1.518 0.968-3.13 0.968-4.791s-0.326-3.273-0.968-4.791c-0.62-1.466-1.507-2.782-2.637-3.912-2.22-2.227-5.291-3.604-8.684-3.604-0.007 0-0.014 0-0.021 0h0.001c-0.005 0-0.012 0-0.018 0-3.393 0-6.464 1.378-8.684 3.605l-0 0c-2.227 2.22-3.604 5.291-3.604 8.683 0 0.007 0 0.014 0 0.021v-0.001c0 0.005 0 0.012 0 0.018 0 3.393 1.378 6.464 3.605 8.684l0 0c2.22 2.227 5.292 3.605 8.684 3.605 0.007 0 0.013 0 0.020 0h-0.001c1.661 0 3.273-0.326 4.791-0.968 1.282-0.549 2.385-1.255 3.352-2.111l-0.013 0.011 6.192 6.189c0.139 0.14 0.331 0.226 0.543 0.226s0.404-0.086 0.543-0.226l0-0c0.3-0.3 0.3-0.786 0-1.086zM14.428 25.173c-2.877 0-5.582-1.12-7.617-3.155s-3.155-4.74-3.155-7.617 1.12-5.582 3.155-7.617 4.74-3.155 7.617-3.155 5.582 1.12 7.617 3.155 3.155 4.74 3.155 7.617-1.12 5.582-3.155 7.617-4.74 3.155-7.617 3.155z"></path>
</symbol>
<symbol id="icon-shanchu" viewBox="0 0 32 32">
<title>shanchu</title>
<path d="M17.441 15.914l8.697-8.652c0.192-0.19 0.311-0.454 0.311-0.746 0-0.579-0.47-1.049-1.049-1.049-0.289 0-0.551 0.117-0.741 0.307l0-0-8.699 8.653-8.623-8.65c-0.186-0.171-0.436-0.276-0.71-0.276-0.58 0-1.050 0.47-1.050 1.050 0 0.273 0.104 0.522 0.276 0.709l-0.001-0.001 8.621 8.648-8.693 8.647c-0.191 0.19-0.309 0.453-0.309 0.744 0 0.579 0.469 1.049 1.048 1.049h0.001c0.268 0 0.535-0.102 0.74-0.305l8.695-8.649 8.702 8.729c0.205 0.206 0.473 0.308 0.743 0.308h0.001c0.579-0.001 1.047-0.47 1.047-1.049 0-0.289-0.117-0.55-0.306-0.74l0 0-8.7-8.726zM17.441 15.914"></path>
</symbol>
<symbol id="icon-set" viewBox="0 0 32 32">
<title>set</title>
<path d="M19.189 31.057h-6.717c-0 0-0 0-0 0-0.358 0-0.658-0.245-0.744-0.576l-0.001-0.005-0.775-3.086-2.669 1.71c-0.117 0.076-0.26 0.122-0.414 0.122-0.209 0-0.398-0.083-0.536-0.219l0 0-4.764-4.644c-0.143-0.14-0.232-0.335-0.232-0.55 0-0.155 0.046-0.299 0.125-0.42l-0.002 0.003 1.856-2.872-3.094-0.589c-0.358-0.070-0.624-0.381-0.624-0.754v-6.589c0-0.359 0.249-0.671 0.6-0.749l3.315-0.744-1.698-2.477c-0.084-0.121-0.135-0.272-0.135-0.434 0-0.213 0.087-0.406 0.228-0.546l4.734-4.687c0.139-0.137 0.33-0.222 0.54-0.222 0.147 0 0.284 0.041 0.401 0.113l-0.003-0.002 2.75 1.664 0.724-2.923c0.085-0.337 0.386-0.583 0.745-0.583 0 0 0 0 0 0h6.717c0.354 0 0.662 0.242 0.746 0.586l0.744 3.051 2.632-1.492c0.109-0.063 0.239-0.1 0.378-0.1 0.206 0 0.394 0.081 0.532 0.214l-0-0 4.809 4.615c0.146 0.14 0.236 0.337 0.236 0.554 0 0.155-0.046 0.298-0.124 0.419l0.002-0.003-1.781 2.764 3.069 0.714c0.343 0.082 0.594 0.386 0.594 0.748v0 6.589c0 0 0 0 0 0 0 0.375-0.269 0.687-0.625 0.754l-0.005 0.001-3.17 0.58 1.754 2.523c0.086 0.122 0.137 0.274 0.137 0.438 0 0.215-0.088 0.41-0.231 0.549l-4.764 4.645c-0.139 0.135-0.328 0.218-0.537 0.218-0.142 0-0.276-0.039-0.39-0.106l0.004 0.002-2.926-1.707-0.663 2.905c-0.081 0.344-0.385 0.597-0.749 0.597-0 0-0 0-0 0v0zM13.071 29.521h5.506l0.759-3.327c0.082-0.344 0.387-0.596 0.75-0.596 0.142 0 0.274 0.038 0.389 0.105l-0.004-0.002 3.325 1.939 3.88-3.783-2.064-2.968c-0.087-0.123-0.139-0.275-0.139-0.44 0-0.376 0.27-0.688 0.627-0.753l0.005-0.001 3.713-0.679v-5.339l-3.537-0.823c-0.343-0.083-0.593-0.387-0.593-0.749 0-0.154 0.045-0.297 0.123-0.418l-0.002 0.003 2.029-3.149-3.94-3.781-3.018 1.711c-0.109 0.063-0.239 0.099-0.378 0.099-0.359 0-0.661-0.247-0.745-0.58l-0.001-0.005-0.842-3.452h-5.513l-0.83 3.352c-0.085 0.338-0.386 0.583-0.745 0.583-0.147 0-0.285-0.042-0.402-0.113l0.003 0.002-3.13-1.894-3.853 3.815 1.977 2.884c0.085 0.122 0.136 0.273 0.136 0.436 0 0.365-0.255 0.67-0.597 0.746l-0.005 0.001-3.822 0.857v5.339l3.59 0.684c0.358 0.069 0.625 0.38 0.625 0.753 0 0.155-0.046 0.3-0.126 0.421l0.002-0.003-2.134 3.302 3.877 3.78 3.054-1.957c0.117-0.076 0.26-0.121 0.413-0.121 0.358 0 0.659 0.244 0.744 0.575l0.001 0.005 0.889 3.54zM16.045 22.064c-3.346 0-6.069-2.722-6.069-6.069s2.722-6.069 6.069-6.069c3.346 0 6.069 2.722 6.069 6.069s-2.722 6.069-6.069 6.069zM16.045 11.462c-2.499 0-4.533 2.033-4.533 4.533s2.033 4.533 4.533 4.533 4.533-2.033 4.533-4.533-2.033-4.533-4.533-4.533z"></path>
</symbol>
<symbol id="icon-shanchu1" viewBox="0 0 32 32">
<title>shanchu1</title>
<path d="M16 31c-8.284 0-15-6.715-15-15s6.715-15 15-15 15 6.715 15 15-6.715 15-15 15zM22.776 9.224c-0.176-0.176-0.418-0.284-0.686-0.284s-0.511 0.109-0.686 0.284l-5.375 5.375-5.376-5.376c-0.173-0.164-0.407-0.264-0.664-0.264-0.534 0-0.967 0.433-0.967 0.967 0 0.257 0.101 0.491 0.265 0.665l-0-0 5.377 5.376-5.377 5.377c-0.169 0.174-0.273 0.412-0.273 0.675 0 0.536 0.435 0.971 0.971 0.971 0.262 0 0.5-0.104 0.675-0.273l-0 0 5.377-5.377 5.316 5.316c0.175 0.175 0.416 0.283 0.683 0.283 0.534 0 0.966-0.433 0.966-0.966 0-0.267-0.108-0.509-0.283-0.683l-5.316-5.316 5.375-5.375c0.176-0.176 0.284-0.418 0.284-0.687s-0.109-0.511-0.284-0.687v0z"></path>
</symbol>
<symbol id="icon-search2" viewBox="0 0 32 32">
<title>search2</title>
<path d="M10.904 6.491c-0.599 0.258-1.11 0.539-1.591 0.862l0.035-0.022c-0.501 0.348-0.94 0.718-1.342 1.126l-0.001 0.001c-0.411 0.407-0.781 0.854-1.103 1.336l-0.020 0.031c-0.309 0.447-0.59 0.957-0.817 1.495l-0.021 0.056c-0.041 0.090-0.065 0.196-0.065 0.307 0 0.319 0.196 0.592 0.473 0.707l0.005 0.002c0.089 0.038 0.192 0.060 0.3 0.060 0.317 0 0.59-0.19 0.711-0.462l0.002-0.005c0.184-0.443 0.424-0.887 0.699-1.293s0.58-0.793 0.92-1.126c0.339-0.341 0.709-0.651 1.106-0.925l0.026-0.017c0.366-0.249 0.786-0.484 1.226-0.681l0.053-0.021c0.287-0.116 0.485-0.392 0.485-0.715 0-0.109-0.023-0.212-0.063-0.306l0.002 0.005c-0.124-0.281-0.401-0.474-0.723-0.474-0.108 0-0.211 0.022-0.304 0.061l0.005-0.002zM30.921 29.615l-5.605-5.606c0.874-1.045 1.613-2.246 2.165-3.546l0.035-0.093c0.675-1.589 1.067-3.437 1.067-5.377 0-0.019-0-0.038-0-0.057v0.003c0-1.884-0.368-3.694-1.049-5.347l-0.019-0.065c-0.739-1.764-1.752-3.272-3.002-4.546l0.002 0.002-0.072-0.063c-1.277-1.285-2.799-2.324-4.492-3.040l-0.092-0.035c-1.589-0.678-3.438-1.072-5.379-1.072-0.008 0-0.016 0-0.024 0h0.001c-5.859 0.005-10.882 3.577-13.015 8.662l-0.035 0.093c-0.675 1.591-1.068 3.441-1.068 5.383 0 0.010 0 0.020 0 0.030v-0.002c0 1.902 0.377 3.713 1.040 5.356l0.027 0.074c0.752 1.784 1.787 3.308 3.064 4.589l-0-0c1.279 1.282 2.801 2.321 4.491 3.041l0.093 0.035h0.019c1.578 0.683 3.415 1.080 5.346 1.080 0.014 0 0.027-0 0.040-0h-0.002c1.923 0 3.736-0.378 5.402-1.080 1.39-0.576 2.587-1.315 3.645-2.214l-0.019 0.016 5.614 5.634c0.231 0.23 0.55 0.372 0.902 0.372 0.361 0 0.687-0.15 0.92-0.39l0-0c0.233-0.237 0.376-0.561 0.376-0.919s-0.144-0.683-0.376-0.92l0 0zM22.62 23.123v0.009l-0.019 0.019c-1.038 1.040-2.276 1.879-3.652 2.456l-0.075 0.028c-1.296 0.561-2.805 0.887-4.39 0.887-0.010 0-0.020 0-0.029-0h0.002c-1.565 0-3.056-0.314-4.408-0.887-1.456-0.605-2.699-1.452-3.735-2.502l-0.010-0.010h0.009c-1.052-1.048-1.903-2.297-2.493-3.683l-0.029-0.076-0.019-0.065c-0.535-1.284-0.845-2.775-0.845-4.339 0-0.007 0-0.014 0-0.021v0.001c0-1.57 0.304-3.066 0.865-4.424 0.626-1.46 1.477-2.707 2.523-3.76l-0.001 0.001c2.080-2.093 4.961-3.389 8.145-3.389 0 0 0 0 0 0v0c1.574 0 3.064 0.314 4.418 0.877 1.459 0.61 2.704 1.459 3.744 2.511l0.001 0.001 0.074 0.056c1.008 1.040 1.828 2.268 2.401 3.626l0.029 0.078 0.037 0.065c0.525 1.33 0.846 2.817 0.846 4.359 0 1.579-0.322 3.075-0.883 4.424-0.605 1.464-1.452 2.714-2.503 3.757l-0.001 0.001zM22.823 14.165c-0.427 0.003-0.771 0.349-0.773 0.776v0c0 0.010 0 0.023 0 0.035 0 1.040-0.21 2.032-0.589 2.934l0.019-0.050-0.019 0.037c-0.377 0.868-0.902 1.708-1.639 2.42-1.354 1.379-3.238 2.234-5.322 2.234-0.015 0-0.030-0-0.045-0h0.002c-0.432 0-0.764 0.351-0.764 0.785s0.331 0.785 0.764 0.785c1.206 0 2.384-0.24 3.507-0.702 1.157-0.479 2.143-1.154 2.962-1.993l0.002-0.002c0.818-0.821 1.483-1.795 1.947-2.876l0.023-0.060v-0.028c0.452-1.038 0.716-2.247 0.718-3.517v-0.001c-0.009-0.43-0.36-0.775-0.791-0.775-0.001 0-0.002 0-0.002 0h0z"></path>
</symbol>
<symbol id="icon-shangpin" viewBox="0 0 32 32">
<title>shangpin</title>
<path d="M27.888 0h-24.032c-1.712 0-3.104 1.472-3.104 3.28v25.44c0 1.808 1.392 3.28 3.088 3.28h24.032c1.712 0 3.088-1.472 3.088-3.28v-25.44c0.016-1.808-1.376-3.28-3.072-3.28zM25.472 9.792c-0.8 4.944-4.88 8.608-9.6 8.608-4.736 0-8.816-3.68-9.616-8.608-0.816-0.352-1.392-1.184-1.392-2.176 0-1.296 0.992-2.336 2.208-2.336s2.208 1.056 2.208 2.336c0 0.352-0.080 0.672-0.208 0.976-0.080 0.32-0.224 0.624-0.464 0.88 0.688 3.76 3.68 6.4 7.248 6.4s6.592-2.672 7.248-6.384c-0.208-0.231-0.368-0.509-0.46-0.817l-0.004-0.015c-0.148-0.299-0.236-0.651-0.24-1.023v-0.001c0-1.296 0.992-2.336 2.208-2.336s2.208 1.056 2.208 2.336c0.002 0.034 0.003 0.074 0.003 0.114 0 0.912-0.548 1.696-1.333 2.041l-0.014 0.006z"></path>
</symbol>
<symbol id="icon-setting" viewBox="0 0 36 32">
<title>setting</title>
<path d="M35.828 13.606c-0.141-0.744-0.895-1.5-1.678-1.668l-0.585-0.127c-1.375-0.395-2.594-1.259-3.369-2.531-0.491-0.787-0.782-1.743-0.782-2.767 0-0.461 0.059-0.908 0.17-1.335l-0.008 0.037 0.183-0.522c0.233-0.723-0.070-1.721-0.684-2.217 0 0-0.55-0.442-2.101-1.293-1.551-0.844-2.22-1.078-2.22-1.078-0.754-0.261-1.812-0.013-2.361 0.543l-0.409 0.415c-1.043 0.938-2.446 1.507-3.996 1.507s-2.968-0.576-4.011-1.52l-0.395-0.402c-0.543-0.556-1.607-0.804-2.361-0.542 0 0-0.677 0.235-2.227 1.078-1.551 0.857-2.093 1.299-2.093 1.299-0.613 0.489-0.916 1.48-0.684 2.21l0.169 0.529c0.331 1.333 0.155 2.779-0.62 4.059s-2.009 2.15-3.39 2.538l-0.564 0.12c-0.775 0.168-1.537 0.918-1.678 1.668 0 0-0.127 0.67-0.127 2.371s0.127 2.371 0.127 2.371c0.141 0.75 0.895 1.5 1.678 1.668l0.55 0.121c1.381 0.388 2.622 1.259 3.397 2.545 0.491 0.787 0.782 1.743 0.782 2.766 0 0.461-0.059 0.909-0.17 1.335l0.008-0.037-0.162 0.516c-0.233 0.723 0.070 1.721 0.684 2.217 0 0 0.55 0.442 2.101 1.293s2.22 1.078 2.22 1.078c0.754 0.261 1.812 0.013 2.362-0.543l0.388-0.395c1.050-0.944 2.46-1.52 4.018-1.52s2.974 0.583 4.018 1.527l0.388 0.395c0.543 0.556 1.607 0.804 2.361 0.542 0 0 0.677-0.234 2.227-1.078 1.551-0.851 2.093-1.293 2.093-1.293 0.613-0.489 0.916-1.487 0.684-2.217l-0.169-0.536c-0.101-0.386-0.159-0.829-0.159-1.286 0-1.021 0.29-1.974 0.792-2.781l-0.013 0.022c0.775-1.279 2.016-2.157 3.397-2.545l0.55-0.121c0.775-0.167 1.537-0.917 1.678-1.668 0 0 0.127-0.67 0.127-2.371-0.007-1.708-0.134-2.377-0.134-2.377zM17.988 22.788c-3.954 0-7.169-3.047-7.169-6.811 0-3.757 3.207-6.805 7.169-6.805 3.954 0 7.168 3.047 7.168 6.811-0.007 3.757-3.214 6.805-7.168 6.805z"></path>
</symbol>
<symbol id="icon-shopping" viewBox="0 0 32 32">
<title>shopping</title>
<path d="M26 9.75h-4.25v-0.5c0-3.176-2.574-5.75-5.75-5.75s-5.75 2.574-5.75 5.75v0 0.5h-4.25c-0.552 0-1 0.448-1 1v0 16.75c0 0.552 0.448 1 1 1v0h20c0.552 0 1-0.448 1-1v0-16.75c0-0.552-0.448-1-1-1v0zM12.5 9.25c0-1.934 1.566-3.5 3.5-3.5s3.5 1.566 3.5 3.5v0.5h-7v-0.5zM24.75 26.25h-17.5v-14.25h3v2.75c0 0.137 0.113 0.25 0.25 0.25h1.75c0.137 0 0.25-0.113 0.25-0.25v-2.75h7v2.75c0 0.137 0.113 0.25 0.25 0.25h1.75c0.137 0 0.25-0.113 0.25-0.25v-2.75h3v14.25z"></path>
</symbol>
<symbol id="icon-shop" viewBox="0 0 32 32">
<title>shop</title>
<path d="M27.563 8.503v-4.003c0-0.552-0.448-1-1-1v0h-21.125c-0.552 0-1 0.448-1 1v0 4.003c-0.525 0.034-0.937 0.467-0.938 0.997v4.116c0 0.762 0.15 1.503 0.45 2.2 0.134 0.319 0.3 0.619 0.487 0.903v10.781c0 0.55 0.447 1 1 1h21.125c0.552 0 1-0.448 1-1v0-10.781c0.588-0.871 0.938-1.944 0.938-3.098 0-0.002 0-0.003 0-0.005v0-4.116c-0.001-0.53-0.413-0.963-0.935-0.997l-0.003-0zM6.688 5.75h18.625v2.75h-18.625v-2.75zM18 26.253h-4v-3.253h4v3.253zM25.313 26.253h-5.313v-4.253c0-0.552-0.448-1-1-1v0h-6c-0.552 0-1 0.448-1 1v0 4.253h-5.313v-7.569c0.719 0.357 1.565 0.566 2.46 0.566 0.007 0 0.015 0 0.022-0h-0.001c0.001 0 0.002 0 0.002 0 1.284 0 2.469-0.425 3.421-1.142l-0.015 0.010c0.003-0.001 0.006-0.002 0.009-0.002s0.007 0.001 0.010 0.002l-0-0c0.937 0.707 2.121 1.132 3.405 1.132 0.002 0 0.003 0 0.005 0h-0c0.762 0 1.5-0.147 2.2-0.441 0.462-0.196 0.86-0.427 1.224-0.702l-0.015 0.011c0.003-0.001 0.006-0.002 0.009-0.002s0.007 0.001 0.010 0.002l-0-0c0.937 0.707 2.121 1.132 3.405 1.132 0.002 0 0.003 0 0.005 0h-0c0.762 0 1.5-0.147 2.2-0.441 0.094-0.041 0.188-0.081 0.281-0.125v7.569zM26.25 13.616c0 1.869-1.531 3.384-3.416 3.384-0.002 0-0.005 0-0.007 0-1.262 0-2.365-0.683-2.959-1.7l-0.009-0.016c-0.088-0.152-0.249-0.253-0.434-0.253h-0.019c-0.185 0.001-0.346 0.101-0.433 0.251l-0.001 0.002c-0.6 1.033-1.701 1.716-2.962 1.716-0.004 0-0.007 0-0.011-0h0.001c-0.002 0-0.005 0-0.008 0-1.259 0-2.359-0.68-2.953-1.693l-0.009-0.016c-0.091-0.155-0.257-0.258-0.447-0.258s-0.356 0.103-0.446 0.256l-0.001 0.002c-0.604 1.029-1.705 1.709-2.965 1.709-0.003 0-0.005 0-0.008 0h0c-1.884 0-3.416-1.516-3.416-3.384v-2.85c0-0.009 0.006-0.016 0.016-0.016h20.469c0.009 0 0.016 0.006 0.016 0.016v2.85z"></path>
</symbol>
<symbol id="icon-star" viewBox="0 0 32 32">
<title>star</title>
<path d="M28.378 11.034l-7.934-1.153-3.547-7.191c-0.099-0.198-0.255-0.354-0.447-0.45l-0.006-0.003c-0.129-0.065-0.281-0.103-0.443-0.103-0.391 0-0.73 0.224-0.896 0.55l-0.003 0.006-3.547 7.191-7.934 1.153c-0.486 0.075-0.854 0.49-0.854 0.991 0 0.28 0.115 0.534 0.301 0.716l0 0 5.741 5.597-1.356 7.903c-0.009 0.051-0.015 0.11-0.015 0.171 0 0.551 0.447 0.998 0.998 0.998 0.171 0 0.332-0.043 0.472-0.118l-0.005 0.003 7.097-3.731 7.097 3.731c0.135 0.072 0.295 0.115 0.465 0.115 0.552 0 0.999-0.447 0.999-0.999 0-0.060-0.005-0.118-0.015-0.175l0.001 0.006-1.356-7.903 5.741-5.597c0.156-0.153 0.259-0.353 0.291-0.572 0.007-0.044 0.011-0.096 0.011-0.148 0-0.5-0.369-0.915-0.85-0.985l-0.005-0.001zM20.775 17.55l1.128 6.572-5.903-3.1-5.903 3.103 1.128-6.572-4.775-4.656 6.6-0.959 2.95-5.978 2.95 5.978 6.6 0.959-4.775 4.653z"></path>
</symbol>
<symbol id="icon-shouye" viewBox="0 0 32 32">
<title>shouye</title>
<path d="M15.794 6.237l-10.5 9.1v11.9l2.1 2.1h5.6v-7.7l0.7-1.4h3.5l1.4 2.1v7h6.3l2.1-2.1v-11.9zM8.794 4.138h-2.1v6.3l2.1-2.1zM29.962 14.066c-0.002-0.187-0.087-0.355-0.218-0.468l-0.001-0.001-13.356-11.469c-0.109-0.093-0.252-0.15-0.408-0.15s-0.299 0.057-0.409 0.151l0.001-0.001-5.903 5.069v-3.188c-0.001-0.337-0.274-0.609-0.611-0.609-0.005 0-0.010 0-0.015 0h-2.752c-0.004-0-0.008-0-0.012-0-0.337 0-0.609 0.273-0.61 0.609v6.622l-3.456 2.969c-0.134 0.115-0.219 0.285-0.219 0.475v3.297c0.003 0.344 0.281 0.622 0.625 0.625h0c0.156-0.001 0.299-0.057 0.41-0.151l-0.001 0.001 1.666-1.431v10.128c0.003 1.899 1.542 3.437 3.441 3.438h15.772c1.898-0.002 3.437-1.54 3.441-3.438v-10.119l1.613 1.384c0.002 0.344 0.282 0.622 0.626 0.622 0.346 0 0.626-0.28 0.626-0.626 0-0.189-0.084-0.358-0.216-0.473l-0.001-0.001-0.031-3.266zM6.916 4.647h1.503v3.622l-1.503 1.291v-4.912zM17.837 28.728h-4.194v-6.878c0-0.344 0.281-0.625 0.625-0.625h2.941c0.344 0 0.625 0.281 0.625 0.625l0.003 6.878zM26.097 15.453v11.087c-0.002 1.209-0.982 2.188-2.191 2.188 0 0 0 0 0 0h-4.819v-6.878c-0.002-1.036-0.842-1.875-1.878-1.875h-2.941c-1.036 0.001-1.875 0.84-1.878 1.875v6.878h-4.253c-1.209-0.001-2.188-0.98-2.191-2.188v-11.088c0-0.001 0-0.001 0-0.002 0-0.037-0.003-0.073-0.010-0.108l0.001 0.004 10.075-8.653 10.094 8.666c-0.006 0.028-0.009 0.060-0.009 0.092 0 0.001 0 0.001 0 0.002v-0zM16.419 5.394c-0.109-0.093-0.252-0.15-0.408-0.15s-0.299 0.057-0.409 0.151l0.001-0.001-12.356 10.616v-1.647l12.731-10.931 12.734 10.934 0.016 1.6-12.309-10.572z"></path>
</symbol>
<symbol id="icon-tag" viewBox="0 0 32 32">
<title>tag</title>
<path d="M29.313 14.338l-0.925-9.769c-0.050-0.506-0.45-0.906-0.952-0.956l-0.004-0-9.781-0.925c-0.004-0-0.009-0-0.014-0-0.087 0-0.166 0.035-0.224 0.091l-14.634 14.634c-0.057 0.056-0.092 0.134-0.092 0.221s0.035 0.164 0.092 0.221v0l11.369 11.369c0.059 0.059 0.137 0.091 0.222 0.091s0.162-0.031 0.222-0.091l14.634-14.634c0.055-0.058 0.088-0.136 0.088-0.222 0-0.010-0-0.019-0.001-0.029l0 0.001zM14.366 26.084l-8.45-8.45 12.491-12.491 7.719 0.731 0.731 7.719-12.491 12.491zM21.25 8c-1.516 0-2.75 1.234-2.75 2.75s1.234 2.75 2.75 2.75 2.75-1.234 2.75-2.75-1.234-2.75-2.75-2.75zM21.25 11.75c-0.552 0-1-0.448-1-1s0.448-1 1-1v0c0.552 0 1 0.448 1 1s-0.448 1-1 1v0z"></path>
</symbol>
<symbol id="icon-stock" viewBox="0 0 32 32">
<title>stock</title>
<path d="M28.25 23.344h-24.5c-0.138 0-0.25 0.112-0.25 0.25v0 1.75c0 0.137 0.112 0.25 0.25 0.25h24.5c0.137 0 0.25-0.113 0.25-0.25v-1.75c-0.001-0.138-0.112-0.249-0.25-0.25h-0zM5.178 19.431l1.241 1.234c0.045 0.045 0.108 0.073 0.176 0.073s0.131-0.028 0.176-0.073l7.334-7.309 3.050 3.041c0.181 0.179 0.431 0.29 0.706 0.29s0.525-0.111 0.707-0.29l-0 0 8.256-8.225c0.045-0.045 0.073-0.108 0.073-0.176s-0.028-0.131-0.073-0.176v0l-1.241-1.237c-0.045-0.045-0.108-0.073-0.177-0.073s-0.131 0.028-0.177 0.073l-7.366 7.344-3.053-3.041c-0.181-0.179-0.431-0.29-0.706-0.29s-0.525 0.111-0.706 0.29l0-0-8.222 8.194c-0.046 0.045-0.074 0.107-0.074 0.177s0.028 0.131 0.074 0.176l0 0z"></path>
</symbol>
<symbol id="icon-tuichu" viewBox="0 0 32 32">
<title>tuichu</title>
<path d="M23.293 6.292c-0.453-0.204-0.763-0.651-0.763-1.171 0-0.707 0.573-1.28 1.28-1.28 0.246 0 0.476 0.070 0.672 0.19l-0.006-0.003-0.006-0.003 0.005-0.009c4.148 2.732 6.884 7.411 6.884 12.726 0 8.426-6.877 15.258-15.36 15.258s-15.36-6.831-15.36-15.258c0-5.315 2.735-9.994 6.884-12.726l0.004 0.009c0.152-0.069 0.33-0.109 0.517-0.109 0.707 0 1.28 0.573 1.28 1.28 0 0.461-0.243 0.864-0.608 1.090l-0.005 0.003-0.006 0.003c-3.325 2.296-5.505 6.12-5.505 10.45 0 7.022 5.731 12.714 12.8 12.714s12.8-5.692 12.8-12.714c0-4.33-2.179-8.154-5.507-10.45zM16 0c0.707 0 1.28 0.573 1.28 1.28v15.36c0 0.707-0.573 1.28-1.28 1.28s-1.28-0.573-1.28-1.28v0-15.36c0-0.707 0.573-1.28 1.28-1.28z"></path>
</symbol>
<symbol id="icon-tuichu1" viewBox="0 0 32 32">
<title>tuichu1</title>
<path d="M15.968 31.68c-8.448 0-15.328-6.88-15.328-15.328 0-4.048 1.552-7.856 4.384-10.736 0.544-0.56 1.44-0.56 1.984-0.016 0.56 0.544 0.56 1.44 0.016 1.984-2.206 2.247-3.568 5.329-3.568 8.73 0 0.014 0 0.027 0 0.040v-0.002c0 6.896 5.616 12.512 12.512 12.512s12.512-5.616 12.512-12.512c0-3.344-1.296-6.48-3.664-8.848-0.544-0.544-0.544-1.44 0-1.984s1.44-0.544 1.984 0c2.777 2.763 4.496 6.587 4.496 10.813 0 0.012 0 0.025-0 0.037v-0.002c0 8.432-6.864 15.312-15.328 15.312zM15.968 13.984c-0.002 0-0.005 0-0.008 0-0.773 0-1.4-0.627-1.4-1.4 0-0.003 0-0.006 0-0.008v0-11.168c0-0.784 0.624-1.408 1.408-1.408s1.408 0.624 1.408 1.408v11.168c0 0.002 0 0.005 0 0.008 0 0.773-0.627 1.4-1.4 1.4-0.003 0-0.006 0-0.008-0h0z"></path>
</symbol>
<symbol id="icon-ss-search" viewBox="0 0 32 32">
<title>ss-search</title>
<path d="M26.197 24.215c2.224-2.623 3.421-5.948 3.421-9.405-0.012-8.172-6.637-14.809-14.809-14.809s-14.809 6.637-14.809 14.809 6.637 14.809 14.809 14.809c2.128 0 4.207-0.447 6.141-1.342 0.592-0.254 0.846-0.943 0.544-1.487-0.189-0.383-0.577-0.641-1.025-0.641-0.005 0-0.011 0-0.016 0h0.001c-0.18 0.009-0.35 0.044-0.508 0.101l0.012-0.004c-1.535 0.689-3.264 1.136-5.15 1.136-6.879 0-12.524-5.597-12.524-12.524 0-6.879 5.597-12.524 12.524-12.524 6.879 0 12.524 5.597 12.524 12.524 0 3.264-1.233 6.335-3.47 8.668-0.193 0.193-0.302 0.496-0.302 0.798s0.145 0.592 0.351 0.846c0.048 0.048 0.097 0.048 0.097 0.048 0.048 0.048 0.048 0.097 0.097 0.145l5.887 6.286c0.193 0.193 0.496 0.351 0.846 0.351 0.302 0 0.544-0.097 0.798-0.302 0.242-0.193 0.351-0.496 0.351-0.846 0-0.302-0.097-0.592-0.302-0.798l-5.488-5.839zM26.197 24.215"></path>
</symbol>
<symbol id="icon-user" viewBox="0 0 32 32">
<title>user</title>
<path d="M25.494 9.355c0 5.167-4.188 9.355-9.355 9.355s-9.355-4.188-9.355-9.355v0c0-5.167 4.188-9.355 9.355-9.355s9.355 4.188 9.355 9.355v0zM23.86 19.149c-2.097 1.669-4.784 2.677-7.706 2.677-0.005 0-0.010 0-0.016 0h0.001c-2.872 0-5.6-0.978-7.79-2.732-5.772 2.119-8.35 9.524-8.35 12.906h32.116c0-3.352-2.598-10.705-8.256-12.85z"></path>
</symbol>
<symbol id="icon-wxapp" viewBox="0 0 32 32">
<title>wxapp</title>
<path d="M16 0c-8.837 0-16 7.163-16 16s7.163 16 16 16 16-7.163 16-16-7.163-16-16-16zM25.464 14.693c-0.763 1.175-1.906 2.046-3.253 2.447l-0.041 0.011c-0.052 0-0.052 0-0.104 0.052-0.21 0.053-0.418 0.105-0.68 0.105-0.994 0-1.516-0.68-1.255-1.464 0.21-0.575 0.784-1.098 1.464-1.307 1.098-0.418 1.83-1.307 1.83-2.353 0-1.412-1.36-2.562-3.032-2.562-1.674 0-3.034 1.15-3.034 2.562v7.79c0 1.882-1.098 3.504-2.718 4.445-0.889 0.522-1.935 0.784-3.033 0.784-3.19 0-5.752-2.352-5.752-5.229 0-0.941 0.262-1.778 0.732-2.562 0.763-1.175 1.906-2.047 3.253-2.447l0.041-0.011c0.262-0.053 0.47-0.104 0.732-0.104 0.994 0 1.516 0.679 1.255 1.464-0.21 0.574-0.732 1.045-1.36 1.306-0.082 0.014-0.153 0.051-0.209 0.104l0-0c-0.994 0.419-1.674 1.256-1.674 2.302 0 1.411 1.36 2.562 3.033 2.562s3.033-1.15 3.033-2.562v-7.791c0-1.882 1.098-3.503 2.719-4.444 0.888-0.523 1.934-0.784 3.032-0.784 3.19 0 5.752 2.352 5.752 5.228 0 0.837-0.262 1.674-0.732 2.458z"></path>
</symbol>
<symbol id="icon-tixing" viewBox="0 0 32 32">
<title>tixing</title>
<path d="M4.020 25.158c-0.004-0.53 0.046-1.080 0.172-1.594 0.154-0.624 0.404-1.12 0.75-1.458 0.237-0.234 0.492-0.449 0.764-0.644l0.019-0.013 0.019-0.013c1.234-0.857 2.031-2.266 2.032-3.862v-4.984c-0-0.008-0-0.018-0-0.027 0-1.855 0.618-3.566 1.658-4.938l-0.015 0.020c1.244-1.644 2.719-2.871 4.403-3.479l0.604-0.216 0.050-0.62c0.013-0.16 0.050-0.307 0.108-0.444l-0.004 0.010c0.010-0.020 0.026-0.060 0.060-0.126l0.074-0.126c0.061-0.084 0.121-0.158 0.184-0.228l-0.002 0.002 0.056-0.054 0.104-0.088c0.096-0.070 0.096-0.070 0.12-0.084l0.062-0.036c0.024-0.016 0.053-0.032 0.083-0.046l0.005-0.002 0.1-0.044 0.072-0.028c0.070-0.024 0.072-0.024 0.114-0.034l0.080-0.018 0.086-0.016 0.080-0.010c0.043-0.004 0.093-0.006 0.144-0.006l0.14 0.004 0.082 0.012 0.086 0.014 0.080 0.020 0.072 0.020 0.072 0.026 0.080 0.030 0.092 0.044c0.075 0.039 0.138 0.078 0.198 0.123l-0.004-0.003c0.072 0.052 0.072 0.052 0.116 0.090 0.054 0.050 0.080 0.076 0.148 0.148l0.084 0.104 0.074 0.112 0.062 0.12c0.017 0.031 0.034 0.068 0.048 0.107l0.002 0.006 0.002 0.007c0.032 0.075 0.058 0.163 0.071 0.254l0.001 0.006c0.010 0.044 0.014 0.090 0.020 0.132l0.048 0.622 0.604 0.216c1.686 0.608 3.161 1.836 4.405 3.479 1.025 1.353 1.642 3.064 1.642 4.919 0 0.009 0 0.018-0 0.027v-0.001 4.979c0 1.54 0.752 2.987 2.032 3.867 0.25 0.172 0.516 0.392 0.802 0.67 0.348 0.34 0.6 0.834 0.75 1.46 0.11 0.448 0.173 0.963 0.173 1.493 0 0.035-0 0.069-0.001 0.104l0-0.005h-23.96zM16.117 30.038h-0.034c-1.818-0-3.353-1.211-3.843-2.871l-0.007-0.028-0.007-0.028h7.78c-0.489 1.701-2.030 2.924-3.857 2.927h-0.034zM29.77 23.114c-0.232-0.948-0.644-1.764-1.284-2.385-0.312-0.31-0.65-0.595-1.010-0.852l-0.025-0.017-0.026-0.017c-0.72-0.503-1.186-1.328-1.186-2.261 0-0 0-0 0-0v0-5.015c0-2.291-0.764-4.405-2.052-6.099l0.018 0.025c-1.33-1.758-2.917-3.137-4.785-3.939-0.036-0.128-0.069-0.228-0.107-0.326l0.009 0.026c-0.119-0.319-0.276-0.594-0.468-0.84l0.005 0.007 0.005 0.007c-0.133-0.172-0.271-0.325-0.42-0.466l-0.002-0.002-0.002-0.002-0.074-0.072c-0.080-0.070-0.080-0.070-0.172-0.14l-0.092-0.066c-0.076-0.056-0.076-0.056-0.17-0.118l-0.1-0.060-0.184-0.104-0.118-0.056c-0.1-0.048-0.1-0.048-0.186-0.080-0.080-0.034-0.080-0.034-0.138-0.052-0.1-0.036-0.1-0.036-0.178-0.060-0.1-0.028-0.1-0.028-0.164-0.040-0.092-0.026-0.092-0.026-0.164-0.040-0.132-0.024-0.132-0.024-0.216-0.034l-0.136-0.020c-0.103-0.009-0.223-0.015-0.343-0.015-0.133 0-0.264 0.006-0.393 0.019l0.016-0.001 0.016-0.001-0.116 0.014-0.228 0.036-0.12 0.026-0.21 0.054-0.128 0.042-0.192 0.070c-0.084 0.034-0.084 0.034-0.134 0.060l-0.168 0.080-0.134 0.072-0.144 0.086-0.166 0.112-0.104 0.080c-0.090 0.068-0.090 0.068-0.16 0.128l-0.086 0.080-0.156 0.148c-0.214 0.228-0.401 0.486-0.552 0.766l-0.010 0.020-0.010 0.020c-0.036 0.068-0.082 0.164-0.124 0.261l-0.012 0.031c-0.050 0.134-0.080 0.222-0.106 0.316-1.878 0.834-3.465 2.213-4.795 3.971-1.269 1.661-2.034 3.767-2.034 6.051 0 0.008 0 0.017 0 0.025v-0.001 5.003c0 0.005 0 0.011 0 0.016 0 0.931-0.463 1.754-1.171 2.251l-0.009 0.006c-0.396 0.279-0.744 0.57-1.066 0.886l0.001-0.001 0.001-0.001c-0.64 0.624-1.054 1.44-1.286 2.387-0.146 0.602-0.23 1.294-0.23 2.005 0 0.423 0.030 0.84 0.087 1.248l-0.005-0.047-0.005-0.046 0.124 0.84h7.97c0.482 2.763 2.951 4.881 5.945 4.881 2.995 0 5.465-2.115 5.947-4.879h7.738l0.126-0.84c0.008-0.074 0.022-0.188 0.036-0.34 0.074-0.896 0.040-1.874-0.192-2.819zM20.812 8.24c-0.798-0.976-1.494-1.578-1.956-1.868-0.151-0.097-0.336-0.154-0.534-0.154-0.552 0-1 0.448-1 1 0 0.354 0.184 0.666 0.462 0.843l0.004 0.002 0.004 0.002c0.284 0.18 0.814 0.636 1.472 1.44 0.476 0.597 0.818 1.321 0.967 2.113l0.005 0.030c0.058 0.503 0.482 0.889 0.995 0.889 0.553 0 1.002-0.448 1.002-1.002 0-0.068-0.007-0.135-0.020-0.199l0.001 0.006v0.005c-0.209-1.2-0.708-2.258-1.423-3.133l0.010 0.012 0.010 0.012"></path>
</symbol>
<symbol id="icon-wxbsousuotuiguang" viewBox="0 0 32 32">
<title>wxbsousuotuiguang</title>
<path d="M29.306 24.058l-6.966-6.968c0.739-1.383 1.174-3.025 1.175-4.768v-0c0-5.705-4.643-10.346-10.346-10.346-5.707 0-10.347 4.641-10.347 10.346s4.64 10.346 10.347 10.346c1.893 0 3.665-0.52 5.194-1.413l6.873 6.873c0.561 0.561 1.298 0.84 2.035 0.84s1.474-0.279 2.035-0.84c0.544-0.544 0.845-1.267 0.845-2.036s-0.301-1.493-0.845-2.034M4.157 12.322c0-4.968 4.042-9.011 9.012-9.011 4.967 0 9.011 4.043 9.011 9.011-0.002 3.093-1.561 5.821-3.936 7.442l-0.031 0.020c-0.033 0.013-0.059 0.039-0.090 0.057-1.393 0.934-3.107 1.491-4.951 1.491-0.001 0-0.002 0-0.003 0h0c-4.97 0-9.012-4.041-9.012-9.011M28.362 27.184c-0.602 0.6-1.58 0.6-2.182 0l-6.689-6.691c0.82-0.64 1.525-1.375 2.112-2.2l0.022-0.032 6.738 6.74c0.28 0.279 0.454 0.665 0.454 1.091s-0.173 0.813-0.454 1.091l-0 0M6.724 12.118s1.317-6.594 7.318-7.030c0 0-8.232-0.978-7.318 7.030"></path>
</symbol>
<symbol id="icon-x" viewBox="0 0 32 32">
<title>x</title>
<path d="M9.281 11.031q-0.844 0.031-1.656 0.031h-2.594q-0.563 0-1.141 0.188t-1.016 0.578-0.719 1-0.281 1.422v2.375h28.5v-1.281q0-0.5-0.016-0.938t-0.016-0.563q0-0.406-0.156-0.906t-0.531-0.922-0.984-0.703-1.547-0.281h-4.156v3.031h-13.688v-3.031zM30.344 18.313v1.625q0 0.719 0.016 1.625t0.016 1.813-0.328 1.484-0.813 0.938-1.031 0.5-0.984 0.141q-0.438 0.031-0.922 0.016t-0.922-0.016h-1l-1.406-4h-13.719l-1.375 4h-1.969q-0.625 0-1.406-0.031-0.781 0-1.281-0.297t-0.797-0.719-0.422-0.922-0.125-0.938v-5.219h28.469zM5.594 20.281q-0.375 0-0.656 0.266t-0.281 0.672 0.281 0.672 0.656 0.266q0.406 0 0.688-0.266t0.281-0.672-0.281-0.672-0.688-0.266zM10.375 24.156q-0.25 0.813-0.438 1.5-0.156 0.594-0.328 1.156t-0.234 0.781-0.094 0.469 0.031 0.453 0.297 0.328 0.672 0.125h11.406q0.719 0 1.063-0.375t0.063-1.188q-0.156-0.406-0.297-0.953t-0.297-1.078q-0.156-0.594-0.344-1.219h-11.5zM11 12.438v-7.125q0-0.344 0.078-0.719t0.313-0.672 0.641-0.484 1.063-0.188h5.875q0.969 0 1.609 0.453t0.641 1.641v7.094h-10.219z"></path>
</symbol>
<symbol id="icon-xiaochengxu" viewBox="0 0 32 32">
<title>xiaochengxu</title>
<path d="M19.568 8.736c2.32 0 4.208 1.744 4.208 3.904-0.005 0.71-0.207 1.373-0.553 1.936l0.009-0.016c-0.528 0.864-1.376 1.504-2.4 1.808-0.272 0.080-0.48 0.112-0.672 0.112-0.448 0-0.8-0.352-0.8-0.8s0.352-0.8 0.8-0.8c0.032 0 0.096 0 0.176-0.032 0.688-0.192 1.232-0.592 1.536-1.12 0.208-0.336 0.304-0.704 0.304-1.088 0-1.264-1.168-2.304-2.592-2.304-0.496 0-0.976 0.128-1.408 0.368-0.752 0.432-1.2 1.152-1.2 1.936v6.704c0 1.36-0.752 2.608-2 3.312-0.625 0.362-1.376 0.576-2.177 0.576-0.005 0-0.011 0-0.016-0h0.001c-2.32 0-4.208-1.744-4.208-3.904 0-0.672 0.192-1.328 0.544-1.92 0.528-0.864 1.376-1.504 2.4-1.808 0.288-0.080 0.48-0.112 0.672-0.112 0.448 0 0.8 0.352 0.8 0.8s-0.352 0.8-0.8 0.8c-0.032 0-0.096 0-0.176 0.032-0.688 0.208-1.232 0.608-1.536 1.12-0.191 0.304-0.304 0.674-0.304 1.070 0 0.006 0 0.013 0 0.019v-0.001c0 1.264 1.168 2.304 2.608 2.304 0.496 0 0.976-0.128 1.408-0.368 0.752-0.432 1.2-1.152 1.2-1.936v-6.688c0-1.36 0.752-2.608 2-3.312 0.611-0.372 1.349-0.592 2.139-0.592 0.013 0 0.026 0 0.039 0h-0.002zM3.296 15.936c0 7.072 5.728 12.8 12.8 12.8s12.8-5.728 12.8-12.8-5.728-12.8-12.8-12.8-12.8 5.728-12.8 12.8zM1.696 15.936c0-7.952 6.448-14.4 14.4-14.4s14.4 6.448 14.4 14.4-6.448 14.4-14.4 14.4-14.4-6.448-14.4-14.4zM1.696 15.936"></path>
</symbol>
<symbol id="icon-xiaoxi" viewBox="0 0 32 32">
<title>xiaoxi</title>
<path d="M27.595 24.572l-2.129-3.575v-7.73c0-1.619-0.71-3.5-1.833-4.98-1.148-1.494-2.679-2.639-4.448-3.296l-0.069-0.022-0.023-0.008-0.008-0.002c-0.041-0.012-0.191-0.058-0.413-0.119v-0.259c0-1.401-1.226-2.58-2.699-2.58s-2.645 1.179-2.645 2.58v0.24c-0.206 0.056-0.337 0.096-0.352 0.101l-0.023 0.008c-1.868 0.665-3.427 1.811-4.577 3.291l-0.017 0.023c-1.144 1.491-1.879 3.387-1.879 5.023v7.73l-2.272 3.837c-0.134 0.218-0.213 0.483-0.213 0.766 0 0.286 0.081 0.554 0.222 0.78l-0.004-0.006c0.236 0.389 0.749 0.778 1.245 0.905h21.063c0.774-0.185 1.486-0.94 1.486-1.679 0-0.386-0.145-0.747-0.411-1.028zM15.999 3.432c0.682 0 1.242 0.446 1.275 1.087-0.018-0.003-0.807-0.137-1.297-0.137-0.383 0-1.012 0.083-1.253 0.125 0.040-0.635 0.597-1.075 1.275-1.075zM26.611 25.599c0 0.121-0.314 0.317-0.442 0.317h-20.393c-0.082 0-0.317-0.141-0.356-0.205-0.020-0.031-0.032-0.069-0.032-0.11 0 0 0 0 0-0v0-0.001c0-0.040 0.011-0.078 0.031-0.109l2.469-4.131c0.060-0.1-0.002-0.248-0.002-0.363v-7.73c0-2.87 2.549-5.629 5.529-6.999 1.018-0.417 1.431-0.468 2.575-0.468 1.079 0 1.653 0.079 2.651 0.504 3.045 1.097 5.419 4.137 5.419 6.964v7.73c0 0.115-0.048 0.263 0.011 0.363l2.355 3.939c0.059 0.097 0.14 0.176 0.235 0.232l0.003 0.002c-0.072-0.039-0.052 0.011-0.052 0.067zM18.332 28.583h-4.663c-0.299 0-0.541 0.317-0.541 0.708s0.242 0.708 0.541 0.708h4.663c0.299 0 0.541-0.317 0.541-0.708s-0.242-0.708-0.541-0.708z"></path>
</symbol>
<symbol id="icon-xiaoxi1" viewBox="0 0 32 32">
<title>xiaoxi1</title>
<path d="M28.839 25.033l-2.359-3.964v-8.571c0-1.796-0.787-3.88-2.031-5.523-1.27-1.657-2.968-2.927-4.929-3.655l-0.076-0.025c-0.012-0.003-0.022-0.009-0.034-0.013-0.044-0.013-0.212-0.066-0.459-0.131v-0.287c0-1.553-1.359-2.862-2.99-2.862-1.634 0-2.93 1.309-2.93 2.862v0.266c-0.196 0.050-0.326 0.089-0.455 0.13l0.065-0.018-0.025 0.009c-2.070 0.739-3.798 2.011-5.073 3.652l-0.019 0.025c-1.268 1.653-2.084 3.755-2.084 5.57v8.571l-2.521 4.255c-0.148 0.242-0.236 0.536-0.236 0.849 0 0.318 0.090 0.615 0.246 0.866l-0.004-0.007c0.319 0.525 1.093 1.050 1.734 1.050h6.236c0.372 2.306 2.568 3.877 5.095 3.877s4.661-1.571 5.036-3.877h6.236c0.993 0 2.037-0.968 2.037-1.909-0.003-0.442-0.177-0.843-0.46-1.141l0.001 0.001M15.991 1.592c0.756 0 1.375 0.494 1.412 1.206-0.019-0.003-0.893-0.153-1.437-0.153-0.425 0-1.122 0.091-1.387 0.137 0.044-0.703 0.659-1.19 1.412-1.19M15.991 30.391c-1.671 0-3.183-0.819-3.536-2.309h7.014c-0.356 1.49-1.809 2.309-3.477 2.309M18.915 4.776c3.374 1.215 6.005 4.589 6.005 7.723v8.571c0 0.128-0.053 0.291 0.012 0.403l2.609 4.367c0.068 0.115 0.165 0.207 0.28 0.267l0.004 0.002c-0.103-0.062-0.078-0.003-0.078 0.062 0 0.134-0.347 0.35-0.49 0.35h-22.595c-0.091 0-0.35-0.156-0.394-0.228-0.022-0.034-0.034-0.078-0.034-0.122s0.013-0.087 0.034-0.122l2.734-4.577c0.066-0.109-0.003-0.275-0.003-0.403v-8.571c0-3.183 2.824-6.242 6.126-7.76 1.128-0.462 1.587-0.519 2.852-0.519 1.2 0 1.834 0.087 2.94 0.556zM18.915 4.776"></path>
</symbol>
<symbol id="icon-haoping2" viewBox="0 0 32 32">
<title>haoping2</title>
<path d="M4.648 24.513c-0.343 0.002-0.62 0.281-0.62 0.624 0 0.345 0.279 0.624 0.624 0.624 0.001 0 0.002 0 0.004 0h0.004c0.045 0.001 4.582 0.005 7.402 3.163 0.114 0.129 0.28 0.209 0.465 0.209 0.161 0 0.307-0.061 0.417-0.161l-0.001 0c0.128-0.115 0.208-0.281 0.208-0.466 0-0.16-0.060-0.306-0.159-0.416l0.001 0.001c-3.205-3.588-8.138-3.582-8.345-3.58zM27.32 24.509c-0.204-0.003-5.031-0.010-8.349 3.573-0.103 0.111-0.166 0.26-0.166 0.424 0 0.345 0.279 0.624 0.624 0.624 0.181 0 0.344-0.077 0.458-0.2l0-0c2.909-3.142 7.3-3.173 7.419-3.173h0.008c0.001 0 0.002 0 0.003 0 0.345 0 0.625-0.28 0.625-0.625 0-0.344-0.278-0.623-0.621-0.625h-0zM25.915 18.343c1.059-1.798 1.733-3.886 1.95-6.037 0.211-2.092-0.042-4.128-0.714-5.735-0.095-0.224-0.311-0.379-0.563-0.383h-0.001c-2.217-0.044-4.26 0.389-6.084 1.288-0.552-0.956-1.405-2.157-2.050-2.999-1.853-2.421-2.265-2.421-2.537-2.421s-0.682 0-2.531 2.389c-0.645 0.833-1.499 2.024-2.053 2.972-1.793-0.858-3.792-1.271-5.951-1.229-0.253 0.005-0.468 0.16-0.562 0.379l-0.002 0.004c-0.671 1.607-0.925 3.644-0.713 5.735 0.217 2.151 0.892 4.239 1.95 6.037 1.849 3.141 4.717 5.095 8.088 5.515 0.051 0.018 0.104 0.030 0.159 0.035 0.024 0.002 0.463 0.038 1.050 0.055v5.456c0 0.345 0.279 0.624 0.624 0.624s0.624-0.279 0.624-0.624v0-5.457c0.411-0.013 0.78-0.032 1.148-0.059l-0.085 0.005c0.060-0.005 0.116-0.017 0.168-0.036l-0.004 0.001c3.371-0.421 6.239-2.375 8.088-5.516zM21.877 21c-1.216 0.872-2.693 1.458-4.293 1.631l-0.041 0.004c-0.042 0.004-0.081 0.013-0.118 0.025l0.004-0.001c-0.263 0.017-0.865 0.051-1.476 0.051-0.604 0-1.164-0.033-1.413-0.050-0.034-0.011-0.073-0.020-0.114-0.024l-0.002-0c-1.64-0.177-3.116-0.763-4.36-1.654l0.028 0.019c-1.168-0.829-2.164-1.936-2.961-3.29-1.853-3.147-2.368-7.303-1.308-10.277 2.004 0.021 3.843 0.479 5.47 1.364 0.086 0.047 0.189 0.075 0.298 0.075 0.244 0 0.455-0.139 0.558-0.343l0.002-0.004c0.731-1.477 2.969-4.375 3.766-5.11 0.798 0.744 3.041 3.68 3.771 5.174 0.105 0.209 0.317 0.35 0.562 0.35 0.111 0 0.216-0.029 0.307-0.080l-0.003 0.002c1.656-0.927 3.537-1.406 5.595-1.426 1.060 2.973 0.545 7.129-1.308 10.276-0.797 1.354-1.794 2.461-2.962 3.29z"></path>
</symbol>
<symbol id="icon-chaping11" viewBox="0 0 32 32">
<title>chaping11</title>
<path d="M3.269 24.378c-0.344 0.002-0.622 0.281-0.622 0.625 0 0.345 0.28 0.625 0.625 0.625 0.001 0 0.002 0 0.004 0h0.001c0.010 0 0.809 0.004 1.936 0.381 1.505 0.504 2.853 1.4 4.005 2.662 0.114 0.126 0.279 0.205 0.462 0.205 0.163 0 0.311-0.062 0.422-0.164l-0 0c0.125-0.115 0.204-0.279 0.204-0.462 0-0.163-0.062-0.311-0.164-0.422l0 0c-3.142-3.443-6.721-3.451-6.874-3.451zM27.78 24.427c-0.258-0.017-4.535-0.25-7.934 3.397-0.091 0.108-0.146 0.248-0.146 0.402 0 0.346 0.28 0.626 0.626 0.626 0.169 0 0.322-0.067 0.434-0.175l-0 0c1.209-1.311 2.78-2.271 4.555-2.722l0.064-0.014c1.331-0.334 2.276-0.27 2.316-0.267 0.010 0.001 0.022 0.001 0.034 0.001 0.345 0 0.625-0.28 0.625-0.625 0-0.327-0.252-0.596-0.572-0.623l-0.002-0zM29.347 16.805c-0.864-2.11-2.792-4.041-4.315-5.457 1.478-0.948 2.556-2.227 3.21-3.811 0.030-0.070 0.047-0.152 0.047-0.238 0-0.193-0.087-0.365-0.224-0.48l-0.001-0.001c-1.84-1.532-4.451-2.848-7.351-3.707-3.027-0.896-6.068-1.186-8.562-0.816-2.69 0.399-4.746 1.56-5.95 3.359-0.020 0.024-0.040 0.051-0.057 0.079l-0.002 0.003c-0.155 0.247-0.612 1.246-0.663 1.359-0.044 0.076-0.159 0.332-0.271 0.59l-0.072 0.188c-0.050 0.119-0.086 0.211-0.111 0.282-0.020 0.052-0.036 0.113-0.047 0.177l-0.001 0.006c-0.135 0.503-0.212 1.081-0.212 1.677 0 0.319 0.022 0.633 0.065 0.941l-0.004-0.035c-0.007 0.034-0.011 0.072-0.011 0.112 0 0.005 0 0.009 0 0.014v-0.001c0.001 0.107 0.041 2.651 1.271 6.239 0.801 2.299 1.787 4.287 2.983 6.125l-0.066-0.108c1.605 2.462 3.462 4.581 5.579 6.406l0.039 0.033c0.109 0.095 0.252 0.153 0.409 0.153 0.189 0 0.358-0.084 0.473-0.217l0.001-0.001c0.094-0.109 0.152-0.252 0.152-0.409 0-0.189-0.084-0.358-0.216-0.473l-0.001-0.001c-2.057-1.772-3.83-3.792-5.297-6.030l-0.067-0.108c-1.079-1.647-2.021-3.538-2.731-5.539l-0.058-0.187c-0.113-0.297-0.267-0.778-0.407-1.266l-0.044-0.18c3.227 4.304 9.375 7.442 13.707 8.043 0.026 0.004 0.056 0.006 0.087 0.006 0.22 0 0.414-0.114 0.525-0.287l0.002-0.002c1.125-1.764 1.519-3.626 1.133-4.974 3.913 0.202 6.545-0.592 6.665-0.629 0.257-0.082 0.44-0.319 0.44-0.598 0-0.085-0.017-0.166-0.047-0.24l0.002 0.004zM21.263 16.939c-0.019-0.002-0.041-0.003-0.064-0.003-0.345 0-0.624 0.279-0.624 0.624 0 0.168 0.067 0.321 0.175 0.433l-0-0c0.727 0.761 0.528 2.535-0.44 4.232-2.126-0.366-4.612-1.335-6.892-2.693-2.576-1.534-4.701-3.44-5.984-5.368-1.284-1.931-1.702-3.793-1.24-5.536 0.005-0.018 0.010-0.041 0.014-0.064l0-0.003c0.123-0.347 0.811-1.833 0.977-2.13 0.011-0.013 0.022-0.028 0.032-0.044l0.001-0.002c1.013-1.539 2.735-2.499 5.117-2.852 2.318-0.344 5.168-0.068 8.023 0.778 2.511 0.743 4.862 1.888 6.537 3.174-0.669 1.362-1.744 2.435-3.2 3.195-0.201 0.107-0.335 0.315-0.335 0.554 0 0.182 0.078 0.346 0.202 0.46l0 0c1.338 1.226 3.29 3.014 4.315 4.924-1.137 0.242-3.554 0.621-6.614 0.321z"></path>
</symbol>
<symbol id="icon-zhongping" viewBox="0 0 32 32">
<title>zhongping</title>
<path d="M4.648 23.394c-0.343 0.002-0.62 0.281-0.62 0.624 0 0.345 0.279 0.624 0.624 0.624 0.001 0 0.002 0 0.004 0h0.004c0.045 0.001 4.582 0.005 7.402 3.163 0.114 0.129 0.28 0.209 0.465 0.209 0.161 0 0.307-0.061 0.417-0.161l-0.001 0c0.128-0.115 0.208-0.281 0.208-0.466 0-0.16-0.060-0.306-0.159-0.416l0.001 0.001c-3.205-3.588-8.138-3.582-8.345-3.58zM27.32 23.39c-0.204-0.003-5.031-0.010-8.349 3.573-0.103 0.111-0.166 0.26-0.166 0.424 0 0.345 0.279 0.624 0.624 0.624 0.181 0 0.344-0.077 0.458-0.2l0-0c2.909-3.142 7.3-3.173 7.419-3.173h0.008c0.001 0 0.002 0 0.003 0 0.345 0 0.625-0.28 0.625-0.625 0-0.344-0.278-0.623-0.621-0.625h-0zM26.899 9.402c-0.682-0.14-1.665-0.296-2.657-0.421l-0.227-0.023-0.27-0.032 0.004-0.272c0-0.034 0-0.073 0-0.113 0-1.056-0.101-2.089-0.294-3.089l0.016 0.102c-0.272-1.378-0.713-2.236-1.274-2.482-0.14-0.059-0.303-0.093-0.474-0.093-0.010 0-0.021 0-0.031 0l0.002-0c-1.829 0-4.952 2.657-4.983 2.683l-0.213 0.183-0.198-0.199c-0.009-0.009-0.907-0.913-1.945-1.808-1.829-1.578-2.481-1.748-2.677-1.748-0.056 0-0.060 0.008-0.069 0.029l-0.504 1.147c-1.127 2.561-2.018 4.584-2.685 6.731-0.782 4.662 0.736 8.301 4.39 10.524l0.223 0.136-0.103 0.24c-0.064 0.156-0.113 0.338-0.138 0.527l-0.001 0.011c-0.076 2.024 1.54 6.157 2.247 7.476l0.034 0.062c0.476 0.81 0.954 1.145 1.423 0.985 0.128-0.037 0.231-0.123 0.291-0.236l0.001-0.003c0.093-0.192 0.039-0.438-0.022-0.611l-0.011-0.029c-0.037-0.1-0.086-0.2-0.144-0.3l-0.010-0.017c-0.598-1.252-1.999-4.432-2.108-6.924l-0.020-0.456 0.428 0.161c0.947 0.375 2.043 0.597 3.191 0.605l0.003 0c2.934 0 5.737-1.582 8.106-4.575 1.409-1.78 2.442-4.141 3.638-6.875l0.141-0.321c-0.074-0.101-0.515-0.487-3.083-0.973zM27.848 11.876c-0.924 2.111-1.724 3.629-3.079 5.144-0.926 1.036-2.007 1.898-3.126 2.495-1.252 0.667-2.533 1.005-3.808 1.005-1.118-0.003-2.176-0.259-3.119-0.714l0.043 0.019c-1.881-0.824-3.336-2.124-4.208-3.758-0.847-1.586-1.145-3.484-0.863-5.487 0.16-1.134 0.775-2.429 1.486-3.93 0.284-0.598 0.577-1.216 0.862-1.868l0.035-0.079 0.071-0.049c0.098-0.066 0.218-0.106 0.348-0.106 0.004 0 0.007 0 0.011 0h-0.001c0.213 0 0.778 0 2.593 1.838 0.466 0.475 0.922 0.969 1.363 1.476l0.035 0.041c0.748-0.731 2.981-2.796 4.324-2.796 0.169 0 0.324 0.031 0.462 0.091 0.671 0.294 1.043 1.315 1.14 3.124 0.046 0.864 0.016 1.68-0.010 2.137 0.13-0.002 0.264-0.003 0.402-0.003 0.788 0 1.936 0.029 2.927 0.166 1.383 0.192 2.061 0.539 2.132 1.094l0.011 0.083-0.033 0.076z"></path>
</symbol>
</defs>
</svg>
