<!-- Generated by IcoMoon.io -->
<svg version="1.1" xmlns="http://www.w3.org/2000/svg" width="32" height="32" viewBox="0 0 32 32">
<title>account</title>
<path d="M29.501 28.763c-1.805-4.954-5.388-8.553-9.642-9.934 0.898-0.451 1.668-1.011 2.332-1.677l0-0c1.667-1.667 2.585-3.883 2.585-6.241s-0.918-4.574-2.585-6.241-3.883-2.585-6.241-2.585-4.574 0.918-6.241 2.585-2.585 3.883-2.585 6.241c-0 0.007-0 0.015-0 0.023 0 2.43 0.988 4.629 2.585 6.217l0 0c0.665 0.667 1.436 1.228 2.285 1.656l0.051 0.023c-4.251 1.383-7.832 4.981-9.636 9.933-0.029 0.078-0.046 0.168-0.046 0.262 0 0.424 0.343 0.768 0.767 0.769h25.648c0.001 0 0.002 0 0.002 0 0.423 0 0.766-0.343 0.766-0.766 0-0.095-0.017-0.186-0.049-0.27l0.002 0.005zM8.66 10.911c0-1.947 0.758-3.778 2.135-5.155s3.208-2.135 5.155-2.135 3.778 0.758 5.155 2.135c1.377 1.377 2.135 3.208 2.135 5.155s-0.758 3.778-2.135 5.155c-1.377 1.377-3.208 2.135-5.155 2.135s-3.778-0.758-5.155-2.135c-1.319-1.312-2.135-3.128-2.135-5.135 0-0.007 0-0.014 0-0.021v0.001zM4.265 28.258c1.036-2.368 2.547-4.385 4.414-5.876 2.161-1.727 4.677-2.639 7.277-2.639s5.116 0.913 7.276 2.639c1.866 1.491 3.378 3.508 4.414 5.876h-23.38z"></path>
</svg>
