<!-- Generated by IcoMoon.io -->
<svg version="1.1" xmlns="http://www.w3.org/2000/svg" width="32" height="32" viewBox="0 0 32 32">
<title>bulb</title>
<path d="M19.75 27.75h-7.5c-0.138 0.001-0.249 0.112-0.25 0.25v1c0 0.552 0.448 1 1 1v0h6c0.552 0 1-0.448 1-1v0-1c-0.001-0.138-0.112-0.249-0.25-0.25h-0zM16 2c-5.659 0-10.25 4.591-10.25 10.25 0 3.794 2.063 7.106 5.125 8.878v3.622c0 0.552 0.448 1 1 1v0h8.25c0.552 0 1-0.448 1-1v0-3.622c3.085-1.804 5.125-5.101 5.125-8.874 0-0.001 0-0.002 0-0.004v0c0-5.659-4.591-10.25-10.25-10.25zM19.997 19.181l-1.122 0.65v3.669h-5.75v-3.669l-1.122-0.65c-2.411-1.408-4.005-3.983-4.005-6.931 0-4.418 3.582-8 8-8 0.001 0 0.001 0 0.002 0h-0c0.001 0 0.001 0 0.002 0 4.418 0 8 3.582 8 8 0 2.947-1.594 5.523-3.967 6.911l-0.038 0.020z"></path>
</svg>
