<!-- Generated by IcoMoon.io -->
<svg version="1.1" xmlns="http://www.w3.org/2000/svg" width="32" height="32" viewBox="0 0 32 32">
<title>camera</title>
<path d="M27 7.75h-4.25l-1.012-2.838c-0.143-0.389-0.511-0.662-0.943-0.662-0 0-0.001 0-0.002 0h-9.588c-0.431 0-0.798 0.273-0.939 0.655l-0.002 0.007-1.016 2.838h-4.25c-1.381 0-2.5 1.119-2.5 2.5v0 14.25c0 1.381 1.119 2.5 2.5 2.5v0h22c1.381 0 2.5-1.119 2.5-2.5v0-14.25c0-1.381-1.119-2.5-2.5-2.5v0zM27.25 24.5c0 0.137-0.113 0.25-0.25 0.25h-22c-0.138 0-0.25-0.112-0.25-0.25v0-14.25c0-0.138 0.112-0.25 0.25-0.25v0h5.834l0.534-1.494 0.716-2.006h7.828l0.716 2.006 0.534 1.494h5.837c0.137 0 0.25 0.113 0.25 0.25v14.25zM16 12c-2.762 0-5 2.238-5 5s2.238 5 5 5 5-2.238 5-5-2.238-5-5-5zM16 20c-1.624-0.043-2.924-1.37-2.924-3s1.3-2.957 2.92-3l0.004-0c1.624 0.043 2.924 1.37 2.924 3s-1.3 2.957-2.92 3l-0.004 0z"></path>
</svg>
