<!-- Generated by IcoMoon.io -->
<svg version="1.1" xmlns="http://www.w3.org/2000/svg" width="32" height="32" viewBox="0 0 32 32">
<title>caret</title>
<path d="M22.545 15.358c-0.056-0.098-0.099-0.203-0.181-0.289-0.015-0.015-0.032-0.026-0.047-0.040-0.020-0.021-0.028-0.049-0.048-0.069l-10.524-10.143c-0.258-0.25-0.61-0.404-0.999-0.404-0.001 0-0.001 0-0.002 0h-0.001c-0.797 0.001-1.442 0.647-1.442 1.444 0 0.408 0.169 0.776 0.441 1.039l0 0 9.492 9.148-9.529 9.014c-0.256 0.26-0.415 0.618-0.415 1.013 0 0.797 0.646 1.444 1.444 1.444 0.366 0 0.701-0.136 0.955-0.361l-0.002 0.001 10.62-10.045c0.271-0.26 0.44-0.626 0.44-1.031 0-0.231-0.055-0.45-0.153-0.643l0.004 0.008c-0.014-0.031-0.038-0.056-0.054-0.086z"></path>
</svg>
