<!-- Generated by IcoMoon.io -->
<svg version="1.1" xmlns="http://www.w3.org/2000/svg" width="32" height="32" viewBox="0 0 32 32">
<title>close</title>
<path d="M17.092 15.994l10.233-10.192c0.14-0.139 0.226-0.331 0.226-0.544 0-0.424-0.344-0.768-0.768-0.768-0.212 0-0.403 0.086-0.542 0.224l-10.237 10.196-10.237-10.196c-0.135-0.122-0.316-0.196-0.513-0.196-0.425 0-0.769 0.344-0.769 0.769 0 0.199 0.075 0.379 0.199 0.516l-0.001-0.001 10.233 10.192-10.233 10.192c-0.139 0.139-0.224 0.331-0.224 0.543 0 0.423 0.342 0.767 0.765 0.769h0.002c0.211-0 0.402-0.086 0.541-0.224v0l10.237-10.196 10.237 10.196c0.138 0.138 0.33 0.224 0.541 0.224h0.002c0.423-0.002 0.765-0.346 0.765-0.769 0-0.212-0.086-0.404-0.224-0.543l0 0-10.233-10.192z"></path>
</svg>
