<!-- Generated by IcoMoon.io -->
<svg version="1.1" xmlns="http://www.w3.org/2000/svg" width="32" height="32" viewBox="0 0 32 32">
<title>code</title>
<path d="M13.7 26.534l6.959-20.209c0.006-0.016 0.009-0.034 0.012-0.050l-6.972 20.259zM20.663 5.272h-2.109c-0.109 0.001-0.202 0.070-0.237 0.167l-0.001 0.002-7.231 20.997c-0.008 0.024-0.013 0.051-0.013 0.080 0 0.139 0.112 0.251 0.251 0.251 0 0 0 0 0 0h2.119c0.109-0.001 0.202-0.070 0.237-0.167l0.001-0.002 0.022-0.066 7.203-20.928c0.008-0.024 0.013-0.051 0.013-0.080 0-0.14-0.114-0.254-0.254-0.254v0zM29.831 15.691c-0.025-0.031-0.053-0.059-0.083-0.083l-0.001-0.001-6.844-5.353c-0.042-0.033-0.096-0.053-0.154-0.053-0.138 0-0.249 0.111-0.249 0.249 0 0 0 0.001 0 0.001v-0 2.541c0 0.078 0.034 0.15 0.097 0.197l3.594 2.813-3.594 2.813c-0.059 0.046-0.096 0.117-0.097 0.197v2.541c-0.059 0.046-0.097 0.118-0.097 0.198 0 0.138 0.112 0.25 0.25 0.25s0.25-0.112 0.25-0.25c0-0 0-0 0-0.001v0l6.844-5.353c0.117-0.092 0.191-0.234 0.191-0.393 0-0.117-0.040-0.225-0.108-0.311l0.001 0.001zM9.097 10.253l-6.844 5.353c-0.116 0.093-0.189 0.235-0.189 0.393s0.073 0.3 0.188 0.393l0.001 0.001 6.844 5.353c0.042 0.033 0.095 0.052 0.153 0.052 0.138 0 0.25-0.112 0.25-0.249v-2.541c0-0.001 0-0.002 0-0.003 0-0.079-0.038-0.149-0.096-0.193l-0.001-0-3.594-2.813 3.594-2.813c0.059-0.046 0.096-0.117 0.097-0.197v-2.541c-0-0.138-0.112-0.249-0.25-0.249-0.058 0-0.111 0.020-0.154 0.053l0.001-0z"></path>
</svg>
