<!-- Generated by IcoMoon.io -->
<svg version="1.1" xmlns="http://www.w3.org/2000/svg" width="32" height="32" viewBox="0 0 32 32">
<title>daohang</title>
<path d="M11.607 14.892h-6.673c-0 0-0.001 0-0.001 0-1.837 0-3.326-1.486-3.332-3.321v-6.647c0.006-1.836 1.496-3.323 3.333-3.323 0 0 0 0 0 0h6.673c1.839 0 3.433 1.528 3.433 3.36v6.56c0 1.833-1.274 3.346-3.433 3.372zM4.479 3.2c-0.706 0.001-1.279 0.574-1.28 1.28v7.042c0 0.705 0.215 1.92 1.28 1.92h7.68c1.105 0 1.28-1.215 1.28-1.92v-7.042c-0.001-0.706-0.574-1.279-1.28-1.28h-7.68zM11.607 30.4h-6.673c-1.837-0.001-3.327-1.487-3.334-3.322v-6.648c0.006-1.836 1.496-3.323 3.333-3.323 0 0 0.001 0 0.001 0h6.675c1.837 0.001 3.327 1.487 3.334 3.322v6.648c-0.005 1.836-1.495 3.323-3.332 3.323-0 0-0.001 0-0.001 0h-0.003zM4.319 18.558c-0.707 0.001-1.279 0.573-1.28 1.28v7.682c0.001 0.707 0.573 1.279 1.28 1.28h7.68c0.707-0.001 1.279-0.573 1.28-1.28v-7.682c-0.001-0.707-0.573-1.279-1.28-1.28h-7.68zM27.065 14.892h-6.674c-0 0-0.001 0-0.001 0-1.837 0-3.326-1.486-3.332-3.321v-6.647c0.006-1.836 1.496-3.323 3.333-3.323 0 0 0 0 0 0h6.676c0 0 0 0 0 0 1.837 0 3.327 1.487 3.333 3.322v6.647c-0.006 1.836-1.496 3.323-3.333 3.323 0 0 0 0-0 0h-0.003zM19.841 3.040c-0.707 0.001-1.279 0.573-1.28 1.28v7.682c0.001 0.707 0.573 1.279 1.28 1.28h7.68c0.707-0.001 1.279-0.573 1.28-1.28v-7.682c-0.001-0.707-0.573-1.279-1.28-1.28h-7.68zM27.064 30.4h-6.674c-1.837-0.001-3.327-1.487-3.334-3.322v-6.648c0.006-1.836 1.496-3.323 3.333-3.323 0 0 0.001 0 0.001 0h6.676c1.837 0.001 3.327 1.487 3.334 3.322v6.648c-0.005 1.836-1.495 3.323-3.332 3.323-0 0-0.001 0-0.001 0h-0.003zM19.841 18.558c-0.707 0-1.28 0.573-1.28 1.28v0 7.682c0 0.707 0.573 1.28 1.28 1.28h7.68c0.707 0 1.28-0.573 1.28-1.28v0-7.682c0-0.707-0.573-1.28-1.28-1.28v0h-7.68zM19.841 18.558"></path>
</svg>
