<!-- Generated by IcoMoon.io -->
<svg version="1.1" xmlns="http://www.w3.org/2000/svg" width="32" height="32" viewBox="0 0 32 32">
<title>daohangpinlei</title>
<path d="M28.666 25.334h-25.331c-0.368 0-0.666 0.301-0.666 0.666s0.301 0.666 0.666 0.666h25.334c0.368 0 0.666-0.301 0.666-0.666s-0.301-0.666-0.669-0.666zM28.666 15.334h-25.331c-0.368 0-0.666 0.301-0.666 0.666s0.301 0.666 0.666 0.666h25.334c0.368 0 0.666-0.301 0.666-0.666s-0.301-0.666-0.669-0.666zM3.334 6.666h25.334c0.368 0 0.666-0.301 0.666-0.666s-0.301-0.666-0.666-0.666h-25.334c-0.368 0-0.666 0.301-0.666 0.666s0.298 0.666 0.666 0.666z"></path>
</svg>
