<!-- Generated by IcoMoon.io -->
<svg version="1.1" xmlns="http://www.w3.org/2000/svg" width="32" height="32" viewBox="0 0 32 32">
<title>dingwei</title>
<path d="M16 11.194c1.269 0.003 2.359 0.9 2.606 2.144s-0.419 2.491-1.591 2.975c-0.302 0.129-0.653 0.204-1.022 0.204-1.47 0-2.661-1.191-2.661-2.661s1.191-2.661 2.661-2.661c0.002 0 0.005 0 0.007 0h-0M16 9.591c-2.041 0.003-3.797 1.447-4.194 3.45s0.678 4.006 2.566 4.784c0.483 0.205 1.044 0.323 1.633 0.323 1.479 0 2.782-0.75 3.552-1.889l0.010-0.015c0.45-0.667 0.718-1.489 0.718-2.373 0-1.183-0.48-2.255-1.256-3.030l-0-0c-0.767-0.772-1.83-1.25-3.004-1.25-0.009 0-0.017 0-0.025 0h0.001zM23.341 6.287c-1.859-1.921-4.461-3.114-7.341-3.114s-5.482 1.193-7.338 3.112l-0.003 0.003c-1.879 1.941-3.038 4.59-3.038 7.509s1.158 5.568 3.040 7.512l-0.003-0.003 7.341 7.519 7.341-7.519c1.879-1.941 3.038-4.59 3.038-7.509s-1.158-5.568-3.040-7.512l0.003 0.003zM22.234 20.25l-6.234 6.413-6.234-6.413c-1.598-1.646-2.583-3.894-2.583-6.372s0.985-4.726 2.585-6.374l-0.002 0.002c1.58-1.628 3.789-2.638 6.234-2.638s4.654 1.010 6.232 2.635l0.002 0.002c1.598 1.646 2.583 3.894 2.583 6.372s-0.985 4.726-2.585 6.374l0.002-0.002zM22.234 20.25"></path>
</svg>
