<!-- Generated by IcoMoon.io -->
<svg version="1.1" xmlns="http://www.w3.org/2000/svg" width="32" height="32" viewBox="0 0 32 32">
<title>gift</title>
<path d="M27.5 9.688h-4.613c0.423-0.655 0.675-1.454 0.675-2.313v-0c-0.002-2.381-1.932-4.311-4.313-4.313h-0c-1.295 0-2.456 0.572-3.246 1.476l-0.004 0.005c-0.794-0.909-1.955-1.481-3.25-1.481h-0c-2.381 0.002-4.311 1.932-4.313 4.313v0c0 0.85 0.247 1.644 0.675 2.313h-4.612c-0.552 0-1 0.448-1 1v0 6.25c0 0.137 0.112 0.25 0.25 0.25h1.25v10.75c0 0.552 0.448 1 1 1v0h20c0.552 0 1-0.448 1-1v0-10.75h1.25c0.137 0 0.25-0.113 0.25-0.25v-6.25c0-0.552-0.448-1-1-1v0zM17.063 7.375c0-1.206 0.981-2.188 2.188-2.188s2.188 0.981 2.188 2.188-0.981 2.188-2.188 2.188h-2.188v-2.188zM12.75 5.188c1.208 0.001 2.187 0.98 2.188 2.188v2.188h-2.188c-1.206 0-2.188-0.981-2.188-2.188s0.981-2.188 2.188-2.188zM5.625 15.063v-3.25h9.313v3.25h-9.313zM7.125 17.188h7.813v9.625h-7.813v-9.625zM24.875 26.813h-7.813v-9.625h7.813v9.625zM26.375 15.063h-9.313v-3.25h9.313v3.25z"></path>
</svg>
