<!-- Generated by IcoMoon.io -->
<svg version="1.1" xmlns="http://www.w3.org/2000/svg" width="32" height="32" viewBox="0 0 32 32">
<title>goods</title>
<path d="M15.028 2.878c-0.778-0.472-3.322-1.8-4.834-2.644-1.322-0.734-1.722 0.844-1.85 1.922-0.125 1.084-0.125 2.484 1.259 2.484h5.084c1.387 0.003 1.387-1.119 0.341-1.763zM23.984 2.134c-0.125-1.081-0.528-2.656-1.85-1.922-1.516 0.844-4.056 2.172-4.834 2.644-1.053 0.641-1.053 1.762 0.337 1.762h5.084c1.391 0 1.391-1.4 1.262-2.484zM0.016 8.363v3.175c-0.003 1.175 0.391 1.769 1.962 1.769h11.597v-6.537h-11.628c-1.587 0-1.931 0.522-1.931 1.594zM32.003 8.497c0-1.072-0.469-1.731-2.053-1.731h-11.431v6.537h11.522c1.569 0 1.966-0.544 1.962-1.719-0.006-1.069-0.003-2.016 0-3.088zM1.341 28.156c0.016 2.447 1.444 3.844 4.494 3.844h7.662v-16.275h-12.156s-0.016 9.988 0 12.431zM18.519 15.725v16.275h7.428c3.050 0 4.422-1.531 4.438-3.978 0.019-2.447-0.003-12.3-0.003-12.3l-11.863 0.003z"></path>
</svg>
