<!-- Generated by IcoMoon.io -->
<svg version="1.1" xmlns="http://www.w3.org/2000/svg" width="32" height="32" viewBox="0 0 32 32">
<title>heart</title>
<path d="M28.844 8.863c-0.442-1.007-1.041-1.866-1.777-2.587l-0.001-0.001c-1.494-1.464-3.543-2.368-5.802-2.368-0.008 0-0.016 0-0.024 0h0.001c-0.002 0-0.003 0-0.005 0-1.99 0-3.817 0.697-5.251 1.859l0.016-0.012c-1.418-1.15-3.246-1.847-5.236-1.847-0.002 0-0.004 0-0.006 0h0c-0.005 0-0.010 0-0.016 0-2.262 0-4.313 0.904-5.811 2.369l0.002-0.001c-1.501 1.466-2.432 3.51-2.434 5.772v0c0 1.041 0.212 2.125 0.634 3.228 0.353 0.922 0.859 1.878 1.506 2.844 1.025 1.528 2.434 3.122 4.184 4.738 2.9 2.678 5.772 4.528 5.894 4.603l0.741 0.475c0.328 0.209 0.75 0.209 1.078 0l0.741-0.475c0.122-0.078 2.991-1.925 5.894-4.603 1.75-1.616 3.159-3.209 4.184-4.738 0.647-0.966 1.156-1.922 1.506-2.844 0.422-1.103 0.634-2.188 0.634-3.228 0-0.008 0-0.017 0-0.026 0-1.142-0.24-2.227-0.673-3.209l0.020 0.051zM16 25.462s-11.125-7.128-11.125-13.416c0-3.184 2.634-5.766 5.884-5.766 0.008-0 0.017-0 0.027-0 2.248 0 4.202 1.257 5.199 3.107l0.015 0.031c1.012-1.881 2.967-3.138 5.215-3.138 0.009 0 0.018 0 0.028 0h-0.001c3.25 0 5.884 2.581 5.884 5.766 0 6.288-11.125 13.416-11.125 13.416z"></path>
</svg>
