<!-- Generated by IcoMoon.io -->
<svg version="1.1" xmlns="http://www.w3.org/2000/svg" width="32" height="32" viewBox="0 0 32 32">
<title>home</title>
<path d="M18.457 29.703v-8.18h-4.904v8.188h-7.258c-0.818 0-1.335-0.581-1.335-1.497 0-3.326 0.001-6.652-0.003-9.978 0-0.19 0.054-0.311 0.185-0.431 3.581-3.284 7.158-6.573 10.736-9.86 0.039-0.036 0.080-0.068 0.13-0.111l1.568 1.44c3.104 2.855 6.207 5.71 9.313 8.562 0.096 0.081 0.157 0.202 0.157 0.337 0 0.008-0 0.016-0.001 0.024l0-0.001c-0.003 3.361-0.001 6.723-0.003 10.084-0.001 0.821-0.533 1.426-1.264 1.428-2.396 0.005-4.791 0.002-7.187 0.002-0.037 0-0.075-0.004-0.132-0.008zM15.999 5.947l-13.158 12.228c-0.399 0.37-0.722 0.338-1.056-0.101-0.351-0.462-0.701-0.924-1.049-1.389-0.282-0.378-0.251-0.771 0.085-1.083 4.568-4.244 9.137-8.488 13.707-12.73 0.854-0.793 2.105-0.775 2.982 0.038 1.169 1.084 2.334 2.172 3.501 3.258l1.125 1.045v-3.085c0-0.541 0.215-0.78 0.702-0.78h3.45c0.55 0 0.753 0.224 0.753 0.834 0 2.771 0.002 4.557-0.004 7.328 0 0.191 0.055 0.312 0.183 0.43 1.32 1.215 2.636 2.435 3.953 3.654 0.338 0.312 0.375 0.7 0.094 1.080-0.542 0.739-0.902 1.213-1.266 1.684l0.169-0.228c-0.287 0.373-0.632 0.401-0.973 0.084l-13.198-12.265z"></path>
</svg>
