<!-- Generated by IcoMoon.io -->
<svg version="1.1" xmlns="http://www.w3.org/2000/svg" width="32" height="32" viewBox="0 0 32 32">
<title>huadongdaohang</title>
<path d="M10.857 21.714h-10.286c-0 0-0.001 0-0.001 0-0.315 0-0.57-0.255-0.57-0.57 0-0 0-0.001 0-0.001v0-10.286c0-0 0-0.001 0-0.001 0-0.315 0.255-0.57 0.57-0.57 0 0 0.001 0 0.001 0h10.286c0 0 0.001 0 0.001 0 0.315 0 0.57 0.255 0.57 0.57 0 0 0 0.001 0 0.001v-0 10.286c0 0 0 0.001 0 0.001 0 0.315-0.255 0.57-0.57 0.57-0 0-0.001 0-0.001 0h0zM1.143 20.571h9.143v-9.143h-9.143zM23.429 21.714h-10.286c-0 0-0.001 0-0.001 0-0.315 0-0.57-0.255-0.57-0.57 0-0 0-0.001 0-0.001v0-10.286c0-0 0-0.001 0-0.001 0-0.315 0.255-0.57 0.57-0.57 0 0 0.001 0 0.001 0h10.286c0 0 0.001 0 0.001 0 0.315 0 0.57 0.255 0.57 0.57 0 0 0 0.001 0 0.001v-0 10.286c0 0 0 0.001 0 0.001 0 0.315-0.255 0.57-0.57 0.57-0 0-0.001 0-0.001 0h0zM13.714 20.571h9.143v-9.143h-9.143zM31.429 21.714h-5.714c-0 0-0.001 0-0.001 0-0.315 0-0.57-0.255-0.57-0.57 0-0 0-0.001 0-0.001v0-10.286c0-0 0-0.001 0-0.001 0-0.315 0.255-0.57 0.57-0.57 0 0 0.001 0 0.001 0h5.714c0 0 0.001 0 0.001 0 0.315 0 0.57 0.255 0.57 0.57 0 0 0 0.001 0 0.001v-0 10.286c0 0 0 0.001 0 0.001 0 0.315-0.255 0.57-0.57 0.57-0 0-0.001 0-0.001 0h0zM26.286 20.571h4.571v-9.143h-4.571z"></path>
</svg>
