<!-- Generated by IcoMoon.io -->
<svg version="1.1" xmlns="http://www.w3.org/2000/svg" width="32" height="32" viewBox="0 0 32 32">
<title>iconfonticonfontshan</title>
<path d="M9.905 32c-1.85 0-3.355-1.505-3.355-3.355s1.505-3.354 3.355-3.354 3.355 1.505 3.355 3.354c-0.002 1.852-1.503 3.353-3.355 3.355h-0zM9.905 26.951c-0.935 0-1.695 0.76-1.695 1.695s0.76 1.695 1.695 1.695 1.695-0.76 1.695-1.695-0.76-1.695-1.695-1.695zM27.683 32c-1.85 0-3.355-1.505-3.355-3.355s1.505-3.354 3.355-3.354 3.355 1.505 3.355 3.354c-0.002 1.852-1.503 3.353-3.355 3.355h-0zM27.683 26.951c-0.935 0-1.695 0.76-1.695 1.695s0.76 1.695 1.695 1.695 1.695-0.76 1.695-1.695-0.76-1.695-1.695-1.695zM27.683 26.951h-17.778c-0.458 0-0.83-0.372-0.83-0.83s0.372-0.83 0.83-0.83h17.778c0.458 0 0.83 0.372 0.83 0.83s-0.372 0.83-0.83 0.83v0zM14.236 6.337h-7.692c-0.458 0-0.83-0.372-0.83-0.83s0.372-0.83 0.83-0.83h7.692c0.458 0 0.83 0.372 0.83 0.83s-0.372 0.83-0.83 0.83v0zM26.87 21.948l-17.272-0.043c-0.458-0.001-0.829-0.372-0.829-0.83s0.372-0.83 0.83-0.83c0 0 0.001 0 0.001 0h0.002l17.219 0.045c0.038-0.010 0.069-0.031 0.092-0.060l0-0 3.298-13.842c0.001 0-0.048-0.051-0.156-0.051h-6.775c-0.458 0-0.83-0.372-0.83-0.83s0.372-0.83 0.83-0.83h6.775c0.584 0 1.135 0.264 1.476 0.707 0.313 0.407 0.419 0.92 0.29 1.409l-3.299 13.846c-0.195 0.742-0.857 1.26-1.651 1.309zM9.904 21.904c-0.388-0-0.713-0.267-0.804-0.626l-0.001-0.006-4.586-18.7h-3.558c-0.458 0-0.83-0.372-0.83-0.83s0.372-0.83 0.83-0.83h4.861l4.895 19.964c0.015 0.059 0.024 0.128 0.024 0.198 0 0.458-0.372 0.83-0.83 0.83-0 0-0.001 0-0.001 0h0zM9.905 26.953c-1.85 0-3.355-1.505-3.355-3.354s1.505-3.354 3.355-3.354c0.458 0 0.83 0.372 0.83 0.83s-0.372 0.83-0.83 0.83v0c-0.935 0-1.695 0.76-1.695 1.695s0.76 1.695 1.695 1.695c0.458 0 0.83 0.372 0.83 0.83s-0.372 0.83-0.83 0.83v0zM15.286 7.071c0.208 0 0.415 0.077 0.577 0.233l2.954 2.852 2.954-2.852c0.15-0.15 0.357-0.242 0.586-0.242 0.458 0 0.83 0.372 0.83 0.83 0 0.238-0.101 0.453-0.262 0.605l-0 0-3.531 3.409c-0.149 0.144-0.353 0.233-0.577 0.233s-0.428-0.089-0.577-0.233l0 0-3.531-3.409c-0.157-0.151-0.255-0.363-0.255-0.598 0-0.457 0.371-0.828 0.828-0.828 0.002 0 0.003 0 0.005 0h-0zM18.817 0c0.458 0 0.83 0.372 0.83 0.83v0 10.48c0 0.458-0.372 0.83-0.83 0.83s-0.83-0.372-0.83-0.83v0-10.48c0-0.458 0.372-0.83 0.83-0.83v0z"></path>
</svg>
