<!-- Generated by IcoMoon.io -->
<svg version="1.1" xmlns="http://www.w3.org/2000/svg" width="32" height="32" viewBox="0 0 32 32">
<title>image</title>
<path d="M29 5h-26c-0.552 0-1 0.448-1 1v0 20c0 0.552 0.448 1 1 1v0h26c0.552 0 1-0.448 1-1v0-20c0-0.552-0.448-1-1-1v0zM27.75 24.75h-23.5v-1.247l4.328-5.134 4.691 5.563 7.297-8.65 7.184 8.519v0.95zM27.75 20.694l-6.994-8.294c-0.046-0.055-0.114-0.089-0.191-0.089s-0.145 0.035-0.19 0.089l-0 0-7.106 8.425-4.5-5.334c-0.046-0.055-0.114-0.089-0.191-0.089s-0.145 0.035-0.19 0.089l-0 0-4.138 4.906v-13.147h23.5v13.444zM9.5 14.25c1.519 0 2.75-1.231 2.75-2.75s-1.231-2.75-2.75-2.75v0c-1.519 0-2.75 1.231-2.75 2.75s1.231 2.75 2.75 2.75v0zM9.5 10.625c0.483 0 0.875 0.392 0.875 0.875s-0.392 0.875-0.875 0.875v0c-0.483 0-0.875-0.392-0.875-0.875s0.392-0.875 0.875-0.875v0z"></path>
</svg>
