<!-- Generated by IcoMoon.io -->
<svg version="1.1" xmlns="http://www.w3.org/2000/svg" width="32" height="32" viewBox="0 0 32 32">
<title>kongbai</title>
<path d="M18 4h-4c-0.56 0-1 0.44-1 1s0.44 1 1 1h4c0.56 0 1-0.44 1-1s-0.44-1-1-1zM10 4h-2.8c-1.76 0-3.2 1.44-3.2 3.2v2.8c0 0.56 0.44 1 1 1s1-0.44 1-1v-2.8c0-0.66 0.54-1.2 1.2-1.2h2.8c0.56 0 1-0.44 1-1s-0.44-1-1-1zM5 19c0.56 0 1-0.44 1-1v-4c0-0.56-0.44-1-1-1s-1 0.44-1 1v4c0 0.56 0.44 1 1 1zM10 26h-2.8c-0.66 0-1.2-0.54-1.2-1.2v-2.8c0-0.56-0.44-1-1-1s-1 0.44-1 1v2.8c0 1.76 1.44 3.2 3.2 3.2h2.8c0.56 0 1-0.44 1-1s-0.44-1-1-1zM18 26h-4c-0.56 0-1 0.44-1 1s0.44 1 1 1h4c0.56 0 1-0.44 1-1s-0.44-1-1-1zM27 21c-0.56 0-1 0.44-1 1v2.8c0 0.66-0.54 1.2-1.2 1.2h-2.8c-0.56 0-1 0.44-1 1s0.44 1 1 1h2.8c1.76 0 3.2-1.44 3.2-3.2v-2.8c0-0.56-0.44-1-1-1zM27 13c-0.56 0-1 0.44-1 1v4c0 0.56 0.44 1 1 1s1-0.44 1-1v-4c0-0.56-0.44-1-1-1zM24.8 4h-2.8c-0.56 0-1 0.44-1 1s0.44 1 1 1h2.8c0.66 0 1.2 0.54 1.2 1.2v2.8c0 0.56 0.44 1 1 1s1-0.44 1-1v-2.8c0-1.76-1.44-3.2-3.2-3.2z"></path>
</svg>
