<!-- Generated by IcoMoon.io -->
<svg version="1.1" xmlns="http://www.w3.org/2000/svg" width="32" height="32" viewBox="0 0 32 32">
<title>like</title>
<path d="M27.684 16.678c0.509-0.667 0.816-1.511 0.816-2.428v-0c0-1.403-0.784-2.731-2.047-3.472-0.304-0.183-0.671-0.291-1.063-0.291-0.003 0-0.005 0-0.008 0h-7.496l0.188-3.841c0.003-0.051 0.004-0.111 0.004-0.171 0-0.896-0.353-1.711-0.928-2.311l0.001 0.001c-0.609-0.643-1.469-1.044-2.422-1.044-0.004 0-0.008 0-0.012 0h0.001c-1.657 0.003-3.054 1.115-3.488 2.633l-0.006 0.026-2.684 9.719h-4.041c-0.552 0-1 0.448-1 1v0 11.375c0 0.552 0.448 1 1 1v0h18.791c0.288 0 0.569-0.056 0.828-0.169 1.451-0.627 2.448-2.046 2.448-3.698 0-0.413-0.062-0.811-0.178-1.186l0.008 0.028c0.509-0.667 0.816-1.512 0.816-2.429 0-0.412-0.062-0.809-0.177-1.183l0.008 0.029c0.509-0.667 0.816-1.511 0.816-2.428v-0c-0.005-0.415-0.069-0.813-0.183-1.189l0.008 0.030zM5.75 26.625v-8.875h2.531v8.875h-2.531zM25.637 15.594l-0.684 0.594 0.434 0.794c0.136 0.246 0.216 0.539 0.216 0.851 0 0.536-0.237 1.017-0.611 1.344l-0.002 0.002-0.684 0.594 0.434 0.794c0.136 0.246 0.216 0.539 0.216 0.851 0 0.536-0.237 1.017-0.611 1.344l-0.002 0.002-0.684 0.594 0.434 0.794c0.136 0.245 0.216 0.538 0.216 0.85 0 0.718-0.426 1.337-1.039 1.618l-0.011 0.005h-12.978v-8.972l3.109-11.266c0.166-0.584 0.693-1.005 1.319-1.009h0c0.238 0 0.472 0.069 0.659 0.209 0.309 0.231 0.475 0.581 0.456 0.953l-0.3 6.2h9.825c0.556 0.341 0.9 0.916 0.9 1.512 0 0.516-0.225 1.003-0.613 1.344z"></path>
</svg>
