<!-- Generated by IcoMoon.io -->
<svg version="1.1" xmlns="http://www.w3.org/2000/svg" width="32" height="32" viewBox="0 0 32 32">
<title>linechart</title>
<path d="M27.75 24.75h-21.5v-19.5c0-0.138-0.112-0.25-0.25-0.25v0h-1.75c-0.138 0-0.25 0.112-0.25 0.25v0 21.5c0 0.137 0.112 0.25 0.25 0.25h23.5c0.137 0 0.25-0.113 0.25-0.25v-1.75c-0.001-0.138-0.112-0.249-0.25-0.25h-0zM9.556 19.928c0.045 0.045 0.108 0.073 0.177 0.073s0.131-0.028 0.177-0.073v0l4.322-4.3 3.987 4.012c0.045 0.045 0.108 0.073 0.177 0.073s0.131-0.028 0.177-0.073v0l8.606-8.603c0.045-0.045 0.073-0.108 0.073-0.177s-0.028-0.131-0.073-0.177v0l-1.238-1.238c-0.045-0.045-0.108-0.073-0.177-0.073s-0.131 0.028-0.177 0.073v0l-7.188 7.184-3.981-4.006c-0.045-0.045-0.108-0.073-0.177-0.073s-0.131 0.028-0.177 0.073v0l-5.744 5.709c-0.045 0.045-0.073 0.108-0.073 0.177s0.028 0.131 0.073 0.177v0l1.234 1.241z"></path>
</svg>
