<!-- Generated by IcoMoon.io -->
<svg version="1.1" xmlns="http://www.w3.org/2000/svg" width="32" height="32" viewBox="0 0 32 32">
<title>lunbotu</title>
<path d="M12.9 14c1.2 0 2.4-0.7 2.8-1.8 0.5-1.1 0.2-2.4-0.6-3.3s-2.2-1.1-3.3-0.6c-1.1 0.4-1.8 1.6-1.8 2.8 0 1.6 1.3 2.9 2.9 2.9zM12.3 10.3c0.2-0.2 0.4-0.3 0.7-0.3 0.5 0 1 0.4 1 0.9s-0.4 1-0.9 1.1c-0.5 0-1-0.4-1.1-0.9 0-0.3 0.1-0.6 0.3-0.8zM28 7h-1v-2c0-1.1-0.9-2-2-2h-18c-1.1 0-2 0.9-2 2v2h-1c-1.1 0-2 0.9-2 2v14c0 1.1 0.9 2 2 2h1v2c0 1.1 0.9 2 2 2h18c1.1 0 2-0.9 2-2v-2h1c1.1 0 2-0.9 2-2v-14c0-1.1-0.9-2-2-2zM5 23c-0.6 0-1-0.4-1-1v-12c0-0.6 0.4-1 1-1v14zM25 26c0 0.6-0.4 1-1 1h-16c-0.5 0-1-0.4-1-1v-20c0-0.6 0.4-1 1-1h16c0.5 0 1 0.4 1 1v20zM28 22c0 0.6-0.4 1-1 1v-14c0.5 0 1 0.4 1 1v12zM21.4 14.5l-4.2 4.2-2.1-2.1c-0.2-0.2-0.4-0.3-0.7-0.3s-0.5 0.1-0.7 0.3l-5 5c-0.4 0.4-0.4 1 0 1.4s1 0.4 1.4 0l4.2-4.2 2.1 2.1c0.2 0.2 0.4 0.3 0.7 0.3s0.5-0.1 0.7-0.3l5-5c0.4-0.4 0.4-1 0-1.4-0.3-0.4-1-0.4-1.4 0z"></path>
</svg>
