<!-- Generated by IcoMoon.io -->
<svg version="1.1" xmlns="http://www.w3.org/2000/svg" width="32" height="32" viewBox="0 0 32 32">
<title>marketing</title>
<path d="M0 0.152h5.75v3.372h-5.75v-3.372zM0 4.872h5.75v22.932h-5.75v-22.932zM1.054 23.558c0 1.166 0.804 2.11 1.796 2.11s1.796-0.944 1.796-2.11c0-1.164-0.804-2.108-1.796-2.108s-1.796 0.946-1.796 2.108zM0 31.85h5.75v-2.698h-5.75v2.698zM6.9 28.68v3.172h7.474v-3.188c-0.306-0.256-1.254-0.86-3.45-0.86-2.082 0-3.41 0.548-4.024 0.876zM6.9 9.278c0.614 0.33 1.942 0.878 4.024 0.878 2.182 0 3.134-0.598 3.45-0.866v-2.394h-7.474v2.382zM6.9 10.74v16.482c0.832-0.366 2.166-0.766 4.024-0.766 1.678 0 2.766 0.328 3.45 0.682v-16.314c-0.684 0.35-1.772 0.68-3.45 0.68-1.858 0-3.192-0.4-4.024-0.764zM26.568 0l-3.944 0.95 0.578 3.304 3.944-0.95-0.578-3.304zM31.306 27.088l-3.942 0.95-3.93-22.464 3.944-0.948 3.928 22.462zM29.94 23.084c-0.202-1.138-0.976-1.916-1.734-1.732s-1.21 1.256-1.012 2.394c0.2 1.14 0.976 1.916 1.734 1.734 0.758-0.184 1.21-1.254 1.012-2.396zM31.538 28.408l-3.944 0.95 0.462 2.642 3.944-0.95-0.462-2.642zM16.1 3.524h5.75v-3.372h-5.75v3.372zM16.1 31.85h5.75v-2.698h-5.75v2.698zM16.1 24.432h5.75v-16.188h-5.75v16.188zM16.1 27.804h5.75v-2.024h-5.75v2.024zM16.1 6.896h5.75v-2.024h-5.75v2.024zM16.1 6.896"></path>
</svg>
