<!-- Generated by IcoMoon.io -->
<svg version="1.1" xmlns="http://www.w3.org/2000/svg" width="32" height="32" viewBox="0 0 32 32">
<title>menufold</title>
<path d="M3.087 6.275h25.878c0.621 0 1.125-0.504 1.125-1.125s-0.504-1.125-1.125-1.125v0h-25.878c-0.621 0-1.125 0.504-1.125 1.125s0.504 1.125 1.125 1.125v0zM28.903 13.931h-17.659c-0.621 0-1.125 0.504-1.125 1.125s0.504 1.125 1.125 1.125v0h17.659c0.621 0 1.125-0.504 1.125-1.125s-0.504-1.125-1.125-1.125v0zM28.966 25.744h-25.784c-0.621 0-1.125 0.504-1.125 1.125s0.504 1.125 1.125 1.125v0h25.784c0.621 0 1.125-0.504 1.125-1.125s-0.504-1.125-1.125-1.125v0zM6.159 19.219c0.198 0.175 0.459 0.282 0.746 0.282 0.622 0 1.127-0.505 1.127-1.127 0-0.294-0.112-0.561-0.296-0.762l0.001 0.001-2.981-2.931 2.928-2.759c0.204-0.204 0.33-0.485 0.33-0.796 0-0.622-0.504-1.126-1.126-1.126-0.287 0-0.55 0.108-0.749 0.285l0.001-0.001-3.778 3.563c-0.219 0.205-0.355 0.496-0.355 0.819 0 0.315 0.13 0.599 0.339 0.803l0 0 3.813 3.75z"></path>
</svg>
