<!-- Generated by IcoMoon.io -->
<svg version="1.1" xmlns="http://www.w3.org/2000/svg" width="32" height="32" viewBox="0 0 32 32">
<title>menu</title>
<path d="M12.359 3.864v8.495h-8.495v-8.495h8.495M14.18 1.436h-12.136c-0.335 0.001-0.606 0.272-0.607 0.607v12.136c0 0.334 0.273 0.607 0.607 0.607h12.136c0.335-0.001 0.606-0.272 0.607-0.607v-12.136c-0.001-0.335-0.272-0.606-0.607-0.607h-0zM12.359 19.641v8.495h-8.495v-8.495h8.495M14.18 17.214h-12.136c-0.335 0.001-0.606 0.272-0.607 0.607v12.136c0 0.334 0.273 0.607 0.607 0.607h12.136c0.335-0.001 0.606-0.272 0.607-0.607v-12.136c-0.001-0.335-0.272-0.606-0.607-0.607h-0zM28.136 3.864v8.495h-8.495v-8.495h8.495M29.957 1.436h-12.136c-0.335 0.001-0.606 0.272-0.607 0.607v12.136c0 0.334 0.273 0.607 0.607 0.607h12.136c0.335-0.001 0.606-0.272 0.607-0.607v-12.136c-0.001-0.335-0.272-0.606-0.607-0.607h-0zM28.136 19.641v8.495h-8.495v-8.495h8.495M29.957 17.214h-12.136c-0.335 0.001-0.606 0.272-0.607 0.607v12.136c0 0.334 0.273 0.607 0.607 0.607h12.136c0.335-0.001 0.606-0.272 0.607-0.607v-12.136c-0.001-0.335-0.272-0.606-0.607-0.607h-0z"></path>
</svg>
