<!-- Generated by IcoMoon.io -->
<svg version="1.1" xmlns="http://www.w3.org/2000/svg" width="32" height="32" viewBox="0 0 32 32">
<title>order</title>
<path d="M19.4 0h-7.1c-0.9 0-1.6 0.7-1.6 1.6 0 1 0.6 1.6 1.6 1.6h7.2c0.9 0 1.5-0.7 1.5-1.6-0.1-0.9-0.7-1.6-1.6-1.6zM25 2.2s-1.4 0.3-1.4 0.5c0 1.4-1.1 2.8-2.4 2.8h-10.8c-1.3 0-2.4-1.3-2.4-2.7 0-0.2-1.3-0.5-1.3-0.5h-2.2c-2.7-0.1-3.5 1.5-3.5 3.8v22.2c0 2.3 1 3.7 3.8 3.7h22.1c2.8 0 4.2-1.1 4.2-3.7v-22.2c0-2.2-1.3-3.8-4-3.8h-2.1v-0.1zM23.5 24.2h-15.4c-0.5 0-1.2-0.6-1.2-1.2 0-0.5 0.4-1 1.1-1h15.3c0.5 0 1.1 0.4 1.1 1 0.1 0.5-0.4 1.2-0.9 1.2zM23.5 18.3h-15.3c-0.5 0-1-0.5-1-1.2 0-0.5 0.4-1.1 1.1-1.1h15.3c0.5 0 1.1 0.5 1.1 1.1s-0.7 1.2-1.2 1.2zM23.5 12.3h-15.3c-0.5 0-1-0.5-1-1.2 0-0.5 0.4-1.1 1.1-1.1h15.3c0.5 0 1.1 0.5 1.1 1.1s-0.7 1.2-1.2 1.2z"></path>
</svg>
