<!-- Generated by IcoMoon.io -->
<svg version="1.1" xmlns="http://www.w3.org/2000/svg" width="32" height="32" viewBox="0 0 32 32">
<title>outdent</title>
<path d="M12.75 13.813h15c0.137 0 0.25-0.113 0.25-0.25v-1.75c-0.001-0.138-0.112-0.249-0.25-0.25h-15c-0.138 0.001-0.249 0.112-0.25 0.25v1.75c0 0.137 0.113 0.25 0.25 0.25zM12.5 20.188c0 0.137 0.113 0.25 0.25 0.25h15c0.137 0 0.25-0.113 0.25-0.25v-1.75c-0.001-0.138-0.112-0.249-0.25-0.25h-15c-0.138 0.001-0.249 0.112-0.25 0.25v1.75zM28.25 5h-24.5c-0.138 0-0.25 0.112-0.25 0.25v0 1.75c0 0.138 0.112 0.25 0.25 0.25h24.5c0.138 0 0.25-0.112 0.25-0.25v0-1.75c0-0.138-0.112-0.25-0.25-0.25v0zM28.25 24.75h-24.5c-0.138 0-0.25 0.112-0.25 0.25v0 1.75c0 0.137 0.112 0.25 0.25 0.25h24.5c0.137 0 0.25-0.113 0.25-0.25v-1.75c-0.001-0.138-0.112-0.249-0.25-0.25h-0zM3.606 16.216l4.884 3.847c0.181 0.144 0.45 0.016 0.45-0.216v-7.694c-0-0.153-0.124-0.277-0.277-0.277-0.066 0-0.126 0.023-0.174 0.061l0.001-0-4.884 3.847c-0.065 0.050-0.106 0.128-0.106 0.216s0.041 0.165 0.105 0.215l0.001 0z"></path>
</svg>
