<!-- Generated by IcoMoon.io -->
<svg version="1.1" xmlns="http://www.w3.org/2000/svg" width="32" height="32" viewBox="0 0 32 32">
<title>redo</title>
<path d="M23.694 26.222c2.937-2.305 4.806-5.855 4.806-9.841 0-0.003 0-0.006 0-0.010v0c0-0.003 0-0.006 0-0.009 0-6.894-5.587-12.484-12.481-12.488h-0c-6.912-0.009-12.519 5.588-12.519 12.497 0 3.913 1.797 7.403 4.613 9.694 0.043 0.034 0.098 0.055 0.158 0.055 0.080 0 0.152-0.037 0.198-0.096l0-0 1.231-1.578c0.033-0.042 0.053-0.096 0.053-0.154 0-0.077-0.035-0.146-0.090-0.192l-0-0c-0.265-0.218-0.504-0.434-0.73-0.663l-0.001-0c-0.891-0.888-1.614-1.942-2.119-3.113l-0.025-0.065c-0.525-1.228-0.787-2.538-0.787-3.887-0-0.007-0-0.016-0-0.025 0-2.753 1.119-5.244 2.928-7.044l0-0c1.804-1.809 4.298-2.928 7.054-2.928 0.006 0 0.013 0 0.019 0h-0.001c0.008-0 0.017-0 0.026-0 2.752 0 5.243 1.119 7.042 2.928l0 0c1.809 1.804 2.928 4.298 2.928 7.054 0 0.005 0 0.011 0 0.016v-0.001c0 0.006 0 0.013 0 0.020 0 2.754-1.119 5.247-2.928 7.049l-0 0c-0.291 0.291-0.597 0.563-0.916 0.813l-1.272-1.628c-0.046-0.059-0.118-0.097-0.198-0.097-0.117 0-0.216 0.081-0.243 0.19l-0 0.002-1.238 5.069c-0.005 0.018-0.007 0.038-0.007 0.059 0 0.137 0.111 0.249 0.248 0.25h0l5.219 0.025c0.209 0 0.328-0.241 0.197-0.403l-1.166-1.497z"></path>
</svg>
