<!-- Generated by IcoMoon.io -->
<svg version="1.1" xmlns="http://www.w3.org/2000/svg" width="32" height="32" viewBox="0 0 32 32">
<title>rise</title>
<path d="M28.656 6.597l-6.225 0.75c-0.125 0.015-0.22 0.121-0.22 0.248 0 0.069 0.028 0.132 0.073 0.177l1.853 1.853-7.063 7.063-3.181-3.178c-0.090-0.091-0.215-0.147-0.353-0.147s-0.263 0.056-0.353 0.147l-10.053 10.056c-0.045 0.045-0.073 0.108-0.073 0.177s0.028 0.131 0.073 0.177v0l1.406 1.413c0.045 0.045 0.108 0.073 0.176 0.073s0.131-0.028 0.176-0.073v0l8.647-8.644 3.178 3.178c0.091 0.090 0.215 0.145 0.353 0.145s0.262-0.056 0.353-0.145l8.481-8.475 1.853 1.853c0.045 0.045 0.108 0.073 0.177 0.073 0.128 0 0.233-0.096 0.248-0.219l0-0.001 0.75-6.225c0.001-0.009 0.002-0.020 0.002-0.031 0-0.136-0.11-0.246-0.246-0.246-0.012 0-0.024 0.001-0.035 0.003l0.001-0z"></path>
</svg>
