<!-- Generated by IcoMoon.io -->
<svg version="1.1" xmlns="http://www.w3.org/2000/svg" width="32" height="32" viewBox="0 0 32 32">
<title>search1</title>
<path d="M29.836 28.743l-6.19-6.187c0.856-0.96 1.57-2.072 2.093-3.286l0.030-0.079c0.642-1.518 0.968-3.13 0.968-4.791s-0.326-3.273-0.968-4.791c-0.62-1.466-1.507-2.782-2.637-3.912-2.22-2.227-5.291-3.604-8.684-3.604-0.007 0-0.014 0-0.021 0h0.001c-0.005 0-0.012 0-0.018 0-3.393 0-6.464 1.378-8.684 3.605l-0 0c-2.227 2.22-3.604 5.291-3.604 8.683 0 0.007 0 0.014 0 0.021v-0.001c0 0.005 0 0.012 0 0.018 0 3.393 1.378 6.464 3.605 8.684l0 0c2.22 2.227 5.292 3.605 8.684 3.605 0.007 0 0.013 0 0.020 0h-0.001c1.661 0 3.273-0.326 4.791-0.968 1.282-0.549 2.385-1.255 3.352-2.111l-0.013 0.011 6.192 6.189c0.139 0.14 0.331 0.226 0.543 0.226s0.404-0.086 0.543-0.226l0-0c0.3-0.3 0.3-0.786 0-1.086zM14.428 25.173c-2.877 0-5.582-1.12-7.617-3.155s-3.155-4.74-3.155-7.617 1.12-5.582 3.155-7.617 4.74-3.155 7.617-3.155 5.582 1.12 7.617 3.155 3.155 4.74 3.155 7.617-1.12 5.582-3.155 7.617-4.74 3.155-7.617 3.155z"></path>
</svg>
