<!-- Generated by IcoMoon.io -->
<svg version="1.1" xmlns="http://www.w3.org/2000/svg" width="32" height="32" viewBox="0 0 32 32">
<title>search</title>
<path d="M19 3.5c-0 0-0 0-0.001 0-5.247 0-9.5 4.253-9.5 9.5 0 2.206 0.752 4.236 2.013 5.849l-0.016-0.021-7.925 7.925c-0.045 0.045-0.073 0.108-0.073 0.177s0.028 0.131 0.073 0.177v0l1.322 1.322c0.045 0.045 0.108 0.073 0.176 0.073s0.131-0.028 0.176-0.073v0l7.925-7.925c1.592 1.246 3.622 1.998 5.828 1.998 5.247 0 9.5-4.253 9.5-9.5 0-0 0-0.001 0-0.001v0c0-5.247-4.253-9.5-9.5-9.5v0zM24.038 18.038c-1.344 1.347-3.134 2.087-5.038 2.087s-3.694-0.741-5.037-2.087c-1.347-1.344-2.088-3.134-2.088-5.037s0.741-3.694 2.088-5.037c1.344-1.347 3.134-2.088 5.037-2.088s3.694 0.741 5.038 2.088c1.347 1.344 2.087 3.134 2.087 5.037s-0.741 3.694-2.087 5.037z"></path>
</svg>
