<!-- Generated by IcoMoon.io -->
<svg version="1.1" xmlns="http://www.w3.org/2000/svg" width="32" height="32" viewBox="0 0 32 32">
<title>search2</title>
<path d="M10.904 6.491c-0.599 0.258-1.11 0.539-1.591 0.862l0.035-0.022c-0.501 0.348-0.94 0.718-1.342 1.126l-0.001 0.001c-0.411 0.407-0.781 0.854-1.103 1.336l-0.020 0.031c-0.309 0.447-0.59 0.957-0.817 1.495l-0.021 0.056c-0.041 0.090-0.065 0.196-0.065 0.307 0 0.319 0.196 0.592 0.473 0.707l0.005 0.002c0.089 0.038 0.192 0.060 0.3 0.060 0.317 0 0.59-0.19 0.711-0.462l0.002-0.005c0.184-0.443 0.424-0.887 0.699-1.293s0.58-0.793 0.92-1.126c0.339-0.341 0.709-0.651 1.106-0.925l0.026-0.017c0.366-0.249 0.786-0.484 1.226-0.681l0.053-0.021c0.287-0.116 0.485-0.392 0.485-0.715 0-0.109-0.023-0.212-0.063-0.306l0.002 0.005c-0.124-0.281-0.401-0.474-0.723-0.474-0.108 0-0.211 0.022-0.304 0.061l0.005-0.002zM30.921 29.615l-5.605-5.606c0.874-1.045 1.613-2.246 2.165-3.546l0.035-0.093c0.675-1.589 1.067-3.437 1.067-5.377 0-0.019-0-0.038-0-0.057v0.003c0-1.884-0.368-3.694-1.049-5.347l-0.019-0.065c-0.739-1.764-1.752-3.272-3.002-4.546l0.002 0.002-0.072-0.063c-1.277-1.285-2.799-2.324-4.492-3.040l-0.092-0.035c-1.589-0.678-3.438-1.072-5.379-1.072-0.008 0-0.016 0-0.024 0h0.001c-5.859 0.005-10.882 3.577-13.015 8.662l-0.035 0.093c-0.675 1.591-1.068 3.441-1.068 5.383 0 0.010 0 0.020 0 0.030v-0.002c0 1.902 0.377 3.713 1.040 5.356l0.027 0.074c0.752 1.784 1.787 3.308 3.064 4.589l-0-0c1.279 1.282 2.801 2.321 4.491 3.041l0.093 0.035h0.019c1.578 0.683 3.415 1.080 5.346 1.080 0.014 0 0.027-0 0.040-0h-0.002c1.923 0 3.736-0.378 5.402-1.080 1.39-0.576 2.587-1.315 3.645-2.214l-0.019 0.016 5.614 5.634c0.231 0.23 0.55 0.372 0.902 0.372 0.361 0 0.687-0.15 0.92-0.39l0-0c0.233-0.237 0.376-0.561 0.376-0.919s-0.144-0.683-0.376-0.92l0 0zM22.62 23.123v0.009l-0.019 0.019c-1.038 1.040-2.276 1.879-3.652 2.456l-0.075 0.028c-1.296 0.561-2.805 0.887-4.39 0.887-0.010 0-0.020 0-0.029-0h0.002c-1.565 0-3.056-0.314-4.408-0.887-1.456-0.605-2.699-1.452-3.735-2.502l-0.010-0.010h0.009c-1.052-1.048-1.903-2.297-2.493-3.683l-0.029-0.076-0.019-0.065c-0.535-1.284-0.845-2.775-0.845-4.339 0-0.007 0-0.014 0-0.021v0.001c0-1.57 0.304-3.066 0.865-4.424 0.626-1.46 1.477-2.707 2.523-3.76l-0.001 0.001c2.080-2.093 4.961-3.389 8.145-3.389 0 0 0 0 0 0v0c1.574 0 3.064 0.314 4.418 0.877 1.459 0.61 2.704 1.459 3.744 2.511l0.001 0.001 0.074 0.056c1.008 1.040 1.828 2.268 2.401 3.626l0.029 0.078 0.037 0.065c0.525 1.33 0.846 2.817 0.846 4.359 0 1.579-0.322 3.075-0.883 4.424-0.605 1.464-1.452 2.714-2.503 3.757l-0.001 0.001zM22.823 14.165c-0.427 0.003-0.771 0.349-0.773 0.776v0c0 0.010 0 0.023 0 0.035 0 1.040-0.21 2.032-0.589 2.934l0.019-0.050-0.019 0.037c-0.377 0.868-0.902 1.708-1.639 2.42-1.354 1.379-3.238 2.234-5.322 2.234-0.015 0-0.030-0-0.045-0h0.002c-0.432 0-0.764 0.351-0.764 0.785s0.331 0.785 0.764 0.785c1.206 0 2.384-0.24 3.507-0.702 1.157-0.479 2.143-1.154 2.962-1.993l0.002-0.002c0.818-0.821 1.483-1.795 1.947-2.876l0.023-0.060v-0.028c0.452-1.038 0.716-2.247 0.718-3.517v-0.001c-0.009-0.43-0.36-0.775-0.791-0.775-0.001 0-0.002 0-0.002 0h0z"></path>
</svg>
