<!-- Generated by IcoMoon.io -->
<svg version="1.1" xmlns="http://www.w3.org/2000/svg" width="32" height="32" viewBox="0 0 32 32">
<title>set</title>
<path d="M19.189 31.057h-6.717c-0 0-0 0-0 0-0.358 0-0.658-0.245-0.744-0.576l-0.001-0.005-0.775-3.086-2.669 1.71c-0.117 0.076-0.26 0.122-0.414 0.122-0.209 0-0.398-0.083-0.536-0.219l0 0-4.764-4.644c-0.143-0.14-0.232-0.335-0.232-0.55 0-0.155 0.046-0.299 0.125-0.42l-0.002 0.003 1.856-2.872-3.094-0.589c-0.358-0.070-0.624-0.381-0.624-0.754v-6.589c0-0.359 0.249-0.671 0.6-0.749l3.315-0.744-1.698-2.477c-0.084-0.121-0.135-0.272-0.135-0.434 0-0.213 0.087-0.406 0.228-0.546l4.734-4.687c0.139-0.137 0.33-0.222 0.54-0.222 0.147 0 0.284 0.041 0.401 0.113l-0.003-0.002 2.75 1.664 0.724-2.923c0.085-0.337 0.386-0.583 0.745-0.583 0 0 0 0 0 0h6.717c0.354 0 0.662 0.242 0.746 0.586l0.744 3.051 2.632-1.492c0.109-0.063 0.239-0.1 0.378-0.1 0.206 0 0.394 0.081 0.532 0.214l-0-0 4.809 4.615c0.146 0.14 0.236 0.337 0.236 0.554 0 0.155-0.046 0.298-0.124 0.419l0.002-0.003-1.781 2.764 3.069 0.714c0.343 0.082 0.594 0.386 0.594 0.748v0 6.589c0 0 0 0 0 0 0 0.375-0.269 0.687-0.625 0.754l-0.005 0.001-3.17 0.58 1.754 2.523c0.086 0.122 0.137 0.274 0.137 0.438 0 0.215-0.088 0.41-0.231 0.549l-4.764 4.645c-0.139 0.135-0.328 0.218-0.537 0.218-0.142 0-0.276-0.039-0.39-0.106l0.004 0.002-2.926-1.707-0.663 2.905c-0.081 0.344-0.385 0.597-0.749 0.597-0 0-0 0-0 0v0zM13.071 29.521h5.506l0.759-3.327c0.082-0.344 0.387-0.596 0.75-0.596 0.142 0 0.274 0.038 0.389 0.105l-0.004-0.002 3.325 1.939 3.88-3.783-2.064-2.968c-0.087-0.123-0.139-0.275-0.139-0.44 0-0.376 0.27-0.688 0.627-0.753l0.005-0.001 3.713-0.679v-5.339l-3.537-0.823c-0.343-0.083-0.593-0.387-0.593-0.749 0-0.154 0.045-0.297 0.123-0.418l-0.002 0.003 2.029-3.149-3.94-3.781-3.018 1.711c-0.109 0.063-0.239 0.099-0.378 0.099-0.359 0-0.661-0.247-0.745-0.58l-0.001-0.005-0.842-3.452h-5.513l-0.83 3.352c-0.085 0.338-0.386 0.583-0.745 0.583-0.147 0-0.285-0.042-0.402-0.113l0.003 0.002-3.13-1.894-3.853 3.815 1.977 2.884c0.085 0.122 0.136 0.273 0.136 0.436 0 0.365-0.255 0.67-0.597 0.746l-0.005 0.001-3.822 0.857v5.339l3.59 0.684c0.358 0.069 0.625 0.38 0.625 0.753 0 0.155-0.046 0.3-0.126 0.421l0.002-0.003-2.134 3.302 3.877 3.78 3.054-1.957c0.117-0.076 0.26-0.121 0.413-0.121 0.358 0 0.659 0.244 0.744 0.575l0.001 0.005 0.889 3.54zM16.045 22.064c-3.346 0-6.069-2.722-6.069-6.069s2.722-6.069 6.069-6.069c3.346 0 6.069 2.722 6.069 6.069s-2.722 6.069-6.069 6.069zM16.045 11.462c-2.499 0-4.533 2.033-4.533 4.533s2.033 4.533 4.533 4.533 4.533-2.033 4.533-4.533-2.033-4.533-4.533-4.533z"></path>
</svg>
