<!-- Generated by IcoMoon.io -->
<svg version="1.1" xmlns="http://www.w3.org/2000/svg" width="36" height="32" viewBox="0 0 36 32">
<title>setting</title>
<path d="M35.828 13.606c-0.141-0.744-0.895-1.5-1.678-1.668l-0.585-0.127c-1.375-0.395-2.594-1.259-3.369-2.531-0.491-0.787-0.782-1.743-0.782-2.767 0-0.461 0.059-0.908 0.17-1.335l-0.008 0.037 0.183-0.522c0.233-0.723-0.070-1.721-0.684-2.217 0 0-0.55-0.442-2.101-1.293-1.551-0.844-2.22-1.078-2.22-1.078-0.754-0.261-1.812-0.013-2.361 0.543l-0.409 0.415c-1.043 0.938-2.446 1.507-3.996 1.507s-2.968-0.576-4.011-1.52l-0.395-0.402c-0.543-0.556-1.607-0.804-2.361-0.542 0 0-0.677 0.235-2.227 1.078-1.551 0.857-2.093 1.299-2.093 1.299-0.613 0.489-0.916 1.48-0.684 2.21l0.169 0.529c0.331 1.333 0.155 2.779-0.62 4.059s-2.009 2.15-3.39 2.538l-0.564 0.12c-0.775 0.168-1.537 0.918-1.678 1.668 0 0-0.127 0.67-0.127 2.371s0.127 2.371 0.127 2.371c0.141 0.75 0.895 1.5 1.678 1.668l0.55 0.121c1.381 0.388 2.622 1.259 3.397 2.545 0.491 0.787 0.782 1.743 0.782 2.766 0 0.461-0.059 0.909-0.17 1.335l0.008-0.037-0.162 0.516c-0.233 0.723 0.070 1.721 0.684 2.217 0 0 0.55 0.442 2.101 1.293s2.22 1.078 2.22 1.078c0.754 0.261 1.812 0.013 2.362-0.543l0.388-0.395c1.050-0.944 2.46-1.52 4.018-1.52s2.974 0.583 4.018 1.527l0.388 0.395c0.543 0.556 1.607 0.804 2.361 0.542 0 0 0.677-0.234 2.227-1.078 1.551-0.851 2.093-1.293 2.093-1.293 0.613-0.489 0.916-1.487 0.684-2.217l-0.169-0.536c-0.101-0.386-0.159-0.829-0.159-1.286 0-1.021 0.29-1.974 0.792-2.781l-0.013 0.022c0.775-1.279 2.016-2.157 3.397-2.545l0.55-0.121c0.775-0.167 1.537-0.917 1.678-1.668 0 0 0.127-0.67 0.127-2.371-0.007-1.708-0.134-2.377-0.134-2.377zM17.988 22.788c-3.954 0-7.169-3.047-7.169-6.811 0-3.757 3.207-6.805 7.169-6.805 3.954 0 7.168 3.047 7.168 6.811-0.007 3.757-3.214 6.805-7.168 6.805z"></path>
</svg>
