<!-- Generated by IcoMoon.io -->
<svg version="1.1" xmlns="http://www.w3.org/2000/svg" width="32" height="32" viewBox="0 0 32 32">
<title>shanchu</title>
<path d="M17.441 15.914l8.697-8.652c0.192-0.19 0.311-0.454 0.311-0.746 0-0.579-0.47-1.049-1.049-1.049-0.289 0-0.551 0.117-0.741 0.307l0-0-8.699 8.653-8.623-8.65c-0.186-0.171-0.436-0.276-0.71-0.276-0.58 0-1.050 0.47-1.050 1.050 0 0.273 0.104 0.522 0.276 0.709l-0.001-0.001 8.621 8.648-8.693 8.647c-0.191 0.19-0.309 0.453-0.309 0.744 0 0.579 0.469 1.049 1.048 1.049h0.001c0.268 0 0.535-0.102 0.74-0.305l8.695-8.649 8.702 8.729c0.205 0.206 0.473 0.308 0.743 0.308h0.001c0.579-0.001 1.047-0.47 1.047-1.049 0-0.289-0.117-0.55-0.306-0.74l0 0-8.7-8.726zM17.441 15.914"></path>
</svg>
