<!-- Generated by IcoMoon.io -->
<svg version="1.1" xmlns="http://www.w3.org/2000/svg" width="32" height="32" viewBox="0 0 32 32">
<title>shanchu1</title>
<path d="M16 31c-8.284 0-15-6.715-15-15s6.715-15 15-15 15 6.715 15 15-6.715 15-15 15zM22.776 9.224c-0.176-0.176-0.418-0.284-0.686-0.284s-0.511 0.109-0.686 0.284l-5.375 5.375-5.376-5.376c-0.173-0.164-0.407-0.264-0.664-0.264-0.534 0-0.967 0.433-0.967 0.967 0 0.257 0.101 0.491 0.265 0.665l-0-0 5.377 5.376-5.377 5.377c-0.169 0.174-0.273 0.412-0.273 0.675 0 0.536 0.435 0.971 0.971 0.971 0.262 0 0.5-0.104 0.675-0.273l-0 0 5.377-5.377 5.316 5.316c0.175 0.175 0.416 0.283 0.683 0.283 0.534 0 0.966-0.433 0.966-0.966 0-0.267-0.108-0.509-0.283-0.683l-5.316-5.316 5.375-5.375c0.176-0.176 0.284-0.418 0.284-0.687s-0.109-0.511-0.284-0.687v0z"></path>
</svg>
