<!-- Generated by IcoMoon.io -->
<svg version="1.1" xmlns="http://www.w3.org/2000/svg" width="32" height="32" viewBox="0 0 32 32">
<title>shangpin</title>
<path d="M27.888 0h-24.032c-1.712 0-3.104 1.472-3.104 3.28v25.44c0 1.808 1.392 3.28 3.088 3.28h24.032c1.712 0 3.088-1.472 3.088-3.28v-25.44c0.016-1.808-1.376-3.28-3.072-3.28zM25.472 9.792c-0.8 4.944-4.88 8.608-9.6 8.608-4.736 0-8.816-3.68-9.616-8.608-0.816-0.352-1.392-1.184-1.392-2.176 0-1.296 0.992-2.336 2.208-2.336s2.208 1.056 2.208 2.336c0 0.352-0.080 0.672-0.208 0.976-0.080 0.32-0.224 0.624-0.464 0.88 0.688 3.76 3.68 6.4 7.248 6.4s6.592-2.672 7.248-6.384c-0.208-0.231-0.368-0.509-0.46-0.817l-0.004-0.015c-0.148-0.299-0.236-0.651-0.24-1.023v-0.001c0-1.296 0.992-2.336 2.208-2.336s2.208 1.056 2.208 2.336c0.002 0.034 0.003 0.074 0.003 0.114 0 0.912-0.548 1.696-1.333 2.041l-0.014 0.006z"></path>
</svg>
