<!-- Generated by IcoMoon.io -->
<svg version="1.1" xmlns="http://www.w3.org/2000/svg" width="32" height="32" viewBox="0 0 32 32">
<title>shangpin5</title>
<path d="M26.409 8.044h-2.806c-1.209-3.728-4.116-6.037-7.619-6.037-3.506 0-6.409 2.309-7.622 6.037h-2.803c-1.575 0-2.859 1.306-2.859 2.916v16.134c0 1.606 1.281 2.916 2.859 2.916h20.853c1.512 0 2.741-1.206 2.841-2.725 0.003-0.034 0.019-0.063 0.019-0.097v-16.225c-0.003-1.609-1.284-2.919-2.863-2.919M15.984 4.116c2.475 0 4.472 1.425 5.525 3.928h-11.050c1.053-2.5 3.047-3.928 5.525-3.928M26.275 28.103h-20.581c-0.619 0-1.122-0.516-1.122-1.15v-15.853c0-0.634 0.503-1.15 1.122-1.15h2.225c-0.1 0.653-0.15 1.303-0.15 1.941 0 0.503 0.034 1.012 0.1 1.553-0.525 0.344-0.847 0.928-0.847 1.566 0 1.031 0.822 1.869 1.834 1.869 1.009 0 1.834-0.837 1.834-1.869 0-0.634-0.322-1.222-0.847-1.566-0.084-0.547-0.122-1.059-0.122-1.553 0-0.65 0.059-1.3 0.178-1.941h12.175c0.119 0.637 0.178 1.287 0.178 1.941 0 0.503-0.041 1.019-0.125 1.572-0.509 0.347-0.819 0.928-0.819 1.547 0 1.031 0.822 1.869 1.831 1.869 1.012 0 1.834-0.837 1.834-1.869 0-0.65-0.328-1.241-0.869-1.581 0.063-0.528 0.094-1.034 0.094-1.537 0-0.641-0.050-1.291-0.15-1.941h2.225c0.619 0 1.119 0.516 1.119 1.15v15.856c-0.003 0.634-0.503 1.147-1.119 1.147"></path>
</svg>
