<!-- Generated by IcoMoon.io -->
<svg version="1.1" xmlns="http://www.w3.org/2000/svg" width="32" height="32" viewBox="0 0 32 32">
<title>shibai</title>
<path d="M15.875 30.975c-8.2 0-14.85-6.65-14.85-14.85s6.65-14.85 14.85-14.85 14.85 6.65 14.85 14.85-6.65 14.85-14.85 14.85zM15.875 4.25c-6.55 0-11.875 5.325-11.875 11.875s5.325 11.875 11.875 11.875 11.875-5.325 11.875-11.875c0-6.55-5.325-11.875-11.875-11.875zM21.125 21.375c-0.575 0.575-1.525 0.575-2.1 0l-3.15-3.15-3.15 3.15c-0.575 0.575-1.525 0.575-2.1 0s-0.575-1.525 0-2.1l3.15-3.15-3.15-3.15c-0.575-0.575-0.575-1.525 0-2.1s1.525-0.575 2.1 0l3.15 3.15 3.15-3.15c0.575-0.575 1.525-0.575 2.1 0s0.575 1.525 0 2.1l-3.15 3.15 3.15 3.15c0.575 0.575 0.575 1.525 0 2.1z"></path>
</svg>
