<!-- Generated by IcoMoon.io -->
<svg version="1.1" xmlns="http://www.w3.org/2000/svg" width="32" height="32" viewBox="0 0 32 32">
<title>shipin7</title>
<path d="M13.949 11.464c-0.704-0.373-1.616 0.104-1.616 0.911v7.933c0 0.808 0.87 1.346 1.616 0.911l6.856-3.935c0.704-0.435 0.704-1.45 0-1.885l-6.856-3.935zM29.049 14.529c-0.642-6.317-5.82-11.371-12.138-11.868-8.202-0.642-14.996 6.193-14.333 14.395 0.539 6.359 5.551 11.475 11.91 12.138 3.666 0.373 7.001-0.746 9.59-2.796 0.373-0.331 0.435-0.87 0.062-1.243-0.269-0.269-0.746-0.331-1.077-0.062-2.216 1.781-5.075 2.755-8.078 2.527-5.613-0.352-10.253-4.826-10.791-10.439-0.704-7.436 5.489-13.629 12.883-12.821 5.385 0.539 9.818 4.909 10.398 10.294 0.269 2.92-0.476 5.613-1.947 7.809-0.207 0.331-0.166 0.746 0.104 1.015 0.373 0.331 0.974 0.269 1.243-0.104 1.698-2.527 2.548-5.551 2.175-8.844zM29.049 14.529"></path>
</svg>
