<!-- Generated by IcoMoon.io -->
<svg version="1.1" xmlns="http://www.w3.org/2000/svg" width="32" height="32" viewBox="0 0 32 32">
<title>shipin</title>
<path d="M5.597 13.029c0.287 0 0.567-0.116 0.77-0.319s0.319-0.483 0.319-0.77c0-0.286-0.116-0.567-0.319-0.77s-0.483-0.319-0.77-0.319c-0.287 0-0.567 0.116-0.77 0.319s-0.319 0.483-0.319 0.77c0 0.287 0.116 0.567 0.319 0.77s0.483 0.319 0.77 0.319zM30.239 8.617c-0.34-0.213-0.729-0.321-1.156-0.321-0.422 0-0.855 0.106-1.287 0.314l-5.933 2.866v-1.009c0-1.892-1.539-3.431-3.431-3.431h-14.309c-1.892 0-3.431 1.539-3.431 3.431v12.393c0 1.892 1.539 3.431 3.431 3.431h14.309c1.892 0 3.43-1.539 3.43-3.431v-1.004l5.935 2.892c0.434 0.211 0.869 0.319 1.294 0.319s0.811-0.107 1.148-0.318c0.679-0.425 1.068-1.226 1.068-2.196v-11.738c-0-0.97-0.389-1.77-1.069-2.197zM29.725 10.814v11.738c0 0.407-0.121 0.726-0.324 0.853-0.084 0.052-0.189 0.078-0.312 0.078-0.177 0-0.383-0.055-0.598-0.159l-6.628-3.23v-6.862l6.621-3.197c0.214-0.103 0.421-0.158 0.597-0.158 0.125 0 0.232 0.027 0.316 0.080 0.208 0.13 0.328 0.443 0.328 0.857zM2.275 10.467c0-1.019 0.829-1.848 1.848-1.848h14.309c1.019 0 1.848 0.829 1.848 1.848v12.393c0 1.019-0.829 1.848-1.848 1.848h-14.309c-1.019 0-1.848-0.829-1.848-1.848v-12.393z"></path>
</svg>
