<!-- Generated by IcoMoon.io -->
<svg version="1.1" xmlns="http://www.w3.org/2000/svg" width="32" height="32" viewBox="0 0 32 32">
<title>shop</title>
<path d="M27.563 8.503v-4.003c0-0.552-0.448-1-1-1v0h-21.125c-0.552 0-1 0.448-1 1v0 4.003c-0.525 0.034-0.937 0.467-0.938 0.997v4.116c0 0.762 0.15 1.503 0.45 2.2 0.134 0.319 0.3 0.619 0.487 0.903v10.781c0 0.55 0.447 1 1 1h21.125c0.552 0 1-0.448 1-1v0-10.781c0.588-0.871 0.938-1.944 0.938-3.098 0-0.002 0-0.003 0-0.005v0-4.116c-0.001-0.53-0.413-0.963-0.935-0.997l-0.003-0zM6.688 5.75h18.625v2.75h-18.625v-2.75zM18 26.253h-4v-3.253h4v3.253zM25.313 26.253h-5.313v-4.253c0-0.552-0.448-1-1-1v0h-6c-0.552 0-1 0.448-1 1v0 4.253h-5.313v-7.569c0.719 0.357 1.565 0.566 2.46 0.566 0.007 0 0.015 0 0.022-0h-0.001c0.001 0 0.002 0 0.002 0 1.284 0 2.469-0.425 3.421-1.142l-0.015 0.010c0.003-0.001 0.006-0.002 0.009-0.002s0.007 0.001 0.010 0.002l-0-0c0.937 0.707 2.121 1.132 3.405 1.132 0.002 0 0.003 0 0.005 0h-0c0.762 0 1.5-0.147 2.2-0.441 0.462-0.196 0.86-0.427 1.224-0.702l-0.015 0.011c0.003-0.001 0.006-0.002 0.009-0.002s0.007 0.001 0.010 0.002l-0-0c0.937 0.707 2.121 1.132 3.405 1.132 0.002 0 0.003 0 0.005 0h-0c0.762 0 1.5-0.147 2.2-0.441 0.094-0.041 0.188-0.081 0.281-0.125v7.569zM26.25 13.616c0 1.869-1.531 3.384-3.416 3.384-0.002 0-0.005 0-0.007 0-1.262 0-2.365-0.683-2.959-1.7l-0.009-0.016c-0.088-0.152-0.249-0.253-0.434-0.253h-0.019c-0.185 0.001-0.346 0.101-0.433 0.251l-0.001 0.002c-0.6 1.033-1.701 1.716-2.962 1.716-0.004 0-0.007 0-0.011-0h0.001c-0.002 0-0.005 0-0.008 0-1.259 0-2.359-0.68-2.953-1.693l-0.009-0.016c-0.091-0.155-0.257-0.258-0.447-0.258s-0.356 0.103-0.446 0.256l-0.001 0.002c-0.604 1.029-1.705 1.709-2.965 1.709-0.003 0-0.005 0-0.008 0h0c-1.884 0-3.416-1.516-3.416-3.384v-2.85c0-0.009 0.006-0.016 0.016-0.016h20.469c0.009 0 0.016 0.006 0.016 0.016v2.85z"></path>
</svg>
