<!-- Generated by IcoMoon.io -->
<svg version="1.1" xmlns="http://www.w3.org/2000/svg" width="32" height="32" viewBox="0 0 32 32">
<title>shouye</title>
<path d="M15.794 6.237l-10.5 9.1v11.9l2.1 2.1h5.6v-7.7l0.7-1.4h3.5l1.4 2.1v7h6.3l2.1-2.1v-11.9zM8.794 4.138h-2.1v6.3l2.1-2.1zM29.962 14.066c-0.002-0.187-0.087-0.355-0.218-0.468l-0.001-0.001-13.356-11.469c-0.109-0.093-0.252-0.15-0.408-0.15s-0.299 0.057-0.409 0.151l0.001-0.001-5.903 5.069v-3.188c-0.001-0.337-0.274-0.609-0.611-0.609-0.005 0-0.010 0-0.015 0h-2.752c-0.004-0-0.008-0-0.012-0-0.337 0-0.609 0.273-0.61 0.609v6.622l-3.456 2.969c-0.134 0.115-0.219 0.285-0.219 0.475v3.297c0.003 0.344 0.281 0.622 0.625 0.625h0c0.156-0.001 0.299-0.057 0.41-0.151l-0.001 0.001 1.666-1.431v10.128c0.003 1.899 1.542 3.437 3.441 3.438h15.772c1.898-0.002 3.437-1.54 3.441-3.438v-10.119l1.613 1.384c0.002 0.344 0.282 0.622 0.626 0.622 0.346 0 0.626-0.28 0.626-0.626 0-0.189-0.084-0.358-0.216-0.473l-0.001-0.001-0.031-3.266zM6.916 4.647h1.503v3.622l-1.503 1.291v-4.912zM17.837 28.728h-4.194v-6.878c0-0.344 0.281-0.625 0.625-0.625h2.941c0.344 0 0.625 0.281 0.625 0.625l0.003 6.878zM26.097 15.453v11.087c-0.002 1.209-0.982 2.188-2.191 2.188 0 0 0 0 0 0h-4.819v-6.878c-0.002-1.036-0.842-1.875-1.878-1.875h-2.941c-1.036 0.001-1.875 0.84-1.878 1.875v6.878h-4.253c-1.209-0.001-2.188-0.98-2.191-2.188v-11.088c0-0.001 0-0.001 0-0.002 0-0.037-0.003-0.073-0.010-0.108l0.001 0.004 10.075-8.653 10.094 8.666c-0.006 0.028-0.009 0.060-0.009 0.092 0 0.001 0 0.001 0 0.002v-0zM16.419 5.394c-0.109-0.093-0.252-0.15-0.408-0.15s-0.299 0.057-0.409 0.151l0.001-0.001-12.356 10.616v-1.647l12.731-10.931 12.734 10.934 0.016 1.6-12.309-10.572z"></path>
</svg>
