<!-- Generated by IcoMoon.io -->
<svg version="1.1" xmlns="http://www.w3.org/2000/svg" width="32" height="32" viewBox="0 0 32 32">
<title>ss-search</title>
<path d="M26.197 24.215c2.224-2.623 3.421-5.948 3.421-9.405-0.012-8.172-6.637-14.809-14.809-14.809s-14.809 6.637-14.809 14.809 6.637 14.809 14.809 14.809c2.128 0 4.207-0.447 6.141-1.342 0.592-0.254 0.846-0.943 0.544-1.487-0.189-0.383-0.577-0.641-1.025-0.641-0.005 0-0.011 0-0.016 0h0.001c-0.18 0.009-0.35 0.044-0.508 0.101l0.012-0.004c-1.535 0.689-3.264 1.136-5.15 1.136-6.879 0-12.524-5.597-12.524-12.524 0-6.879 5.597-12.524 12.524-12.524 6.879 0 12.524 5.597 12.524 12.524 0 3.264-1.233 6.335-3.47 8.668-0.193 0.193-0.302 0.496-0.302 0.798s0.145 0.592 0.351 0.846c0.048 0.048 0.097 0.048 0.097 0.048 0.048 0.048 0.048 0.097 0.097 0.145l5.887 6.286c0.193 0.193 0.496 0.351 0.846 0.351 0.302 0 0.544-0.097 0.798-0.302 0.242-0.193 0.351-0.496 0.351-0.846 0-0.302-0.097-0.592-0.302-0.798l-5.488-5.839zM26.197 24.215"></path>
</svg>
