<!-- Generated by IcoMoon.io -->
<svg version="1.1" xmlns="http://www.w3.org/2000/svg" width="32" height="32" viewBox="0 0 32 32">
<title>star</title>
<path d="M28.378 11.034l-7.934-1.153-3.547-7.191c-0.099-0.198-0.255-0.354-0.447-0.45l-0.006-0.003c-0.129-0.065-0.281-0.103-0.443-0.103-0.391 0-0.73 0.224-0.896 0.55l-0.003 0.006-3.547 7.191-7.934 1.153c-0.486 0.075-0.854 0.49-0.854 0.991 0 0.28 0.115 0.534 0.301 0.716l0 0 5.741 5.597-1.356 7.903c-0.009 0.051-0.015 0.11-0.015 0.171 0 0.551 0.447 0.998 0.998 0.998 0.171 0 0.332-0.043 0.472-0.118l-0.005 0.003 7.097-3.731 7.097 3.731c0.135 0.072 0.295 0.115 0.465 0.115 0.552 0 0.999-0.447 0.999-0.999 0-0.060-0.005-0.118-0.015-0.175l0.001 0.006-1.356-7.903 5.741-5.597c0.156-0.153 0.259-0.353 0.291-0.572 0.007-0.044 0.011-0.096 0.011-0.148 0-0.5-0.369-0.915-0.85-0.985l-0.005-0.001zM20.775 17.55l1.128 6.572-5.903-3.1-5.903 3.103 1.128-6.572-4.775-4.656 6.6-0.959 2.95-5.978 2.95 5.978 6.6 0.959-4.775 4.653z"></path>
</svg>
