<!-- Generated by IcoMoon.io -->
<svg version="1.1" xmlns="http://www.w3.org/2000/svg" width="32" height="32" viewBox="0 0 32 32">
<title>stock</title>
<path d="M28.25 23.344h-24.5c-0.138 0-0.25 0.112-0.25 0.25v0 1.75c0 0.137 0.112 0.25 0.25 0.25h24.5c0.137 0 0.25-0.113 0.25-0.25v-1.75c-0.001-0.138-0.112-0.249-0.25-0.25h-0zM5.178 19.431l1.241 1.234c0.045 0.045 0.108 0.073 0.176 0.073s0.131-0.028 0.176-0.073l7.334-7.309 3.050 3.041c0.181 0.179 0.431 0.29 0.706 0.29s0.525-0.111 0.707-0.29l-0 0 8.256-8.225c0.045-0.045 0.073-0.108 0.073-0.176s-0.028-0.131-0.073-0.176v0l-1.241-1.237c-0.045-0.045-0.108-0.073-0.177-0.073s-0.131 0.028-0.177 0.073l-7.366 7.344-3.053-3.041c-0.181-0.179-0.431-0.29-0.706-0.29s-0.525 0.111-0.706 0.29l0-0-8.222 8.194c-0.046 0.045-0.074 0.107-0.074 0.177s0.028 0.131 0.074 0.176l0 0z"></path>
</svg>
