<!-- Generated by IcoMoon.io -->
<svg version="1.1" xmlns="http://www.w3.org/2000/svg" width="32" height="32" viewBox="0 0 32 32">
<title>tag</title>
<path d="M29.313 14.338l-0.925-9.769c-0.050-0.506-0.45-0.906-0.952-0.956l-0.004-0-9.781-0.925c-0.004-0-0.009-0-0.014-0-0.087 0-0.166 0.035-0.224 0.091l-14.634 14.634c-0.057 0.056-0.092 0.134-0.092 0.221s0.035 0.164 0.092 0.221v0l11.369 11.369c0.059 0.059 0.137 0.091 0.222 0.091s0.162-0.031 0.222-0.091l14.634-14.634c0.055-0.058 0.088-0.136 0.088-0.222 0-0.010-0-0.019-0.001-0.029l0 0.001zM14.366 26.084l-8.45-8.45 12.491-12.491 7.719 0.731 0.731 7.719-12.491 12.491zM21.25 8c-1.516 0-2.75 1.234-2.75 2.75s1.234 2.75 2.75 2.75 2.75-1.234 2.75-2.75-1.234-2.75-2.75-2.75zM21.25 11.75c-0.552 0-1-0.448-1-1s0.448-1 1-1v0c0.552 0 1 0.448 1 1s-0.448 1-1 1v0z"></path>
</svg>
