<!-- Generated by IcoMoon.io -->
<svg version="1.1" xmlns="http://www.w3.org/2000/svg" width="32" height="32" viewBox="0 0 32 32">
<title>tixing</title>
<path d="M4.020 25.158c-0.004-0.53 0.046-1.080 0.172-1.594 0.154-0.624 0.404-1.12 0.75-1.458 0.237-0.234 0.492-0.449 0.764-0.644l0.019-0.013 0.019-0.013c1.234-0.857 2.031-2.266 2.032-3.862v-4.984c-0-0.008-0-0.018-0-0.027 0-1.855 0.618-3.566 1.658-4.938l-0.015 0.020c1.244-1.644 2.719-2.871 4.403-3.479l0.604-0.216 0.050-0.62c0.013-0.16 0.050-0.307 0.108-0.444l-0.004 0.010c0.010-0.020 0.026-0.060 0.060-0.126l0.074-0.126c0.061-0.084 0.121-0.158 0.184-0.228l-0.002 0.002 0.056-0.054 0.104-0.088c0.096-0.070 0.096-0.070 0.12-0.084l0.062-0.036c0.024-0.016 0.053-0.032 0.083-0.046l0.005-0.002 0.1-0.044 0.072-0.028c0.070-0.024 0.072-0.024 0.114-0.034l0.080-0.018 0.086-0.016 0.080-0.010c0.043-0.004 0.093-0.006 0.144-0.006l0.14 0.004 0.082 0.012 0.086 0.014 0.080 0.020 0.072 0.020 0.072 0.026 0.080 0.030 0.092 0.044c0.075 0.039 0.138 0.078 0.198 0.123l-0.004-0.003c0.072 0.052 0.072 0.052 0.116 0.090 0.054 0.050 0.080 0.076 0.148 0.148l0.084 0.104 0.074 0.112 0.062 0.12c0.017 0.031 0.034 0.068 0.048 0.107l0.002 0.006 0.002 0.007c0.032 0.075 0.058 0.163 0.071 0.254l0.001 0.006c0.010 0.044 0.014 0.090 0.020 0.132l0.048 0.622 0.604 0.216c1.686 0.608 3.161 1.836 4.405 3.479 1.025 1.353 1.642 3.064 1.642 4.919 0 0.009 0 0.018-0 0.027v-0.001 4.979c0 1.54 0.752 2.987 2.032 3.867 0.25 0.172 0.516 0.392 0.802 0.67 0.348 0.34 0.6 0.834 0.75 1.46 0.11 0.448 0.173 0.963 0.173 1.493 0 0.035-0 0.069-0.001 0.104l0-0.005h-23.96zM16.117 30.038h-0.034c-1.818-0-3.353-1.211-3.843-2.871l-0.007-0.028-0.007-0.028h7.78c-0.489 1.701-2.030 2.924-3.857 2.927h-0.034zM29.77 23.114c-0.232-0.948-0.644-1.764-1.284-2.385-0.312-0.31-0.65-0.595-1.010-0.852l-0.025-0.017-0.026-0.017c-0.72-0.503-1.186-1.328-1.186-2.261 0-0 0-0 0-0v0-5.015c0-2.291-0.764-4.405-2.052-6.099l0.018 0.025c-1.33-1.758-2.917-3.137-4.785-3.939-0.036-0.128-0.069-0.228-0.107-0.326l0.009 0.026c-0.119-0.319-0.276-0.594-0.468-0.84l0.005 0.007 0.005 0.007c-0.133-0.172-0.271-0.325-0.42-0.466l-0.002-0.002-0.002-0.002-0.074-0.072c-0.080-0.070-0.080-0.070-0.172-0.14l-0.092-0.066c-0.076-0.056-0.076-0.056-0.17-0.118l-0.1-0.060-0.184-0.104-0.118-0.056c-0.1-0.048-0.1-0.048-0.186-0.080-0.080-0.034-0.080-0.034-0.138-0.052-0.1-0.036-0.1-0.036-0.178-0.060-0.1-0.028-0.1-0.028-0.164-0.040-0.092-0.026-0.092-0.026-0.164-0.040-0.132-0.024-0.132-0.024-0.216-0.034l-0.136-0.020c-0.103-0.009-0.223-0.015-0.343-0.015-0.133 0-0.264 0.006-0.393 0.019l0.016-0.001 0.016-0.001-0.116 0.014-0.228 0.036-0.12 0.026-0.21 0.054-0.128 0.042-0.192 0.070c-0.084 0.034-0.084 0.034-0.134 0.060l-0.168 0.080-0.134 0.072-0.144 0.086-0.166 0.112-0.104 0.080c-0.090 0.068-0.090 0.068-0.16 0.128l-0.086 0.080-0.156 0.148c-0.214 0.228-0.401 0.486-0.552 0.766l-0.010 0.020-0.010 0.020c-0.036 0.068-0.082 0.164-0.124 0.261l-0.012 0.031c-0.050 0.134-0.080 0.222-0.106 0.316-1.878 0.834-3.465 2.213-4.795 3.971-1.269 1.661-2.034 3.767-2.034 6.051 0 0.008 0 0.017 0 0.025v-0.001 5.003c0 0.005 0 0.011 0 0.016 0 0.931-0.463 1.754-1.171 2.251l-0.009 0.006c-0.396 0.279-0.744 0.57-1.066 0.886l0.001-0.001 0.001-0.001c-0.64 0.624-1.054 1.44-1.286 2.387-0.146 0.602-0.23 1.294-0.23 2.005 0 0.423 0.030 0.84 0.087 1.248l-0.005-0.047-0.005-0.046 0.124 0.84h7.97c0.482 2.763 2.951 4.881 5.945 4.881 2.995 0 5.465-2.115 5.947-4.879h7.738l0.126-0.84c0.008-0.074 0.022-0.188 0.036-0.34 0.074-0.896 0.040-1.874-0.192-2.819zM20.812 8.24c-0.798-0.976-1.494-1.578-1.956-1.868-0.151-0.097-0.336-0.154-0.534-0.154-0.552 0-1 0.448-1 1 0 0.354 0.184 0.666 0.462 0.843l0.004 0.002 0.004 0.002c0.284 0.18 0.814 0.636 1.472 1.44 0.476 0.597 0.818 1.321 0.967 2.113l0.005 0.030c0.058 0.503 0.482 0.889 0.995 0.889 0.553 0 1.002-0.448 1.002-1.002 0-0.068-0.007-0.135-0.020-0.199l0.001 0.006v0.005c-0.209-1.2-0.708-2.258-1.423-3.133l0.010 0.012 0.010 0.012"></path>
</svg>
