<!-- Generated by IcoMoon.io -->
<svg version="1.1" xmlns="http://www.w3.org/2000/svg" width="32" height="32" viewBox="0 0 32 32">
<title>tuichu1</title>
<path d="M15.968 31.68c-8.448 0-15.328-6.88-15.328-15.328 0-4.048 1.552-7.856 4.384-10.736 0.544-0.56 1.44-0.56 1.984-0.016 0.56 0.544 0.56 1.44 0.016 1.984-2.206 2.247-3.568 5.329-3.568 8.73 0 0.014 0 0.027 0 0.040v-0.002c0 6.896 5.616 12.512 12.512 12.512s12.512-5.616 12.512-12.512c0-3.344-1.296-6.48-3.664-8.848-0.544-0.544-0.544-1.44 0-1.984s1.44-0.544 1.984 0c2.777 2.763 4.496 6.587 4.496 10.813 0 0.012 0 0.025-0 0.037v-0.002c0 8.432-6.864 15.312-15.328 15.312zM15.968 13.984c-0.002 0-0.005 0-0.008 0-0.773 0-1.4-0.627-1.4-1.4 0-0.003 0-0.006 0-0.008v0-11.168c0-0.784 0.624-1.408 1.408-1.408s1.408 0.624 1.408 1.408v11.168c0 0.002 0 0.005 0 0.008 0 0.773-0.627 1.4-1.4 1.4-0.003 0-0.006 0-0.008-0h0z"></path>
</svg>
