<!-- Generated by IcoMoon.io -->
<svg version="1.1" xmlns="http://www.w3.org/2000/svg" width="32" height="32" viewBox="0 0 32 32">
<title>tuichu</title>
<path d="M23.293 6.292c-0.453-0.204-0.763-0.651-0.763-1.171 0-0.707 0.573-1.28 1.28-1.28 0.246 0 0.476 0.070 0.672 0.19l-0.006-0.003-0.006-0.003 0.005-0.009c4.148 2.732 6.884 7.411 6.884 12.726 0 8.426-6.877 15.258-15.36 15.258s-15.36-6.831-15.36-15.258c0-5.315 2.735-9.994 6.884-12.726l0.004 0.009c0.152-0.069 0.33-0.109 0.517-0.109 0.707 0 1.28 0.573 1.28 1.28 0 0.461-0.243 0.864-0.608 1.090l-0.005 0.003-0.006 0.003c-3.325 2.296-5.505 6.12-5.505 10.45 0 7.022 5.731 12.714 12.8 12.714s12.8-5.692 12.8-12.714c0-4.33-2.179-8.154-5.507-10.45zM16 0c0.707 0 1.28 0.573 1.28 1.28v15.36c0 0.707-0.573 1.28-1.28 1.28s-1.28-0.573-1.28-1.28v0-15.36c0-0.707 0.573-1.28 1.28-1.28z"></path>
</svg>
