<!-- Generated by IcoMoon.io -->
<svg version="1.1" xmlns="http://www.w3.org/2000/svg" width="38" height="32" viewBox="0 0 38 32">
<title>tupian1</title>
<path d="M30.008 3.64h-23.071c-1.813 0-3.296 1.483-3.296 3.296v18.127c0 1.813 1.483 3.296 3.296 3.296h23.071c1.813 0 3.296-1.483 3.296-3.296v-18.127c0-1.813-1.483-3.296-3.296-3.296zM31.656 25.064c0 0.906-0.742 1.648-1.648 1.648h-23.071c-0.906 0-1.648-0.742-1.648-1.648v-0.659c0-0.906 0.659-2.060 1.401-2.554l5.685-3.625c0.742-0.494 1.978-0.494 2.719 0.082l1.566 1.154c0.742 0.494 1.978 0.494 2.719 0l4.532-5.521c0.742-0.494 1.978-0.494 2.719 0l3.625 2.554c0.742 0.494 1.318 1.73 1.318 2.637v5.933zM31.656 15.506c-0.165-0.082-0.247-0.247-0.412-0.33l-3.625-2.554c-1.318-0.906-3.296-0.906-4.614 0l-4.532 5.438c-0.165 0.165-0.659 0.165-0.824 0l-1.566-1.154c-1.318-0.906-3.213-0.989-4.532-0.082l-5.685 3.625c-0.165 0.082-0.33 0.247-0.494 0.412v-13.925c0-0.906 0.742-1.648 1.648-1.648h23.071c0.906 0 1.648 0.742 1.648 1.648v8.569zM10.232 8.584c-1.813 0-3.296 1.483-3.296 3.296s1.483 3.296 3.296 3.296 3.296-1.483 3.296-3.296c0-1.813-1.483-3.296-3.296-3.296zM10.232 13.528c-0.906 0-1.648-0.742-1.648-1.648s0.742-1.648 1.648-1.648 1.648 0.742 1.648 1.648-0.742 1.648-1.648 1.648z"></path>
</svg>
