<!-- Generated by IcoMoon.io -->
<svg version="1.1" xmlns="http://www.w3.org/2000/svg" width="32" height="32" viewBox="0 0 32 32">
<title>tupianlunbo</title>
<path d="M25.817 1.077h-19.636c-2.76 0.005-4.996 2.242-4.999 5.003v6.996c-0.010 0.020-0.021 0.037-0.030 0.057-0.037 0.082-0.058 0.178-0.058 0.279 0 0.125 0.033 0.242 0.090 0.343l-0.002-0.004v3.857c0.001 2.761 2.238 5 4.998 5.004h19.636c2.761-0.004 4.998-2.243 4.999-5.004v-11.53c-0.002-2.76-2.239-4.997-4.998-5.001h-0zM6.181 2.506h19.636c1.972 0.004 3.568 1.602 3.57 3.574v11.414c-1.323-1.616-3.319-2.64-5.553-2.64-0.003 0-0.006 0-0.009 0h0c-0.010-0-0.022-0-0.034-0-2.333 0-4.423 1.037-5.835 2.676l-0.008 0.010c-0.277-4.834-4.286-8.684-9.187-8.684-2.853 0-4.779 0.634-6.15 2.066v-4.841c0.002-1.972 1.599-3.569 3.57-3.574h0zM2.613 17.61v-4.19c1.123-2.267 2.823-3.136 6.15-3.136 4.298 0.005 7.781 3.488 7.786 7.785v0c0 1.076-0.071 2.177-0.421 3.116h-9.946c-1.971-0.005-3.568-1.604-3.569-3.576v-0zM25.817 21.186h-8.021c0.399-2.719 2.983-4.901 6.030-4.901 2.15 0 4.081 1.171 5.093 3.060-0.615 1.102-1.772 1.837-3.101 1.841h-0.001zM26.020 5.72c0 0 0 0 0 0 0 0.624 0.506 1.13 1.13 1.13s1.13-0.506 1.13-1.13c0-0 0-0 0-0v0c0-0 0-0 0-0 0-0.624-0.506-1.13-1.13-1.13s-1.13 0.506-1.13 1.13c0 0 0 0 0 0v0zM4.817 30.399h4.451v-4.256h-4.451v4.256zM6.246 27.571h1.594v1.399h-1.594v-1.399zM13.389 30.399h4.451v-4.256h-4.451v4.256zM14.817 27.571h1.594v1.399h-1.594v-1.399zM21.96 30.399h4.451v-4.256h-4.451v4.256zM23.389 27.571h1.594v1.399h-1.594v-1.399z"></path>
</svg>
