<!-- Generated by IcoMoon.io -->
<svg version="1.1" xmlns="http://www.w3.org/2000/svg" width="32" height="32" viewBox="0 0 32 32">
<title>wxapp</title>
<path d="M16 0c-8.837 0-16 7.163-16 16s7.163 16 16 16 16-7.163 16-16-7.163-16-16-16zM25.464 14.693c-0.763 1.175-1.906 2.046-3.253 2.447l-0.041 0.011c-0.052 0-0.052 0-0.104 0.052-0.21 0.053-0.418 0.105-0.68 0.105-0.994 0-1.516-0.68-1.255-1.464 0.21-0.575 0.784-1.098 1.464-1.307 1.098-0.418 1.83-1.307 1.83-2.353 0-1.412-1.36-2.562-3.032-2.562-1.674 0-3.034 1.15-3.034 2.562v7.79c0 1.882-1.098 3.504-2.718 4.445-0.889 0.522-1.935 0.784-3.033 0.784-3.19 0-5.752-2.352-5.752-5.229 0-0.941 0.262-1.778 0.732-2.562 0.763-1.175 1.906-2.047 3.253-2.447l0.041-0.011c0.262-0.053 0.47-0.104 0.732-0.104 0.994 0 1.516 0.679 1.255 1.464-0.21 0.574-0.732 1.045-1.36 1.306-0.082 0.014-0.153 0.051-0.209 0.104l0-0c-0.994 0.419-1.674 1.256-1.674 2.302 0 1.411 1.36 2.562 3.033 2.562s3.033-1.15 3.033-2.562v-7.791c0-1.882 1.098-3.503 2.719-4.444 0.888-0.523 1.934-0.784 3.032-0.784 3.19 0 5.752 2.352 5.752 5.228 0 0.837-0.262 1.674-0.732 2.458z"></path>
</svg>
