<!-- Generated by IcoMoon.io -->
<svg version="1.1" xmlns="http://www.w3.org/2000/svg" width="32" height="32" viewBox="0 0 32 32">
<title>wxbsousuotuiguang</title>
<path d="M29.306 24.058l-6.966-6.968c0.739-1.383 1.174-3.025 1.175-4.768v-0c0-5.705-4.643-10.346-10.346-10.346-5.707 0-10.347 4.641-10.347 10.346s4.64 10.346 10.347 10.346c1.893 0 3.665-0.52 5.194-1.413l6.873 6.873c0.561 0.561 1.298 0.84 2.035 0.84s1.474-0.279 2.035-0.84c0.544-0.544 0.845-1.267 0.845-2.036s-0.301-1.493-0.845-2.034M4.157 12.322c0-4.968 4.042-9.011 9.012-9.011 4.967 0 9.011 4.043 9.011 9.011-0.002 3.093-1.561 5.821-3.936 7.442l-0.031 0.020c-0.033 0.013-0.059 0.039-0.090 0.057-1.393 0.934-3.107 1.491-4.951 1.491-0.001 0-0.002 0-0.003 0h0c-4.97 0-9.012-4.041-9.012-9.011M28.362 27.184c-0.602 0.6-1.58 0.6-2.182 0l-6.689-6.691c0.82-0.64 1.525-1.375 2.112-2.2l0.022-0.032 6.738 6.74c0.28 0.279 0.454 0.665 0.454 1.091s-0.173 0.813-0.454 1.091l-0 0M6.724 12.118s1.317-6.594 7.318-7.030c0 0-8.232-0.978-7.318 7.030"></path>
</svg>
