<!-- Generated by IcoMoon.io -->
<svg version="1.1" xmlns="http://www.w3.org/2000/svg" width="32" height="32" viewBox="0 0 32 32">
<title>xiaochengxu</title>
<path d="M19.568 8.736c2.32 0 4.208 1.744 4.208 3.904-0.005 0.71-0.207 1.373-0.553 1.936l0.009-0.016c-0.528 0.864-1.376 1.504-2.4 1.808-0.272 0.080-0.48 0.112-0.672 0.112-0.448 0-0.8-0.352-0.8-0.8s0.352-0.8 0.8-0.8c0.032 0 0.096 0 0.176-0.032 0.688-0.192 1.232-0.592 1.536-1.12 0.208-0.336 0.304-0.704 0.304-1.088 0-1.264-1.168-2.304-2.592-2.304-0.496 0-0.976 0.128-1.408 0.368-0.752 0.432-1.2 1.152-1.2 1.936v6.704c0 1.36-0.752 2.608-2 3.312-0.625 0.362-1.376 0.576-2.177 0.576-0.005 0-0.011 0-0.016-0h0.001c-2.32 0-4.208-1.744-4.208-3.904 0-0.672 0.192-1.328 0.544-1.92 0.528-0.864 1.376-1.504 2.4-1.808 0.288-0.080 0.48-0.112 0.672-0.112 0.448 0 0.8 0.352 0.8 0.8s-0.352 0.8-0.8 0.8c-0.032 0-0.096 0-0.176 0.032-0.688 0.208-1.232 0.608-1.536 1.12-0.191 0.304-0.304 0.674-0.304 1.070 0 0.006 0 0.013 0 0.019v-0.001c0 1.264 1.168 2.304 2.608 2.304 0.496 0 0.976-0.128 1.408-0.368 0.752-0.432 1.2-1.152 1.2-1.936v-6.688c0-1.36 0.752-2.608 2-3.312 0.611-0.372 1.349-0.592 2.139-0.592 0.013 0 0.026 0 0.039 0h-0.002zM3.296 15.936c0 7.072 5.728 12.8 12.8 12.8s12.8-5.728 12.8-12.8-5.728-12.8-12.8-12.8-12.8 5.728-12.8 12.8zM1.696 15.936c0-7.952 6.448-14.4 14.4-14.4s14.4 6.448 14.4 14.4-6.448 14.4-14.4 14.4-14.4-6.448-14.4-14.4zM1.696 15.936"></path>
</svg>
