<!-- Generated by IcoMoon.io -->
<svg version="1.1" xmlns="http://www.w3.org/2000/svg" width="32" height="32" viewBox="0 0 32 32">
<title>xiaoxi</title>
<path d="M27.595 24.572l-2.129-3.575v-7.73c0-1.619-0.71-3.5-1.833-4.98-1.148-1.494-2.679-2.639-4.448-3.296l-0.069-0.022-0.023-0.008-0.008-0.002c-0.041-0.012-0.191-0.058-0.413-0.119v-0.259c0-1.401-1.226-2.58-2.699-2.58s-2.645 1.179-2.645 2.58v0.24c-0.206 0.056-0.337 0.096-0.352 0.101l-0.023 0.008c-1.868 0.665-3.427 1.811-4.577 3.291l-0.017 0.023c-1.144 1.491-1.879 3.387-1.879 5.023v7.73l-2.272 3.837c-0.134 0.218-0.213 0.483-0.213 0.766 0 0.286 0.081 0.554 0.222 0.78l-0.004-0.006c0.236 0.389 0.749 0.778 1.245 0.905h21.063c0.774-0.185 1.486-0.94 1.486-1.679 0-0.386-0.145-0.747-0.411-1.028zM15.999 3.432c0.682 0 1.242 0.446 1.275 1.087-0.018-0.003-0.807-0.137-1.297-0.137-0.383 0-1.012 0.083-1.253 0.125 0.040-0.635 0.597-1.075 1.275-1.075zM26.611 25.599c0 0.121-0.314 0.317-0.442 0.317h-20.393c-0.082 0-0.317-0.141-0.356-0.205-0.020-0.031-0.032-0.069-0.032-0.11 0 0 0 0 0-0v0-0.001c0-0.040 0.011-0.078 0.031-0.109l2.469-4.131c0.060-0.1-0.002-0.248-0.002-0.363v-7.73c0-2.87 2.549-5.629 5.529-6.999 1.018-0.417 1.431-0.468 2.575-0.468 1.079 0 1.653 0.079 2.651 0.504 3.045 1.097 5.419 4.137 5.419 6.964v7.73c0 0.115-0.048 0.263 0.011 0.363l2.355 3.939c0.059 0.097 0.14 0.176 0.235 0.232l0.003 0.002c-0.072-0.039-0.052 0.011-0.052 0.067zM18.332 28.583h-4.663c-0.299 0-0.541 0.317-0.541 0.708s0.242 0.708 0.541 0.708h4.663c0.299 0 0.541-0.317 0.541-0.708s-0.242-0.708-0.541-0.708z"></path>
</svg>
