<!-- Generated by IcoMoon.io -->
<svg version="1.1" xmlns="http://www.w3.org/2000/svg" width="32" height="32" viewBox="0 0 32 32">
<title>xiaoxi1</title>
<path d="M28.839 25.033l-2.359-3.964v-8.571c0-1.796-0.787-3.88-2.031-5.523-1.27-1.657-2.968-2.927-4.929-3.655l-0.076-0.025c-0.012-0.003-0.022-0.009-0.034-0.013-0.044-0.013-0.212-0.066-0.459-0.131v-0.287c0-1.553-1.359-2.862-2.99-2.862-1.634 0-2.93 1.309-2.93 2.862v0.266c-0.196 0.050-0.326 0.089-0.455 0.13l0.065-0.018-0.025 0.009c-2.070 0.739-3.798 2.011-5.073 3.652l-0.019 0.025c-1.268 1.653-2.084 3.755-2.084 5.57v8.571l-2.521 4.255c-0.148 0.242-0.236 0.536-0.236 0.849 0 0.318 0.090 0.615 0.246 0.866l-0.004-0.007c0.319 0.525 1.093 1.050 1.734 1.050h6.236c0.372 2.306 2.568 3.877 5.095 3.877s4.661-1.571 5.036-3.877h6.236c0.993 0 2.037-0.968 2.037-1.909-0.003-0.442-0.177-0.843-0.46-1.141l0.001 0.001M15.991 1.592c0.756 0 1.375 0.494 1.412 1.206-0.019-0.003-0.893-0.153-1.437-0.153-0.425 0-1.122 0.091-1.387 0.137 0.044-0.703 0.659-1.19 1.412-1.19M15.991 30.391c-1.671 0-3.183-0.819-3.536-2.309h7.014c-0.356 1.49-1.809 2.309-3.477 2.309M18.915 4.776c3.374 1.215 6.005 4.589 6.005 7.723v8.571c0 0.128-0.053 0.291 0.012 0.403l2.609 4.367c0.068 0.115 0.165 0.207 0.28 0.267l0.004 0.002c-0.103-0.062-0.078-0.003-0.078 0.062 0 0.134-0.347 0.35-0.49 0.35h-22.595c-0.091 0-0.35-0.156-0.394-0.228-0.022-0.034-0.034-0.078-0.034-0.122s0.013-0.087 0.034-0.122l2.734-4.577c0.066-0.109-0.003-0.275-0.003-0.403v-8.571c0-3.183 2.824-6.242 6.126-7.76 1.128-0.462 1.587-0.519 2.852-0.519 1.2 0 1.834 0.087 2.94 0.556zM18.915 4.776"></path>
</svg>
