<!-- Generated by IcoMoon.io -->
<svg version="1.1" xmlns="http://www.w3.org/2000/svg" width="38" height="32" viewBox="0 0 38 32">
<title>youhuiquan4</title>
<path d="M36.599 11.761c1.009-0.672 1.037-1.187 1.037-2.083v-6.249c0-1.726-1.393-3.124-3.111-3.124h-31.11c-1.718 0-3.111 1.399-3.111 3.124v6.249c0 0.934 0.065 1.556 1.037 2.083 1.416 0.663 3.111 2.001 3.111 4.166 0 2.809-1.758 3.723-3.050 4.162-0.908 0.571-1.098 1.513-1.098 2.088v6.249c0 1.726 1.393 3.125 3.111 3.125h31.11c1.718 0 3.111-1.399 3.111-3.125v-6.249c0-1.137-0.26-1.498-1.037-2.083-2.265-1.173-3.111-2.217-3.111-4.166s0.792-2.919 3.111-4.166zM35.562 21.794v5.59c0 1.15-0.928 2.083-2.074 2.083h-29.036c-1.145 0-2.074-0.933-2.074-2.083v-5.59c2.411-0.861 4.148-3.149 4.148-5.866s-1.737-5.006-4.148-5.866v-5.59c0-1.15 0.929-2.083 2.074-2.083h29.036c1.145 0 2.074 0.933 2.074 2.083v5.59c-2.411 0.861-4.148 3.149-4.148 5.867s1.737 5.005 4.148 5.866zM24.674 13.844h-3.915l4.25-4.585c0.184-0.202 0.184-0.529 0-0.731l-0.665-0.731c-0.081-0.093-0.2-0.151-0.332-0.151s-0.251 0.058-0.332 0.151l-0 0-4.713 5.085-4.715-5.087c-0.081-0.092-0.199-0.15-0.33-0.15s-0.249 0.058-0.33 0.15l-0 0-0.66 0.725c-0.182 0.2-0.182 0.524 0 0.725l4.262 4.599h-3.926c-0.286 0-0.518 0.233-0.518 0.521v1.042c0 0.287 0.232 0.521 0.518 0.521h4.666v2.083h-4.666c-0.286 0-0.518 0.233-0.518 0.521v1.041c0 0.288 0.232 0.521 0.518 0.521h4.666v3.645c0 0.287 0.232 0.521 0.518 0.521h1.037c0.286 0 0.518-0.233 0.518-0.521v-3.645h4.666c0.286 0 0.518-0.233 0.518-0.521v-1.041c0-0.288-0.232-0.521-0.518-0.521h-4.666v-2.083h4.666c0.286 0 0.518-0.233 0.518-0.521v-1.042c0-0.288-0.232-0.521-0.518-0.521z"></path>
</svg>
