<!-- Generated by IcoMoon.io -->
<svg version="1.1" xmlns="http://www.w3.org/2000/svg" width="32" height="32" viewBox="0 0 32 32">
<title>youhuiquan1</title>
<path d="M7.037 25.025h17.928c1.022 0 1.856-0.831 1.856-1.856v-3.584c0-0.666-0.156-0.894-0.622-1.244l-0.006-0.006c-1.316-0.678-1.759-1.266-1.759-2.334s0.413-1.613 1.759-2.334h0.003l0.003-0.003c0.597-0.397 0.625-0.7 0.625-1.247v-3.588c0-1.022-0.831-1.856-1.856-1.856h-17.931c-1.022 0-1.856 0.831-1.856 1.856v3.584c0 0.55 0.044 0.934 0.631 1.25l0.003 0.003c0.528 0.247 1.756 0.966 1.756 2.334 0 1.569-0.978 2.081-1.716 2.328l-0.013 0.006c-0.597 0.375-0.662 1-0.662 1.25v3.584c0 1.025 0.831 1.856 1.856 1.856zM6.5 22.572v-3.163c1.431-0.528 2.391-1.894 2.391-3.409s-0.959-2.881-2.391-3.409v-3.162c0-0.625 0.509-1.131 1.131-1.131h16.731c0.625 0 1.131 0.509 1.131 1.131v3.162c-1.431 0.528-2.391 1.894-2.391 3.409s0.959 2.881 2.391 3.409v3.163c0 0.625-0.509 1.131-1.131 1.131h-16.728c-0.625 0.003-1.134-0.506-1.134-1.131zM15.7 20.844h0.597c0.2 0 0.363-0.163 0.363-0.363v-2.028h2.628c0.2 0 0.363-0.163 0.363-0.363v-0.597c0-0.2-0.163-0.363-0.363-0.363h-2.628v-1.069h2.628c0.2 0 0.363-0.162 0.363-0.363v-0.597c0-0.2-0.163-0.363-0.363-0.363h-2.113l2.35-2.525c0.128-0.137 0.128-0.366 0-0.503l-0.384-0.419c-0.063-0.069-0.147-0.106-0.238-0.106s-0.175 0.037-0.238 0.106l-2.669 2.869-2.672-2.869c-0.063-0.069-0.147-0.106-0.238-0.106s-0.175 0.037-0.238 0.106l-0.381 0.416c-0.125 0.137-0.125 0.363 0 0.5l2.359 2.534h-2.119c-0.2 0-0.363 0.162-0.363 0.363v0.597c0 0.2 0.162 0.363 0.363 0.363h2.625v1.069h-2.625c-0.2 0-0.363 0.163-0.363 0.363v0.597c0 0.2 0.162 0.363 0.363 0.363h2.625v2.028c0.006 0.197 0.169 0.359 0.366 0.359z"></path>
</svg>
