<!-- Generated by IcoMoon.io -->
<svg version="1.1" xmlns="http://www.w3.org/2000/svg" width="32" height="32" viewBox="0 0 32 32">
<title>youhuiquan2</title>
<path d="M30.1 13.076c0.391-0.001 0.71-0.306 0.711-0.681v-5.539c0-0.628-0.275-1.249-0.754-1.705-0.462-0.445-1.092-0.719-1.786-0.719-0.001 0-0.002 0-0.003 0h-23.618c-0.67 0-1.308 0.255-1.797 0.718l-0.047 0.049c-0.451 0.457-0.698 1.046-0.698 1.657v5.539c0.001 0.375 0.32 0.68 0.713 0.68 0.91 0 1.766 0.336 2.41 0.946 0.636 0.605 0.999 1.443 0.997 2.3 0.002 0.856-0.36 1.695-0.996 2.298-0.645 0.612-1.501 0.949-2.41 0.949-0.393 0-0.712 0.305-0.713 0.681v4.902c0 0.639 0.263 1.244 0.746 1.708l0.010 0.008c0.463 0.439 1.090 0.71 1.781 0.71 0.002 0 0.005 0 0.007 0h2.492c0.393 0 0.711-0.305 0.711-0.68-0.001-0.375-0.32-0.679-0.711-0.679h-2.496c-0.294 0-0.58-0.112-0.787-0.311-0.202-0.189-0.328-0.457-0.329-0.755v-4.271l0.167-0.029c0.984-0.174 1.842-0.622 2.519-1.259l-0.002 0.002 0.016-0.018c0.916-0.87 1.42-2.025 1.42-3.255 0-1.228-0.503-2.382-1.415-3.25l-0.029-0.029c-0.688-0.65-1.556-1.082-2.508-1.25l-0.167-0.030v-4.908c0-0.257 0.103-0.509 0.285-0.707l0.052-0.048c0.204-0.192 0.479-0.311 0.782-0.311h23.617c0.289 0 0.566 0.113 0.782 0.32s0.336 0.472 0.336 0.747v4.908l-0.167 0.030c-0.984 0.176-1.842 0.623-2.52 1.26l0.003-0.002-0.015 0.017c-0.914 0.872-1.416 2.027-1.416 3.255s0.502 2.382 1.412 3.25l0.027 0.028c0.689 0.651 1.557 1.082 2.509 1.251l0.167 0.029v4.271c0 0.276-0.121 0.549-0.331 0.75-0.219 0.203-0.498 0.316-0.786 0.316h-16.777c-0.391 0-0.709 0.304-0.711 0.679 0 0.374 0.319 0.679 0.711 0.68h16.776c0.67 0 1.307-0.255 1.792-0.714 0.476-0.454 0.751-1.077 0.751-1.71v-4.902c-0.001-0.375-0.319-0.68-0.721-0.681-0.906 0-1.759-0.336-2.401-0.947-0.643-0.614-0.997-1.432-0.997-2.3-0.003-0.856 0.36-1.694 0.996-2.299 0.64-0.611 1.494-0.947 2.411-0.947zM12.108 17.791c-0.417 0-0.757 0.322-0.757 0.717 0.001 0.397 0.34 0.72 0.757 0.72h3.599v2.403c0 0.397 0.338 0.719 0.753 0.719s0.755-0.322 0.756-0.719v-2.403h3.598c0.415-0.001 0.754-0.323 0.754-0.72-0.001-0.396-0.338-0.717-0.752-0.717h-3.6v-2.299h3.6c0.414-0.001 0.752-0.324 0.752-0.721-0.001-0.395-0.338-0.717-0.752-0.717h-3.639l4.129-3.14c0.146-0.118 0.243-0.291 0.258-0.487l0-0.002c0.001-0.017 0.002-0.036 0.002-0.055 0-0.179-0.070-0.343-0.183-0.464l0 0c-0.14-0.153-0.341-0.249-0.564-0.249-0.002 0-0.003 0-0.005 0h0c-0.181 0-0.353 0.062-0.491 0.174l-3.862 2.918-3.86-2.918c-0.133-0.109-0.304-0.175-0.491-0.175-0 0-0.001 0-0.001 0h0c-0.219 0-0.427 0.091-0.571 0.249-0.113 0.123-0.182 0.287-0.182 0.468 0 0.018 0.001 0.036 0.002 0.054l-0-0.002c0.017 0.198 0.113 0.371 0.257 0.488l0.001 0.001 4.13 3.14h-3.637c-0.417 0-0.757 0.322-0.757 0.718s0.34 0.72 0.757 0.72h3.599v2.3l-3.599 0z"></path>
</svg>
