<!-- Generated by IcoMoon.io -->
<svg version="1.1" xmlns="http://www.w3.org/2000/svg" width="32" height="32" viewBox="0 0 32 32">
<title>youhuiquan3</title>
<path d="M10.84 20.449h-1.295v-3.667h1.51v3.667M9.546 11.386h1.51v3.668h-1.51v-3.668zM22.709 16.565h-2.805v0.431c0 0.216 0.216 0.216 0.431 0.216h2.374c0.216 0 0.431 0.216 0.431 0.431v0.647c0 0.216-0.216 0.432-0.431 0.432h-2.374c-0.216 0-0.216 0.216-0.216 0.431v1.727c0 0.216 0 0.216-0.216 0.216h-0.863c-0.216 0-0.432-0.216-0.432-0.432v-1.727h-2.589c-0.216 0-0.431-0.216-0.431-0.431v-0.863s0.216-0.216 0.216 0h2.589v-0.863s0-0.216-0.431-0.216h-2.374v-1.296c0.216 0 0.216-0.216 0.431-0.216h1.511c0.216 0 0.216 0 0.216-0.216 0 0 0-0.216-0.216-0.648-0.431 0-0.863-0.648-1.079-0.863-0.432-0.431-0.648-0.863-1.079-1.295-0.216-0.431-0.216-0.648 0-0.648s0.216-0.216 0.431-0.216 0.216-0.216 0.432-0.216c0.216-0.216 0.431 0 0.648 0.431l0.431 0.432c0.216 0.216 0.432 0.432 0.648 0.863 0.216 0 0.431 0.216 0.647 0.432s0.216 0.431 0.216 0.431 0.216 0.216 0.216 0.216h0.431s0.216-0.216 0.216-0.431c0.216-0.216 0.431-0.431 0.648-0.863s0.431-0.648 0.648-0.863c0.216-0.216 0.216-0.431 0.432-0.431 0.216-0.216 0.216-0.216 0.216-0.432h0.431c0.216 0 0.216 0.216 0.431 0.216s0.216 0.216 0.216 0.216c0.216 0.216 0.431 0.431 0.216 0.647 0 0-0.216 0.216-0.431 0.648-0.216 0.216-0.431 0.648-0.647 0.863-0.216 0.431-0.431 0.863-0.648 1.079s-0.216 0.432-0.432 0.432v0.216h1.942c0.216 0 0.216 0 0.216 0.216l0.216 0.216v0.863c-0.003 0.216-0.219 0.216-0.434 0.216zM29.829 11.17v-4.316h-18.772v2.158h-1.51v-2.158h-6.906v4.1c1.726 1.078 3.021 2.805 3.021 4.963s-1.295 3.884-3.021 4.963v4.1h6.905v-2.159h1.51v2.159h18.989v-4.316c-1.942-1.079-3.236-2.59-3.236-4.747 0-2.159 1.295-3.669 3.021-4.748zM31.34 19.37v4.747c0 1.294-1.080 2.374-2.374 2.374h-25.462c-1.295 0-2.374-1.080-2.374-2.374v-4.747c0.863-0.216 1.726-0.648 2.374-1.511 0.216-0.431 0.647-1.294 0.647-1.942s-0.216-1.295-0.647-1.942c-0.648-0.648-1.51-1.295-2.374-1.51v-4.747c0-1.295 1.079-2.374 2.374-2.374h25.462c1.294 0 2.374 1.079 2.374 2.374v4.747c-0.863 0.216-1.727 0.863-2.158 1.51-0.216 0.431-0.648 1.078-0.648 1.726s0.431 1.295 0.648 1.727c0.431 1.079 1.295 1.726 2.158 1.942zM31.34 19.37"></path>
</svg>
