<!-- Generated by IcoMoon.io -->
<svg version="1.1" xmlns="http://www.w3.org/2000/svg" width="32" height="32" viewBox="0 0 32 32">
<title>zhengchang</title>
<path d="M16 30.875c-8.225 0-14.875-6.65-14.875-14.875s6.65-14.875 14.875-14.875c8.225 0 14.875 6.65 14.875 14.875s-6.65 14.875-14.875 14.875zM16 4.1c-6.575 0-11.9 5.325-11.9 11.9s5.325 11.9 11.9 11.9c6.575 0 11.9-5.325 11.9-11.9s-5.325-11.9-11.9-11.9zM24.25 13.425l-8.825 8.825c-0.575 0.575-1.525 0.575-2.125 0l-5.3-5.3c-0.575-0.575-0.575-1.525 0-2.125 0.575-0.575 1.525-0.575 2.125 0l4.25 4.25 7.775-7.775c0.575-0.575 1.525-0.575 2.125 0 0.575 0.575 0.575 1.525-0.025 2.125z"></path>
</svg>
