<!-- Generated by IcoMoon.io -->
<svg version="1.1" xmlns="http://www.w3.org/2000/svg" width="32" height="32" viewBox="0 0 32 32">
<title>zhongping</title>
<path d="M4.648 23.394c-0.343 0.002-0.62 0.281-0.62 0.624 0 0.345 0.279 0.624 0.624 0.624 0.001 0 0.002 0 0.004 0h0.004c0.045 0.001 4.582 0.005 7.402 3.163 0.114 0.129 0.28 0.209 0.465 0.209 0.161 0 0.307-0.061 0.417-0.161l-0.001 0c0.128-0.115 0.208-0.281 0.208-0.466 0-0.16-0.060-0.306-0.159-0.416l0.001 0.001c-3.205-3.588-8.138-3.582-8.345-3.58zM27.32 23.39c-0.204-0.003-5.031-0.010-8.349 3.573-0.103 0.111-0.166 0.26-0.166 0.424 0 0.345 0.279 0.624 0.624 0.624 0.181 0 0.344-0.077 0.458-0.2l0-0c2.909-3.142 7.3-3.173 7.419-3.173h0.008c0.001 0 0.002 0 0.003 0 0.345 0 0.625-0.28 0.625-0.625 0-0.344-0.278-0.623-0.621-0.625h-0zM26.899 9.402c-0.682-0.14-1.665-0.296-2.657-0.421l-0.227-0.023-0.27-0.032 0.004-0.272c0-0.034 0-0.073 0-0.113 0-1.056-0.101-2.089-0.294-3.089l0.016 0.102c-0.272-1.378-0.713-2.236-1.274-2.482-0.14-0.059-0.303-0.093-0.474-0.093-0.010 0-0.021 0-0.031 0l0.002-0c-1.829 0-4.952 2.657-4.983 2.683l-0.213 0.183-0.198-0.199c-0.009-0.009-0.907-0.913-1.945-1.808-1.829-1.578-2.481-1.748-2.677-1.748-0.056 0-0.060 0.008-0.069 0.029l-0.504 1.147c-1.127 2.561-2.018 4.584-2.685 6.731-0.782 4.662 0.736 8.301 4.39 10.524l0.223 0.136-0.103 0.24c-0.064 0.156-0.113 0.338-0.138 0.527l-0.001 0.011c-0.076 2.024 1.54 6.157 2.247 7.476l0.034 0.062c0.476 0.81 0.954 1.145 1.423 0.985 0.128-0.037 0.231-0.123 0.291-0.236l0.001-0.003c0.093-0.192 0.039-0.438-0.022-0.611l-0.011-0.029c-0.037-0.1-0.086-0.2-0.144-0.3l-0.010-0.017c-0.598-1.252-1.999-4.432-2.108-6.924l-0.020-0.456 0.428 0.161c0.947 0.375 2.043 0.597 3.191 0.605l0.003 0c2.934 0 5.737-1.582 8.106-4.575 1.409-1.78 2.442-4.141 3.638-6.875l0.141-0.321c-0.074-0.101-0.515-0.487-3.083-0.973zM27.848 11.876c-0.924 2.111-1.724 3.629-3.079 5.144-0.926 1.036-2.007 1.898-3.126 2.495-1.252 0.667-2.533 1.005-3.808 1.005-1.118-0.003-2.176-0.259-3.119-0.714l0.043 0.019c-1.881-0.824-3.336-2.124-4.208-3.758-0.847-1.586-1.145-3.484-0.863-5.487 0.16-1.134 0.775-2.429 1.486-3.93 0.284-0.598 0.577-1.216 0.862-1.868l0.035-0.079 0.071-0.049c0.098-0.066 0.218-0.106 0.348-0.106 0.004 0 0.007 0 0.011 0h-0.001c0.213 0 0.778 0 2.593 1.838 0.466 0.475 0.922 0.969 1.363 1.476l0.035 0.041c0.748-0.731 2.981-2.796 4.324-2.796 0.169 0 0.324 0.031 0.462 0.091 0.671 0.294 1.043 1.315 1.14 3.124 0.046 0.864 0.016 1.68-0.010 2.137 0.13-0.002 0.264-0.003 0.402-0.003 0.788 0 1.936 0.029 2.927 0.166 1.383 0.192 2.061 0.539 2.132 1.094l0.011 0.083-0.033 0.076z"></path>
</svg>
