<!-- Generated by IcoMoon.io -->
<svg version="1.1" xmlns="http://www.w3.org/2000/svg" width="32" height="32" viewBox="0 0 32 32">
<title>cart</title>
<path d="M30.22 22.054h-17.712c-2.273 0-2.954-0.865-3.413-2.456-1.3-4.516-4.433-15.569-5.16-18.13h-3.119c-0.407 0-0.734-0.327-0.734-0.734s0.327-0.734 0.734-0.734h3.677c0.327 0 0.617 0.217 0.705 0.534 0 0 3.834 13.535 5.311 18.655 0.305 1.058 0.473 1.393 2 1.393h17.712c0.406 0 0.735 0.329 0.735 0.735s-0.329 0.735-0.735 0.735v0zM28.208 15.733l-18.468 2.637-0.207-1.456 18.465-2.637c1.445-0.207 1.487-0.43 1.487-1.734v-4.457c0-0.811-0.662-1.471-1.471-1.471h-17.643c-0.406 0-0.735-0.329-0.735-0.735s0.329-0.735 0.735-0.735v0h17.643c1.623 0.002 2.939 1.317 2.94 2.94v4.457c0 1.855-0.426 2.857-2.748 3.19zM11.107 27.936c-0.813-0-1.471-0.659-1.471-1.472s0.659-1.472 1.472-1.472c0 0 0 0 0.001 0h-0c0.813 0 1.471 0.659 1.471 1.472s-0.659 1.472-1.472 1.472c-0 0-0 0-0.001 0h0zM27.28 27.936c-0.813-0-1.471-0.659-1.471-1.472s0.659-1.472 1.472-1.472c0 0 0 0 0 0h-0c0.813 0 1.471 0.659 1.471 1.472s-0.659 1.472-1.472 1.472c-0 0-0 0-0 0h0z"></path>
</svg>
