<!-- Generated by IcoMoon.io -->
<svg version="1.1" xmlns="http://www.w3.org/2000/svg" width="32" height="32" viewBox="0 0 32 32">
<title>chaping11</title>
<path d="M3.269 24.378c-0.344 0.002-0.622 0.281-0.622 0.625 0 0.345 0.28 0.625 0.625 0.625 0.001 0 0.002 0 0.004 0h0.001c0.010 0 0.809 0.004 1.936 0.381 1.505 0.504 2.853 1.4 4.005 2.662 0.114 0.126 0.279 0.205 0.462 0.205 0.163 0 0.311-0.062 0.422-0.164l-0 0c0.125-0.115 0.204-0.279 0.204-0.462 0-0.163-0.062-0.311-0.164-0.422l0 0c-3.142-3.443-6.721-3.451-6.874-3.451zM27.78 24.427c-0.258-0.017-4.535-0.25-7.934 3.397-0.091 0.108-0.146 0.248-0.146 0.402 0 0.346 0.28 0.626 0.626 0.626 0.169 0 0.322-0.067 0.434-0.175l-0 0c1.209-1.311 2.78-2.271 4.555-2.722l0.064-0.014c1.331-0.334 2.276-0.27 2.316-0.267 0.010 0.001 0.022 0.001 0.034 0.001 0.345 0 0.625-0.28 0.625-0.625 0-0.327-0.252-0.596-0.572-0.623l-0.002-0zM29.347 16.805c-0.864-2.11-2.792-4.041-4.315-5.457 1.478-0.948 2.556-2.227 3.21-3.811 0.030-0.070 0.047-0.152 0.047-0.238 0-0.193-0.087-0.365-0.224-0.48l-0.001-0.001c-1.84-1.532-4.451-2.848-7.351-3.707-3.027-0.896-6.068-1.186-8.562-0.816-2.69 0.399-4.746 1.56-5.95 3.359-0.020 0.024-0.040 0.051-0.057 0.079l-0.002 0.003c-0.155 0.247-0.612 1.246-0.663 1.359-0.044 0.076-0.159 0.332-0.271 0.59l-0.072 0.188c-0.050 0.119-0.086 0.211-0.111 0.282-0.020 0.052-0.036 0.113-0.047 0.177l-0.001 0.006c-0.135 0.503-0.212 1.081-0.212 1.677 0 0.319 0.022 0.633 0.065 0.941l-0.004-0.035c-0.007 0.034-0.011 0.072-0.011 0.112 0 0.005 0 0.009 0 0.014v-0.001c0.001 0.107 0.041 2.651 1.271 6.239 0.801 2.299 1.787 4.287 2.983 6.125l-0.066-0.108c1.605 2.462 3.462 4.581 5.579 6.406l0.039 0.033c0.109 0.095 0.252 0.153 0.409 0.153 0.189 0 0.358-0.084 0.473-0.217l0.001-0.001c0.094-0.109 0.152-0.252 0.152-0.409 0-0.189-0.084-0.358-0.216-0.473l-0.001-0.001c-2.057-1.772-3.83-3.792-5.297-6.030l-0.067-0.108c-1.079-1.647-2.021-3.538-2.731-5.539l-0.058-0.187c-0.113-0.297-0.267-0.778-0.407-1.266l-0.044-0.18c3.227 4.304 9.375 7.442 13.707 8.043 0.026 0.004 0.056 0.006 0.087 0.006 0.22 0 0.414-0.114 0.525-0.287l0.002-0.002c1.125-1.764 1.519-3.626 1.133-4.974 3.913 0.202 6.545-0.592 6.665-0.629 0.257-0.082 0.44-0.319 0.44-0.598 0-0.085-0.017-0.166-0.047-0.24l0.002 0.004zM21.263 16.939c-0.019-0.002-0.041-0.003-0.064-0.003-0.345 0-0.624 0.279-0.624 0.624 0 0.168 0.067 0.321 0.175 0.433l-0-0c0.727 0.761 0.528 2.535-0.44 4.232-2.126-0.366-4.612-1.335-6.892-2.693-2.576-1.534-4.701-3.44-5.984-5.368-1.284-1.931-1.702-3.793-1.24-5.536 0.005-0.018 0.010-0.041 0.014-0.064l0-0.003c0.123-0.347 0.811-1.833 0.977-2.13 0.011-0.013 0.022-0.028 0.032-0.044l0.001-0.002c1.013-1.539 2.735-2.499 5.117-2.852 2.318-0.344 5.168-0.068 8.023 0.778 2.511 0.743 4.862 1.888 6.537 3.174-0.669 1.362-1.744 2.435-3.2 3.195-0.201 0.107-0.335 0.315-0.335 0.554 0 0.182 0.078 0.346 0.202 0.46l0 0c1.338 1.226 3.29 3.014 4.315 4.924-1.137 0.242-3.554 0.621-6.614 0.321z"></path>
</svg>
