<!-- Generated by IcoMoon.io -->
<svg version="1.1" xmlns="http://www.w3.org/2000/svg" width="32" height="32" viewBox="0 0 32 32">
<title>cuxiao</title>
<path d="M14.467 27.305c-0.807 0-1.565-0.314-2.135-0.885l-9.128-9.119c-0.571-0.57-0.885-1.328-0.885-2.134s0.315-1.562 0.885-2.131l11.636-11.627c1.241-1.238 2.569-1.409 3.819-1.409l7.975-0.001c0.806 0 1.564 0.314 2.135 0.883s0.885 1.328 0.885 2.135l-0.002 7.773c-0.001 1.285-0.169 2.767-1.41 4.009-0.625 0.622-11.528 11.514-11.638 11.624-0.544 0.546-1.296 0.884-2.127 0.884-0.003 0-0.006 0-0.009 0h0zM26.634 1.48l-7.975 0.001c-1.136 0-1.954 0.159-2.772 0.975-3.667 3.666-7.457 7.453-11.249 11.24l-0.387 0.387c-0.29 0.289-0.45 0.674-0.451 1.084s0.159 0.795 0.45 1.085l9.129 9.12c0.29 0.29 0.676 0.451 1.088 0.451s0.797-0.16 1.089-0.451c0.11-0.11 11.014-11.003 11.639-11.624 0.807-0.809 0.974-1.769 0.975-2.961l0.002-7.773c0-0.001 0-0.001 0-0.002 0-0.846-0.686-1.532-1.532-1.532-0.002 0-0.003 0-0.005 0h0zM22.012 11.349c-0.886 0-1.72-0.345-2.346-0.97s-0.971-1.46-0.971-2.345 0.346-1.72 0.973-2.345c0.626-0.626 1.46-0.971 2.346-0.971s1.72 0.345 2.346 0.97c0.599 0.601 0.97 1.43 0.97 2.345s-0.371 1.745-0.97 2.346l0-0c-0.598 0.6-1.425 0.971-2.338 0.971-0.003 0-0.006 0-0.009 0h0zM22.013 6.198c-0.491 0-0.952 0.191-1.298 0.537-0.347 0.347-0.539 0.808-0.539 1.298s0.191 0.951 0.537 1.297c0.347 0.346 0.809 0.537 1.299 0.537s0.953-0.191 1.3-0.537c0.332-0.332 0.537-0.791 0.537-1.298s-0.205-0.965-0.536-1.297l0 0c-0.331-0.332-0.788-0.537-1.294-0.537-0.002 0-0.004 0-0.005 0h0z"></path>
</svg>
