<!-- Generated by IcoMoon.io -->
<svg version="1.1" xmlns="http://www.w3.org/2000/svg" width="32" height="32" viewBox="0 0 32 32">
<title>daipingjia</title>
<path d="M16.378 22.359l0.358-0.016c4.46-0.194 8.402-3.105 9.811-7.241 0.417-1.224 0.424-2.585 0.43-3.901 0.001-0.241 0.003-0.481 0.006-0.72 0.035-1.807 0.070-3.672 0.082-5.503 0-0.329-0.292-0.629-0.611-0.629-1.848 0.055-3.333 0.658-5.082 1.441l-0.42 0.188-0.099-0.449c-0.265-1.186-0.774-2.224-1.473-3.105l0.012 0.016c-0.908-1.175-2.407-2.439-3.551-2.439-0.875 0-2.009 0.769-3.37 2.284-0.782 0.889-1.344 1.955-1.671 3.168l-0.12 0.443-0.41-0.207c-1.619-0.816-2.897-1.297-4.635-1.34-0.342 0.012-0.615 0.289-0.622 0.63v0.001c0 0.836-0.033 1.684-0.066 2.581-0.103 2.706-0.209 5.503 0.608 7.902 1.243 3.644 4.879 6.318 9.264 6.81l0.332 0.037v6.227c0 0.468 0.331 0.634 0.614 0.634s0.613-0.166 0.613-0.634v-6.18zM15.881 21.11c-4.502 0-8.478-3.030-9.454-7.207-0.223-0.973-0.194-2.018-0.167-3.028 0.009-0.33 0.017-0.637 0.017-0.939v-4.299l0.436 0.072c1.355 0.224 2.394 0.773 3.595 1.409l0.016 0.008 0.511 0.268c0.112 0.058 0.225 0.088 0.335 0.088 0.329 0 0.593-0.276 0.628-0.655 0.214-2.179 1.557-4.172 3.589-5.33 0.139-0.080 0.306-0.128 0.484-0.128h0.009c1.001 0 2.191 1.408 2.655 2.014 0.684 0.897 1.091 1.979 1.21 3.22l0.005 0.049-0.007 0.048c-0.004 0.026-0.007 0.055-0.007 0.085 0 0.060 0.010 0.118 0.028 0.172l-0.001-0.004 0.009 0.035c0.099 0.487 0.579 0.511 0.673 0.511 0.124 0 0.242-0.028 0.341-0.080l0.020-0.010c0.623-0.255 1.035-0.44 1.442-0.634l-0.19 0.082-0.386 0.163c1.217-0.555 2.356-1.075 3.683-1.3l0.439-0.074-0.003 0.445c-0.007 1.406-0.036 2.828-0.064 4.205l-0.002 0.093c-0.014 0.677-0.027 1.354-0.038 2.033-0.103 5.269-4.806 8.399-9.179 8.668-0.183 0.013-0.396 0.021-0.611 0.021-0.004 0-0.007 0-0.011 0h-0.003zM13.305 27.297c-1.514-2.618-3.231-4.361-4.967-5.039-0.535-0.208-1.173-0.317-1.845-0.317-1.375 0-3.199 0.52-3.813 1.984-0.073 0.172-0.071 0.311 0.005 0.425 0.101 0.151 0.33 0.253 0.571 0.253 0.309 0 0.561-0.16 0.674-0.428l0.058-0.137 0.239 0.099-0.044-0.122c0.034-0.015 0.184-0.116 0.257-0.164 0.247-0.165 0.524-0.351 0.761-0.427 0.387-0.135 0.834-0.215 1.299-0.218h0.002c0.966 0 1.876 0.361 2.782 1.103 1.072 0.878 2.058 2.101 2.929 3.636 0.114 0.199 0.276 0.3 0.482 0.3 0.265-0.006 0.495-0.148 0.625-0.359l0.002-0.003c0.107-0.182 0.101-0.38-0.016-0.586zM28.496 24.884c0.239 0 0.468-0.102 0.568-0.252 0.076-0.114 0.078-0.253 0.005-0.424-0.614-1.465-2.438-1.984-3.813-1.984-0.671 0-1.309 0.109-1.846 0.317-2.196 0.846-3.906 3.208-4.954 5.039-0.116 0.202-0.121 0.397-0.016 0.579 0.134 0.214 0.364 0.357 0.629 0.366l0.001 0c0.203 0 0.364-0.101 0.478-0.3 0.804-1.396 1.773-2.59 2.902-3.611l0.013-0.011c0.83-0.742 1.697-1.087 2.729-1.087 0.294 0 0.599 0.027 0.929 0.084 0.57 0.098 1.033 0.285 1.373 0.555 0.070 0.058 0.133 0.13 0.188 0.2l0.091-0.037 0.063 0.153c0.001 0.003 0.003 0.006 0.005 0.009l-0-0 0.155 0.070-0.093 0.039c0.127 0.187 0.34 0.296 0.594 0.296z"></path>
</svg>
