<!-- Generated by IcoMoon.io -->
<svg version="1.1" xmlns="http://www.w3.org/2000/svg" width="32" height="32" viewBox="0 0 32 32">
<title>daishouhuo</title>
<path d="M10.404 14.214h-2.721c-0.344 0-0.623 0.374-0.623 0.837s0.279 0.837 0.623 0.837h3.77c0.168-0.005 0.317-0.086 0.413-0.209l0.001-0.001c0.124-0.097 0.205-0.245 0.21-0.412l0-0.001v-3.77c0-0.344-0.374-0.623-0.837-0.623s-0.837 0.279-0.837 0.623v2.721zM12.92 26.756l0.823-1.672h4.184l0.827 1.672h-5.834zM8.731 28.428c-2.308-0.003-4.177-1.873-4.18-4.181v-0c0.003-2.307 1.873-4.177 4.18-4.18h0c2.308 0.003 4.178 1.872 4.182 4.18v0c-0.003 2.308-1.873 4.179-4.182 4.181h-0zM8.731 21.739c-1.383 0-2.508 1.125-2.508 2.508s1.124 2.509 2.508 2.509c1.383 0 2.51-1.125 2.51-2.509s-1.125-2.508-2.51-2.508zM22.946 28.428c-2.308-0.003-4.178-1.873-4.181-4.181v-0c0-2.304 1.876-4.18 4.181-4.18s4.181 1.876 4.181 4.18c-0.003 2.308-1.873 4.178-4.181 4.181h-0zM22.946 21.739c-1.383 0-2.509 1.125-2.509 2.508s1.125 2.509 2.509 2.509 2.509-1.125 2.509-2.509c-0.002-1.385-1.124-2.507-2.509-2.508h-0zM2.042 26.756c-0.948 0-1.672-0.582-1.672-1.46v-9.575c0-2.124 1.204-4.098 3.072-5.047 0.024-0.019 0.052-0.037 0.081-0.053l0.003-0.002 5.23-3.252 1.633 1.818-5.010 2.499s-3.449 2.377-3.337 4.201v9.197h1.672l0.44 1.672h-2.112zM27.154 26.716l0.808-1.632h0.837l0.004-21.735c0-1.131-0.528-1.682-1.647-1.682h-14.925c-1.12 0-1.797 0.551-1.825 1.677l0.028 4.822v1.060l-1.7-1.887v-3.99c-0.194-1.846 1.67-3.349 3.497-3.349h14.926c1.828 0 3.316 1.503 3.316 3.349v22.717c0 0.001 0 0.002 0 0.003 0 0.356-0.287 0.644-0.642 0.646h-2.673z"></path>
</svg>
