<!-- Generated by IcoMoon.io -->
<svg version="1.1" xmlns="http://www.w3.org/2000/svg" width="32" height="32" viewBox="0 0 32 32">
<title>daojianfu</title>
<path d="M28.111 8.183c-0.128-1.785-0.71-3.704-1.729-5.707l-0.201-0.396h-0.663l-0.186 0.133c-0.013 0.009-1.29 0.912-3.41 1.211-1.256 0.176-2.544 0.102-3.829-0.222-0.7-0.18-1.299-0.391-1.874-0.648l0.074 0.030 0.215-1.506-0.087-0.197c-0.173-0.391-0.731-1.011-1.718-0.855-0.32 0.051-0.534 0.268-0.973 0.856l-0.121 0.165c-0.165-0.117-0.281-0.202-0.395-0.289l0.040 0.029-0.665-0.5-0.393 0.742c-0.012 0.022-0.221 0.42-0.513 1.055l-0.763-0.307-0.331 0.313c-0.71 0.673-1.273 1.679-1.674 2.99-0.158 0.489-0.293 1.077-0.381 1.681l-0.007 0.060-0.058 0.479 0.802 0.484c-0.335 0.809-0.562 1.365-0.565 1.372l-0.332 0.809 0.836 0.193c0.422 0.097 0.84 0.217 1.254 0.359-0.045 0.094-0.097 0.205-0.158 0.337-0.183 0.397-0.444 0.978-0.776 1.727 1.229-3.256 0.465-1.542-0.293 0.175l-1.981 5.031c-1.621 3.739-3.244 7.523-3.261 7.561l-0.136 0.318 0.154 0.311c0.473 0.952 1.321 1.498 2.387 1.538 0.036 0.001 0.078 0.002 0.12 0.002 0.46 0 0.9-0.081 1.309-0.229l-0.027 0.008 0.312-0.119 5.305-15.217 0.108 0.070c1.172 0.785 2.19 1.663 3.090 2.649l0.012 0.013c1.648 1.794 2.486 3.426 2.494 3.442l0.257 0.508 0.545-0.13c1.573-0.393 2.953-1.042 4.168-1.908l-0.037 0.025c1.502-1.067 2.611-2.386 3.3-3.921 0.619-1.379 0.873-2.901 0.756-4.524z"></path>
</svg>
