<!-- Generated by IcoMoon.io -->
<svg version="1.1" xmlns="http://www.w3.org/2000/svg" width="32" height="32" viewBox="0 0 32 32">
<title>delete</title>
<path d="M29.468 5.135c0.433 0.001 0.785-0.352 0.786-0.787s-0.35-0.789-0.783-0.79l-28.109-0.039c-0.433-0.001-0.785 0.352-0.786 0.787s0.35 0.789 0.783 0.79l28.109 0.039zM5.786 28.543v0.797l20.295-0.209v-21.602c0-0.435-0.351-0.789-0.784-0.789s-0.784 0.353-0.784 0.789v20.821l0.777-0.789-18.725 0.193 0.793 0.789v-21.216c0-0.435-0.351-0.789-0.785-0.789s-0.785 0.353-0.785 0.789v21.216zM20.014 24.2c0 0.435 0.351 0.789 0.784 0.789s0.784-0.353 0.784-0.789v-14.198c0-0.435-0.351-0.789-0.784-0.789s-0.784 0.353-0.784 0.789v14.198zM10.595 24.2c0 0.435 0.351 0.789 0.785 0.789s0.784-0.353 0.784-0.789v-14.198c0-0.435-0.351-0.789-0.784-0.789s-0.784 0.353-0.784 0.789v14.198zM15.305 24.2c0 0.435 0.351 0.789 0.785 0.789s0.784-0.353 0.784-0.789v-14.198c0-0.435-0.351-0.789-0.784-0.789s-0.784 0.353-0.784 0.789v14.198zM12.114 2.367c0-0.438 0.347-0.788 0.784-0.788h6.114c0 0 0 0 0 0 0.433 0 0.783 0.35 0.784 0.782v1.647h1.57v-1.647c0-0 0-0.001 0-0.001 0-1.301-1.053-2.356-2.354-2.359h-6.114c-1.3 0.001-2.354 1.055-2.354 2.355 0 0.004 0 0.007 0 0.011v-0.001 1.452h1.57v-1.452z"></path>
</svg>
