<!-- Generated by IcoMoon.io -->
<svg version="1.1" xmlns="http://www.w3.org/2000/svg" width="32" height="32" viewBox="0 0 32 32">
<title>dianpu2</title>
<path d="M31.149 11.597c0 2.134-1.725 3.866-3.853 3.866s-3.853-1.731-3.853-3.866c0 2.134-1.726 3.866-3.853 3.866s-3.853-1.731-3.853-3.866c0 2.134-1.725 3.866-3.853 3.866s-3.853-1.731-3.853-3.866c0 2.134-1.725 3.866-3.853 3.866s-3.853-1.731-3.853-3.866l2.71-7.248h25.409l2.71 7.248zM26.333 2.899h-21.193c-0.798 0-1.445-0.649-1.445-1.45s0.647-1.45 1.445-1.45h21.193c0.798 0 1.445 0.649 1.445 1.45s-0.647 1.45-1.445 1.45zM4.657 16.889v-0.001c0.138-0.013 0.274-0.034 0.409-0.057l0.088-0.013c0.063-0.012 0.123-0.029 0.184-0.043 0.262-0.060 0.518-0.134 0.764-0.231v7.133h19.267v-7.133c0.245 0.097 0.501 0.171 0.763 0.231 0.062 0.015 0.123 0.032 0.185 0.043 0.029 0.006 0.059 0.008 0.088 0.013 0.135 0.023 0.271 0.044 0.409 0.057v0.001c0.158 0.015 0.32 0.023 0.482 0.023 0.329 0 0.651-0.035 0.964-0.092v9.756c0 0.801-0.647 1.45-1.445 1.45h-22.157c-0.798-0.002-1.445-0.649-1.445-1.448 0-0.001 0-0.001 0-0.002v0-9.756c0.313 0.058 0.634 0.092 0.964 0.092 0.162 0 0.323-0.009 0.482-0.023z"></path>
</svg>
