<!-- Generated by IcoMoon.io -->
<svg version="1.1" xmlns="http://www.w3.org/2000/svg" width="32" height="32" viewBox="0 0 32 32">
<title>dianji</title>
<path d="M24.928 11.217h-0.071c-0.516 0-0.939 0.155-1.341 0.423-0.351-1.104-1.259-1.898-2.425-1.898-0.001 0-0.002 0-0.003 0-0.525 0-1.014 0.158-1.421 0.429l0.009-0.006c-0.35-1.104-1.258-1.898-2.425-1.898-0.453 0-0.877 0.124-1.248 0.33v-2.827c0-1.547-1.103-2.807-2.558-2.807-1.464 0-2.651 1.259-2.651 2.807v10.885l-1.61-1.713c-1.032-1.094-2.868-0.939-3.745 0s-1.454 2.827-0.197 4.169l7.397 7.831c0.155 0.165 0.32 0.298 0.496 0.412 1.351 1.177 2.899 1.868 6.169 1.868 7.471 0 8.172-4.292 8.172-9.597v-5.602c-0.009-1.547-1.084-2.807-2.549-2.807zM9.752 9.938v-2.476c-0.22-0.508-0.349-1.099-0.351-1.72v-0.003c0-2.352 1.784-4.251 3.993-4.251s3.994 1.908 3.994 4.251c0 0.32-0.032 0.629-0.103 0.928 0.512 0.019 0.967 0.245 1.287 0.596l0.001 0.001 0.001 0.002c0.123-0.485 0.206-1.001 0.206-1.527 0-3.167-2.414-5.736-5.386-5.736s-5.375 2.569-5.375 5.736c0 1.661 0.67 3.157 1.733 4.2z"></path>
</svg>
