<!-- Generated by IcoMoon.io -->
<svg version="1.1" xmlns="http://www.w3.org/2000/svg" width="32" height="32" viewBox="0 0 32 32">
<title>dingwei1</title>
<path d="M16.287 29.145c-0.882 0-1.611-0.66-1.693-0.736-0.009-0.009-0.689-0.667-3.859-3.836-2.356-2.354-4.074-5.209-4.888-6.697l-0.198-0.366c-0.15-0.291-0.23-0.453-0.23-0.453-0.019-0.038-0.036-0.082-0.048-0.128l-0.001-0.005-0.001-0.005c-0.674-1.444-1.067-3.135-1.067-4.918v-0.003c0-6.611 5.378-11.987 11.988-11.987s11.986 5.377 11.986 11.987c0 1.703-0.36 3.363-1.071 4.933-0.015 0.051-0.032 0.095-0.052 0.136l0.002-0.005 0.002-0.005-0.434 0.829c-0.81 1.482-2.529 4.331-4.884 6.688-3.171 3.173-3.848 3.827-3.848 3.827-0.090 0.084-0.821 0.744-1.699 0.744zM6.848 16.479l0.34 0.651c0.782 1.426 2.412 4.137 4.634 6.355 3.14 3.14 3.824 3.804 3.833 3.813 0.13 0.117 0.434 0.309 0.634 0.309 0.213 0 0.541-0.225 0.641-0.318 0 0 0.687-0.669 3.821-3.804 2.219-2.218 3.852-4.929 4.628-6.349l0.349-0.664c0.009-0.032 0.021-0.063 0.032-0.093 0.616-1.285 0.975-2.794 0.975-4.386v-0c0-5.761-4.687-10.45-10.448-10.45s-10.451 4.689-10.451 10.45c0 1.516 0.327 2.99 0.975 4.386 0.015 0.033 0.028 0.066 0.039 0.099zM16.287 17.592c-3.086 0-5.596-2.51-5.596-5.596s2.51-5.596 5.596-5.596 5.596 2.51 5.596 5.596-2.511 5.596-5.596 5.596zM16.287 7.938c-2.241 0.001-4.058 1.817-4.060 4.059v0c0 2.237 1.822 4.059 4.060 4.059s4.060-1.822 4.060-4.059c-0.003-2.241-1.819-4.057-4.059-4.059h-0z"></path>
</svg>
