<!-- Generated by IcoMoon.io -->
<svg version="1.1" xmlns="http://www.w3.org/2000/svg" width="32" height="32" viewBox="0 0 32 32">
<title>edit1</title>
<path d="M29.818 28.134h-27.636v-27.636h19.636c0.401 0 0.727 0.326 0.727 0.727s-0.326 0.727-0.727 0.727v0h-18.182v24.727h24.727v-18.182c0-0.402 0.326-0.727 0.727-0.727s0.727 0.325 0.727 0.727v0 19.636zM11.381 19.662c-0.401-0-0.727-0.326-0.727-0.727 0-0.201 0.081-0.382 0.213-0.514l17.71-17.711c0.132-0.137 0.317-0.221 0.522-0.221 0.401 0 0.727 0.326 0.727 0.727 0 0.205-0.085 0.39-0.221 0.522l-17.71 17.711c-0.131 0.132-0.313 0.213-0.513 0.213-0 0-0.001 0-0.001 0h0z"></path>
</svg>
