<!-- Generated by IcoMoon.io -->
<svg version="1.1" xmlns="http://www.w3.org/2000/svg" width="32" height="32" viewBox="0 0 32 32">
<title>edit</title>
<path d="M1.131 5.138h-0.764v19.088c0 2.132 1.717 3.864 3.825 3.864h25.079v-15.595c0-0.427-0.342-0.773-0.764-0.773s-0.764 0.346-0.764 0.773v14.822l0.764-0.773h-24.314c-1.264 0-2.295-1.040-2.295-2.316v-18.314l-0.764 0.773h17.298c0.422 0 0.764-0.346 0.764-0.773s-0.342-0.773-0.764-0.773h-17.298zM13.47 16.242l-0.158 0.202-0.147 5.952 5.663-2.035 12.452-16.458-5.162-3.905-12.648 16.243zM25.8 1.691l3.945 2.984-0.149-1.090-11.843 15.654 0.352-0.259-4.401 1.581 1.020 0.749 0.113-4.57-0.164 0.46 12.186-15.65-1.059 0.141zM27.382 7.574l0.896-1.255-3.435-2.511-0.896 1.255 3.435 2.511z"></path>
</svg>
