<!-- Generated by IcoMoon.io -->
<svg version="1.1" xmlns="http://www.w3.org/2000/svg" width="32" height="32" viewBox="0 0 32 32">
<title>fanhuidingbu</title>
<path d="M6.858 1.947h18.285c0.315 0 0.571-0.256 0.571-0.571s-0.256-0.571-0.571-0.571v0h-18.285c-0.315 0-0.571 0.256-0.571 0.571s0.256 0.571 0.571 0.571v0zM26.118 12.971l-9.713-9.714c-0.103-0.103-0.246-0.167-0.404-0.167s-0.301 0.064-0.404 0.167v0l-9.714 9.714c-0.092 0.101-0.149 0.236-0.149 0.385 0 0.316 0.256 0.572 0.572 0.572 0.148 0 0.283-0.056 0.385-0.149l-0 0 8.738-8.738v20.333c0 0.315 0.256 0.571 0.571 0.571s0.571-0.256 0.571-0.571v0-20.334l8.738 8.739c0.103 0.104 0.246 0.169 0.404 0.169s0.301-0.065 0.404-0.169l0-0c0.103-0.103 0.167-0.246 0.167-0.404s-0.064-0.301-0.167-0.404v0z"></path>
</svg>
