<!-- Generated by IcoMoon.io -->
<svg version="1.1" xmlns="http://www.w3.org/2000/svg" width="32" height="32" viewBox="0 0 32 32">
<title>fanhui</title>
<path d="M16 31.667c8.653 0 15.667-7.014 15.667-15.667s-7.014-15.667-15.667-15.667c-8.653 0-15.667 7.014-15.667 15.667s7.014 15.667 15.667 15.667zM16 1.485c8.016 0 14.515 6.499 14.515 14.515s-6.499 14.515-14.515 14.515-14.515-6.498-14.515-14.515c0-8.016 6.499-14.515 14.515-14.515zM10.724 16.782l0.006-0.006 8.108 8.107 0.816-0.817-8.107-8.108 8.105-8.104-0.816-0.817-8.928 8.927 0.816 0.819z"></path>
</svg>
