<!-- Generated by IcoMoon.io -->
<svg version="1.1" xmlns="http://www.w3.org/2000/svg" width="32" height="32" viewBox="0 0 32 32">
<title>fapiaoguanli</title>
<path d="M26.154 13.475c-1.063-0.482-2.306-0.763-3.614-0.763-0.011 0-0.022 0-0.034 0h0.002c-0 0-0 0-0 0-5.018 0-9.086 4.068-9.086 9.086 0 2.863 1.324 5.416 3.393 7.081l0.018 0.014 0.018 0.014c-0.176 0.080-0.381 0.127-0.597 0.127-0.355 0-0.68-0.126-0.934-0.335l0.003 0.002 0.003 0.002-2.071-1.65-1.856 1.65c-0.249 0.219-0.578 0.353-0.938 0.353-0.001 0-0.002 0-0.004 0h-0.028c-0.358 0-0.685-0.132-0.935-0.351l0.002 0.002-1.852-1.65-1.873 1.664c-0.25 0.219-0.58 0.353-0.941 0.353-0.002 0-0.003 0-0.004 0h-0.025c-0.357 0-0.684-0.132-0.933-0.351l0.002 0.002-2.173-1.933c-0.066-0.058-0.124-0.122-0.174-0.193l-0.002-0.003-0.002-0.004c-0.48-0.345-0.791-0.898-0.802-1.525l-0-0.002v-23.605c0-0.805 0.654-1.459 1.441-1.459h22.557c0.796 0 1.441 0.649 1.441 1.459v12.017zM3.622 12.195c0 0.383 0.318 0.716 0.709 0.716h6.578c0.002 0 0.004 0 0.006 0 0.388 0 0.703-0.315 0.703-0.703 0-0.005-0-0.009-0-0.014v0.001c-0.002-0.392-0.316-0.71-0.707-0.717h-6.583c-0.389 0-0.705 0.316-0.705 0.705v0 0.012zM3.622 17.931c0 0.385 0.312 0.717 0.699 0.717h5.143c0.387-0.005 0.699-0.321 0.699-0.709 0-0 0-0 0-0v0-0.008c0-0 0-0.001 0-0.001 0-0.389-0.311-0.705-0.698-0.714h-5.144c-0.387 0.005-0.699 0.321-0.699 0.709 0 0 0 0 0 0v0 0.008zM3.622 5.738c0 0.385 0.32 0.718 0.716 0.718h9.471c0.001 0 0.001 0 0.002 0 0.395 0 0.714-0.32 0.714-0.714 0-0.001 0-0.002 0-0.003v0c-0.003-0.394-0.321-0.714-0.715-0.717h-9.475c-0.394 0-0.713 0.319-0.713 0.713v0 0.006zM22.519 29.074c-4.014 0-7.268-3.254-7.268-7.268s3.254-7.268 7.268-7.268v0c4.014 0 7.268 3.254 7.268 7.268s-3.254 7.268-7.268 7.268v0zM25.948 21.707c0.014 0.001 0.031 0.002 0.047 0.002 0.333 0 0.603-0.27 0.603-0.603s-0.27-0.603-0.603-0.603c-0 0-0 0-0.001 0h0l-0.049 0.002h-1.565l1.563-1.559c0.111-0.108 0.18-0.26 0.18-0.427s-0.069-0.318-0.179-0.426l-0-0c-0.11-0.108-0.261-0.175-0.427-0.175s-0.317 0.067-0.427 0.175l0-0-2.222 2.213-2.22-2.212c-0.11-0.109-0.261-0.176-0.428-0.176s-0.319 0.068-0.429 0.177v0c-0.111 0.108-0.18 0.26-0.18 0.427s0.069 0.318 0.179 0.426l0 0 1.567 1.557h-1.465c-0.319 0.018-0.57 0.281-0.57 0.602s0.251 0.583 0.567 0.602l0.002 0h2.424v1.205h-2.424c-0.333 0-0.603 0.27-0.603 0.603s0.27 0.603 0.603 0.603h2.424v1.405c0 0 0 0 0 0 0 0.335 0.271 0.606 0.606 0.606s0.606-0.271 0.606-0.606c0-0 0-0 0-0v0-1.405h2.422c0.333 0 0.603-0.27 0.603-0.603s-0.27-0.603-0.603-0.603h-2.422v-1.207h2.422z"></path>
</svg>
