<!-- Generated by IcoMoon.io -->
<svg version="1.1" xmlns="http://www.w3.org/2000/svg" width="36" height="32" viewBox="0 0 36 32">
<title>favorites</title>
<path d="M24.465 0.002c-2.346 0-4.475 0.922-6.051 2.419-0.165 0.134-0.269 0.336-0.27 0.562v0c0 0 0 0 0 0 0 0.403 0.327 0.73 0.73 0.73 0.204 0 0.388-0.083 0.52-0.218l0-0 0.002 0.001c1.308-1.23 3.075-1.985 5.018-1.985 4.051 0 7.335 3.284 7.335 7.335 0 1.943-0.756 3.71-1.989 5.022l0.004-0.004-13.131 13.144-13.138-13.144c-1.261-1.307-2.037-3.088-2.037-5.051 0-0.004 0-0.008 0-0.012v0.001-0.008c0-4.051 3.284-7.335 7.335-7.335 0 0 0.001 0 0.001 0h-0c0.002 0 0.003 0 0.005 0 1.947 0 3.717 0.761 5.027 2.003l-0.003-0.003 4.382 4.378c0.129 0.118 0.301 0.19 0.49 0.19 0.401 0 0.726-0.325 0.726-0.726 0-0.189-0.072-0.362-0.191-0.491l0 0.001-4.34-4.343 0.004-0.003c-1.57-1.524-3.715-2.464-6.079-2.464-0.004 0-0.009 0-0.013 0h-0.008c-4.855 0.001-8.791 3.937-8.791 8.792 0 2.371 0.938 4.522 2.464 6.104l-0.003-0.003 14.17 14.164 14.171-14.173c1.519-1.569 2.455-3.711 2.455-6.071 0-0.004 0-0.008 0-0.011v0.001-0.009c0-0 0-0.001 0-0.001 0-4.856-3.936-8.792-8.792-8.792-0 0-0.001 0-0.001 0h0"></path>
</svg>
