<!-- Generated by IcoMoon.io -->
<svg version="1.1" xmlns="http://www.w3.org/2000/svg" width="32" height="32" viewBox="0 0 32 32">
<title>favorite</title>
<path d="M13.779 2.105c0.404-0.881 0.619-0.878 0.999 0.007l3.319 7.718c0.158 0.368 0.59 0.54 0.965 0.385s0.55-0.579 0.392-0.947l-3.319-7.718c-0.882-2.052-2.771-2.070-3.702-0.037l-3.48 7.602c-0.167 0.364-0.001 0.792 0.37 0.956s0.807 0.001 0.974-0.363l3.48-7.602zM27.632 11.576c0.978 0.104 1.043 0.306 0.302 0.934l-6.456 5.483c-0.307 0.262-0.341 0.718-0.075 1.020s0.732 0.334 1.040 0.074l6.456-5.482c1.715-1.457 1.149-3.226-1.107-3.466l-8.443-0.899c-0.405-0.043-0.768 0.244-0.812 0.641s0.249 0.754 0.653 0.797l8.443 0.899zM23.047 27.622c0.201 0.946 0.026 1.068-0.813 0.571l-7.308-4.331c-0.348-0.206-0.802-0.096-1.012 0.245s-0.098 0.787 0.249 0.993l7.308 4.331c1.942 1.151 3.482 0.076 3.017-2.104l-1.738-8.157c-0.083-0.391-0.474-0.642-0.872-0.56s-0.654 0.465-0.571 0.856l1.738 8.157zM6.798 28.127c-0.854 0.48-1.027 0.354-0.804-0.582l1.939-8.158c0.092-0.389-0.154-0.777-0.55-0.869s-0.792 0.151-0.885 0.54l-1.939 8.158c-0.516 2.169 1.002 3.273 2.972 2.166l7.37-4.143c0.353-0.198 0.476-0.64 0.273-0.987s-0.652-0.466-1.005-0.268l-7.37 4.143zM3.797 14.636l-2.564-2.281c-0.302-0.268-0.768-0.246-1.041 0.050s-0.25 0.753 0.051 1.021l6.293 5.597c0.302 0.268 0.768 0.246 1.041-0.050s0.25-0.753-0.051-1.021l-3.729-3.317zM5.269 11.161c2.316-0.222 3.627-0.371 4.935-0.53l-1.115 0.111 0.259-0.031c0.404-0.049 0.691-0.409 0.641-0.806s-0.418-0.678-0.821-0.63l-0.255 0.031-0.69 0.080c0.017 0.022-1.049 0.141-2.117 0.252l-0.986 0.083c-0.6 0.060-1.149 0.111-1.637 0.151-0.405 0.034-0.706 0.384-0.672 0.782s0.391 0.693 0.797 0.659c0.497-0.041 1.054-0.093 1.661-0.154z"></path>
</svg>
