<!-- Generated by IcoMoon.io -->
<svg version="1.1" xmlns="http://www.w3.org/2000/svg" width="32" height="32" viewBox="0 0 32 32">
<title>fenlei</title>
<path d="M3.835 24.544h-2.807c-0.499 0.024-0.894 0.434-0.894 0.936s0.395 0.912 0.892 0.936l0.002 0h2.807c0.499-0.024 0.894-0.434 0.894-0.936s-0.395-0.912-0.892-0.936l-0.002-0zM30.969 24.544h-20.585c-0.499 0.024-0.894 0.434-0.894 0.936s0.395 0.912 0.892 0.936l0.002 0h20.585c0.499-0.024 0.894-0.434 0.894-0.936s-0.395-0.912-0.892-0.936l-0.002-0zM3.835 12.38h-2.807c-0.499 0.024-0.894 0.434-0.894 0.936s0.395 0.912 0.892 0.936l0.002 0h2.807c0.499-0.024 0.894-0.434 0.894-0.936s-0.395-0.912-0.892-0.936l-0.002-0zM30.969 12.38h-20.585c-0.499 0.024-0.894 0.434-0.894 0.936s0.395 0.912 0.892 0.936l0.002 0h20.585c0.499-0.024 0.894-0.434 0.894-0.936s-0.395-0.912-0.892-0.936l-0.002-0zM3.835 0.217h-2.807c-0.499 0.024-0.894 0.434-0.894 0.936s0.395 0.912 0.892 0.936l0.002 0h2.807c0.499-0.024 0.894-0.434 0.894-0.936s-0.395-0.912-0.892-0.936l-0.002-0zM10.385 2.088h20.585c0.499-0.024 0.894-0.434 0.894-0.936s-0.395-0.912-0.892-0.936l-0.002-0h-20.585c-0.499 0.024-0.894 0.434-0.894 0.936s0.395 0.912 0.892 0.936l0.002 0z"></path>
</svg>
