<!-- Generated by IcoMoon.io -->
<svg version="1.1" xmlns="http://www.w3.org/2000/svg" width="32" height="32" viewBox="0 0 32 32">
<title>fenxiang1</title>
<path d="M24.822 19.756c-2.099 0.046-3.863 1.495-4.391 3.441l-10.708-7.125c-0.039-0.027-0.084-0.051-0.132-0.070l-0.005-0.002c0.143-0.428 0.224-0.882 0.233-1.352 0.001-0.035 0.002-0.077 0.002-0.119 0-0.513-0.085-1.006-0.242-1.466l0.009 0.032c0.045-0.020 0.084-0.040 0.12-0.063l-0.003 0.002 10.721-7.157c0.558 1.998 2.362 3.439 4.502 3.439 0.035 0 0.070-0 0.105-0.001l-0.005 0c2.488-0.065 4.489-2.065 4.553-4.547l0-0.006c0.001-0.030 0.001-0.066 0.001-0.102 0-2.573-2.086-4.659-4.659-4.659-0.036 0-0.072 0-0.108 0.001l0.005-0c-2.416 0.052-4.388 1.962-4.547 4.352-0.108 0.017-0.204 0.056-0.288 0.112l0.003-0.002-11.042 7.371c-0.856-1.185-2.234-1.947-3.79-1.947-0.036 0-0.072 0-0.107 0.001l0.005-0c-2.488 0.065-4.489 2.065-4.553 4.547l-0 0.006c-0.001 0.030-0.001 0.065-0.001 0.101 0 2.574 2.087 4.661 4.661 4.661 0.035 0 0.071-0 0.106-0.001l-0.005 0c1.513-0.037 2.842-0.789 3.668-1.929l0.009-0.014 11.049 7.349c0.081 0.054 0.177 0.093 0.281 0.11l0.004 0.001c0.169 2.437 2.188 4.35 4.653 4.35 0.035 0 0.071-0 0.106-0.001l-0.005 0c2.488-0.065 4.489-2.065 4.553-4.547l0-0.006c0.001-0.029 0.001-0.062 0.001-0.096 0-2.575-2.088-4.663-4.663-4.663-0.035 0-0.069 0-0.104 0.001l0.005-0zM25.078 1.424c1.667 0.086 2.998 1.416 3.083 3.076l0 0.008c0.002 0.044 0.003 0.096 0.003 0.148 0 1.79-1.451 3.241-3.241 3.241-0.052 0-0.104-0.001-0.156-0.004l0.007 0c-1.667-0.086-2.998-1.416-3.083-3.076l-0-0.008c-0.002-0.046-0.004-0.099-0.004-0.153 0-1.787 1.449-3.236 3.236-3.236 0.054 0 0.108 0.001 0.161 0.004l-0.008-0zM5.010 17.781c-1.667-0.086-2.998-1.416-3.083-3.076l-0-0.008c-0.002-0.044-0.003-0.096-0.003-0.148 0-1.79 1.451-3.241 3.241-3.241 0.052 0 0.104 0.001 0.156 0.004l-0.007-0c1.667 0.086 2.998 1.416 3.083 3.076l0 0.008c0.002 0.045 0.004 0.098 0.004 0.151 0 1.788-1.45 3.238-3.238 3.238-0.053 0-0.106-0.001-0.159-0.004l0.007 0zM24.773 27.646c-1.667-0.086-2.998-1.416-3.083-3.076l-0-0.008c-0.002-0.044-0.003-0.096-0.003-0.148 0-1.79 1.451-3.241 3.241-3.241 0.052 0 0.104 0.001 0.156 0.004l-0.007-0c1.667 0.086 2.998 1.416 3.083 3.076l0 0.008c0.002 0.045 0.004 0.099 0.004 0.152 0 1.788-1.449 3.237-3.237 3.237-0.054 0-0.107-0.001-0.16-0.004l0.007 0z"></path>
</svg>
