<!-- Generated by IcoMoon.io -->
<svg version="1.1" xmlns="http://www.w3.org/2000/svg" width="32" height="32" viewBox="0 0 32 32">
<title>fenxiang</title>
<path d="M28.412 13.5c-0.001 0-0.001 0-0.002 0-0.497 0-0.9 0.403-0.901 0.9v8.508c-0.004 1.094-0.892 1.98-1.986 1.98-0.001 0-0.001 0-0.002 0h-19.062c-0 0-0.001 0-0.001 0-1.095 0-1.983-0.886-1.986-1.979v-17.865c0-1.091 0.892-1.981 1.987-1.981h6.213c0.498 0 0.903-0.403 0.903-0.9s-0.405-0.899-0.903-0.899h-6.213c-2.092 0-3.794 1.695-3.794 3.78v17.865c0 2.084 1.702 3.78 3.794 3.78h19.062c2.092 0 3.794-1.696 3.794-3.78v-8.508c-0.001-0.497-0.404-0.9-0.902-0.9-0.001 0-0.001 0-0.002 0h0zM9.455 18.775c-0.009 0.048-0.014 0.104-0.014 0.161 0 0.497 0.403 0.9 0.9 0.9 0.001 0 0.003 0 0.004 0h-0c0 0 0.001 0 0.002 0 0.44 0 0.806-0.315 0.885-0.732l0.001-0.006c0.008-0.038 0.724-3.823 3.218-7.586 1.452-2.19 3.21-3.931 5.228-5.176 1.926-1.188 4.103-1.928 6.493-2.209l-2.941 3.023c-0.158 0.162-0.256 0.383-0.256 0.628 0 0.496 0.402 0.898 0.898 0.898 0.002 0 0.005 0 0.007-0h-0c0 0 0 0 0.001 0 0.254 0 0.483-0.105 0.647-0.273l0-0 4.608-4.742c0.005-0.005 0.010-0.011 0.014-0.017l0-0c0.004-0.007 0.009-0.012 0.013-0.017l0.015-0.021c0.002-0.005 0.006-0.010 0.009-0.013l0.010-0.014 0.004-0.005 0.002-0.005 0.010-0.013 0.013-0.024 0.008-0.013 0.003-0.005 0.011-0.020 0.008-0.016c0.004-0.008 0.008-0.014 0.011-0.023l0.008-0.018 0.017-0.042 0.007-0.019c0.004-0.008 0.005-0.015 0.008-0.023s0.003-0.013 0.005-0.019l0.007-0.024 0.005-0.014 0.006-0.029c0.001-0.004 0.002-0.009 0.002-0.013v-0l0.002-0.011 0.004-0.018 0.001-0.013 0.002-0.017 0.001-0.011v-0.010l0.002-0.006v-0.128c0-0.012-0.002-0.020-0.003-0.031l-0.001-0.010-0.001-0.004-0.003-0.028-0.002-0.013-0.001-0.005c-0.002-0.007-0.003-0.015-0.004-0.023l-0-0.001-0.004-0.014v-0.003l-0.001-0.004-0.005-0.018c-0.002-0.011-0.004-0.020-0.007-0.030l0 0.002-0.003-0.012-0.011-0.032-0.002-0.007-0.009-0.023-0.001-0.003-0.004-0.009c0-0.002 0-0.003-0.002-0.005l-0.010-0.023-0.006-0.013-0.001-0.001-0.011-0.025c-0.009-0.017-0.016-0.035-0.028-0.052l-0.021-0.037-0.003-0.003c-0.004-0.008-0.009-0.014-0.014-0.021l0 0-0.001-0.002c-0.002-0.004-0.003-0.007-0.006-0.010l-0.008-0.011-0.006-0.008c-0.002-0.003-0.003-0.006-0.006-0.008l-0.006-0.008c-0.004-0.005-0.009-0.012-0.014-0.018l-0.001-0.001-0.009-0.009-0.004-0.005-0.018-0.022-0.005-0.006-0.026-0.028c-0.001-0.001-0.002-0.001-0.003-0.002v0l-0.030-0.030c-0.010-0.009-0.020-0.018-0.031-0.026l-0.001-0.001-0.002-0.002c-0.011-0.009-0.021-0.017-0.032-0.024-0.002-0.001-0.003-0.002-0.005-0.004l-0-0-0.029-0.020-0.035-0.023c-0.008-0.006-0.016-0.011-0.025-0.015l-0.001-0c-0.005-0.002-0.010-0.004-0.014-0.007l0 0c-0.004-0.003-0.009-0.006-0.015-0.008l-0.001-0-0.022-0.012c-0.006-0.004-0.012-0.006-0.018-0.009l-0.021-0.010-0.020-0.009-0.020-0.008-0.023-0.009c-0.003-0.001-0.009-0.003-0.015-0.005l-0.003-0.001-0.012-0.004-6.63-2.19c-0.085-0.029-0.183-0.046-0.285-0.046-0.497 0-0.9 0.403-0.9 0.9 0 0.395 0.255 0.731 0.61 0.852l0.006 0.002 2.668 0.881c-2.056 0.443-3.876 1.194-5.512 2.212l0.073-0.042c-2.242 1.383-4.188 3.305-5.785 5.713-2.695 4.066-3.456 8.084-3.487 8.254zM9.455 18.775"></path>
</svg>
