<!-- Generated by IcoMoon.io -->
<svg version="1.1" xmlns="http://www.w3.org/2000/svg" width="32" height="32" viewBox="0 0 32 32">
<title>form</title>
<path d="M25.131 1.409c1.191 0 2.157 0.944 2.157 2.108v20.598l0.201-0.488-4.673 4.755 0.518-0.216h-16.893c-1.188 0-2.155-0.948-2.155-2.113v-25.349l-0.719 0.704h21.563zM2.848 0.001v26.052c0 1.942 1.61 3.521 3.593 3.521h17.199l5.085-5.175v-20.881c0-1.943-1.609-3.516-3.594-3.516h-22.282zM22.258 20.42c-1.193 0-2.159 0.941-2.159 2.111v4.226c0 0.389 0.322 0.704 0.719 0.704s0.719-0.315 0.719-0.704v-4.226c0-0.391 0.32-0.702 0.721-0.702h3.232c0.397 0 0.719-0.315 0.719-0.704s-0.322-0.704-0.719-0.704h-3.232zM23.387 6.338c0.397 0 0.719-0.315 0.719-0.704s-0.322-0.704-0.719-0.704h-14.788c-0.397 0-0.719 0.315-0.719 0.704s0.322 0.704 0.719 0.704h14.788zM23.387 10.563c0.397 0 0.719-0.315 0.719-0.704s-0.322-0.704-0.719-0.704h-14.788c-0.397 0-0.719 0.315-0.719 0.704s0.322 0.704 0.719 0.704h14.788zM23.387 15.492c0.397 0 0.719-0.315 0.719-0.704s-0.322-0.704-0.719-0.704h-14.788c-0.397 0-0.719 0.315-0.719 0.704s0.322 0.704 0.719 0.704h14.788z"></path>
</svg>
