<!-- Generated by IcoMoon.io -->
<svg version="1.1" xmlns="http://www.w3.org/2000/svg" width="32" height="32" viewBox="0 0 32 32">
<title>guanbi</title>
<path d="M25.788 4.054c-5.405-5.405-14.171-5.405-19.576 0s-5.405 14.171 0 19.576c5.405 5.405 14.171 5.405 19.576 0s5.405-14.171 0-19.576zM20.282 19.348l-4.282-4.282-4.282 4.282c-0.155 0.15-0.367 0.242-0.6 0.242-0.478 0-0.865-0.387-0.865-0.865 0-0.233 0.092-0.445 0.243-0.601l4.282-4.282-4.282-4.282c-0.157-0.156-0.254-0.373-0.254-0.612s0.097-0.456 0.254-0.612l0-0c0.156-0.157 0.373-0.254 0.612-0.254s0.456 0.097 0.612 0.254l4.282 4.282 4.282-4.282c0.155-0.15 0.367-0.242 0.6-0.242 0.478 0 0.865 0.387 0.865 0.865 0 0.233-0.092 0.445-0.243 0.601l-4.282 4.282 4.282 4.282c0.15 0.155 0.242 0.367 0.242 0.6 0 0.478-0.387 0.865-0.865 0.865-0.233 0-0.445-0.092-0.601-0.243l0 0z"></path>
</svg>
