<!-- Generated by IcoMoon.io -->
<svg version="1.1" xmlns="http://www.w3.org/2000/svg" width="32" height="32" viewBox="0 0 32 32">
<title>haoping2</title>
<path d="M4.648 24.513c-0.343 0.002-0.62 0.281-0.62 0.624 0 0.345 0.279 0.624 0.624 0.624 0.001 0 0.002 0 0.004 0h0.004c0.045 0.001 4.582 0.005 7.402 3.163 0.114 0.129 0.28 0.209 0.465 0.209 0.161 0 0.307-0.061 0.417-0.161l-0.001 0c0.128-0.115 0.208-0.281 0.208-0.466 0-0.16-0.060-0.306-0.159-0.416l0.001 0.001c-3.205-3.588-8.138-3.582-8.345-3.58zM27.32 24.509c-0.204-0.003-5.031-0.010-8.349 3.573-0.103 0.111-0.166 0.26-0.166 0.424 0 0.345 0.279 0.624 0.624 0.624 0.181 0 0.344-0.077 0.458-0.2l0-0c2.909-3.142 7.3-3.173 7.419-3.173h0.008c0.001 0 0.002 0 0.003 0 0.345 0 0.625-0.28 0.625-0.625 0-0.344-0.278-0.623-0.621-0.625h-0zM25.915 18.343c1.059-1.798 1.733-3.886 1.95-6.037 0.211-2.092-0.042-4.128-0.714-5.735-0.095-0.224-0.311-0.379-0.563-0.383h-0.001c-2.217-0.044-4.26 0.389-6.084 1.288-0.552-0.956-1.405-2.157-2.050-2.999-1.853-2.421-2.265-2.421-2.537-2.421s-0.682 0-2.531 2.389c-0.645 0.833-1.499 2.024-2.053 2.972-1.793-0.858-3.792-1.271-5.951-1.229-0.253 0.005-0.468 0.16-0.562 0.379l-0.002 0.004c-0.671 1.607-0.925 3.644-0.713 5.735 0.217 2.151 0.892 4.239 1.95 6.037 1.849 3.141 4.717 5.095 8.088 5.515 0.051 0.018 0.104 0.030 0.159 0.035 0.024 0.002 0.463 0.038 1.050 0.055v5.456c0 0.345 0.279 0.624 0.624 0.624s0.624-0.279 0.624-0.624v0-5.457c0.411-0.013 0.78-0.032 1.148-0.059l-0.085 0.005c0.060-0.005 0.116-0.017 0.168-0.036l-0.004 0.001c3.371-0.421 6.239-2.375 8.088-5.516zM21.877 21c-1.216 0.872-2.693 1.458-4.293 1.631l-0.041 0.004c-0.042 0.004-0.081 0.013-0.118 0.025l0.004-0.001c-0.263 0.017-0.865 0.051-1.476 0.051-0.604 0-1.164-0.033-1.413-0.050-0.034-0.011-0.073-0.020-0.114-0.024l-0.002-0c-1.64-0.177-3.116-0.763-4.36-1.654l0.028 0.019c-1.168-0.829-2.164-1.936-2.961-3.29-1.853-3.147-2.368-7.303-1.308-10.277 2.004 0.021 3.843 0.479 5.47 1.364 0.086 0.047 0.189 0.075 0.298 0.075 0.244 0 0.455-0.139 0.558-0.343l0.002-0.004c0.731-1.477 2.969-4.375 3.766-5.11 0.798 0.744 3.041 3.68 3.771 5.174 0.105 0.209 0.317 0.35 0.562 0.35 0.111 0 0.216-0.029 0.307-0.080l-0.003 0.002c1.656-0.927 3.537-1.406 5.595-1.426 1.060 2.973 0.545 7.129-1.308 10.276-0.797 1.354-1.794 2.461-2.962 3.29z"></path>
</svg>
