<!-- Generated by IcoMoon.io -->
<svg version="1.1" xmlns="http://www.w3.org/2000/svg" width="32" height="32" viewBox="0 0 32 32">
<title>help</title>
<path d="M29.574 14.787c0-8.167-6.62-14.787-14.787-14.787s-14.787 6.62-14.787 14.787 6.62 14.787 14.787 14.787c3.391 0 6.609-1.146 9.207-3.215 0.166-0.133 0.272-0.336 0.272-0.564 0-0.398-0.323-0.721-0.721-0.721-0.171 0-0.328 0.059-0.451 0.158l0.001-0.001c-2.249 1.808-5.139 2.901-8.285 2.901-0.008 0-0.016 0-0.024-0h0.001c-7.369 0-13.344-5.975-13.344-13.344s5.975-13.344 13.344-13.344 13.344 5.975 13.344 13.344c0 2.527-0.702 4.948-2.009 7.046-0.068 0.108-0.109 0.24-0.109 0.381 0 0.398 0.323 0.721 0.721 0.721 0.257 0 0.483-0.135 0.611-0.337l0.002-0.003c1.398-2.21 2.227-4.901 2.227-7.785 0-0.008 0-0.017-0-0.025v0.001zM15.396 19.969c0.544 0 0.985 0.441 0.985 0.984v0.261c0 0.544-0.441 0.985-0.985 0.985s-0.985-0.441-0.985-0.985v0-0.261c0-0.543 0.437-0.984 0.985-0.984zM10.819 12.091s0.078 0.68 0.837 0.68 0.805-0.68 0.805-0.68c-0.051-2.203 0.97-3.249 3.060-3.145 1.391 0.157 2.112 0.942 2.16 2.358-0.096 0.63-0.624 1.445-1.564 2.441-1.244 1.259-1.866 2.385-1.866 3.381v1.020s0.095 0.609 0.783 0.609 0.783-0.609 0.783-0.609v-0.709c0-0.831 0.596-1.831 1.789-2.988 1.249-1.15 1.869-2.2 1.869-3.145-0.103-2.618-1.468-3.983-4.104-4.090-3.033-0.051-4.552 1.575-4.552 4.877z"></path>
</svg>
