<!-- Generated by IcoMoon.io -->
<svg version="1.1" xmlns="http://www.w3.org/2000/svg" width="32" height="32" viewBox="0 0 32 32">
<title>home</title>
<path d="M28.687 12.663l-10.941-11.553c-0.681-0.716-1.589-1.112-2.563-1.112s-1.884 0.395-2.563 1.112l-10.941 11.553c-1.129 1.192-0.984 2.223-0.796 2.654 0.133 0.305 0.582 1.145 1.875 1.145h1.604v8.887c0 2.017 1.429 3.916 3.459 3.916h4.658v-9.404c0-1.008 0.15-2.148 1.165-2.148h3.85c1.015 0 1.165 1.139 1.165 2.148v9.404h3.888c2.030 0 3.459-1.899 3.459-3.916v-8.887h1.603c1.293 0 1.743-0.839 1.876-1.145 0.186-0.431 0.333-1.461-0.796-2.654zM28.276 15.403h-3.305v9.946c0 1.008-1.412 2.858-2.425 2.858h-2.854v-8.345c0-2.018-0.637-3.4-2.669-3.4h-2.91c-2.031 0-2.668 1.381-2.668 3.4v8.345h-3.624c-1.015 0-2.424-1.85-2.424-2.858v-9.946h-3.407c-0.032 0-0.061-0.126-0.088-0.129 0.062-0.111 0.171-1.161 0.35-1.349l10.942-11.544c0.326-0.346 1.558-1.328 2.005-1.323 0.448-0.005 1.651 0.977 1.978 1.323l10.942 11.544c0.179 0.187 0.286 0.468 0.349 0.579-0.026 0.003-0.158 0.899-0.189 0.899z"></path>
</svg>
