<!-- Generated by IcoMoon.io -->
<svg version="1.1" xmlns="http://www.w3.org/2000/svg" width="32" height="32" viewBox="0 0 32 32">
<title>huo</title>
<path d="M28.631 15.245c-2.401-6.969-7.878-9.578-7.878-9.578 1.308 5.042-1.953 6.017-1.816 6.069-7.117-2.722-1.863-11.737-1.863-11.737-13.194 3.481-8.272 14.193-9.133 14.236-3.609 0.178-3.7-4.551-3.7-4.551-10.056 13.347 2.808 21.009 13.765 19.757 9.756-1.252 13.027-7.226 10.625-14.195zM9.821 23.737h-0.976v-3.431h-3.756v3.431h-0.947v-7.216h0.947v2.928h3.756v-2.928h0.976v7.216zM18.284 22.091c-0.296 0.579-0.715 1.016-1.257 1.314s-1.128 0.447-1.756 0.447c-0.68 0-1.289-0.165-1.824-0.493s-0.942-0.777-1.218-1.346c-0.261-0.523-0.414-1.138-0.414-1.79 0-0.005 0-0.010 0-0.015v0.001c0-1.2 0.322-2.139 0.966-2.818s1.476-1.018 2.494-1.018c0.668 0 1.268 0.159 1.805 0.478s0.944 0.764 1.225 1.334c0.281 0.57 0.422 1.217 0.422 1.941 0 0.733-0.148 1.389-0.444 1.967zM25.851 17.348h-2.366v6.388h-0.976v-6.388h-2.366v-0.828h5.708v0.828zM16.571 17.557c-0.357-0.227-0.793-0.363-1.259-0.363-0.011 0-0.021 0-0.032 0l0.002-0c-0.677 0-1.26 0.233-1.748 0.698s-0.732 1.242-0.732 2.33c0 0.871 0.234 1.557 0.703 2.059s1.056 0.752 1.763 0.752c0.72 0 1.312-0.253 1.777-0.759s0.698-1.224 0.698-2.155c0-0.588-0.1-1.102-0.299-1.541s-0.49-0.779-0.873-1.021z"></path>
</svg>
