<!-- Generated by IcoMoon.io -->
<svg version="1.1" xmlns="http://www.w3.org/2000/svg" width="32" height="32" viewBox="0 0 32 32">
<title>iconxx2</title>
<path d="M28.697 8.32c-0.878-1.491-2.079-2.705-3.513-3.574l-0.045-0.025c-0.085-0.052-0.188-0.082-0.298-0.082-0.321 0-0.582 0.261-0.582 0.582 0 0.211 0.113 0.397 0.281 0.499l0.003 0.001c1.308 0.791 2.371 1.865 3.125 3.142l0.023 0.042c0.751 1.278 1.195 2.816 1.195 4.457 0 1.656-0.452 3.206-1.238 4.534l0.023-0.041c-0.785 1.321-1.856 2.396-3.133 3.161l-0.041 0.023c-0.307 0.019-0.549 0.272-0.549 0.582s0.242 0.563 0.547 0.582l0.002 0c0.199 0 0.395-0.053 0.568-0.153 1.501-0.889 2.72-2.107 3.584-3.561l0.026-0.046c0.865-1.455 1.376-3.209 1.376-5.082 0-1.857-0.503-3.596-1.379-5.090l0.026 0.047zM25.156 13.372c0-0.001 0-0.002 0-0.003 0-2.169-1.158-4.068-2.889-5.112l-0.027-0.015c-0.085-0.052-0.188-0.082-0.298-0.082-0.321 0-0.582 0.261-0.582 0.582 0 0.211 0.113 0.397 0.281 0.499l0.003 0.001c1.417 0.853 2.35 2.383 2.35 4.131 0 0.895-0.245 1.733-0.671 2.45l0.012-0.022c-0.423 0.711-0.999 1.291-1.685 1.706l-0.022 0.012c-0.307 0.019-0.549 0.272-0.549 0.582s0.242 0.563 0.547 0.582l0.002 0c0.201 0 0.398-0.054 0.567-0.154 1.783-1.055 2.96-2.968 2.96-5.156 0-0 0-0.001 0-0.001v0zM18.755 2.021c-0.217-0.344-0.493-0.503-0.759-0.624-0.524-0.238-1.174-0.19-1.878 0.137-0.319 0.151-0.594 0.321-0.847 0.517l0.010-0.008-6.499 4.866c-1.182 0.968-2.929 0.89-2.945 0.889l-0.030-0.001c-1.957 0.007-3.57 1.472-3.811 3.365l-0.002 0.019-0.044 0.446v3.51l0.042 0.434 0.002 0.013c0.242 1.912 1.856 3.377 3.812 3.383h0.007c1.536-0.018 2.906 0.858 2.957 0.891l5.484 4.148 1.046 0.729c0.138 0.099 1.114 0.766 2.098 0.766 0.202 0 0.401-0.028 0.596-0.094 1.008-0.343 1.112-1.285 1.131-2.14v-19.758l-0.002-0.032c-0.037-0.656-0.154-1.119-0.367-1.457z"></path>
</svg>
