<!-- Generated by IcoMoon.io -->
<svg version="1.1" xmlns="http://www.w3.org/2000/svg" width="32" height="32" viewBox="0 0 32 32">
<title>jiantou1</title>
<path d="M12.648 28.263c0-0.249 0.094-0.5 0.283-0.692l12.697-12.898-12.7-13c-0.174-0.177-0.281-0.421-0.281-0.689 0-0.544 0.441-0.985 0.985-0.985 0.276 0 0.526 0.114 0.704 0.296l0 0 13.376 13.691c0.174 0.178 0.281 0.421 0.281 0.689 0 0.27-0.108 0.514-0.283 0.692l0-0-13.376 13.586c-0.179 0.182-0.428 0.295-0.703 0.295-0.544 0-0.985-0.441-0.985-0.985 0-0.001 0-0.001 0-0.002v0zM6.641 4.479c0-0.363 0.294-0.657 0.657-0.657 0.184 0 0.351 0.076 0.47 0.198l0 0 9.962 10.197c0.116 0.118 0.187 0.28 0.187 0.459s-0.072 0.341-0.188 0.46l-9.923 10.134c-0.118 0.114-0.279 0.185-0.457 0.185-0.363 0-0.657-0.294-0.657-0.657 0-0.173 0.067-0.33 0.175-0.447l-0 0 9.473-9.674-9.513-9.738c-0.116-0.118-0.187-0.28-0.187-0.458 0-0 0-0.001 0-0.001v0z"></path>
</svg>
