<!-- Generated by IcoMoon.io -->
<svg version="1.1" xmlns="http://www.w3.org/2000/svg" width="32" height="32" viewBox="0 0 32 32">
<title>jifen</title>
<path d="M15.889 13.41c8.925 0 15.655-2.882 15.655-6.704s-6.73-6.705-15.655-6.705-15.655 2.882-15.655 6.705 6.73 6.704 15.655 6.704M15.889 1.692c8.23 0 13.963 2.642 13.963 5.013s-5.734 5.012-13.963 5.012c-8.23 0-13.964-2.642-13.964-5.012 0.001-2.372 5.734-5.013 13.964-5.013M15.889 20.513c8.901 0 15.613-2.865 15.613-6.663 0-1.003-0.484-1.935-1.338-2.774l-0.016-0.017c-0.007-0.005-0.011-0.013-0.017-0.019l-0.004 0.005c-0.138-0.133-0.326-0.216-0.533-0.216-0.423 0-0.766 0.343-0.766 0.766 0 0.231 0.102 0.438 0.264 0.578l0.001 0.001-0.003 0.004c0.515 0.517 0.805 1.15 0.805 1.672 0 2.393-5.752 5.057-14.007 5.057s-14.007-2.664-14.007-5.057c0-0.596 0.167-1.105 0.825-1.686l0.024-0.021 0.014-0.014-0.003-0.003c0.127-0.135 0.206-0.317 0.207-0.517v-0c0-0.001 0-0.001 0-0.002 0-0.426-0.345-0.771-0.77-0.771-0.214 0-0.407 0.087-0.546 0.227l-0 0-0.005-0.005c-0.864 0.843-1.351 1.783-1.351 2.793 0 3.798 6.712 6.663 15.613 6.663M30.155 18.131l-0.015-0.018-0.005 0.004c-0.135-0.127-0.316-0.205-0.516-0.206h-0c-0.001 0-0.001 0-0.002 0-0.426 0-0.77 0.345-0.77 0.77 0 0 0 0 0 0v0c0.001 0.225 0.099 0.427 0.255 0.565l0.001 0.001-0.004 0.003c0.515 0.519 0.806 1.151 0.806 1.672 0 2.393-5.752 5.057-14.007 5.057s-14.007-2.664-14.007-5.057c0-0.594 0.168-1.105 0.824-1.685l0.024-0.022 0.014-0.013-0.003-0.002c0.127-0.136 0.206-0.318 0.207-0.519v-0c0-0.001 0-0.001 0-0.002 0-0.426-0.345-0.77-0.771-0.77-0.214 0-0.408 0.087-0.547 0.228l-0 0-0.004-0.005c-0.864 0.841-1.35 1.781-1.35 2.791 0 3.798 6.712 6.664 15.613 6.664s15.613-2.866 15.613-6.664c0-1.002-0.484-1.935-1.337-2.772l-0.017-0.019z"></path>
</svg>
