<!-- Generated by IcoMoon.io -->
<svg version="1.1" xmlns="http://www.w3.org/2000/svg" width="32" height="32" viewBox="0 0 32 32">
<title>kanjia</title>
<path d="M10.050 20.521l-7.627-7.627c-0.368-0.368-0.67-1.174-0.633-1.693l0.603-8.642c0.026-0.383 0.387-0.738 0.77-0.761l8.51-0.501c0.523-0.031 1.332 0.277 1.7 0.646l7.847 7.847 0.909-0.909-7.847-7.847c-0.635-0.635-1.791-1.073-2.685-1.020l-8.511 0.501c-1.035 0.060-1.904 0.919-1.977 1.955l-0.603 8.642c-0.062 0.898 0.37 2.055 1.006 2.691l7.627 7.627 0.909-0.909zM29.41 15.681l-3.648-3.648-0.909 0.909 3.648 3.648c0.116 0.117 0.187 0.277 0.187 0.455s-0.072 0.338-0.187 0.455l-10.041 10.041c-0.116 0.117-0.277 0.189-0.455 0.189s-0.338-0.072-0.455-0.189l-3.989-3.989-0.909 0.909 3.989 3.989c0.363 0.363 0.848 0.563 1.364 0.563s1.001-0.2 1.364-0.563l10.041-10.041c0.349-0.349 0.564-0.831 0.564-1.364s-0.215-1.014-0.564-1.364zM7.186 6.707c-0.616 0.611-0.998 1.458-0.998 2.395 0 0.002 0 0.004 0 0.006v-0 0.008c0 0.91 0.355 1.765 0.998 2.41s1.5 0.998 2.41 0.998 1.765-0.355 2.41-0.998c0.616-0.611 0.998-1.458 0.998-2.395 0-0.002 0-0.004 0-0.006v0-0.008c0-0.91-0.355-1.765-0.998-2.41s-1.499-0.998-2.41-0.998-1.765 0.355-2.41 0.998zM11.717 9.116c0 0.567-0.221 1.1-0.621 1.5s-0.934 0.621-1.5 0.621-1.1-0.221-1.5-0.621c-0.384-0.381-0.622-0.908-0.622-1.491 0-0.001 0-0.002 0-0.003v0-0.006c0-0.567 0.221-1.1 0.622-1.5s0.934-0.622 1.5-0.622 1.1 0.221 1.5 0.622c0.384 0.382 0.621 0.91 0.621 1.495v0.007zM7.121 26.083l19.86-19.86 0.909 0.909-19.86 19.86z"></path>
</svg>
