<!-- Generated by IcoMoon.io -->
<svg version="1.1" xmlns="http://www.w3.org/2000/svg" width="32" height="32" viewBox="0 0 32 32">
<title>kefu</title>
<path d="M8.095 21.803c2.569 1.912 5.137 2.513 7.971 2.513 2.848 0 5.919-1.131 7.845-2.75 2.443 1.326 4.607 4.328 4.649 7.231h-25.169c0.349-3.448 2.75-5.933 4.704-6.994zM23.744 20.281c-2.052 1.885-4.802 3.029-7.831 3.029s-5.779-1.145-7.831-3.015c-3.671 1.843-6.086 5.137-6.086 9.618h27.919c0-4.481-2.457-7.79-6.17-9.632zM6.839 16.205v-7.105l-0.307 0.014c1.619-3.504 5.207-5.933 9.381-5.933 4.16 0 7.748 2.429 9.367 5.933l-0.293-0.014v7.105c1.996 0 3.63-1.591 3.63-3.546 0-1.34-0.754-2.499-1.871-3.113-1.55-4.397-5.807-7.552-10.833-7.552s-9.283 3.155-10.847 7.552c-1.114 0.611-1.856 1.775-1.857 3.113v0c0 1.954 1.619 3.546 3.63 3.546zM15.899 19.653c-3.63 0-6.561-2.876-6.561-6.421s3.113-6.421 6.561-6.421c3.616 0 6.547 2.876 6.547 6.421s-2.932 6.421-6.547 6.421zM15.913 5.554c-4.341 0-7.859 3.448-7.859 7.692 0 4.258 3.518 7.706 7.859 7.706 4.328 0 7.845-3.448 7.845-7.706 0-4.244-3.518-7.692-7.845-7.692z"></path>
</svg>
