<!-- Generated by IcoMoon.io -->
<svg version="1.1" xmlns="http://www.w3.org/2000/svg" width="32" height="32" viewBox="0 0 32 32">
<title>lajixiang</title>
<path d="M29.041 4.347h-5.7v-1.352c0-1.642-1.352-2.995-2.995-2.995h-8.888c-1.642 0-2.995 1.352-2.995 2.995v1.352h-5.41c-0.386 0-0.773 0.29-0.773 0.773 0 0.386 0.29 0.773 0.773 0.773h1.835v19.128c0 1.642 1.352 2.995 2.995 2.995h16.616c1.642 0 2.995-1.352 2.995-2.995v-19.128h1.546c0.386 0 0.773-0.29 0.773-0.773-0.097-0.386-0.29-0.773-0.773-0.773zM10.107 2.995c0-0.773 0.676-1.449 1.449-1.449h8.888c0.773 0 1.449 0.676 1.449 1.449v1.352h-11.786v-1.352zM25.95 24.731c0 0.869-0.483 1.739-1.256 1.739h-16.616c-0.773 0-1.642-0.58-1.642-1.352l0.097-19.224h19.417v18.838zM11.653 10.047c-0.483 0-0.773 0.29-0.773 0.773v10.337c0 0.483 0.386 0.773 0.773 0.773s0.773-0.29 0.773-0.773v-10.337c-0.097-0.386-0.29-0.773-0.773-0.773zM16.483 10.047c-0.483 0-0.773 0.29-0.773 0.773v10.337c0 0.483 0.386 0.773 0.773 0.773s0.773-0.29 0.773-0.773v-10.337c-0.097-0.386-0.29-0.773-0.773-0.773zM21.313 10.047c-0.483 0-0.773 0.29-0.773 0.773v10.337c0 0.483 0.386 0.773 0.773 0.773s0.773-0.29 0.773-0.773v-10.337c-0.097-0.386-0.29-0.773-0.773-0.773z"></path>
</svg>
