<!-- Generated by IcoMoon.io -->
<svg version="1.1" xmlns="http://www.w3.org/2000/svg" width="32" height="32" viewBox="0 0 32 32">
<title>lingquan</title>
<path d="M31.998 15.975l-0.037-10.263c-0.005-1.298-1.063-2.413-2.359-2.483l-10.487-0.571c-0.026-0.002-0.050-0.002-0.076-0.004l-0.474-0.026v0.002c-1.238-0.029-1.939 0.227-2.626 0.913l-15.274 15.261c-0.429 0.428-0.665 1-0.665 1.608 0 0.618 0.242 1.199 0.681 1.638l5.386 5.382-2.647 2.645-0.19-1.545c-0.054-0.439-0.452-0.757-0.892-0.696-0.438 0.054-0.75 0.453-0.697 0.891l0.377 3.063c-0.006 0.212 0.067 0.426 0.23 0.588 0.156 0.156 0.362 0.234 0.566 0.234 0.014 0 0.026-0.007 0.040-0.008l3.042 0.374c0.034 0.005 0.066 0.006 0.099 0.006 0.398 0 0.743-0.297 0.793-0.702 0.054-0.438-0.258-0.838-0.697-0.891l-1.536-0.189 3.208-3.206c0.276-0.276 0.294-0.697 0.082-1.009l0.020-0.020-0.101-0.101c0-0.001 0-0.001-0.001-0.002s-0.001-0.001-0.002-0.001l-5.952-5.948c-0.136-0.136-0.211-0.315-0.211-0.506 0-0.182 0.070-0.35 0.196-0.478l15.274-15.26c0.284-0.285 0.528-0.47 1.465-0.446l10.98 0.599c0.458 0.025 0.846 0.434 0.847 0.891l0.037 10.265c0 0 0 0.001 0 0.001 0.001 0.043 0 0.079 0.001 0.12v0.044c0.003 0.769-0.096 1.094-0.422 1.419l-15.275 15.262c-0.266 0.267-0.708 0.258-0.985-0.017l-3.737-3.734c-0.312-0.313-0.818-0.313-1.131 0s-0.312 0.819 0.001 1.131l3.737 3.734c0.453 0.453 1.047 0.68 1.639 0.68 0.584 0 1.166-0.221 1.608-0.663l15.273-15.262c0.85-0.848 0.91-1.81 0.891-2.724zM11.861 22.772c0.156 0.156 0.361 0.234 0.566 0.234s0.41-0.078 0.566-0.234l1.83-1.828 1.65 1.65c0.156 0.156 0.361 0.234 0.566 0.234s0.41-0.078 0.566-0.234c0.313-0.313 0.313-0.819 0-1.131l-1.65-1.65 0.413-0.413 1.917 1.916c0.156 0.156 0.361 0.234 0.566 0.234s0.41-0.078 0.566-0.234c0.313-0.313 0.313-0.819 0-1.131l-1.835-1.834h4.408c0.442 0 0.8-0.358 0.8-0.8s-0.358-0.8-0.8-0.8h-4.030v-4.026c0-0.442-0.358-0.8-0.8-0.8s-0.8 0.358-0.8 0.8v4.403l-1.906-1.906c-0.313-0.312-0.819-0.312-1.132 0s-0.312 0.819 0 1.132l1.916 1.914-0.413 0.412-1.65-1.65c-0.313-0.312-0.819-0.312-1.132 0s-0.312 0.819 0 1.131l1.65 1.648-1.829 1.827c-0.313 0.314-0.313 0.821-0.001 1.134zM25.96 12.801c1.134-1.135 1.134-2.982-0.001-4.118-1.1-1.099-3.018-1.098-4.118 0-1.135 1.135-1.135 2.982 0 4.118 0.55 0.55 1.282 0.851 2.059 0.851s1.51-0.302 2.060-0.852zM22.972 11.671c-0.511-0.512-0.512-1.344 0-1.855 0.248-0.248 0.578-0.384 0.928-0.384s0.682 0.137 0.929 0.384c0.511 0.511 0.511 1.343 0 1.854-0.497 0.496-1.362 0.496-1.857 0.002z"></path>
</svg>
