<!-- Generated by IcoMoon.io -->
<svg version="1.1" xmlns="http://www.w3.org/2000/svg" width="32" height="32" viewBox="0 0 32 32">
<title>lingquan1</title>
<path d="M25.62 8.668h-2.080c1.275-1.719 1.511-3.676 0.456-4.83-0.501-0.548-1.223-0.838-2.085-0.838-1.268 0-2.733 0.648-3.92 1.734-1.046 0.957-1.745 2.113-1.991 3.213-0.246-1.1-0.945-2.256-1.991-3.213-1.187-1.086-2.652-1.734-3.92-1.734-0.863 0-1.584 0.29-2.085 0.838-1.056 1.154-0.819 3.111 0.456 4.83h-2.080c-1.751 0-3.176 1.425-3.176 3.176v4.434h2.033v9.546c0 1.751 1.425 3.176 3.176 3.176h15.175c1.751 0 3.176-1.425 3.176-3.176v-9.546h2.033v-4.434c-0-1.751-1.425-3.176-3.176-3.176zM18.905 5.734c0.944-0.863 2.067-1.379 3.005-1.379 0.329 0 0.785 0.069 1.085 0.397 0.72 0.786 0.128 2.597-1.263 3.915h-4.473c0.054-0.913 0.674-2.046 1.645-2.934zM9.004 4.752c0.3-0.328 0.756-0.397 1.086-0.397 0.938 0 2.061 0.516 3.005 1.379 0.971 0.888 1.591 2.021 1.645 2.934h-4.473c-1.391-1.318-1.982-3.129-1.263-3.915zM4.559 14.923v-3.079c0-1.004 0.817-1.82 1.82-1.82h8.943v4.9h-10.763zM6.592 25.824v-9.546h8.73v11.367h-6.91c-1.004 0-1.82-0.817-1.82-1.82zM25.408 25.824c0 1.004-0.817 1.82-1.82 1.82h-6.91v-11.367h8.73l-0 9.546zM27.441 14.923h-10.763v-4.9h8.943c1.004 0 1.82 0.817 1.82 1.82v3.079z"></path>
</svg>
