<!-- Generated by IcoMoon.io -->
<svg version="1.1" xmlns="http://www.w3.org/2000/svg" width="32" height="32" viewBox="0 0 32 32">
<title>liquan</title>
<path d="M23.957 10.466c0-0.265-0.218-0.483-0.483-0.483s-0.483 0.218-0.483 0.483v1.362c0 0.265 0.218 0.481 0.483 0.481s0.483-0.216 0.483-0.481v-1.362zM23.957 13.955c0-0.265-0.218-0.483-0.483-0.483s-0.483 0.218-0.483 0.483v1.359c0 0.265 0.218 0.483 0.483 0.483s0.483-0.218 0.483-0.483v-1.359zM23.957 17.443c0-0.266-0.218-0.483-0.483-0.483s-0.483 0.217-0.483 0.483v1.361c0 0.265 0.218 0.482 0.483 0.482s0.483-0.217 0.483-0.482v-1.361zM23.474 20.449c-0.266 0-0.483 0.217-0.483 0.483v1.36c0 0.265 0.218 0.798 0.483 0.798s0.483-0.533 0.483-0.798v-1.36c-0-0.266-0.217-0.483-0.483-0.483v0zM10.544 11.708c0.266 0 0.483-0.217 0.483-0.482s-0.217-0.483-0.483-0.483h-2.626c-0.266 0-0.483 0.217-0.483 0.483s0.217 0.482 0.483 0.482h2.626zM18.969 11.708c0.266 0 0.483-0.217 0.483-0.482s-0.217-0.483-0.483-0.483h-2.626c-0.266 0-0.482 0.217-0.482 0.483s0.217 0.482 0.482 0.482h2.626zM19.079 20.483c0.094 0 0.185-0.028 0.268-0.084 0.22-0.148 0.279-0.448 0.131-0.67l-2.391-3.55h1.951c0.265 0 0.482-0.217 0.482-0.483 0-0.265-0.217-0.482-0.482-0.482h-7.74l0.849-1.265h6.887c0.266 0 0.483-0.218 0.483-0.483s-0.217-0.483-0.483-0.483h-6.236l1.803-2.681c0.148-0.22 0.091-0.52-0.131-0.67-0.219-0.148-0.52-0.090-0.67 0.133l-2.168 3.22h-3.996c-0.265 0-0.482 0.218-0.482 0.483s0.217 0.483 0.482 0.483h3.35l-0.849 1.264h-2.501c-0.265 0-0.482 0.217-0.482 0.482 0 0.266 0.217 0.483 0.482 0.483h1.852l-2.388 3.55c-0.147 0.22-0.091 0.521 0.132 0.67 0.083 0.056 0.177 0.084 0.268 0.084 0.155 0 0.309-0.075 0.402-0.215l2.747-4.089h5.276l2.752 4.089c0.091 0.14 0.244 0.215 0.399 0.215v0zM14.633 21.315c-0.265 0-0.482 0.218-0.482 0.483s0.217 0.483 0.482 0.483h1.772c0.265 0 0.482-0.218 0.482-0.483v-3.907c0-0.265-0.217-0.482-0.482-0.482h-6.132c-0.265 0-0.483 0.217-0.483 0.482s0.217 0.483 0.483 0.483h0.989l-2.227 3.312c-0.148 0.22-0.091 0.521 0.131 0.67 0.083 0.056 0.177 0.083 0.268 0.083 0.156 0 0.308-0.075 0.402-0.214l2.592-3.851h3.499v2.942l-1.295-0zM20.699 25.135l-16.509-0.002c-0.008 0-0.013-0.006-0.013-0.013v-18.239c0-0.009 0.005-0.013 0.013-0.013l18.805 0.016v1.457c0 0.265 0.217 0.483 0.483 0.483s0.482-0.217 0.482-0.483v-1.476h3.854c0.008 0 0.014 0.006 0.014 0.013v5.787c-0.638 0.263-1.19 0.689-1.611 1.243-0.506 0.668-0.774 1.466-0.774 2.308 0 0.841 0.268 1.637 0.774 2.308 0.42 0.554 0.972 0.98 1.611 1.243v5.355c0 0.008-0.006 0.013-0.014 0.013h-1.477c-0.265 0-0.483 0.217-0.483 0.482s0.217 0.483 0.483 0.483h1.477c0.539 0 0.978-0.44 0.978-0.978v-5.696c0-0.212-0.137-0.399-0.34-0.461-1.225-0.377-2.045-1.483-2.045-2.749-0.005-1.269 0.818-2.372 2.043-2.75v0c0.201-0.061 0.34-0.25 0.34-0.461v-6.123c0-0.539-0.439-0.979-0.978-0.979h-23.623c-0.539 0-0.978 0.44-0.978 0.979v18.239c0 0.538 0.439 0.978 0.978 0.978l16.546 0.002-0.034-0.965z"></path>
</svg>
