<!-- Generated by IcoMoon.io -->
<svg version="1.1" xmlns="http://www.w3.org/2000/svg" width="32" height="32" viewBox="0 0 32 32">
<title>map</title>
<path d="M14.258 28.719c0.786 0.884 2.096 0.878 2.88-0.014 0.463-0.51 0.965-1.083 1.458-1.664l0.079-0.096c1.078-1.267 2.191-2.681 3.251-4.136l0.143-0.206c1.084-1.508 2.032-2.973 2.807-4.367 1.426-2.565 2.214-4.792 2.214-6.619 0-6.417-5.103-11.618-11.398-11.618s-11.398 5.201-11.398 11.618c0 1.829 0.791 4.058 2.22 6.627 0.774 1.393 1.723 2.856 2.806 4.363 1.656 2.285 3.279 4.279 5.002 6.181l-0.054-0.061-0.009-0.010zM15.273 27.764c-0.454-0.499-0.946-1.061-1.43-1.631l-0.079-0.095c-1.058-1.243-2.151-2.631-3.191-4.059l-0.14-0.202c-1.054-1.466-1.973-2.885-2.719-4.225-1.322-2.376-2.041-4.402-2.041-5.932 0-5.638 4.484-10.21 10.016-10.21s10.016 4.571 10.016 10.21c0 1.53-0.717 3.553-2.035 5.924-0.746 1.341-1.665 2.761-2.719 4.228-1.501 2.072-2.951 3.872-4.485 5.597l0.062-0.071c-0.197 0.223-0.337 0.377-0.41 0.457-0.249 0.283-0.604 0.285-0.838 0.020l-0.009-0.010zM21.861 13.489c0.259-0.705 0.393-1.455 0.393-2.222 0-3.5-2.784-6.337-6.217-6.337s-6.217 2.837-6.217 6.337c0 3.5 2.784 6.337 6.217 6.337 0.002 0 0.004 0 0.006 0 1.068 0 2.072-0.275 2.945-0.757l-0.031 0.016c0.336-0.183 0.464-0.609 0.285-0.953s-0.598-0.473-0.934-0.29c-0.654 0.362-1.434 0.576-2.264 0.576-0.002 0-0.004 0-0.007 0h0c-2.671 0-4.835-2.207-4.835-4.929s2.165-4.929 4.835-4.929c2.671 0 4.835 2.207 4.835 4.929 0 0.598-0.104 1.181-0.305 1.728-0.134 0.364 0.047 0.77 0.405 0.907s0.755-0.048 0.889-0.412z"></path>
</svg>
