<!-- Generated by IcoMoon.io -->
<svg version="1.1" xmlns="http://www.w3.org/2000/svg" width="32" height="32" viewBox="0 0 32 32">
<title>meiyougengduo</title>
<path d="M7.463 6.863c0 0.596 0.484 1.080 1.080 1.080s1.080-0.484 1.080-1.080v0c0-0.596-0.484-1.080-1.080-1.080s-1.080 0.484-1.080 1.080v0c0 0.597 0 0 0 0zM12.452 6.966c0 0.596 0.484 1.080 1.080 1.080s1.080-0.484 1.080-1.080v0c0-0.596-0.484-1.080-1.080-1.080s-1.080 0.484-1.080 1.080v0c0 0.597 0 0 0 0zM18.728 18.059c-0.052-0.046-0.127-0.034-0.173 0.018s-0.034 0.127 0.018 0.173l0.231 0.202c0.024 0.024 0.052 0.028 0.080 0.028 0.001 0 0.003 0 0.004 0 0.035 0 0.066-0.016 0.088-0.040l0-0c0.019-0.021 0.031-0.050 0.031-0.081 0-0.037-0.017-0.070-0.043-0.092l-0-0-0.237-0.208zM19.41 18.683c-0.052-0.046-0.127-0.046-0.173 0.006s-0.046 0.127 0.006 0.173c0.15 0.144 0.294 0.283 0.427 0.421 0.024 0.024 0.058 0.040 0.086 0.040s0.064-0.012 0.086-0.034c0.046-0.046 0.052-0.127 0.006-0.173-0.143-0.144-0.286-0.285-0.431-0.425l-0.008-0.008zM23.677 20.969c-0.147 0.041-0.342 0.083-0.541 0.116l-0.037 0.005c-0.070 0.012-0.116 0.075-0.104 0.138s0.064 0.104 0.122 0.104h0.018c0.19-0.028 0.399-0.075 0.607-0.127 0.064-0.018 0.104-0.086 0.086-0.15s-0.086-0.104-0.15-0.086zM25.883 20.057c-0.179 0.098-0.358 0.19-0.537 0.271-0.042 0.019-0.070 0.061-0.070 0.109 0 0.019 0.005 0.037 0.013 0.054l-0-0.001c0.019 0.041 0.061 0.070 0.109 0.070 0 0 0.001 0 0.001 0h-0c0.018 0 0.034-0.006 0.052-0.012 0.179-0.086 0.364-0.179 0.543-0.277 0.039-0.023 0.065-0.064 0.065-0.112 0-0.020-0.005-0.039-0.013-0.056l0 0.001c-0.020-0.037-0.058-0.062-0.103-0.062-0.022 0-0.042 0.006-0.060 0.017l0.001-0zM24.803 20.577c-0.126 0.057-0.311 0.129-0.5 0.195l-0.061 0.019c-0.048 0.017-0.082 0.062-0.082 0.116 0 0.014 0.002 0.028 0.007 0.041l-0-0.001c0.016 0.047 0.060 0.080 0.112 0.080 0.001 0 0.003-0 0.004-0h-0c0.012 0 0.028 0 0.040-0.006 0.185-0.064 0.375-0.138 0.571-0.22 0.044-0.019 0.075-0.061 0.075-0.111 0-0.018-0.004-0.035-0.011-0.051l0 0.001c-0.018-0.043-0.060-0.073-0.109-0.073-0.017 0-0.033 0.004-0.048 0.010l0.001-0zM26.922 19.457c-0.173 0.11-0.347 0.214-0.514 0.312-0.037 0.022-0.062 0.061-0.062 0.107 0 0.022 0.006 0.043 0.016 0.061l-0-0.001c0.021 0.037 0.059 0.062 0.104 0.064h0c0.023-0 0.045-0.007 0.064-0.018l-0.001 0c0.168-0.098 0.347-0.202 0.519-0.312 0.058-0.034 0.075-0.11 0.040-0.168s-0.11-0.086-0.168-0.046zM22.511 21.143h-0.028c-0.196 0-0.381-0.018-0.549-0.052-0.070-0.012-0.132 0.028-0.144 0.098s0.028 0.132 0.098 0.144c0.185 0.040 0.387 0.058 0.601 0.058h0.028c0.067-0.001 0.121-0.055 0.122-0.121v-0c0-0.001 0-0.002 0-0.003 0-0.069-0.056-0.124-0.124-0.124-0.001 0-0.002 0-0.003 0h0zM30.548 17.817l0.040-0.080h0.040c0.184-0.001 0.334-0.151 0.334-0.335s-0.15-0.335-0.335-0.335-0.335 0.15-0.335 0.335c0 0.084 0.031 0.161 0.082 0.22l-0-0-0.058 0.116c-0.060-0.012-0.129-0.020-0.2-0.020-0.232 0-0.445 0.077-0.617 0.206l0.003-0.002-0.185-0.168c0.021-0.042 0.033-0.092 0.033-0.144 0-0.185-0.15-0.335-0.335-0.335s-0.335 0.15-0.335 0.335c0 0.185 0.15 0.335 0.335 0.335 0.044 0 0.087-0.009 0.126-0.024l-0.002 0.001 0.179 0.168c-0.038 0.042-0.073 0.090-0.102 0.14l-0.002 0.004c-0.038-0.015-0.084-0.029-0.132-0.039l-0.006-0.001c-0.006 0-0.012 0-0.012-0.006-0.080-0.018-0.171-0.028-0.265-0.028h-0c-0.519 0-0.953 0.479-1.010 0.773-0.011-0.004-0.023-0.006-0.035-0.006-0.026 0-0.050 0.009-0.069 0.023l0-0c-0.086 0.058-0.173 0.116-0.254 0.173-0.034 0.022-0.057 0.060-0.057 0.103 0 0.026 0.008 0.051 0.023 0.071l-0-0c0.023 0.034 0.061 0.056 0.104 0.058h0c0 0 0.001 0 0.001 0 0.026 0 0.050-0.009 0.069-0.024l-0 0c0.080-0.052 0.168-0.11 0.248-0.168 0.104 0.277 0.445 0.607 0.855 0.665h0.012c0.034 0.006 0.075 0.006 0.11 0.006 0.208 0 0.399-0.052 0.561-0.138 0.012-0.006 0.018-0.012 0.028-0.018 0.044-0.026 0.082-0.053 0.117-0.082l-0.002 0.001c0.173 0.122 0.381 0.196 0.607 0.196 0.571 0 1.039-0.468 1.039-1.039 0-0.001 0-0.003 0-0.004 0-0.41-0.241-0.764-0.589-0.928l-0.006-0.003zM29.012 17.701c-0.052 0-0.092-0.040-0.092-0.092s0.040-0.092 0.092-0.092 0.092 0.040 0.092 0.092-0.040 0.092-0.092 0.092zM30.624 17.314c0.052 0 0.092 0.040 0.092 0.092s-0.040 0.092-0.092 0.092-0.092-0.040-0.092-0.092 0.040-0.092 0.092-0.092zM28.031 19c0-0.064 0.104-0.237 0.266-0.375-0.012 0.034-0.018 0.075-0.024 0.116-0.034 0.214-0.018 0.473 0.075 0.699-0.196-0.138-0.318-0.335-0.318-0.439zM28.799 19.595h-0.046c-0.237-0.202-0.277-0.549-0.237-0.814 0.034-0.22 0.116-0.318 0.138-0.329 0.018-0.006 0.028-0.018 0.040-0.028 0.031-0.006 0.066-0.011 0.103-0.012l0.001-0h0.006c-0.073 0.142-0.116 0.311-0.116 0.489 0 0.011 0 0.022 0 0.032l-0-0.002c0.005 0.259 0.13 0.488 0.321 0.634l0.002 0.001c-0.064 0.018-0.138 0.028-0.213 0.028h-0zM29.296 19.451c-0.214-0.082-0.364-0.287-0.364-0.526 0-0.002 0-0.004 0-0.006v0c-0.012-0.225 0.075-0.41 0.138-0.473 0.018 0.006 0.028 0.012 0.046 0.012-0.029 0.091-0.046 0.196-0.046 0.304 0 0.257 0.094 0.492 0.249 0.672l-0.001-0.001c-0.006 0.006-0.012 0.012-0.024 0.018zM30.11 19.555c-0.439 0-0.791-0.358-0.791-0.791s0.358-0.791 0.791-0.791 0.791 0.358 0.791 0.791-0.352 0.791-0.791 0.791zM29.584 18.602c0 0.096 0.078 0.173 0.173 0.173s0.173-0.078 0.173-0.173v0c0-0.096-0.078-0.173-0.173-0.173s-0.173 0.078-0.173 0.173v0c0 0.096 0 0 0 0zM30.329 18.527c0 0.096 0.078 0.173 0.173 0.173s0.173-0.078 0.173-0.173v0c0-0.096-0.078-0.173-0.173-0.173s-0.173 0.078-0.173 0.173v0c0 0.096 0 0 0 0zM23.169 5.812c0.144-0.046 0.733 0.11 1.178 0.537 0.237 0.231 0.491 0.607 0.358 1.092-0.005 0.019-0.008 0.042-0.008 0.065 0 0.112 0.073 0.207 0.174 0.24l0.002 0c0.024 0.006 0.046 0.012 0.070 0.012 0.001 0 0.002 0 0.003 0 0.111 0 0.205-0.075 0.233-0.178l0-0.002c0.156-0.561-0.018-1.126-0.491-1.582-0.491-0.473-1.276-0.779-1.675-0.653-0.101 0.034-0.173 0.128-0.173 0.238 0 0.026 0.004 0.051 0.011 0.075l-0-0.002c0.052 0.127 0.19 0.196 0.318 0.156zM23.348 4.506c0.156-0.029 1.138 0.029 1.859 0.623 0.537 0.445 0.809 1.080 0.809 1.883 0 0.138 0.11 0.248 0.242 0.248s0.248-0.11 0.248-0.242c0.006-0.964-0.329-1.727-0.987-2.269-0.826-0.675-1.941-0.791-2.269-0.727-0.132 0.029-0.22 0.156-0.19 0.289s0.156 0.22 0.289 0.196zM5.944 19.225c-1.692-0.433-1.472-2.477-1.461-2.564 0.018-0.132-0.080-0.26-0.214-0.277s-0.26 0.080-0.277 0.214c-0.006 0.024-0.075 0.641 0.104 1.322 0.248 0.935 0.843 1.553 1.721 1.779 0.016 0.004 0.034 0.006 0.053 0.006 0.004 0 0.007-0 0.011-0l-0.001 0c0.114-0.001 0.209-0.079 0.237-0.183l0-0.002c0.006-0.020 0.010-0.043 0.010-0.067 0-0.111-0.078-0.204-0.182-0.227l-0.002-0zM19.647 22.263l0.028-0.289 2.217-0.97c0.036-0.019 0.066-0.042 0.092-0.069l0-0 4.92-5.861c0.036-0.042 0.058-0.097 0.058-0.157 0-0.054-0.017-0.103-0.047-0.143l0 0.001c-0.045-0.063-0.117-0.103-0.199-0.103-0.032 0-0.063 0.006-0.091 0.018l0.002-0.001-1.594 0.635v-3.373c0-0.075-0.034-0.144-0.092-0.19s-0.138-0.064-0.208-0.046l-2.154 0.503-0.381-0.571c1.143-0.324 1.967-1.358 1.967-2.585 0-1.479-1.198-2.679-2.677-2.682h-0c0 0-0 0-0 0-1.48 0-2.681 1.2-2.681 2.681 0 0.188 0.019 0.371 0.056 0.548l-0.003-0.017-2.142 0.168v-2.217c0-4.163-3.384-7.547-7.547-7.547s-7.547 3.384-7.547 7.547v15.897c-0.595 0.347-0.918 0.727-0.918 1.126 0 1.599 5.266 2.899 11.768 2.899s11.768-1.3 11.768-2.899c-0.024-0.935-1.813-1.767-4.597-2.298zM20.346 21.143l0.427-0.491 0.018 0.034c0.052 0.070 0.11 0.132 0.168 0.19l-0.613 0.266zM24.924 15.894l0.964-0.387-4.256 5.070-0.421 0.185c-0.085-0.068-0.16-0.144-0.223-0.228l-0.002-0.003c-0.017-0.022-0.041-0.038-0.069-0.046l-0.001-0 4.008-4.591zM24.531 12.262v3.245l-6.877 2.061-0.179-3.655 7.057-1.651zM21.477 6.874c1.206 0 2.189 0.982 2.189 2.189s-0.982 2.189-2.189 2.189-2.189-0.982-2.189-2.189 0.982-2.189 2.189-2.189zM18.994 10.073c0.412 0.986 1.367 1.667 2.482 1.669h0c0.058 0 0.122 0 0.179-0.006l0.399 0.601-4.891 1.144c-0.11 0.027-0.19 0.125-0.19 0.242 0 0.004 0 0.008 0 0.012l-0-0.001 0.156 3.211-3.926-6.416 5.791-0.456zM10.737 16.627c0-0.727-0.289-1.386-0.762-1.865l2.794-4.008 3.938 6.432-2.61-1.513c-0.035-0.020-0.078-0.032-0.123-0.032-0.075 0-0.142 0.032-0.189 0.083l-0 0-3.794 4.452-0.647-1.206c0.835-0.463 1.391-1.339 1.392-2.344v-0zM8.052 18.816c-1.207 0-2.189-0.982-2.189-2.189s0.982-2.189 2.189-2.189 2.189 0.982 2.189 2.189-0.982 2.189-2.189 2.189zM11.73 25.652c-0.751 0.098-1.611 0.156-2.576 0.156-4.625 0-6.658-1.45-7.056-1.767v-16.503c0-3.892 3.165-7.056 7.056-7.056s7.057 3.165 7.057 7.056v2.258l-3.447 0.266c-0.006 0-0.018 0.006-0.024 0.006h-0.018l-0.052 0.018c-0.018 0.007-0.033 0.017-0.046 0.029v0l-0.046 0.046-2.985 4.273c-0.427-0.307-0.961-0.491-1.537-0.491-0.002 0-0.003 0-0.005 0h0c-0 0-0.001 0-0.001 0-1.48 0-2.681 1.2-2.681 2.681s1.2 2.681 2.681 2.681c0.3 0 0.588-0.049 0.857-0.14l-0.019 0.006 0.757 1.409-1.294 1.513c-0.052 0.058-0.070 0.132-0.052 0.208s0.064 0.138 0.132 0.173l3.447 1.692-0.15 1.49zM8.935 22.177l1.19-1.398 0.012-0.012 3.892-4.561 3.014 1.744-4.966 5.769-3.141-1.542zM19.006 23.845l-6.819 2.235 0.19-1.865 6.785-2.061-0.156 1.692zM12.885 23.545l4.683-5.439 6.468-1.935-3.384 3.874-0.006-0.006c-0.136-0.179-0.262-0.333-0.395-0.482l0.007 0.009c-0.046-0.052-0.122-0.058-0.173-0.012s-0.058 0.122-0.012 0.173c0.138 0.162 0.266 0.318 0.375 0.462 0.011 0.016 0.027 0.028 0.045 0.034l0.001 0-1.196 1.368-6.416 1.951z"></path>
</svg>
