<!-- Generated by IcoMoon.io -->
<svg version="1.1" xmlns="http://www.w3.org/2000/svg" width="32" height="32" viewBox="0 0 32 32">
<title>menu-product</title>
<path d="M23.963 29.157h-16.277c-1.911 0-2.707-1.371-2.862-2.096-0.084-0.476-1.97-11.045-2.361-13.945-0.142-1.060 0.056-1.906 0.588-2.514 0.506-0.578 1.304-0.896 2.247-0.896 0.218 0 0.391 0.017 0.486 0.029h20.078c0.095-0.012 0.268-0.029 0.486-0.029 0.944 0 1.742 0.318 2.247 0.896 0.533 0.609 0.73 1.454 0.588 2.514-0.39 2.9-2.275 13.47-2.355 13.919-0.159 0.752-0.955 2.123-2.866 2.123zM5.301 11.371c-0.264 0-0.744 0.043-0.994 0.327-0.252 0.288-0.243 0.809-0.191 1.196 0.385 2.864 2.325 13.738 2.345 13.848 0.039 0.144 0.268 0.75 1.226 0.75h16.277c1.054 0 1.225-0.744 1.23-0.776 0.015-0.082 1.955-10.956 2.339-13.82 0.052-0.387 0.061-0.908-0.19-1.196-0.249-0.285-0.729-0.327-0.994-0.327-0.158 0-0.271 0.015-0.293 0.019-0.040 0.007-0.086 0.011-0.133 0.011h-20.195c-0.050-0-0.098-0.005-0.145-0.013l0.005 0.001c-0.081-0.011-0.176-0.018-0.271-0.018-0.006 0-0.012 0-0.018 0h0.001zM7.644 15.805c0 0.456 0.187 0.908 0.51 1.231s0.775 0.509 1.231 0.509 0.908-0.187 1.231-0.509 0.509-0.775 0.509-1.231-0.187-0.908-0.509-1.231c-0.322-0.322-0.775-0.509-1.231-0.509s-0.908 0.187-1.231 0.509c-0.313 0.316-0.508 0.751-0.51 1.231v0.001zM20.526 15.805c0 0.456 0.187 0.908 0.509 1.231s0.775 0.509 1.231 0.509 0.908-0.187 1.231-0.509 0.509-0.775 0.509-1.231-0.187-0.908-0.509-1.231c-0.322-0.322-0.775-0.509-1.231-0.509s-0.908 0.187-1.231 0.509c-0.313 0.316-0.507 0.751-0.509 1.231v0zM23.254 8.572c-0.46 0-0.833-0.373-0.833-0.833v0c0-3.349-2.959-6.073-6.595-6.073s-6.594 2.724-6.594 6.073c-0 0.46-0.373 0.833-0.833 0.833s-0.833-0.373-0.833-0.833v0c0-4.267 3.705-7.739 8.261-7.739s8.261 3.471 8.261 7.739c0 0.46-0.373 0.833-0.833 0.833v0z"></path>
</svg>
