<!-- Generated by IcoMoon.io -->
<svg version="1.1" xmlns="http://www.w3.org/2000/svg" width="44" height="32" viewBox="0 0 44 32">
<title>pailie</title>
<path d="M35.93 1.935c0.469 0 0.688 0.406 0.688 0.688v10.354c0 0.282-0.219 0.719-0.719 0.719h-10.354c-0.469 0-0.719-0.406-0.719-0.719v-10.354c0-0.282 0.219-0.719 0.719-0.719l10.385 0.032M35.93 0.684h-10.385c-1.189 0-1.971 0.97-1.971 1.971v10.354c0 0.97 0.782 1.971 1.971 1.971h10.354c1.189 0 1.971-0.97 1.971-1.971v-10.385c0-0.97-0.782-1.939-1.939-1.939zM35.93 18.952c0.469 0 0.688 0.406 0.688 0.688v10.354c0 0.282-0.219 0.719-0.719 0.719h-10.354c-0.469 0-0.719-0.406-0.719-0.719v-10.354c0-0.282 0.219-0.719 0.719-0.719h10.385M35.93 17.7h-10.385c-1.189 0-1.971 0.97-1.971 1.971v10.354c0 0.97 0.782 1.971 1.971 1.971h10.354c1.189 0 1.971-0.97 1.971-1.971v-10.385c0-0.97-0.782-1.939-1.939-1.939zM18.913 1.935c0.469 0 0.719 0.406 0.719 0.719v10.354c0 0.282-0.219 0.719-0.719 0.719h-10.354c-0.469 0-0.719-0.406-0.719-0.719v-10.385c0-0.282 0.219-0.719 0.719-0.719l10.354 0.032M18.913 0.684h-10.354c-0.005-0-0.011-0-0.017-0-1.074 0-1.945 0.866-1.954 1.938v10.355c0 0.97 0.782 1.971 1.971 1.971h10.354c1.189 0 1.971-0.97 1.971-1.971v-10.354c-0.032-0.97-0.813-1.939-1.971-1.939zM18.913 18.952c0.469 0 0.719 0.219 0.719 0.719v10.354c0 0.282-0.219 0.719-0.719 0.719h-10.354c-0.469 0-0.719-0.406-0.719-0.719v-10.385c0-0.282 0.406-0.719 0.719-0.719h10.354M18.913 17.7h-10.354c-0.97 0-1.971 0.97-1.971 1.971v10.354c0 0.97 0.782 1.971 1.971 1.971h10.354c1.189 0 1.971-0.97 1.971-1.971v-10.385c-0.032-1.157-0.813-1.939-1.971-1.939z"></path>
</svg>
