<!-- Generated by IcoMoon.io -->
<svg version="1.1" xmlns="http://www.w3.org/2000/svg" width="32" height="32" viewBox="0 0 32 32">
<title>profile</title>
<path d="M19.794 16.187c2.819-1.436 4.716-4.316 4.716-7.64 0-4.72-3.826-8.546-8.546-8.546s-8.546 3.826-8.546 8.546c0 3.324 1.898 6.205 4.669 7.618l0.048 0.022c-4.425 1.331-7.846 4.729-9.184 9.044l-0.026 0.097v3.449c0 0.221 0.179 0.4 0.4 0.4h25.28c0.221 0 0.4-0.179 0.4-0.4v0-3.449c-1.364-4.412-4.786-7.81-9.115-9.116l-0.097-0.025zM27.868 28.073h-23.775v-2.745s2.589-7.080 9.881-8.481c0 0 0.522-0.122 0.522-0.545 0-0.333-0.278-0.509-0.397-0.57-3.196-0.861-5.509-3.733-5.509-7.146 0-4.081 3.308-7.389 7.389-7.389s7.389 3.308 7.389 7.389c0 3.378-2.268 6.227-5.364 7.108l-0.052 0.013v0.001l-0.007 0.001-0.061 0.016c-0.135 0.043-0.426 0.178-0.426 0.54 0 0.471 0.525 0.588 0.525 0.588s6.595 0.793 9.885 8.473v2.745z"></path>
</svg>
