<!-- Generated by IcoMoon.io -->
<svg version="1.1" xmlns="http://www.w3.org/2000/svg" width="32" height="32" viewBox="0 0 32 32">
<title>qiaquan2</title>
<path d="M27.228 29.969h-16.626c-0.424 0-0.768-0.344-0.768-0.768v0c0-0.424 0.344-0.768 0.768-0.768h16.626c1.002 0 1.814-0.812 1.814-1.814v-2.596c-1.77-0.653-2.953-2.345-2.953-4.236s1.183-3.584 2.953-4.236v-3.096c0-1.002-0.812-1.814-1.814-1.814h-16.626c-0.424 0-0.768-0.344-0.768-0.768v0c0-0.424 0.344-0.768 0.768-0.768h16.626c1.85 0 3.35 1.5 3.35 3.349v3.192c0 0.588-0.374 1.115-0.932 1.319-0.66 0.241-1.259 0.647-1.602 1.26-1.004 1.799-0.098 3.79 1.581 4.375 0.57 0.198 0.953 0.732 0.953 1.327v2.692c-0 1.85-1.5 3.349-3.349 3.349v0zM7.885 29.969h-3.113c-1.85 0-3.35-1.5-3.35-3.35v-2.692c0-0.588 0.374-1.116 0.933-1.319 0.66-0.241 1.258-0.646 1.601-1.259 1.005-1.8 0.099-3.791-1.58-4.376-0.57-0.199-0.953-0.732-0.953-1.327v-3.192c0-1.85 1.5-3.35 3.35-3.349h3.113c0.424 0 0.768 0.344 0.768 0.768v0c0 0.424-0.344 0.768-0.768 0.768h-3.113c-1.002 0-1.814 0.812-1.814 1.814v3.096c1.77 0.652 2.953 2.344 2.953 4.236s-1.183 3.584-2.953 4.236v2.596c0 1.002 0.812 1.814 1.814 1.814h3.113c0.424 0 0.768 0.344 0.768 0.768v0c-0 0.424-0.344 0.768-0.768 0.768v0zM9.228 12.698v0zM8.491 12.698v0zM9.228 15.073v0zM8.491 15.073v0zM9.228 17.381v0zM8.491 17.381v0zM9.228 19.544v0zM8.491 19.544v0zM9.228 21.714v0zM8.491 21.714v0zM9.228 24.022v0zM8.491 24.022v0zM9.228 26.185v0zM8.491 26.185v0zM15.697 21.163c-0.365 0-0.662 0.297-0.662 0.662s0.297 0.662 0.662 0.662h2.733v1.785c0 0.365 0.297 0.662 0.662 0.662s0.662-0.297 0.662-0.662v-1.785h2.733c0.365 0 0.662-0.297 0.662-0.662s-0.297-0.662-0.662-0.662h-2.733v-1.355h2.582c0.365 0 0.662-0.297 0.662-0.662s-0.297-0.662-0.662-0.662h-2.582v-0.948l2.846-2.212c0.14-0.108 0.229-0.265 0.25-0.44s-0.026-0.349-0.134-0.488c-0.224-0.288-0.641-0.34-0.929-0.116l-2.695 2.095-2.696-2.095c-0.288-0.224-0.705-0.172-0.929 0.116-0.108 0.14-0.156 0.313-0.134 0.488s0.111 0.332 0.251 0.44l2.846 2.212v0.948h-2.582c-0.365 0-0.662 0.297-0.662 0.662s0.297 0.662 0.662 0.662h2.582v1.355h-2.733zM26.963 2.398h-21.927c-1.85 0-3.35 1.5-3.35 3.35v1.987c0 0.424 0.344 0.768 0.768 0.768s0.768-0.344 0.768-0.768v-1.987c0-1.002 0.812-1.814 1.814-1.814h21.927c1.002 0 1.814 0.812 1.814 1.814v1.987c0 0.424 0.344 0.768 0.768 0.768s0.768-0.344 0.768-0.768v-1.987c0-1.85-1.5-3.349-3.35-3.349v0z"></path>
</svg>
