<!-- Generated by IcoMoon.io -->
<svg version="1.1" xmlns="http://www.w3.org/2000/svg" width="32" height="32" viewBox="0 0 32 32">
<title>qiaquan</title>
<path d="M29.921 13.671c-0.265 0-0.48-0.215-0.48-0.48v-2.207c0-0.265 0.215-0.48 0.48-0.48s0.48 0.215 0.48 0.48v2.207c0 0.265-0.215 0.48-0.48 0.48zM2.036 6.977c-0.265 0-0.48-0.215-0.48-0.48v-1.471c0-0.265 0.215-0.48 0.48-0.48h27.885c0.265 0 0.48 0.215 0.48 0.48v1.41c0 0.265-0.215 0.48-0.48 0.48s-0.48-0.215-0.48-0.48v-0.931h-26.926v0.991c0 0.265-0.215 0.48-0.48 0.48zM29.921 26.739h-27.885c-0.265 0-0.48-0.215-0.48-0.48s0.215-0.48 0.48-0.48h27.405v-1.343c0-0.265 0.215-0.48 0.48-0.48s0.48 0.215 0.48 0.48v1.823c0 0.265-0.215 0.48-0.48 0.48zM29.921 11.464c-1.464 0-2.654-1.191-2.654-2.654s1.191-2.654 2.654-2.654c0.265 0 0.48 0.215 0.48 0.48s-0.215 0.48-0.48 0.48c-0.935 0-1.695 0.76-1.695 1.695s0.76 1.695 1.695 1.695c0.265 0 0.48 0.215 0.48 0.48s-0.215 0.48-0.48 0.48zM29.921 18.124c-1.464 0-2.654-1.191-2.654-2.654s1.191-2.654 2.654-2.654c0.265 0 0.48 0.215 0.48 0.48s-0.215 0.48-0.48 0.48c-0.935 0-1.695 0.76-1.695 1.695s0.76 1.695 1.695 1.695c0.265 0 0.48 0.215 0.48 0.48s-0.215 0.48-0.48 0.48zM29.921 24.784c-1.464 0-2.654-1.191-2.654-2.654s1.191-2.654 2.654-2.654c0.265 0 0.48 0.215 0.48 0.48s-0.215 0.48-0.48 0.48c-0.935 0-1.695 0.76-1.695 1.695s0.76 1.695 1.695 1.695c0.265 0 0.48 0.215 0.48 0.48s-0.215 0.48-0.48 0.48zM29.921 20.376c-0.265 0-0.48-0.215-0.48-0.48v-2.207c0-0.265 0.215-0.48 0.48-0.48s0.48 0.215 0.48 0.48v2.207c0 0.265-0.215 0.48-0.48 0.48zM2.041 13.671c-0.265 0-0.48-0.215-0.48-0.48v-2.207c0-0.265 0.215-0.48 0.48-0.48s0.48 0.215 0.48 0.48v2.207c0 0.265-0.215 0.48-0.48 0.48zM2.041 26.739c-0.265 0-0.48-0.215-0.48-0.48v-1.823c0-0.265 0.215-0.48 0.48-0.48s0.48 0.215 0.48 0.48v1.823c0 0.265-0.215 0.48-0.48 0.48zM2.041 11.464c-0.265 0-0.48-0.215-0.48-0.48s0.215-0.48 0.48-0.48c0.935 0 1.695-0.76 1.695-1.695s-0.76-1.695-1.695-1.695c-0.265 0-0.48-0.215-0.48-0.48s0.215-0.48 0.48-0.48c1.464 0 2.654 1.191 2.654 2.654s-1.191 2.654-2.654 2.654zM2.041 18.124c-0.265 0-0.48-0.215-0.48-0.48s0.215-0.48 0.48-0.48c0.935 0 1.695-0.76 1.695-1.695s-0.76-1.695-1.695-1.695c-0.265 0-0.48-0.215-0.48-0.48s0.215-0.48 0.48-0.48c1.464 0 2.654 1.191 2.654 2.654s-1.191 2.654-2.654 2.654zM2.041 24.784c-0.265 0-0.48-0.215-0.48-0.48s0.215-0.48 0.48-0.48c0.935 0 1.695-0.76 1.695-1.695s-0.76-1.695-1.695-1.695c-0.265 0-0.48-0.215-0.48-0.48s0.215-0.48 0.48-0.48c1.464 0 2.654 1.191 2.654 2.654s-1.191 2.654-2.654 2.654zM2.041 20.376c-0.265 0-0.48-0.215-0.48-0.48v-2.207c0-0.265 0.215-0.48 0.48-0.48s0.48 0.215 0.48 0.48v2.207c0 0.265-0.215 0.48-0.48 0.48zM15.234 21.855c0.098-0.574 0.131-1.099 0.131-1.838v-1.608h-2.412c-0.738 0-1.149 0.033-1.707 0.131v-1.231c0.558 0.099 0.968 0.131 1.707 0.131h2.412v-0.788l-0.64-0.968h-1.772c-0.738 0-1.149 0.033-1.707 0.131v-1.231c0.558 0.098 0.968 0.131 1.707 0.131h1.149l-2.544-3.906c-0.476-0.738-0.738-1.116-0.985-1.428h1.756c0.131 0.377 0.279 0.689 0.804 1.51l2.872 4.628 2.855-4.628c0.476-0.771 0.673-1.132 0.788-1.51h1.772c-0.23 0.279-0.574 0.755-1.017 1.428l-2.527 3.906h1.149c0.738 0 1.165-0.033 1.723-0.131v1.231c-0.558-0.098-1.001-0.131-1.723-0.131h-1.756l-0.656 0.985v0.771h2.412c0.722 0 1.149-0.033 1.707-0.131v1.231c-0.558-0.098-1.001-0.131-1.707-0.131h-2.412v1.608c0 0.821 0.033 1.247 0.131 1.838h-1.51z"></path>
</svg>
