<!-- Generated by IcoMoon.io -->
<svg version="1.1" xmlns="http://www.w3.org/2000/svg" width="32" height="32" viewBox="0 0 32 32">
<title>quan-copy</title>
<path d="M18.751 11.233c0.686-0.686 1.292-1.394 1.818-2.12l0.969 0.606c-0.647 0.808-1.252 1.536-1.818 2.181h3.029v0.969h-6.543c-0.242 0.606-0.505 1.151-0.787 1.636h8.118v1.030h-4.181c1.090 1.090 2.544 1.818 4.362 2.181-0.162 0.203-0.364 0.505-0.606 0.909-0.041 0.121-0.081 0.203-0.121 0.242-0.889-0.282-1.677-0.626-2.363-1.030-0.041 0.526-0.143 1.515-0.303 2.969-0.081 1.413-1.030 2.099-2.848 2.060-0.727 0-1.353 0-1.878 0-0.081-0.404-0.181-0.809-0.303-1.211 0.364 0.040 1.069 0.060 2.119 0.060 1.171 0.040 1.757-0.303 1.757-1.030 0-0.161 0.019-0.424 0.060-0.788 0.081-0.686 0.121-1.151 0.121-1.394h-4.361c-0.162 2.384-1.798 3.958-4.907 4.726-0.041-0.041-0.081-0.121-0.121-0.242-0.202-0.283-0.385-0.545-0.545-0.788 2.867-0.606 4.341-1.837 4.423-3.696h-2.060v-0.545c-0.566 0.364-1.211 0.727-1.939 1.090-0.364-0.485-0.627-0.827-0.788-1.030 1.736-0.727 3.11-1.554 4.12-2.484h-3.877v-1.030h4.786c0.364-0.485 0.666-1.030 0.909-1.636h-5.089v-0.969h5.453c0.364-1.171 0.585-2.221 0.666-3.15l1.151 0.060c-0.121 0.93-0.344 1.96-0.666 3.090h3.090l-0.848-0.665zM11.178 9.779l0.848-0.666c0.161 0.162 0.383 0.385 0.666 0.666 0.524 0.485 0.928 0.889 1.211 1.211l-0.909 0.788c-0.283-0.323-0.687-0.767-1.211-1.333-0.283-0.282-0.485-0.504-0.606-0.666zM20.084 17.473c-0.768-0.485-1.454-1.131-2.060-1.939h-3.332c-0.808 0.93-1.536 1.575-2.181 1.939h7.572zM16 3.98c6.628 0 12.020 5.392 12.020 12.020s-5.392 12.020-12.020 12.020-12.020-5.392-12.020-12.020 5.392-12.020 12.020-12.020M16 2.816c-7.281 0-13.184 5.902-13.184 13.184s5.902 13.184 13.184 13.184 13.184-5.902 13.184-13.184-5.902-13.184-13.184-13.184v0z"></path>
</svg>
