<!-- Generated by IcoMoon.io -->
<svg version="1.1" xmlns="http://www.w3.org/2000/svg" width="32" height="32" viewBox="0 0 32 32">
<title>quan1</title>
<path d="M28.5 13.222v-2.778c0-2.291-1.875-4.166-4.166-4.166h-16.669c-2.291 0-4.166 1.875-4.166 4.166v2.778c1.534 0 2.778 1.244 2.778 2.778s-1.244 2.778-2.778 2.778v2.778c0 2.291 1.875 4.166 4.166 4.166h16.666c2.291 0 4.166-1.875 4.166-4.166v-2.778c-1.534 0-2.778-1.244-2.778-2.778 0.003-1.534 1.247-2.778 2.781-2.778zM27.113 19.928v1.628c0 1.531-1.247 2.778-2.778 2.778h-16.669c-1.531 0-2.778-1.247-2.778-2.778v-1.628c1.616-0.572 2.778-2.119 2.778-3.928s-1.162-3.356-2.778-3.928v-1.628c0-1.531 1.247-2.778 2.778-2.778h16.666c1.531 0 2.778 1.247 2.778 2.778v1.628c-1.616 0.572-2.778 2.119-2.778 3.928 0.003 1.809 1.163 3.356 2.781 3.928zM18.106 15.509c-0.212-0.063-0.475-0.134-0.762-0.206v-4.147c0.375 0.063 0.741 0.159 1.094 0.313 0.603 0.262 1.097 0.572 1.481 0.925h0.122v-1.928c-0.516-0.25-1.075-0.444-1.681-0.578-0.328-0.075-0.669-0.122-1.019-0.156v-0.672h-1.387v0.659c-0.969 0.081-1.791 0.391-2.447 0.963-0.766 0.666-1.147 1.488-1.147 2.469 0 0.472 0.069 0.887 0.206 1.25 0.137 0.359 0.331 0.675 0.581 0.941 0.256 0.272 0.547 0.491 0.878 0.659s0.706 0.306 1.122 0.416c0.306 0.078 0.566 0.141 0.803 0.2v4.216c-0.569-0.025-1.156-0.144-1.766-0.391-0.672-0.275-1.275-0.659-1.806-1.159h-0.113v2.019c0.544 0.266 1.122 0.491 1.738 0.672 0.541 0.159 1.203 0.238 1.947 0.256v0.722h1.388v-0.797c0.272-0.047 0.528-0.106 0.75-0.194 0.491-0.191 0.931-0.462 1.322-0.813 0.347-0.319 0.616-0.709 0.809-1.172s0.288-0.928 0.288-1.4c0-0.753-0.194-1.387-0.578-1.903-0.375-0.522-0.988-0.906-1.822-1.162zM15.956 14.959c-0.113-0.028-0.231-0.059-0.331-0.084-0.516-0.141-0.909-0.363-1.181-0.669-0.272-0.303-0.406-0.713-0.406-1.228 0-0.569 0.231-1.028 0.691-1.378 0.328-0.25 0.753-0.378 1.228-0.45v3.809zM18.156 20.291c-0.219 0.178-0.491 0.313-0.809 0.403v-3.725c0.519 0.147 0.897 0.372 1.134 0.675s0.359 0.697 0.359 1.181c-0.003 0.603-0.228 1.094-0.684 1.466z"></path>
</svg>
