<!-- Generated by IcoMoon.io -->
<svg version="1.1" xmlns="http://www.w3.org/2000/svg" width="32" height="32" viewBox="0 0 32 32">
<title>quan</title>
<path d="M11.23 17.338v-0.975c-0.9 0.675-1.869 1.263-2.906 1.762l-0.975-1.5c1.8-0.762 3.306-1.781 4.519-3.056h-3.9v-1.613h5.194c0.362-0.55 0.681-1.112 0.956-1.688h-5.119v-1.575h2.719c-0.375-0.825-0.813-1.637-1.313-2.438l1.537-0.506c0.5 0.8 0.931 1.631 1.294 2.494l-0.975 0.45h2.494c0.325-0.987 0.569-2.012 0.731-3.075l1.762 0.225c-0.188 1.025-0.419 1.975-0.694 2.85h3.319l-0.825-0.45c0.575-0.75 1.050-1.606 1.425-2.569l1.481 0.525c-0.4 0.963-0.869 1.794-1.406 2.494h2.625v1.575h-7.2c-0.331 0.728-0.613 1.281-0.913 1.823l0.069-0.136h9.075v1.613h-3.694c0.912 1.088 2.35 2.088 4.313 3l-1.162 1.444c-0.938-0.55-1.762-1.112-2.475-1.688-0.050 1.4-0.138 2.631-0.262 3.694-0.15 1.075-0.406 1.831-0.769 2.269-0.363 0.425-0.919 0.656-1.669 0.694h-3l-0.469-1.669c1.25 0.050 2.119 0.075 2.606 0.075 0.7 0 1.163-0.25 1.387-0.75 0.237-0.563 0.394-1.662 0.469-3.3h-4.238c-0.375 1.325-0.875 2.388-1.5 3.188-0.8 0.962-2 1.831-3.6 2.606l-1.125-1.406c1.4-0.612 2.481-1.287 3.244-2.025 0.55-0.587 0.987-1.375 1.313-2.363h-2.344zM14.042 13.569c-0.588 0.75-1.25 1.456-1.988 2.119h8.4c-0.738-0.687-1.338-1.394-1.8-2.119h-4.613zM25.641 5.619c1.819 2.171 2.914 4.968 2.914 8.022 0 6.903-5.596 12.5-12.5 12.5s-12.5-5.596-12.5-12.5c0-3.053 1.095-5.851 2.914-8.022h-1.965c-1.583 2.275-2.511 5.040-2.511 8.022 0 7.766 6.296 14.062 14.062 14.062s14.063-6.296 14.063-14.062c0-2.982-0.928-5.747-2.511-8.022h-1.965z"></path>
</svg>
