<!-- Generated by IcoMoon.io -->
<svg version="1.1" xmlns="http://www.w3.org/2000/svg" width="32" height="32" viewBox="0 0 32 32">
<title>renshu</title>
<path d="M15.726 1c-7.569 0-13.726 6.158-13.726 13.726s6.157 13.726 13.726 13.726 13.727-6.158 13.727-13.726c-0.001-7.568-6.159-13.726-13.727-13.726zM15.726 27.505c-7.047 0-12.779-5.732-12.779-12.779s5.732-12.779 12.779-12.779 12.779 5.732 12.779 12.779c0 7.046-5.733 12.779-12.779 12.779zM22.503 14.068c0.848-0.644 1.39-1.652 1.394-2.786v-0.001c0-1.94-1.579-3.52-3.521-3.52-1.303 0-2.43 0.72-3.038 1.775-0.649-1.572-2.168-2.659-3.942-2.662h-0c-2.351 0.002-4.257 1.908-4.26 4.259v0c0 1.445 0.727 2.72 1.829 3.49-2.112 0.46-3.309 1.881-3.309 4.083 0 2.705 3.986 4.108 6.12 4.259 0.384 0.027 0.783 0.043 1.186 0.043 1.43 0 3.336-0.194 4.306-1.119 0.371-0.355 0.6-0.771 0.688-1.234 0.122 0.021 0.235 0.055 0.374 0.055 0.176 0 0.375-0.018 0.601-0.058 3.145-0.55 3.793-2.435 3.784-3.919-0.006-0.987-0.767-2.126-2.212-2.665zM20.376 8.708c1.421 0.001 2.572 1.152 2.574 2.573v0c-0.004 1.182-0.805 2.176-1.894 2.473l-0.018 0.004c-0.134-0.013-0.292-0.021-0.452-0.023l-0.004-0c-0.273 0-0.517 0.026-0.745 0.062-1.17-0.259-2.032-1.286-2.034-2.515v-0c0.001-1.421 1.152-2.572 2.573-2.574h0zM18.491 14.244c-0.23 0.131-0.386 0.255-0.462 0.324-0.355 0.319-0.752 0.75-0.963 1.207-0.498-0.346-1.070-0.641-1.679-0.856l-0.051-0.016c0.851-0.443 1.52-1.138 1.918-1.986l0.011-0.026c0.29 0.558 0.706 1.015 1.212 1.345l0.014 0.008zM10.082 11.133c0-1.827 1.486-3.313 3.313-3.313s3.312 1.486 3.312 3.313-1.486 3.313-3.312 3.313c-1.829-0.002-3.311-1.484-3.313-3.313v-0zM18.612 21.204c-0.569 0.545-1.9 0.857-3.65 0.857-0.379 0-0.756-0.015-1.119-0.041-1.881-0.132-5.24-1.354-5.24-3.314 0-2.198 1.328-3.313 3.945-3.313 2.67 0 4.186 1.227 4.713 1.754 0.235 0.235 0.444 0.469 0.637 0.699 0.313 0.376 0.564 0.737 0.752 1.079 0.091 0.158 0.179 0.343 0.25 0.536l0.009 0.026c0.007 0.020 0.018 0.041 0.023 0.061 0.053 0.156 0.085 0.305 0.103 0.447 0.011 0.079 0.021 0.159 0.021 0.233-0.006 0.377-0.151 0.696-0.444 0.976zM20.769 19.72c-0.165 0.028-0.31 0.042-0.438 0.042-0.011 0-0.024 0.001-0.037 0.001-0.124 0-0.242-0.023-0.35-0.066l0.006 0.002c-0.043-0.216-0.098-0.404-0.167-0.584l0.008 0.024c-0.015-0.040-0.035-0.082-0.051-0.122-0.073-0.183-0.142-0.33-0.218-0.474l0.012 0.026c-0.028-0.055-0.060-0.109-0.091-0.164-0.105-0.186-0.199-0.334-0.297-0.479l0.015 0.024c-0.027-0.040-0.052-0.079-0.080-0.118-0.174-0.246-0.339-0.457-0.513-0.66l0.010 0.012c-0.222-0.296-0.457-0.558-0.713-0.798l-0.003-0.003c-0.003-0.185 0.245-0.611 0.8-1.11 0.085-0.076 0.47-0.385 1.194-0.522 0.171 0.026 0.342 0.053 0.52 0.053 0.24 0 0.474-0.025 0.7-0.071 0.164 0.017 0.321 0.017 0.491 0.049 1.608 0.312 2.197 1.341 2.201 1.957 0.009 1.651-0.971 2.625-3 2.981z"></path>
</svg>
