<!-- Generated by IcoMoon.io -->
<svg version="1.1" xmlns="http://www.w3.org/2000/svg" width="32" height="32" viewBox="0 0 32 32">
<title>shaixuan1</title>
<path d="M29.729 2.205c0-1.218-0.987-2.205-2.205-2.205-0 0-0.001 0-0.001 0h-24.993c-0 0-0.001 0-0.001 0-1.218 0-2.205 0.987-2.205 2.205v0c0 0.63 0.267 1.195 0.693 1.597l-0.010 0.009s3.981 4.127 6.662 6.742c0.511 0.503 1.038 1.004 1.575 1.494l0.044 0.040c0.155 0.139 0.428 0.411 0.502 0.614 0.058 0.158 0.097 0.545 0.090 0.731-0.068 2.202-0.025 6.439-0.007 7.928h1.477v-7.907s0.034-1.138-0.042-1.364c-0.129-0.379-0.881-0.964-1.089-1.158-0.898-0.853-1.729-1.665-2.55-2.487l-0.002-0.002c-2.535-2.52-5.622-5.67-5.622-5.67l0.003-0.008c-0.161-0.134-0.264-0.335-0.267-0.559v-0c0-0.412 0.335-0.747 0.747-0.747h24.993c0.412 0 0.747 0.335 0.747 0.747-0.002 0.225-0.104 0.425-0.264 0.558l-0.001 0.001 0.004 0.008s-6.249 6.442-8.315 8.312c-0.258 0.234-0.864 0.673-0.965 1.008-0.086 0.288-0.025 0.443-0.025 1.234 0.001 2.979 0.004 10.322 0.004 15.747v0.038h1.517c0.002-0.024 0.001-0.038 0.001-0.038s-0.052-11.562-0.052-15.524c0-0.216-0.010-0.646 0.073-0.845 0.079-0.191 0.367-0.46 0.514-0.607l8.287-8.286-0.010-0.009c0.427-0.4 0.693-0.968 0.693-1.597v-0z"></path>
</svg>
