<!-- Generated by IcoMoon.io -->
<svg version="1.1" xmlns="http://www.w3.org/2000/svg" width="32" height="32" viewBox="0 0 32 32">
<title>shehuituanti</title>
<path d="M24.707 15.747c0.455 0.228 0.683 0.615 0.683 1.161v5.19c0 0.341-0.102 0.637-0.307 0.888s-0.467 0.376-0.785 0.376h-16.765c-0.296 0-0.546-0.125-0.751-0.376s-0.307-0.546-0.307-0.888v-5.19c0-0.546 0.228-0.933 0.683-1.161l6.556-3.039c-0.865-0.524-1.525-1.275-1.98-2.254-0.409-0.798-0.649-1.741-0.649-2.74 0-0.009 0-0.018 0-0.027v0.001c0-0.296 0.023-0.58 0.068-0.854 0.116-0.698 0.305-1.322 0.563-1.909l-0.020 0.051c-0.054-0.088 0.521-1.044 1.352-1.795s1.793-1.127 2.885-1.127c1.115 0 2.094 0.387 2.936 1.161s1.411 1.753 1.707 2.936c0.114 0.569 0.171 1.081 0.171 1.537 0 0.911-0.182 1.787-0.546 2.629-0.455 1.024-1.115 1.798-1.98 2.322l1.946 0.922 4.541 2.185zM6.474 14.313c-0.501 0.228-0.893 0.575-1.178 1.041s-0.427 0.984-0.427 1.554v4.404h-3.517c-0.25 0-0.455-0.097-0.615-0.29s-0.239-0.438-0.239-0.734v-4.166c0-0.501 0.182-0.819 0.546-0.956l5.292-2.458c-0.637-0.387-1.15-0.939-1.537-1.656s-0.58-1.519-0.58-2.407c0-0.615 0.102-1.201 0.307-1.758s0.484-1.041 0.837-1.451c0.353-0.41 0.763-0.734 1.229-0.973s0.973-0.359 1.519-0.359c0.364 0 0.706 0.057 1.024 0.171s0.626 0.262 0.922 0.444c-0.367 0.876-0.58 1.893-0.58 2.96 0 0.004 0 0.007 0 0.011v-0.001c0 0.797 0.114 1.565 0.341 2.305s0.546 1.406 0.956 1.997c-0.25 0.273-0.512 0.489-0.785 0.649l-3.517 1.673zM30.921 15.167c0.364 0.182 0.546 0.501 0.546 0.956v4.166c0 0.296-0.080 0.541-0.239 0.734s-0.364 0.29-0.615 0.29h-3.619v-4.404c0-0.569-0.142-1.087-0.427-1.554s-0.666-0.814-1.144-1.041l-3.38-1.605c-0.358-0.215-0.662-0.476-0.918-0.78l-0.005-0.005c0.387-0.592 0.689-1.246 0.905-1.963s0.324-1.474 0.324-2.271c0-0.524-0.046-1.024-0.137-1.502s-0.228-0.945-0.41-1.4c0.296-0.205 0.615-0.37 0.956-0.495s0.694-0.188 1.059-0.188c0.546 0 1.058 0.12 1.536 0.359s0.894 0.563 1.246 0.973c0.353 0.41 0.632 0.893 0.836 1.451s0.307 1.144 0.307 1.758c0 0.865-0.194 1.656-0.58 2.373s-0.876 1.269-1.468 1.656l5.224 2.493z"></path>
</svg>
