<!-- Generated by IcoMoon.io -->
<svg version="1.1" xmlns="http://www.w3.org/2000/svg" width="32" height="32" viewBox="0 0 32 32">
<title>shezhi</title>
<path d="M30.192 11.226c-0.163-0.859-0.676-1.409-1.301-1.393h-0.13c-2.153-0.003-3.897-1.747-3.9-3.899v-0c0-0.709 0.337-1.485 0.339-1.491 0.332-0.747 0.077-1.665-0.594-2.133l-0.036-0.025-3.75-2.083-0.038-0.017c-0.21-0.092-0.456-0.146-0.713-0.146-0.004 0-0.008 0-0.012 0h0.001c-0.535 0-1.058 0.213-1.401 0.569-0.458 0.473-1.901 1.7-3.066 1.7-1.177 0-2.629-1.251-3.089-1.732-0.345-0.364-0.872-0.581-1.412-0.581-0.253 0-0.492 0.048-0.711 0.14l-0.046 0.013-3.883 2.133-0.038 0.027c-0.451 0.323-0.741 0.846-0.741 1.436 0 0.251 0.053 0.49 0.147 0.706l-0.004-0.011c0.004 0.008 0.339 0.786 0.339 1.493-0.003 2.153-1.747 3.897-3.9 3.9h-0.131c-0.627-0.015-1.14 0.537-1.301 1.393-0.013 0.069-0.314 1.677-0.314 2.942 0 1.267 0.301 2.873 0.314 2.94 0.161 0.847 0.661 1.395 1.278 1.395h0.153c2.153 0.003 3.897 1.747 3.9 3.899v0c0 0.709-0.337 1.485-0.339 1.491-0.332 0.747-0.077 1.665 0.592 2.133l0.036 0.025 3.679 2.058 0.038 0.017c0.222 0.098 0.464 0.148 0.722 0.148 0.54 0 1.067-0.222 1.409-0.594 0.431-0.47 1.934-1.807 3.135-1.807 1.211 0 2.689 1.33 3.156 1.842 0.343 0.378 0.874 0.604 1.418 0.604 0.253 0 0.491-0.048 0.709-0.142l0.040-0.017 3.814-2.108 0.038-0.027c0.671-0.468 0.927-1.386 0.596-2.131-0.004-0.008-0.339-0.786-0.339-1.493 0.003-2.153 1.747-3.897 3.899-3.9h0.131c0.627 0.013 1.14-0.537 1.301-1.393 0.013-0.067 0.314-1.675 0.314-2.94 0.002-1.265-0.299-2.873-0.31-2.94zM15.44 19.342c-2.865 0-5.195-2.33-5.195-5.195s2.33-5.195 5.195-5.195c2.868 0.003 5.192 2.327 5.195 5.195v0c-0.004 2.867-2.328 5.191-5.195 5.195h-0zM15.44 10.718c-1.893 0.002-3.426 1.536-3.428 3.428v0c0.002 1.893 1.536 3.426 3.428 3.428h0c1.893-0.002 3.426-1.536 3.428-3.428v-0c-0.004-1.892-1.536-3.425-3.428-3.428h-0zM15.44 10.718"></path>
</svg>
