<!-- Generated by IcoMoon.io -->
<svg version="1.1" xmlns="http://www.w3.org/2000/svg" width="32" height="32" viewBox="0 0 32 32">
<title>shezhi1</title>
<path d="M15.132 20.332c3.305 0 5.887-2.686 5.887-5.99s-2.686-5.99-5.887-5.99c-3.305 0-5.887 2.686-5.887 5.99s2.686 5.99 5.887 5.99zM15.132 18.68c-2.375 0-4.337-1.962-4.337-4.337s1.962-4.337 4.337-4.337c2.375 0 4.337 1.962 4.337 4.337s-1.962 4.337-4.337 4.337zM6.644 25.031c1.040 0.856 2.233 1.584 3.519 2.133l0.095 0.036c1.343-1.239 3.098-1.962 4.854-1.962 1.859 0 3.511 0.723 4.854 1.962 1.343-0.517 2.582-1.239 3.615-2.169-0.413-1.755-0.103-3.615 0.723-5.267 0.929-1.55 2.375-2.789 4.131-3.305 0.103-0.723 0.207-1.446 0.207-2.169s-0.103-1.446-0.207-2.169c-1.755-0.517-3.201-1.755-4.131-3.305s-1.136-3.511-0.723-5.267c-1.040-0.856-2.233-1.584-3.519-2.133l-0.095-0.036c-1.343 1.239-2.995 1.962-4.854 1.962-1.755 0-3.511-0.723-4.854-1.962-1.343 0.517-2.582 1.239-3.615 2.169 0.413 1.755 0.103 3.615-0.723 5.267-0.929 1.55-2.375 2.789-4.131 3.305-0.103 0.723-0.207 1.446-0.207 2.169s0.103 1.446 0.207 2.169c1.755 0.517 3.201 1.755 4.131 3.305 0.826 1.653 1.136 3.511 0.723 5.267M10.259 28.749c-1.755-0.619-3.408-1.55-4.854-2.891-0.207-0.207-0.31-0.517-0.207-0.723 0.179-0.513 0.282-1.105 0.282-1.721 0-1.045-0.297-2.020-0.812-2.846l0.013 0.023c-0.826-1.446-2.065-2.375-3.615-2.686-0.31-0.103-0.517-0.31-0.517-0.619-0.207-0.929-0.31-1.962-0.31-2.891s0.103-1.859 0.31-2.891c0.103-0.31 0.31-0.517 0.517-0.619 1.55-0.413 2.891-1.343 3.615-2.686 0.826-1.446 0.929-2.995 0.517-4.544-0.103-0.31 0-0.619 0.207-0.723 1.446-1.239 3.098-2.169 4.854-2.891 0.31-0.103 0.517 0 0.723 0.207 1.136 1.136 2.582 1.859 4.131 1.859s3.098-0.619 4.131-1.859c0.207-0.207 0.517-0.31 0.723-0.207 1.755 0.619 3.408 1.55 4.854 2.891 0.207 0.207 0.31 0.517 0.207 0.723-0.179 0.513-0.282 1.105-0.282 1.721 0 1.045 0.297 2.020 0.812 2.846l-0.013-0.023c0.826 1.446 2.065 2.375 3.615 2.686 0.31 0.103 0.517 0.31 0.517 0.619 0.207 0.929 0.31 1.962 0.31 2.891s-0.103 1.859-0.31 2.891c-0.103 0.31-0.31 0.517-0.517 0.619-1.549 0.413-2.891 1.343-3.615 2.686-0.826 1.446-0.929 2.995-0.517 4.544 0.103 0.31 0 0.619-0.207 0.723-1.446 1.239-3.098 2.169-4.854 2.891-0.31 0.103-0.517 0-0.723-0.207-1.136-1.136-2.582-1.859-4.131-1.859s-3.098 0.619-4.131 1.859c-0.136 0.125-0.317 0.203-0.516 0.207h-0.208z"></path>
</svg>
