<!-- Generated by IcoMoon.io -->
<svg version="1.1" xmlns="http://www.w3.org/2000/svg" width="32" height="32" viewBox="0 0 32 32">
<title>shiliangzhinengduixiang4copy1</title>
<path d="M0.92 4.881h30.16c0.558 0 1.007 0.449 1.007 1.006v20.267c0 0.558-0.449 1.007-1.007 1.007h-30.16c-0.558 0-1.006-0.449-1.006-1.007 0-0.159 0.034-0.31 0.105-0.44l2.005-5.154-2.034-4.982c-0.117-0.294-0.092-0.604 0.050-0.864l2.013-4.055-2.042-4.349c-0.235-0.503-0.021-1.099 0.482-1.333 0.138-0.063 0.285-0.092 0.423-0.092l0.004-0.004zM30.703 6.539h-28.878l1.625 3.465c0.154 0.29 0.171 0.645 0.018 0.962l-2.143 4.317 2.103 4.707 0.137 0.393c0.097 0.237-0.032 0.582-0.133 0.841l-1.73 4.435h28.996l0.004-19.12zM22.165 10.848c0.268 0 0.52 0.218 0.52 0.503v0.017c0 0.298-0.252 0.52-0.52 0.52h-6.995c-0.017 0.046-0.034 0.076-0.050 0.109-0.252 0.642-0.545 1.224-0.876 1.77h8.047c0.285 0 0.516 0.235 0.516 0.52v0.034c0 0.298-0.235 0.52-0.516 0.52h-2.399l2.835 1.845c0.109 0.075 0.184 0.184 0.218 0.327s0 0.268-0.063 0.394l-0.017 0.017c-0.159 0.252-0.47 0.31-0.721 0.159l-4.164-2.743h-4.458c-0.453 0.562-0.99 1.082-1.568 1.551-0.612 0.47-1.334 0.906-2.13 1.3-0.143 0.046-0.268 0.063-0.407 0-0.142-0.046-0.235-0.143-0.298-0.285l-0.017-0.034c-0.092-0.235 0.017-0.532 0.268-0.654 0.738-0.344 1.392-0.738 1.925-1.157 0.285-0.218 0.545-0.47 0.797-0.721h-2.441c-0.285 0-0.52-0.218-0.52-0.516v-0.034c0-0.285 0.235-0.52 0.52-0.52h3.338c0.377-0.579 0.721-1.208 1.015-1.879h-4.194c-0.285 0-0.52-0.218-0.52-0.516v-0.017c0-0.285 0.235-0.503 0.52-0.503h0.642v-1.359c0-0.285 0.218-0.52 0.503-0.52h0.034c0.298 0 0.52 0.235 0.52 0.52v1.359h2.91c0.184-0.52 0.361-1.099 0.516-1.69 0.092-0.285 0.377-0.436 0.642-0.361l0.050 0.017c0.285 0.076 0.436 0.361 0.361 0.642-0.143 0.487-0.298 0.956-0.436 1.392h4.965v-1.363c0-0.285 0.218-0.516 0.52-0.516h0.017c0.285 0 0.52 0.235 0.52 0.516v1.363h0.612l-0.021-0.008zM20.269 17.344c0.235 0 0.436 0.034 0.642 0.143 0.629 0.252 1.032 0.83 1.032 1.518v2.038c0 0.453-0.184 0.864-0.503 1.174-0.31 0.31-0.738 0.503-1.174 0.503h-1.971c-0.285 0-0.52-0.235-0.52-0.52v-0.034c0-0.268 0.235-0.52 0.52-0.52h1.971c0.172 0 0.31-0.046 0.436-0.172 0.126-0.109 0.172-0.268 0.172-0.436v-2.038c0-0.172-0.046-0.31-0.172-0.436-0.126-0.109-0.268-0.172-0.436-0.172h-6.479c-0.017 0.046-0.017 0.092-0.034 0.143-0.642 1.787-1.77 2.99-3.46 3.946-0.126 0.076-0.252 0.092-0.394 0.063-0.143-0.046-0.252-0.143-0.31-0.268l-0.017-0.034c-0.143-0.252-0.034-0.545 0.184-0.671 1.392-0.78 2.332-1.77 2.91-3.179h-1.661c-0.268 0-0.503-0.218-0.503-0.52v-0.034c0-0.268 0.235-0.503 0.503-0.503l9.264 0.008zM14.696 9.079l0.004-0.013M20.823 17.722l-0.008-0.004M9.827 22.779v0z"></path>
</svg>
