<!-- Generated by IcoMoon.io -->
<svg version="1.1" xmlns="http://www.w3.org/2000/svg" width="32" height="32" viewBox="0 0 32 32">
<title>shiliangzhinengduixiang4copy</title>
<path d="M1.862 8.201h28.275c0.523 0 0.944 0.421 0.944 0.944v19.001c0 0.523-0.421 0.944-0.944 0.944h-28.275c-0.523 0-0.944-0.421-0.944-0.944 0-0.149 0.031-0.291 0.098-0.413l1.879-4.832-1.907-4.671c-0.11-0.275-0.087-0.566 0.047-0.81l1.887-3.802-1.915-4.077c-0.22-0.472-0.020-1.030 0.452-1.25 0.13-0.059 0.267-0.086 0.397-0.086l0.004-0.004zM29.784 9.755h-27.073l1.523 3.248c0.144 0.272 0.16 0.605 0.017 0.902l-2.009 4.047 1.972 4.413 0.129 0.369c0.091 0.222-0.030 0.546-0.125 0.789l-1.622 4.158h27.184l0.004-17.925zM21.779 13.795c0.252 0 0.488 0.204 0.488 0.472v0.016c0 0.279-0.236 0.488-0.488 0.488h-6.558c-0.016 0.043-0.032 0.071-0.047 0.102-0.236 0.601-0.511 1.148-0.822 1.659h7.544c0.267 0 0.484 0.22 0.484 0.488v0.031c0 0.279-0.22 0.488-0.484 0.488h-2.249l2.658 1.73c0.102 0.071 0.173 0.173 0.204 0.307s0 0.252-0.059 0.369l-0.016 0.016c-0.149 0.236-0.44 0.291-0.676 0.149l-3.904-2.571h-4.179c-0.425 0.527-0.928 1.014-1.47 1.455-0.574 0.44-1.25 0.849-1.997 1.219-0.134 0.043-0.252 0.059-0.382 0-0.133-0.043-0.22-0.134-0.279-0.267l-0.016-0.031c-0.086-0.22 0.016-0.499 0.252-0.613 0.692-0.322 1.305-0.692 1.805-1.085 0.267-0.204 0.511-0.44 0.747-0.676h-2.288c-0.267 0-0.487-0.205-0.487-0.484v-0.032c0-0.267 0.22-0.487 0.487-0.487h3.13c0.354-0.543 0.676-1.132 0.951-1.761h-3.931c-0.267 0-0.488-0.204-0.488-0.484v-0.016c0-0.267 0.22-0.472 0.488-0.472h0.601v-1.274c0-0.267 0.205-0.488 0.472-0.488h0.032c0.279 0 0.487 0.22 0.487 0.488v1.274h2.729c0.173-0.487 0.338-1.030 0.484-1.584 0.086-0.267 0.354-0.409 0.601-0.338l0.047 0.016c0.267 0.071 0.409 0.338 0.338 0.601-0.134 0.456-0.279 0.896-0.409 1.305h4.655v-1.278c0-0.267 0.204-0.484 0.487-0.484h0.016c0.267 0 0.488 0.22 0.488 0.484v1.278h0.574l-0.020-0.008zM20.002 19.885c0.22 0 0.409 0.031 0.602 0.134 0.59 0.236 0.967 0.778 0.967 1.423v1.911c0 0.425-0.173 0.81-0.472 1.101-0.291 0.291-0.692 0.472-1.101 0.472h-1.848c-0.267 0-0.487-0.22-0.487-0.488v-0.031c0-0.252 0.22-0.488 0.487-0.488h1.848c0.161 0 0.291-0.043 0.409-0.161 0.118-0.102 0.161-0.252 0.161-0.409v-1.911c0-0.161-0.043-0.291-0.161-0.409-0.118-0.102-0.252-0.161-0.409-0.161h-6.074c-0.016 0.043-0.016 0.087-0.031 0.134-0.601 1.675-1.659 2.803-3.243 3.699-0.118 0.071-0.236 0.087-0.37 0.059-0.134-0.043-0.236-0.134-0.291-0.252l-0.016-0.032c-0.134-0.236-0.031-0.511 0.173-0.629 1.305-0.731 2.186-1.659 2.729-2.98h-1.557c-0.252 0-0.472-0.204-0.472-0.488v-0.031c0-0.252 0.22-0.472 0.472-0.472l8.685 0.008zM14.777 12.136l0.004-0.012M20.521 20.239l-0.008-0.004M10.213 24.98v0zM10.213 24.98"></path>
</svg>
