<!-- Generated by IcoMoon.io -->
<svg version="1.1" xmlns="http://www.w3.org/2000/svg" width="32" height="32" viewBox="0 0 32 32">
<title>shouji</title>
<path d="M24.096 0h-16.192c-1.197 0-2.112 0.915-2.112 2.112v24.639c0 1.197 0.915 2.112 2.112 2.112h16.192c1.197 0 2.112-0.915 2.112-2.112v-24.639c0-1.197-0.915-2.112-2.112-2.112zM7.904 1.408h16.192c0.423 0 0.704 0.281 0.704 0.704v18.304h-17.6v-18.304c0-0.423 0.281-0.704 0.704-0.704zM24.096 27.455h-16.192c-0.423 0-0.704-0.281-0.704-0.704v-4.928h17.6v4.928c0 0.423-0.281 0.704-0.704 0.704zM14.592 24.639c0 0.778 0.63 1.408 1.408 1.408s1.408-0.63 1.408-1.408v0c0-0.778-0.63-1.408-1.408-1.408s-1.408 0.63-1.408 1.408v0z"></path>
</svg>
