<!-- Generated by IcoMoon.io -->
<svg version="1.1" xmlns="http://www.w3.org/2000/svg" width="32" height="32" viewBox="0 0 32 32">
<title>shoucang1</title>
<path d="M14.467 25.854l-5.82 3.229c-1.057 0.642-2.393 0.303-3.177-0.616-0.51-0.596-0.695-1.386-0.566-2.156l1.132-6.774c0.006-0.046 0.010-0.1 0.010-0.155 0-0.323-0.127-0.616-0.333-0.833l0 0-4.703-4.753c-0.487-0.487-0.788-1.16-0.788-1.903 0-0.299 0.049-0.586 0.139-0.855l-0.006 0.019c0.306-0.955 1.073-1.659 2.071-1.827l6.501-0.997c0.336-0.053 0.665-0.277 0.813-0.586l2.903-6.175c0.422-0.899 1.297-1.475 2.295-1.475s1.873 0.576 2.295 1.475l2.9 6.172c0.168 0.322 0.454 0.537 0.813 0.592l6.497 0.994c0.981 0.17 1.765 0.864 2.062 1.778l0.005 0.019c0.086 0.253 0.135 0.545 0.135 0.848 0 0.734-0.29 1.401-0.761 1.892l0.001-0.001-4.677 4.786c-0.27 0.256-0.369 0.618-0.319 0.978l1.102 6.751c0.125 0.767-0.056 1.554-0.563 2.15-0.754 0.994-2.037 1.261-3.117 0.655l-5.865-3.212c-0.283-0.177-0.682-0.141-0.978-0.020z"></path>
</svg>
