<!-- Generated by IcoMoon.io -->
<svg version="1.1" xmlns="http://www.w3.org/2000/svg" width="32" height="32" viewBox="0 0 32 32">
<title>sousuo</title>
<path d="M22.172 20.58c1.954-2.169 3.149-5.055 3.149-8.22 0-0.006 0-0.012 0-0.018v0.001c0-6.816-5.526-12.343-12.343-12.343s-12.343 5.527-12.343 12.343c0 6.818 5.526 12.345 12.343 12.345 0.005 0 0.011 0 0.017 0 3.102 0 5.935-1.148 8.098-3.043l-0.014 0.012 7.506 7.506 1.085-1.085-7.499-7.499zM12.976 23.161c-5.964 0-10.817-4.854-10.817-10.818 0-5.962 4.852-10.818 10.817-10.818s10.817 4.855 10.817 10.818c0 5.964-4.852 10.818-10.817 10.818z"></path>
</svg>
