<!-- Generated by IcoMoon.io -->
<svg version="1.1" xmlns="http://www.w3.org/2000/svg" width="32" height="32" viewBox="0 0 32 32">
<title>tableshare</title>
<path d="M23.071 12.46c-1.535-0.003-2.938-0.569-4.013-1.502l0.008 0.006 0.008 0.007-6.853 4.569c0.265 0.573 0.427 1.242 0.444 1.947l0 0.006v0.007l9.858 4.224c0.704-0.595 1.622-0.957 2.624-0.957h0.001c2.294 0 4.154 1.86 4.154 4.154s-1.86 4.154-4.154 4.154c-2.294 0-4.154-1.86-4.154-4.154v0c0.005-0.24 0.028-0.472 0.070-0.697l-0.004 0.026-9.655-3.219c-0.958 1.114-2.369 1.815-3.943 1.815-2.867 0-5.192-2.324-5.192-5.192s2.324-5.192 5.192-5.192c0.996 0 1.926 0.28 2.716 0.766l-0.023-0.013-0.023-0.013 6.841-5.699c-0.085-0.377-0.133-0.81-0.133-1.254 0-0.005 0-0.011 0-0.016v0.001-0.004c0-3.441 2.789-6.23 6.23-6.23s6.23 2.789 6.23 6.23c0 3.441-2.789 6.23-6.23 6.23v0z"></path>
</svg>
