<!-- Generated by IcoMoon.io -->
<svg version="1.1" xmlns="http://www.w3.org/2000/svg" width="32" height="32" viewBox="0 0 32 32">
<title>templatedefault</title>
<path d="M13.583 28.131h-8.905c-1.409 0-2.562-1.192-2.562-2.674v-24.738l-0.721 0.721h21.238c1.41 0 2.567 1.197 2.567 2.68v10.033c0 0 0 0 0 0 0 0.398 0.323 0.721 0.721 0.721s0.721-0.323 0.721-0.721c0-0 0-0 0-0v0-10.033c0-2.268-1.79-4.123-4.009-4.123h-21.959v25.458c0 2.267 1.787 4.116 4.005 4.116h8.905c0.398 0 0.721-0.323 0.721-0.721s-0.323-0.721-0.721-0.721v0zM5.751 10.819h16.494c0.398 0 0.721-0.323 0.721-0.721s-0.323-0.721-0.721-0.721h-16.494c-0.398 0-0.721 0.323-0.721 0.721s0.323 0.721 0.721 0.721v0zM5.832 6.491h16.494c0 0 0 0 0 0 0.398 0 0.721-0.323 0.721-0.721s-0.323-0.721-0.721-0.721c-0 0-0 0-0 0h-16.494c-0 0-0 0-0 0-0.398 0-0.721 0.323-0.721 0.721s0.323 0.721 0.721 0.721c0 0 0 0 0 0v0zM22.313 29.574c3.984 0 7.213-3.229 7.213-7.213s-3.229-7.213-7.213-7.213-7.213 3.229-7.213 7.213 3.229 7.213 7.213 7.213zM22.313 28.131c-3.187-0-5.771-2.584-5.771-5.772s2.584-5.772 5.772-5.772c0 0 0 0 0 0h-0c3.187 0 5.771 2.584 5.771 5.772s-2.584 5.772-5.772 5.772c-0 0-0 0-0 0h0zM18.197 22.871l2.041 2.041c0.564 0.564 1.475 0.565 2.041-0.001l4.178-4.178c0.131-0.131 0.211-0.311 0.211-0.51 0-0.398-0.323-0.721-0.721-0.721-0.199 0-0.38 0.081-0.51 0.211l-4.178 4.178c-0.002 0.002 0.001 0.002-0.001 0.001l-2.041-2.041c-0.131-0.131-0.311-0.211-0.51-0.211-0.398 0-0.721 0.323-0.721 0.721 0 0.199 0.081 0.38 0.211 0.51v0z"></path>
</svg>
