<!-- Generated by IcoMoon.io -->
<svg version="1.1" xmlns="http://www.w3.org/2000/svg" width="32" height="32" viewBox="0 0 32 32">
<title>tuandui</title>
<path d="M19.181 0c-4.263 0-7.732 3.469-7.732 7.733 0.003 2.935 1.639 5.487 4.048 6.796l0.041 0.020c-5.061 1.559-8.75 6.28-8.75 11.847 0 0.408 0.331 0.738 0.738 0.738s0.738-0.331 0.738-0.738v0c0-6.020 4.898-10.917 10.864-10.921 0.021 0.002 0.046 0.003 0.071 0.003 0.059 0 0.117-0.007 0.172-0.020l-0.005 0.001c4.179-0.098 7.549-3.525 7.549-7.727 0-4.264-3.469-7.733-7.732-7.733zM19.181 13.987c-3.453-0.003-6.251-2.801-6.256-6.253v-0c0-3.451 2.805-6.256 6.256-6.256s6.255 2.805 6.255 6.256c-0.004 3.453-2.802 6.251-6.255 6.254h-0zM27.957 17.646c-0.131-0.12-0.306-0.193-0.499-0.193-0.408 0-0.739 0.331-0.739 0.739 0 0.191 0.073 0.366 0.192 0.497l-0.001-0.001c1.969 1.964 3.187 4.679 3.187 7.679 0 0.010 0 0.020-0 0.030v-0.002c0 0.408 0.331 0.738 0.738 0.738s0.738-0.331 0.738-0.738v0c0-0.011 0-0.024 0-0.037 0-3.404-1.383-6.485-3.617-8.713l-0-0zM11.371 14.176v-0.005c0-0 0-0.001 0-0.001 0-0.407-0.33-0.737-0.737-0.737-0 0-0.001 0-0.001 0h0c-2.678 0-4.858-2.328-4.858-5.19s2.178-5.19 4.858-5.19c0.408 0 0.738-0.331 0.738-0.738s-0.331-0.738-0.738-0.738v0c-3.492 0-6.333 2.99-6.333 6.666 0 2.447 1.26 4.59 3.133 5.748-3.984 1.414-6.863 5.389-6.863 10.064 0 0.408 0.331 0.738 0.738 0.738s0.738-0.331 0.738-0.738v0c0-5.041 3.852-9.14 8.588-9.14 0.407-0.002 0.737-0.333 0.737-0.74v-0zM11.371 14.176"></path>
</svg>
