<!-- Generated by IcoMoon.io -->
<svg version="1.1" xmlns="http://www.w3.org/2000/svg" width="32" height="32" viewBox="0 0 32 32">
<title>tubiao_xiangji</title>
<path d="M24.5 11.5c0 0.635 0.515 1.15 1.15 1.15s1.15-0.515 1.15-1.15v0c0-0.635-0.515-1.15-1.15-1.15s-1.15 0.515-1.15 1.15v0zM9.35 17.15c0 3.75 3.050 6.85 6.85 6.85s6.8-3.050 6.8-6.85-3.050-6.85-6.85-6.85-6.8 3.1-6.8 6.85zM16.2 11.85c2.95 0 5.3 2.4 5.3 5.3s-2.4 5.35-5.3 5.35-5.3-2.4-5.3-5.3 2.35-5.35 5.3-5.35zM9.35 5h4.55c0.4 0 0.75-0.35 0.75-0.75s-0.35-0.75-0.75-0.75h-4.55c-0.4 0-0.75 0.35-0.75 0.75 0 0.45 0.35 0.75 0.75 0.75zM27.55 5.8h-12.15c-0.4 0-0.75 0.35-0.75 0.75s0.35 0.75 0.75 0.75h12.15c1.25 0 2.3 1 2.3 2.3v15.2c0 1.25-1 2.3-2.3 2.3h-22.75c-1.25 0-2.3-1-2.3-2.3v-15.2c0-1.25 1-2.3 2.3-2.3h3.050c0.4 0 0.75-0.35 0.75-0.75s-0.35-0.75-0.75-0.75h-3.050c-2.1 0-3.8 1.7-3.8 3.8v15.2c0 2.1 1.7 3.8 3.8 3.8h22.75c2.1 0 3.8-1.7 3.8-3.8v-15.2c0-2.1-1.7-3.8-3.8-3.8z"></path>
</svg>
