<!-- Generated by IcoMoon.io -->
<svg version="1.1" xmlns="http://www.w3.org/2000/svg" width="32" height="32" viewBox="0 0 32 32">
<title>viewlist</title>
<path d="M4.58 1.561h6.273c0.001 0 0.003 0 0.004 0 1.294 0 2.343 1.049 2.343 2.343 0 0.001 0 0.003 0 0.004v-0 7.013c0 1.296-1.051 2.347-2.347 2.347v0h-6.273c-0.001 0-0.003 0-0.004 0-1.294 0-2.343-1.049-2.343-2.343 0-0.001 0-0.003 0-0.004v0-7.013c0-1.296 1.051-2.347 2.347-2.347v0zM0.667 10.921c0 0 0 0.001 0 0.001 0 2.158 1.749 3.907 3.907 3.907 0.002 0 0.005 0 0.007 0h6.273c0.001 0 0.002 0 0.003 0 2.159 0 3.909-1.749 3.911-3.908v-7.013c0-0 0-0.001 0-0.001 0-2.158-1.749-3.907-3.907-3.907-0.002 0-0.005 0-0.007 0h-6.273c-0.001 0-0.002 0-0.003 0-2.159 0-3.909 1.749-3.911 3.908v7.013zM4.58 18.732h6.273c0.001 0 0.003 0 0.004 0 1.294 0 2.343 1.049 2.343 2.343 0 0.001 0 0.003 0 0.004v-0 7.013c0 1.296-1.051 2.347-2.347 2.347v0h-6.273c-0.001 0-0.003 0-0.004 0-1.294 0-2.343-1.049-2.343-2.343 0-0.001 0-0.003 0-0.004v0-7.013c0-1.296 1.051-2.347 2.347-2.347v0zM0.667 28.092c0 0 0 0.001 0 0.001 0 2.158 1.749 3.907 3.907 3.907 0.002 0 0.005 0 0.007 0h6.273c0.001 0 0.002 0 0.003 0 2.159 0 3.909-1.749 3.911-3.908v-7.013c0-0 0-0.001 0-0.001 0-2.158-1.749-3.907-3.907-3.907-0.002 0-0.005 0-0.007 0h-6.273c-0.001 0-0.002 0-0.003 0-2.159 0-3.909 1.749-3.911 3.908v7.013zM31.217 4.683c0.012 0.001 0.026 0.001 0.040 0.001 0.431 0 0.781-0.35 0.781-0.781s-0.35-0.781-0.781-0.781c-0.014 0-0.028 0-0.041 0.001l0.002-0h-13.317c-0.012-0.001-0.026-0.001-0.040-0.001-0.431 0-0.781 0.35-0.781 0.781s0.35 0.781 0.781 0.781c0.014 0 0.028-0 0.041-0.001l-0.002 0h13.317zM31.217 8.585c0.012 0.001 0.026 0.001 0.040 0.001 0.431 0 0.781-0.35 0.781-0.781s-0.35-0.781-0.781-0.781c-0.014 0-0.028 0-0.041 0.001l0.002-0h-13.317c-0.012-0.001-0.026-0.001-0.040-0.001-0.431 0-0.781 0.35-0.781 0.781s0.35 0.781 0.781 0.781c0.014 0 0.028-0 0.041-0.001l-0.002 0h13.317zM31.217 12.488c0.012 0.001 0.026 0.001 0.040 0.001 0.431 0 0.781-0.35 0.781-0.781s-0.35-0.781-0.781-0.781c-0.014 0-0.028 0-0.041 0.001l0.002-0h-13.317c-0.012-0.001-0.026-0.001-0.040-0.001-0.431 0-0.781 0.35-0.781 0.781s0.35 0.781 0.781 0.781c0.014 0 0.028-0 0.041-0.001l-0.002 0h13.317zM31.217 21.073c0.012 0.001 0.026 0.001 0.040 0.001 0.431 0 0.781-0.35 0.781-0.781s-0.35-0.781-0.781-0.781c-0.014 0-0.028 0-0.041 0.001l0.002-0h-13.317c-0.012-0.001-0.026-0.001-0.040-0.001-0.431 0-0.781 0.35-0.781 0.781s0.35 0.781 0.781 0.781c0.014 0 0.028-0 0.041-0.001l-0.002 0h13.317zM31.217 24.976c0.012 0.001 0.026 0.001 0.040 0.001 0.431 0 0.781-0.35 0.781-0.781s-0.35-0.781-0.781-0.781c-0.014 0-0.028 0-0.041 0.001l0.002-0h-13.317c-0.012-0.001-0.026-0.001-0.040-0.001-0.431 0-0.781 0.35-0.781 0.781s0.35 0.781 0.781 0.781c0.014 0 0.028-0 0.041-0.001l-0.002 0h13.317zM31.217 28.878c0.012 0.001 0.026 0.001 0.040 0.001 0.431 0 0.781-0.35 0.781-0.781s-0.35-0.781-0.781-0.781c-0.014 0-0.028 0-0.041 0.001l0.002-0h-13.317c-0.012-0.001-0.026-0.001-0.040-0.001-0.431 0-0.781 0.35-0.781 0.781s0.35 0.781 0.781 0.781c0.014 0 0.028-0 0.041-0.001l-0.002 0h13.317z"></path>
</svg>
