<!-- Generated by IcoMoon.io -->
<svg version="1.1" xmlns="http://www.w3.org/2000/svg" width="32" height="32" viewBox="0 0 32 32">
<title>xihuan</title>
<path d="M15.213 0c-8.022 0-14.525 6.503-14.525 14.525s6.503 14.525 14.525 14.525 14.525-6.503 14.525-14.525-6.503-14.525-14.525-14.525zM15.213 28.101c-7.499 0-13.577-6.079-13.577-13.577s6.079-13.577 13.577-13.577c7.498 0 13.577 6.079 13.577 13.577s-6.079 13.577-13.577 13.577zM19.247 8.069c-1.681 0-3.034 0.867-4.051 1.993-0.986-1.165-2.338-1.993-4.019-1.993-0.013-0-0.029-0-0.044-0-2.197 0-3.98 1.776-3.991 3.97v0.001c0 1.111 0.488 1.912 1.022 2.664l6.27 7.016c0.704 0.615 0.837 0.615 1.54 0l6.285-7.016c0.629-0.752 1.022-1.552 1.022-2.664-0.011-2.196-1.793-3.971-3.991-3.971-0.015 0-0.031 0-0.046 0l0.002-0z"></path>
</svg>
