<!-- Generated by IcoMoon.io -->
<svg version="1.1" xmlns="http://www.w3.org/2000/svg" width="32" height="32" viewBox="0 0 32 32">
<title>youhuiquan-</title>
<path d="M29.306 12.903c0.762-0.506 0.781-0.891 0.781-1.559v-4.688c0-1.297-1.050-2.344-2.344-2.344h-23.438c-1.297 0-2.344 1.050-2.344 2.344v4.684c0 0.697 0.047 1.166 0.781 1.559 1.069 0.497 2.344 1.5 2.344 3.125 0 2.106-1.322 2.797-2.294 3.122-0.684 0.434-0.825 1.134-0.825 1.566v4.684c0 1.297 1.050 2.344 2.344 2.344h23.438c1.297 0 2.344-1.050 2.344-2.344v-4.684c0-0.853-0.197-1.122-0.781-1.559-1.706-0.881-2.344-1.666-2.344-3.125-0.003-1.463 0.594-2.191 2.337-3.125zM28.525 20.425v4.194c0 0.863-0.697 1.559-1.559 1.559h-21.875c-0.862 0-1.559-0.697-1.559-1.559v-4.194c1.816-0.647 3.125-2.363 3.125-4.4s-1.306-3.756-3.125-4.4v-4.191c0-0.862 0.697-1.559 1.559-1.559h21.875c0.863 0 1.559 0.697 1.559 1.559v4.194c-1.816 0.644-3.125 2.363-3.125 4.4 0 2.034 1.309 3.753 3.125 4.397zM20.322 14.466h-2.947l3.203-3.441c0.137-0.153 0.137-0.397 0-0.547l-0.503-0.547c-0.137-0.153-0.359-0.153-0.503 0l-3.553 3.813-3.547-3.813c-0.137-0.15-0.359-0.15-0.497 0l-0.5 0.547c-0.137 0.15-0.137 0.394 0 0.547l3.213 3.444h-2.956c-0.216 0-0.394 0.178-0.394 0.394v0.781c0 0.216 0.178 0.394 0.394 0.394h3.519v1.563h-3.519c-0.216 0-0.394 0.178-0.394 0.394v0.781c0 0.216 0.178 0.394 0.394 0.394h3.519v2.738c0 0.216 0.178 0.394 0.394 0.394h0.781c0.216 0 0.394-0.178 0.394-0.394v-2.747h3.519c0.216 0 0.394-0.178 0.394-0.394v-0.781c0-0.216-0.178-0.394-0.394-0.394h-3.525v-1.559h3.519c0.216 0 0.394-0.178 0.394-0.394v-0.787c-0.009-0.209-0.184-0.384-0.403-0.384z"></path>
</svg>
