<!-- Generated by IcoMoon.io -->
<svg version="1.1" xmlns="http://www.w3.org/2000/svg" width="32" height="32" viewBox="0 0 32 32">
<title>youhuiquan4</title>
<path d="M29.472 27.088h-26.8c-0.352 0-0.64-0.288-0.64-0.64v-5.968c0-0.352 0.288-0.64 0.64-0.64s0.64 0.288 0.64 0.64v5.328h25.52v-5.536c0-0.352 0.288-0.64 0.64-0.64s0.64 0.288 0.64 0.64v6.176c0 0.352-0.288 0.64-0.64 0.64zM2.672 12.624c-0.352 0-0.64-0.288-0.64-0.64v-5.968c0-0.352 0.288-0.64 0.64-0.64h26.8c0.352 0 0.64 0.288 0.64 0.64v5.856c0 0.352-0.288 0.64-0.64 0.64s-0.64-0.288-0.64-0.64v-5.216h-25.52v5.328c0 0.352-0.288 0.64-0.64 0.64zM15.728 15.168c-0.176 0-0.336-0.064-0.464-0.192l-4.032-4.208c-0.24-0.256-0.24-0.656 0.016-0.912 0.256-0.24 0.656-0.24 0.912 0.016l3.6 3.76 4.256-3.792c0.256-0.24 0.672-0.208 0.896 0.048 0.24 0.256 0.208 0.672-0.048 0.896l-4.704 4.224c-0.128 0.112-0.288 0.16-0.432 0.16zM21.28 15.392h-10.416c-0.352 0-0.64-0.288-0.64-0.64s0.288-0.64 0.64-0.64h10.416c0.352 0 0.64 0.288 0.64 0.64s-0.288 0.64-0.64 0.64zM20.368 19.040h-8.592c-0.352 0-0.64-0.288-0.64-0.64s0.288-0.64 0.64-0.64h8.592c0.352 0 0.64 0.288 0.64 0.64s-0.288 0.64-0.64 0.64zM15.76 22.768c-0.352 0-0.64-0.288-0.64-0.64v-7.6c0-0.352 0.288-0.64 0.64-0.64s0.64 0.288 0.64 0.64v7.6c0 0.352-0.288 0.64-0.64 0.64zM2.672 20.88c-0.352 0-0.64-0.288-0.64-0.64s0.288-0.64 0.64-0.64c1.856 0 3.376-1.52 3.376-3.376s-1.52-3.376-3.376-3.376c-0.352 0-0.64-0.288-0.64-0.64s0.288-0.64 0.64-0.64c2.56 0 4.656 2.096 4.656 4.656s-2.096 4.656-4.656 4.656zM29.472 20.896c-2.56 0-4.656-2.096-4.656-4.656s2.096-4.656 4.656-4.656c0.352 0 0.64 0.288 0.64 0.64s-0.288 0.64-0.64 0.64c-1.856 0-3.376 1.52-3.376 3.376s1.52 3.376 3.376 3.376c0.352 0 0.64 0.288 0.64 0.64s-0.288 0.64-0.64 0.64z"></path>
</svg>
