<!-- Generated by IcoMoon.io -->
<svg version="1.1" xmlns="http://www.w3.org/2000/svg" width="32" height="32" viewBox="0 0 32 32">
<title>youhuiquan2</title>
<path d="M30.020 20.285c0.274 0.13 0.46 0.404 0.46 0.721 0 0 0 0.001 0 0.002v-0 5.473h-27.36c-0.884 0-1.6-0.716-1.6-1.6v0-3.873c0-0.31 0.179-0.593 0.459-0.723 1.617-0.75 2.741-2.389 2.741-4.285s-1.124-3.535-2.741-4.285c-0.274-0.13-0.459-0.404-0.459-0.722 0-0 0-0.001 0-0.001v0-5.473h27.36c0.884 0 1.6 0.716 1.6 1.6v0 3.873c0 0.31-0.179 0.593-0.46 0.723-1.617 0.75-2.74 2.389-2.74 4.285s1.124 3.535 2.74 4.285M30.921 12.986c0.637-0.228 1.079-0.811 1.079-1.487v-4.299c0-1.767-1.433-3.2-3.2-3.2h-28.8v7.499c0 0.677 0.442 1.259 1.079 1.488 1.236 0.443 2.121 1.624 2.121 3.013s-0.885 2.571-2.121 3.013c-0.637 0.229-1.079 0.811-1.079 1.488v4.299c0 1.767 1.433 3.2 3.2 3.2h28.8v-7.499c0-0.677-0.442-1.26-1.079-1.488-1.237-0.443-2.121-1.625-2.121-3.013s0.884-2.571 2.121-3.013M20.8 15.023c0.42 0 0.76-0.34 0.76-0.76s-0.34-0.76-0.76-0.76h-2.965l3.229-3.228c0.137-0.137 0.221-0.327 0.221-0.536 0-0.42-0.34-0.76-0.76-0.76-0.209 0-0.399 0.085-0.536 0.222l-3.988 3.987-3.988-3.987c-0.137-0.137-0.327-0.221-0.536-0.221-0.42 0-0.76 0.34-0.76 0.76 0 0.209 0.085 0.399 0.222 0.536l3.228 3.228h-2.965c-0.42 0-0.76 0.34-0.76 0.76s0.34 0.76 0.76 0.76h4.040v2.175h-4.040c-0.42 0-0.76 0.34-0.76 0.76s0.34 0.76 0.76 0.76h4.040v3.545c0 0.42 0.34 0.76 0.76 0.76s0.76-0.34 0.76-0.76v-3.546h4.040c0.42 0 0.76-0.34 0.76-0.76s-0.34-0.76-0.76-0.76h-4.040v-2.175h4.040z"></path>
</svg>
