<!-- Generated by IcoMoon.io -->
<svg version="1.1" xmlns="http://www.w3.org/2000/svg" width="32" height="32" viewBox="0 0 32 32">
<title>youhuiquan3</title>
<path d="M19.809 17.007h-7.62c-0.372 0-0.674-0.302-0.674-0.674s0.301-0.674 0.674-0.674h7.62c0.372 0 0.674 0.302 0.674 0.674s-0.301 0.674-0.674 0.674zM19.809 19.874h-7.62c-0.372 0-0.674-0.302-0.674-0.674s0.301-0.674 0.674-0.674h7.62c0.372 0 0.674 0.302 0.674 0.674s-0.301 0.674-0.674 0.674zM16 23.299c-0.372 0-0.674-0.302-0.674-0.674v-6.293c0-0.372 0.301-0.674 0.674-0.674s0.674 0.302 0.674 0.674v6.293c0 0.372-0.301 0.674-0.674 0.674zM16 17.55l-4.207-6.334c-0.206-0.31-0.122-0.728 0.188-0.934s0.728-0.122 0.934 0.188l3.085 4.644 3.085-4.644c0.206-0.31 0.623-0.394 0.934-0.188 0.31 0.206 0.394 0.624 0.188 0.934l-4.207 6.334zM28.261 28.683h-10.291c-0.372 0-0.691-0.302-0.691-0.674s0.284-0.674 0.656-0.674h10.325c0.25 0 0.454-0.204 0.454-0.454v-6.066c-2.38-0.33-4.22-2.378-4.22-4.847s1.839-4.517 4.22-4.847v-5.357c0-0.25-0.204-0.454-0.454-0.454h-24.522c-0.25 0-0.454 0.204-0.454 0.454v5.357c2.381 0.33 4.22 2.378 4.22 4.847s-1.839 4.517-4.22 4.847v6.066c0 0.25 0.204 0.454 0.454 0.454h10.269c0.372 0 0.695 0.302 0.695 0.674s-0.28 0.674-0.653 0.674h-10.312c-0.993 0-1.801-0.808-1.801-1.801v-7.368h0.674c1.955 0 3.546-1.59 3.546-3.546s-1.591-3.546-3.546-3.546h-0.674v-6.659c0-0.993 0.808-1.801 1.801-1.801h24.522c0.993 0 1.801 0.808 1.801 1.801v6.659h-0.674c-1.955 0-3.546 1.59-3.546 3.546s1.591 3.546 3.546 3.546h0.674v7.368c0 0.993-0.808 1.801-1.801 1.801z"></path>
</svg>
