<!-- Generated by IcoMoon.io -->
<svg version="1.1" xmlns="http://www.w3.org/2000/svg" width="32" height="32" viewBox="0 0 32 32">
<title>youhuiquan5</title>
<path d="M21.386 16.916h-1.814v-1.008h1.814c0.442 0 0.799-0.358 0.799-0.799s-0.358-0.799-0.799-0.799h-1.814v-0.555l1.88-1.935c0.308-0.317 0.3-0.823-0.016-1.13s-0.823-0.3-1.131 0.016l-1.522 1.567-1.522-1.567c-0.308-0.317-0.814-0.324-1.131-0.016s-0.324 0.814-0.016 1.131l1.859 1.913v0.578h-1.814c-0.442 0-0.799 0.358-0.799 0.8s0.358 0.799 0.799 0.799h1.814v1.008h-1.814c-0.442 0-0.799 0.358-0.799 0.799s0.358 0.799 0.799 0.799h1.814v1.429c0 0.442 0.358 0.799 0.799 0.799s0.799-0.358 0.799-0.799v-1.429h1.814c0.442 0 0.799-0.358 0.799-0.799s-0.358-0.799-0.799-0.799zM10.637 14.934c-0.441 0-0.799-0.358-0.799-0.799v-2.083c0-0.441 0.358-0.799 0.799-0.799s0.799 0.358 0.799 0.799v2.083c0 0.442-0.358 0.799-0.799 0.799zM10.637 20.699c-0.441 0-0.799-0.358-0.799-0.799v-2.083c0-0.442 0.358-0.799 0.799-0.799s0.799 0.358 0.799 0.799v2.083c0 0.442-0.358 0.799-0.799 0.799zM29.448 12.44c0.334-0.101 0.574-0.406 0.574-0.767 0 0 0-0 0-0v0-3.144c0-2.112-1.655-3.829-3.689-3.829h-20.666c-2.034 0-3.689 1.718-3.689 3.829v3.145c0 0 0 0 0 0 0 0.361 0.239 0.666 0.568 0.765l0.006 0.001c0.638 0.188 1.18 0.584 1.569 1.146 0.4 0.578 0.612 1.291 0.612 2.061s-0.212 1.483-0.612 2.061c-0.389 0.562-0.931 0.958-1.569 1.146-0.334 0.101-0.574 0.406-0.574 0.767v0 3.145c0 2.112 1.655 3.829 3.689 3.829h20.666c2.034 0 3.689-1.718 3.689-3.829v-3.144c0 0 0 0 0-0 0-0.361-0.239-0.666-0.568-0.765l-0.006-0.001c-0.638-0.188-1.18-0.584-1.569-1.146-0.4-0.578-0.612-1.291-0.612-2.061s0.211-1.483 0.612-2.061c0.389-0.562 0.932-0.958 1.569-1.146zM26.564 18.617c0.48 0.694 1.115 1.224 1.859 1.558v2.589c0 1.23-0.938 2.231-2.090 2.231h-14.988c0.058-0.108 0.092-0.235 0.092-0.371 0-0 0-0.001 0-0.001v0-1.042c0-0.442-0.358-0.799-0.799-0.799s-0.799 0.358-0.799 0.799v1.042c0 0.134 0.033 0.261 0.092 0.372h-4.263c-1.153 0-2.090-1.001-2.090-2.231v-2.589c0.744-0.334 1.379-0.864 1.859-1.558 0.586-0.847 0.896-1.874 0.896-2.971s-0.31-2.124-0.896-2.971c-0.48-0.694-1.115-1.224-1.859-1.558v-2.589c0-1.23 0.938-2.231 2.090-2.231h4.171v2.071c0 0.442 0.358 0.799 0.799 0.799s0.799-0.358 0.799-0.799v-2.071h14.896c1.153 0 2.090 1.001 2.090 2.231v2.589c-0.744 0.334-1.379 0.865-1.859 1.558-0.586 0.847-0.896 1.874-0.896 2.971s0.31 2.124 0.896 2.971z"></path>
</svg>
