<!-- Generated by IcoMoon.io -->
<svg version="1.1" xmlns="http://www.w3.org/2000/svg" width="32" height="32" viewBox="0 0 32 32">
<title>youhuiquan6</title>
<path d="M22.144 17.45h-2.069v-1.15h2.069c0.506 0 0.913-0.406 0.913-0.912s-0.406-0.912-0.913-0.912h-2.069v-0.631l2.144-2.213c0.16-0.165 0.258-0.39 0.258-0.637 0-0.257-0.106-0.49-0.277-0.656l-0-0c-0.164-0.159-0.388-0.258-0.635-0.258-0.256 0-0.488 0.106-0.653 0.276l-0 0-1.738 1.787-1.738-1.787c-0.166-0.171-0.397-0.277-0.653-0.277-0.247 0-0.471 0.098-0.635 0.258l0-0c-0.171 0.167-0.277 0.399-0.277 0.657 0 0.248 0.098 0.473 0.258 0.638l-0-0 2.119 2.181v0.662h-2.069c-0.506 0-0.912 0.406-0.912 0.912s0.406 0.912 0.912 0.912h2.069v1.15h-2.069c-0.506 0-0.912 0.406-0.912 0.913s0.406 0.913 0.912 0.913h2.069v1.631c0 0.506 0.406 0.913 0.913 0.913s0.913-0.406 0.913-0.913v-1.631h2.069c0.506 0 0.913-0.406 0.913-0.913s-0.406-0.913-0.913-0.913zM9.881 15.188c-0.001 0-0.001 0-0.002 0-0.503 0-0.91-0.407-0.91-0.91 0-0.001 0-0.001 0-0.002v0-2.381c0-0.506 0.406-0.912 0.912-0.912s0.912 0.406 0.912 0.912v2.381c0 0.5-0.406 0.912-0.912 0.912zM9.881 21.769c-0.001 0-0.001 0-0.002 0-0.503 0-0.91-0.407-0.91-0.91 0-0.001 0-0.002 0-0.003v0-2.381c0-0.506 0.406-0.913 0.912-0.913s0.912 0.406 0.912 0.913v2.381c0 0.001 0 0.002 0 0.003 0 0.503-0.407 0.91-0.91 0.91-0.001 0-0.001 0-0.002 0h0zM31.344 12.338c0.382-0.114 0.656-0.463 0.656-0.875v-3.588c0-2.412-1.887-4.375-4.212-4.375h-23.575c-2.325 0-4.213 1.963-4.213 4.375v3.588c0 0.406 0.269 0.762 0.656 0.875 0.746 0.225 1.363 0.686 1.781 1.295l0.007 0.011c0.456 0.662 0.7 1.475 0.7 2.356s-0.244 1.694-0.7 2.356c-0.424 0.621-1.042 1.082-1.765 1.3l-0.023 0.006c-0.382 0.114-0.656 0.462-0.656 0.875 0 0 0 0 0 0v-0 3.587c0 2.413 1.887 4.375 4.213 4.375h23.581c2.319 0 4.212-1.962 4.212-4.375v-3.587c-0-0.412-0.274-0.761-0.65-0.873l-0.006-0.002c-0.745-0.227-1.362-0.687-1.781-1.295l-0.007-0.011c-0.456-0.663-0.7-1.475-0.7-2.356s0.244-1.694 0.7-2.356c0.422-0.62 1.037-1.081 1.758-1.3l0.023-0.006zM28.056 19.394c0.55 0.794 1.275 1.4 2.119 1.781v2.95c0 1.406-1.069 2.544-2.387 2.544h-17.1c0.067-0.123 0.106-0.269 0.106-0.425v-1.188c0-0.506-0.406-0.913-0.912-0.913s-0.912 0.406-0.912 0.913v1.188c0 0.156 0.037 0.3 0.106 0.425h-4.862c-1.313 0-2.388-1.144-2.388-2.544v-2.956c0.872-0.399 1.59-1.008 2.108-1.764l0.011-0.017c0.669-0.962 1.025-2.137 1.025-3.387s-0.356-2.425-1.025-3.394c-0.532-0.771-1.248-1.379-2.087-1.768l-0.032-0.013v-2.95c0-1.406 1.069-2.544 2.388-2.544h4.756v2.356c0 0.506 0.406 0.913 0.912 0.913s0.912-0.406 0.912-0.912v-2.362h17c1.313 0 2.387 1.144 2.387 2.544v2.956c-0.872 0.399-1.59 1.008-2.108 1.764l-0.011 0.017c-0.669 0.969-1.019 2.137-1.019 3.394-0.012 1.25 0.344 2.425 1.012 3.394z"></path>
</svg>
