<!-- Generated by IcoMoon.io -->
<svg version="1.1" xmlns="http://www.w3.org/2000/svg" width="32" height="32" viewBox="0 0 32 32">
<title>z-new</title>
<path d="M25.968 1.119c0.308 0 0.559 0.251 0.559 0.559v24.471c-0 0.243-0.155 0.45-0.372 0.527l-0.004 0.001-10.151-4.744-10.151 4.744c-0.221-0.078-0.376-0.285-0.376-0.528v0-24.471c0-0.308 0.251-0.559 0.559-0.559h19.937M25.968 0.001h-19.937c-0.926 0-1.677 0.751-1.677 1.677v24.471c0 0.926 0.751 1.677 1.677 1.677l9.968-4.658 9.968 4.658c0.926 0 1.677-0.751 1.677-1.677v-24.471c0-0.926-0.751-1.677-1.677-1.677zM20.311 17.99c0 0-0 0-0 0-0.095 0-0.185-0.024-0.263-0.066l0.003 0.001-4.051-2.13-4.051 2.13c-0.076 0.041-0.165 0.065-0.261 0.065-0.308 0-0.558-0.25-0.558-0.558 0-0.034 0.003-0.067 0.009-0.099l-0.001 0.003 0.774-4.511-3.277-3.195c-0.103-0.102-0.167-0.243-0.167-0.399 0-0.28 0.206-0.512 0.474-0.554l0.003-0 4.529-0.658 2.026-4.104c0.094-0.186 0.283-0.311 0.501-0.311s0.407 0.125 0.5 0.308l0.001 0.003 2.026 4.104 4.529 0.658c0.273 0.040 0.479 0.272 0.479 0.553 0 0.157-0.065 0.299-0.169 0.401l-0 0-3.277 3.195 0.774 4.511c0.005 0.028 0.008 0.061 0.008 0.094 0 0.309-0.25 0.559-0.559 0.559h-0zM16 14.605c0.089 0 0.179 0.021 0.26 0.064l3.309 1.739-0.632-3.684c-0.005-0.028-0.008-0.061-0.008-0.094 0-0.157 0.065-0.299 0.169-0.4l0-0 2.676-2.609-3.699-0.538c-0.186-0.027-0.34-0.143-0.419-0.303l-0.001-0.003-1.655-3.352-1.655 3.352c-0.081 0.162-0.235 0.278-0.417 0.306l-0.003 0-3.699 0.538 2.676 2.609c0.104 0.102 0.169 0.243 0.169 0.4 0 0.033-0.003 0.066-0.008 0.097l0.001-0.003-0.632 3.684 3.309-1.739c0.075-0.040 0.165-0.064 0.26-0.064 0 0 0 0 0 0v0zM16.573 20c0 0.309-0.25 0.559-0.559 0.559v0h-4.002c-0.309 0-0.559-0.25-0.559-0.559s0.25-0.559 0.559-0.559h4.002c0.309 0 0.559 0.251 0.559 0.559zM20.548 20c0 0.309-0.25 0.559-0.559 0.559v0h-1.491c-0.309 0-0.559-0.25-0.559-0.559s0.25-0.559 0.559-0.559h1.491c0.309 0 0.559 0.251 0.559 0.559z"></path>
</svg>
